<?xml version="1.0" encoding="utf-8" standalone="no"?>
<!DOCTYPE svg PUBLIC "-//W3C//DTD SVG 1.1//EN"
  "http://www.w3.org/Graphics/SVG/1.1/DTD/svg11.dtd">
<svg xmlns:xlink="http://www.w3.org/1999/xlink" width="540pt" height="360pt" viewBox="0 0 540 360" xmlns="http://www.w3.org/2000/svg" version="1.1">
 <metadata>
  <rdf:RDF xmlns:dc="http://purl.org/dc/elements/1.1/" xmlns:cc="http://creativecommons.org/ns#" xmlns:rdf="http://www.w3.org/1999/02/22-rdf-syntax-ns#">
   <cc:Work>
    <dc:type rdf:resource="http://purl.org/dc/dcmitype/StillImage"/>
    <dc:date>2025-05-27T18:55:36.652069</dc:date>
    <dc:format>image/svg+xml</dc:format>
    <dc:creator>
     <cc:Agent>
      <dc:title>Matplotlib v3.5.3, https://matplotlib.org/</dc:title>
     </cc:Agent>
    </dc:creator>
   </cc:Work>
  </rdf:RDF>
 </metadata>
 <defs>
  <style type="text/css">*{stroke-linejoin: round; stroke-linecap: butt}</style>
 </defs>
 <g id="figure_1">
  <g id="patch_1">
   <path d="M 0 360 
L 540 360 
L 540 0 
L 0 0 
z
" style="fill: #ffffff"/>
  </g>
  <g id="axes_1">
   <g id="patch_2">
    <path d="M 86.69 297.88 
L 529.2 297.88 
L 529.2 10.8 
L 86.69 10.8 
z
" style="fill: #ffffff"/>
   </g>
   <g id="patch_3">
    <path d="M 106.804091 297.88 
L 113.739984 297.88 
L 113.739984 67.389626 
L 106.804091 67.389626 
z
" clip-path="url(#pe08b4c9e20)" style="fill: #1f77b4"/>
   </g>
   <g id="patch_4">
    <path d="M 176.163025 297.88 
L 183.098918 297.88 
L 183.098918 62.241275 
L 176.163025 62.241275 
z
" clip-path="url(#pe08b4c9e20)" style="fill: #1f77b4"/>
   </g>
   <g id="patch_5">
    <path d="M 245.521959 297.88 
L 252.457853 297.88 
L 252.457853 56.122222 
L 245.521959 56.122222 
z
" clip-path="url(#pe08b4c9e20)" style="fill: #1f77b4"/>
   </g>
   <g id="patch_6">
    <path d="M 314.880893 297.88 
L 321.816787 297.88 
L 321.816787 52.699141 
L 314.880893 52.699141 
z
" clip-path="url(#pe08b4c9e20)" style="fill: #1f77b4"/>
   </g>
   <g id="patch_7">
    <path d="M 384.239828 297.88 
L 391.175721 297.88 
L 391.175721 50.987113 
L 384.239828 50.987113 
z
" clip-path="url(#pe08b4c9e20)" style="fill: #1f77b4"/>
   </g>
   <g id="patch_8">
    <path d="M 453.598762 297.88 
L 460.534655 297.88 
L 460.534655 49.579866 
L 453.598762 49.579866 
z
" clip-path="url(#pe08b4c9e20)" style="fill: #1f77b4"/>
   </g>
   <g id="patch_9">
    <path d="M 113.739984 297.88 
L 120.675878 297.88 
L 120.675878 64.211126 
L 113.739984 64.211126 
z
" clip-path="url(#pe08b4c9e20)" style="fill: #ff7f0e"/>
   </g>
   <g id="patch_10">
    <path d="M 183.098918 297.88 
L 190.034812 297.88 
L 190.034812 58.811613 
L 183.098918 58.811613 
z
" clip-path="url(#pe08b4c9e20)" style="fill: #ff7f0e"/>
   </g>
   <g id="patch_11">
    <path d="M 252.457853 297.88 
L 259.393746 297.88 
L 259.393746 51.962553 
L 252.457853 51.962553 
z
" clip-path="url(#pe08b4c9e20)" style="fill: #ff7f0e"/>
   </g>
   <g id="patch_12">
    <path d="M 321.816787 297.88 
L 328.75268 297.88 
L 328.75268 49.400682 
L 321.816787 49.400682 
z
" clip-path="url(#pe08b4c9e20)" style="fill: #ff7f0e"/>
   </g>
   <g id="patch_13">
    <path d="M 391.175721 297.88 
L 398.111614 297.88 
L 398.111614 47.675104 
L 391.175721 47.675104 
z
" clip-path="url(#pe08b4c9e20)" style="fill: #ff7f0e"/>
   </g>
   <g id="patch_14">
    <path d="M 460.534655 297.88 
L 467.470549 297.88 
L 467.470549 45.546282 
L 460.534655 45.546282 
z
" clip-path="url(#pe08b4c9e20)" style="fill: #ff7f0e"/>
   </g>
   <g id="patch_15">
    <path d="M 120.675878 297.88 
L 127.611771 297.88 
L 127.611771 61.86761 
L 120.675878 61.86761 
z
" clip-path="url(#pe08b4c9e20)" style="fill: #2ca02c"/>
   </g>
   <g id="patch_16">
    <path d="M 190.034812 297.88 
L 196.970705 297.88 
L 196.970705 53.900532 
L 190.034812 53.900532 
z
" clip-path="url(#pe08b4c9e20)" style="fill: #2ca02c"/>
   </g>
   <g id="patch_17">
    <path d="M 259.393746 297.88 
L 266.329639 297.88 
L 266.329639 50.462862 
L 259.393746 50.462862 
z
" clip-path="url(#pe08b4c9e20)" style="fill: #2ca02c"/>
   </g>
   <g id="patch_18">
    <path d="M 328.75268 297.88 
L 335.688574 297.88 
L 335.688574 45.975991 
L 328.75268 45.975991 
z
" clip-path="url(#pe08b4c9e20)" style="fill: #2ca02c"/>
   </g>
   <g id="patch_19">
    <path d="M 398.111614 297.88 
L 405.047508 297.88 
L 405.047508 45.896331 
L 398.111614 45.896331 
z
" clip-path="url(#pe08b4c9e20)" style="fill: #2ca02c"/>
   </g>
   <g id="patch_20">
    <path d="M 467.470549 297.88 
L 474.406442 297.88 
L 474.406442 43.569743 
L 467.470549 43.569743 
z
" clip-path="url(#pe08b4c9e20)" style="fill: #2ca02c"/>
   </g>
   <g id="patch_21">
    <path d="M 127.611771 297.88 
L 134.547665 297.88 
L 134.547665 57.931203 
L 127.611771 57.931203 
z
" clip-path="url(#pe08b4c9e20)" style="fill: #d62728"/>
   </g>
   <g id="patch_22">
    <path d="M 196.970705 297.88 
L 203.906599 297.88 
L 203.906599 56.135973 
L 196.970705 56.135973 
z
" clip-path="url(#pe08b4c9e20)" style="fill: #d62728"/>
   </g>
   <g id="patch_23">
    <path d="M 266.329639 297.88 
L 273.265533 297.88 
L 273.265533 48.563667 
L 266.329639 48.563667 
z
" clip-path="url(#pe08b4c9e20)" style="fill: #d62728"/>
   </g>
   <g id="patch_24">
    <path d="M 335.688574 297.88 
L 342.624467 297.88 
L 342.624467 45.1305 
L 335.688574 45.1305 
z
" clip-path="url(#pe08b4c9e20)" style="fill: #d62728"/>
   </g>
   <g id="patch_25">
    <path d="M 405.047508 297.88 
L 411.983401 297.88 
L 411.983401 45.618872 
L 405.047508 45.618872 
z
" clip-path="url(#pe08b4c9e20)" style="fill: #d62728"/>
   </g>
   <g id="patch_26">
    <path d="M 474.406442 297.88 
L 481.342335 297.88 
L 481.342335 42.193997 
L 474.406442 42.193997 
z
" clip-path="url(#pe08b4c9e20)" style="fill: #d62728"/>
   </g>
   <g id="patch_27">
    <path d="M 134.547665 297.88 
L 141.483558 297.88 
L 141.483558 42.717013 
L 134.547665 42.717013 
z
" clip-path="url(#pe08b4c9e20)" style="fill: #9467bd"/>
   </g>
   <g id="patch_28">
    <path d="M 203.906599 297.88 
L 210.842492 297.88 
L 210.842492 41.956827 
L 203.906599 41.956827 
z
" clip-path="url(#pe08b4c9e20)" style="fill: #9467bd"/>
   </g>
   <g id="patch_29">
    <path d="M 273.265533 297.88 
L 280.201426 297.88 
L 280.201426 40.284117 
L 273.265533 40.284117 
z
" clip-path="url(#pe08b4c9e20)" style="fill: #9467bd"/>
   </g>
   <g id="patch_30">
    <path d="M 342.624467 297.88 
L 349.560361 297.88 
L 349.560361 39.356624 
L 342.624467 39.356624 
z
" clip-path="url(#pe08b4c9e20)" style="fill: #9467bd"/>
   </g>
   <g id="patch_31">
    <path d="M 411.983401 297.88 
L 418.919295 297.88 
L 418.919295 38.677718 
L 411.983401 38.677718 
z
" clip-path="url(#pe08b4c9e20)" style="fill: #9467bd"/>
   </g>
   <g id="patch_32">
    <path d="M 481.342335 297.88 
L 488.278229 297.88 
L 488.278229 37.876717 
L 481.342335 37.876717 
z
" clip-path="url(#pe08b4c9e20)" style="fill: #9467bd"/>
   </g>
   <g id="patch_33">
    <path d="M 141.483558 297.88 
L 148.419451 297.88 
L 148.419451 42.191968 
L 141.483558 42.191968 
z
" clip-path="url(#pe08b4c9e20)" style="fill: #8c564b"/>
   </g>
   <g id="patch_34">
    <path d="M 210.842492 297.88 
L 217.778386 297.88 
L 217.778386 40.6535 
L 210.842492 40.6535 
z
" clip-path="url(#pe08b4c9e20)" style="fill: #8c564b"/>
   </g>
   <g id="patch_35">
    <path d="M 280.201426 297.88 
L 287.13732 297.88 
L 287.13732 38.357589 
L 280.201426 38.357589 
z
" clip-path="url(#pe08b4c9e20)" style="fill: #8c564b"/>
   </g>
   <g id="patch_36">
    <path d="M 349.560361 297.88 
L 356.496254 297.88 
L 356.496254 36.971533 
L 349.560361 36.971533 
z
" clip-path="url(#pe08b4c9e20)" style="fill: #8c564b"/>
   </g>
   <g id="patch_37">
    <path d="M 418.919295 297.88 
L 425.855188 297.88 
L 425.855188 36.226901 
L 418.919295 36.226901 
z
" clip-path="url(#pe08b4c9e20)" style="fill: #8c564b"/>
   </g>
   <g id="patch_38">
    <path d="M 488.278229 297.88 
L 495.214122 297.88 
L 495.214122 35.964865 
L 488.278229 35.964865 
z
" clip-path="url(#pe08b4c9e20)" style="fill: #8c564b"/>
   </g>
   <g id="patch_39">
    <path d="M 148.419451 297.88 
L 155.355345 297.88 
L 155.355345 40.787562 
L 148.419451 40.787562 
z
" clip-path="url(#pe08b4c9e20)" style="fill: #e377c2"/>
   </g>
   <g id="patch_40">
    <path d="M 217.778386 297.88 
L 224.714279 297.88 
L 224.714279 41.204204 
L 217.778386 41.204204 
z
" clip-path="url(#pe08b4c9e20)" style="fill: #e377c2"/>
   </g>
   <g id="patch_41">
    <path d="M 287.13732 297.88 
L 294.073213 297.88 
L 294.073213 40.178417 
L 287.13732 40.178417 
z
" clip-path="url(#pe08b4c9e20)" style="fill: #e377c2"/>
   </g>
   <g id="patch_42">
    <path d="M 356.496254 297.88 
L 363.432147 297.88 
L 363.432147 39.657614 
L 356.496254 39.657614 
z
" clip-path="url(#pe08b4c9e20)" style="fill: #e377c2"/>
   </g>
   <g id="patch_43">
    <path d="M 425.855188 297.88 
L 432.791082 297.88 
L 432.791082 39.582064 
L 425.855188 39.582064 
z
" clip-path="url(#pe08b4c9e20)" style="fill: #e377c2"/>
   </g>
   <g id="patch_44">
    <path d="M 495.214122 297.88 
L 502.150016 297.88 
L 502.150016 39.249826 
L 495.214122 39.249826 
z
" clip-path="url(#pe08b4c9e20)" style="fill: #e377c2"/>
   </g>
   <g id="patch_45">
    <path d="M 155.355345 297.88 
L 162.291238 297.88 
L 162.291238 24.470476 
L 155.355345 24.470476 
z
" clip-path="url(#pe08b4c9e20)" style="fill: #7f7f7f"/>
   </g>
   <g id="patch_46">
    <path d="M 224.714279 297.88 
L 231.650172 297.88 
L 231.650172 24.470476 
L 224.714279 24.470476 
z
" clip-path="url(#pe08b4c9e20)" style="fill: #7f7f7f"/>
   </g>
   <g id="patch_47">
    <path d="M 294.073213 297.88 
L 301.009107 297.88 
L 301.009107 24.470476 
L 294.073213 24.470476 
z
" clip-path="url(#pe08b4c9e20)" style="fill: #7f7f7f"/>
   </g>
   <g id="patch_48">
    <path d="M 363.432147 297.88 
L 370.368041 297.88 
L 370.368041 24.470476 
L 363.432147 24.470476 
z
" clip-path="url(#pe08b4c9e20)" style="fill: #7f7f7f"/>
   </g>
   <g id="patch_49">
    <path d="M 432.791082 297.88 
L 439.726975 297.88 
L 439.726975 24.470476 
L 432.791082 24.470476 
z
" clip-path="url(#pe08b4c9e20)" style="fill: #7f7f7f"/>
   </g>
   <g id="patch_50">
    <path d="M 502.150016 297.88 
L 509.085909 297.88 
L 509.085909 24.470476 
L 502.150016 24.470476 
z
" clip-path="url(#pe08b4c9e20)" style="fill: #7f7f7f"/>
   </g>
   <g id="matplotlib.axis_1">
    <g id="xtick_1">
     <g id="line2d_1">
      <defs>
       <path id="m087645dd54" d="M 0 0 
L 0 3.5 
" style="stroke: #000000; stroke-width: 0.8"/>
      </defs>
      <g>
       <use xlink:href="#m087645dd54" x="134.547665" y="297.88" style="stroke: #000000; stroke-width: 0.8"/>
      </g>
     </g>
     <g id="text_1">
      <!-- 0.05 -->
      <g transform="translate(112.28204 320.076875)scale(0.2 -0.2)">
       <defs>
        <path id="DejaVuSans-30" d="M 2034 4250 
Q 1547 4250 1301 3770 
Q 1056 3291 1056 2328 
Q 1056 1369 1301 889 
Q 1547 409 2034 409 
Q 2525 409 2770 889 
Q 3016 1369 3016 2328 
Q 3016 3291 2770 3770 
Q 2525 4250 2034 4250 
z
M 2034 4750 
Q 2819 4750 3233 4129 
Q 3647 3509 3647 2328 
Q 3647 1150 3233 529 
Q 2819 -91 2034 -91 
Q 1250 -91 836 529 
Q 422 1150 422 2328 
Q 422 3509 836 4129 
Q 1250 4750 2034 4750 
z
" transform="scale(0.015625)"/>
        <path id="DejaVuSans-2e" d="M 684 794 
L 1344 794 
L 1344 0 
L 684 0 
L 684 794 
z
" transform="scale(0.015625)"/>
        <path id="DejaVuSans-35" d="M 691 4666 
L 3169 4666 
L 3169 4134 
L 1269 4134 
L 1269 2991 
Q 1406 3038 1543 3061 
Q 1681 3084 1819 3084 
Q 2600 3084 3056 2656 
Q 3513 2228 3513 1497 
Q 3513 744 3044 326 
Q 2575 -91 1722 -91 
Q 1428 -91 1123 -41 
Q 819 9 494 109 
L 494 744 
Q 775 591 1075 516 
Q 1375 441 1709 441 
Q 2250 441 2565 725 
Q 2881 1009 2881 1497 
Q 2881 1984 2565 2268 
Q 2250 2553 1709 2553 
Q 1456 2553 1204 2497 
Q 953 2441 691 2322 
L 691 4666 
z
" transform="scale(0.015625)"/>
       </defs>
       <use xlink:href="#DejaVuSans-30"/>
       <use xlink:href="#DejaVuSans-2e" x="63.623047"/>
       <use xlink:href="#DejaVuSans-30" x="95.410156"/>
       <use xlink:href="#DejaVuSans-35" x="159.033203"/>
      </g>
     </g>
    </g>
    <g id="xtick_2">
     <g id="line2d_2">
      <g>
       <use xlink:href="#m087645dd54" x="203.906599" y="297.88" style="stroke: #000000; stroke-width: 0.8"/>
      </g>
     </g>
     <g id="text_2">
      <!-- 0.1 -->
      <g transform="translate(188.003474 320.076875)scale(0.2 -0.2)">
       <defs>
        <path id="DejaVuSans-31" d="M 794 531 
L 1825 531 
L 1825 4091 
L 703 3866 
L 703 4441 
L 1819 4666 
L 2450 4666 
L 2450 531 
L 3481 531 
L 3481 0 
L 794 0 
L 794 531 
z
" transform="scale(0.015625)"/>
       </defs>
       <use xlink:href="#DejaVuSans-30"/>
       <use xlink:href="#DejaVuSans-2e" x="63.623047"/>
       <use xlink:href="#DejaVuSans-31" x="95.410156"/>
      </g>
     </g>
    </g>
    <g id="xtick_3">
     <g id="line2d_3">
      <g>
       <use xlink:href="#m087645dd54" x="273.265533" y="297.88" style="stroke: #000000; stroke-width: 0.8"/>
      </g>
     </g>
     <g id="text_3">
      <!-- 0.2 -->
      <g transform="translate(257.362408 320.076875)scale(0.2 -0.2)">
       <defs>
        <path id="DejaVuSans-32" d="M 1228 531 
L 3431 531 
L 3431 0 
L 469 0 
L 469 531 
Q 828 903 1448 1529 
Q 2069 2156 2228 2338 
Q 2531 2678 2651 2914 
Q 2772 3150 2772 3378 
Q 2772 3750 2511 3984 
Q 2250 4219 1831 4219 
Q 1534 4219 1204 4116 
Q 875 4013 500 3803 
L 500 4441 
Q 881 4594 1212 4672 
Q 1544 4750 1819 4750 
Q 2544 4750 2975 4387 
Q 3406 4025 3406 3419 
Q 3406 3131 3298 2873 
Q 3191 2616 2906 2266 
Q 2828 2175 2409 1742 
Q 1991 1309 1228 531 
z
" transform="scale(0.015625)"/>
       </defs>
       <use xlink:href="#DejaVuSans-30"/>
       <use xlink:href="#DejaVuSans-2e" x="63.623047"/>
       <use xlink:href="#DejaVuSans-32" x="95.410156"/>
      </g>
     </g>
    </g>
    <g id="xtick_4">
     <g id="line2d_4">
      <g>
       <use xlink:href="#m087645dd54" x="342.624467" y="297.88" style="stroke: #000000; stroke-width: 0.8"/>
      </g>
     </g>
     <g id="text_4">
      <!-- 0.3 -->
      <g transform="translate(326.721342 320.076875)scale(0.2 -0.2)">
       <defs>
        <path id="DejaVuSans-33" d="M 2597 2516 
Q 3050 2419 3304 2112 
Q 3559 1806 3559 1356 
Q 3559 666 3084 287 
Q 2609 -91 1734 -91 
Q 1441 -91 1130 -33 
Q 819 25 488 141 
L 488 750 
Q 750 597 1062 519 
Q 1375 441 1716 441 
Q 2309 441 2620 675 
Q 2931 909 2931 1356 
Q 2931 1769 2642 2001 
Q 2353 2234 1838 2234 
L 1294 2234 
L 1294 2753 
L 1863 2753 
Q 2328 2753 2575 2939 
Q 2822 3125 2822 3475 
Q 2822 3834 2567 4026 
Q 2313 4219 1838 4219 
Q 1578 4219 1281 4162 
Q 984 4106 628 3988 
L 628 4550 
Q 988 4650 1302 4700 
Q 1616 4750 1894 4750 
Q 2613 4750 3031 4423 
Q 3450 4097 3450 3541 
Q 3450 3153 3228 2886 
Q 3006 2619 2597 2516 
z
" transform="scale(0.015625)"/>
       </defs>
       <use xlink:href="#DejaVuSans-30"/>
       <use xlink:href="#DejaVuSans-2e" x="63.623047"/>
       <use xlink:href="#DejaVuSans-33" x="95.410156"/>
      </g>
     </g>
    </g>
    <g id="xtick_5">
     <g id="line2d_5">
      <g>
       <use xlink:href="#m087645dd54" x="411.983401" y="297.88" style="stroke: #000000; stroke-width: 0.8"/>
      </g>
     </g>
     <g id="text_5">
      <!-- 0.4 -->
      <g transform="translate(396.080276 320.076875)scale(0.2 -0.2)">
       <defs>
        <path id="DejaVuSans-34" d="M 2419 4116 
L 825 1625 
L 2419 1625 
L 2419 4116 
z
M 2253 4666 
L 3047 4666 
L 3047 1625 
L 3713 1625 
L 3713 1100 
L 3047 1100 
L 3047 0 
L 2419 0 
L 2419 1100 
L 313 1100 
L 313 1709 
L 2253 4666 
z
" transform="scale(0.015625)"/>
       </defs>
       <use xlink:href="#DejaVuSans-30"/>
       <use xlink:href="#DejaVuSans-2e" x="63.623047"/>
       <use xlink:href="#DejaVuSans-34" x="95.410156"/>
      </g>
     </g>
    </g>
    <g id="xtick_6">
     <g id="line2d_6">
      <g>
       <use xlink:href="#m087645dd54" x="481.342335" y="297.88" style="stroke: #000000; stroke-width: 0.8"/>
      </g>
     </g>
     <g id="text_6">
      <!-- 0.5 -->
      <g transform="translate(465.43921 320.076875)scale(0.2 -0.2)">
       <use xlink:href="#DejaVuSans-30"/>
       <use xlink:href="#DejaVuSans-2e" x="63.623047"/>
       <use xlink:href="#DejaVuSans-35" x="95.410156"/>
      </g>
     </g>
    </g>
    <g id="text_7">
     <!-- Attack Success Rate -->
     <g transform="translate(206.485625 343.433125)scale(0.2 -0.2)">
      <defs>
       <path id="DejaVuSans-41" d="M 2188 4044 
L 1331 1722 
L 3047 1722 
L 2188 4044 
z
M 1831 4666 
L 2547 4666 
L 4325 0 
L 3669 0 
L 3244 1197 
L 1141 1197 
L 716 0 
L 50 0 
L 1831 4666 
z
" transform="scale(0.015625)"/>
       <path id="DejaVuSans-74" d="M 1172 4494 
L 1172 3500 
L 2356 3500 
L 2356 3053 
L 1172 3053 
L 1172 1153 
Q 1172 725 1289 603 
Q 1406 481 1766 481 
L 2356 481 
L 2356 0 
L 1766 0 
Q 1100 0 847 248 
Q 594 497 594 1153 
L 594 3053 
L 172 3053 
L 172 3500 
L 594 3500 
L 594 4494 
L 1172 4494 
z
" transform="scale(0.015625)"/>
       <path id="DejaVuSans-61" d="M 2194 1759 
Q 1497 1759 1228 1600 
Q 959 1441 959 1056 
Q 959 750 1161 570 
Q 1363 391 1709 391 
Q 2188 391 2477 730 
Q 2766 1069 2766 1631 
L 2766 1759 
L 2194 1759 
z
M 3341 1997 
L 3341 0 
L 2766 0 
L 2766 531 
Q 2569 213 2275 61 
Q 1981 -91 1556 -91 
Q 1019 -91 701 211 
Q 384 513 384 1019 
Q 384 1609 779 1909 
Q 1175 2209 1959 2209 
L 2766 2209 
L 2766 2266 
Q 2766 2663 2505 2880 
Q 2244 3097 1772 3097 
Q 1472 3097 1187 3025 
Q 903 2953 641 2809 
L 641 3341 
Q 956 3463 1253 3523 
Q 1550 3584 1831 3584 
Q 2591 3584 2966 3190 
Q 3341 2797 3341 1997 
z
" transform="scale(0.015625)"/>
       <path id="DejaVuSans-63" d="M 3122 3366 
L 3122 2828 
Q 2878 2963 2633 3030 
Q 2388 3097 2138 3097 
Q 1578 3097 1268 2742 
Q 959 2388 959 1747 
Q 959 1106 1268 751 
Q 1578 397 2138 397 
Q 2388 397 2633 464 
Q 2878 531 3122 666 
L 3122 134 
Q 2881 22 2623 -34 
Q 2366 -91 2075 -91 
Q 1284 -91 818 406 
Q 353 903 353 1747 
Q 353 2603 823 3093 
Q 1294 3584 2113 3584 
Q 2378 3584 2631 3529 
Q 2884 3475 3122 3366 
z
" transform="scale(0.015625)"/>
       <path id="DejaVuSans-6b" d="M 581 4863 
L 1159 4863 
L 1159 1991 
L 2875 3500 
L 3609 3500 
L 1753 1863 
L 3688 0 
L 2938 0 
L 1159 1709 
L 1159 0 
L 581 0 
L 581 4863 
z
" transform="scale(0.015625)"/>
       <path id="DejaVuSans-20" transform="scale(0.015625)"/>
       <path id="DejaVuSans-53" d="M 3425 4513 
L 3425 3897 
Q 3066 4069 2747 4153 
Q 2428 4238 2131 4238 
Q 1616 4238 1336 4038 
Q 1056 3838 1056 3469 
Q 1056 3159 1242 3001 
Q 1428 2844 1947 2747 
L 2328 2669 
Q 3034 2534 3370 2195 
Q 3706 1856 3706 1288 
Q 3706 609 3251 259 
Q 2797 -91 1919 -91 
Q 1588 -91 1214 -16 
Q 841 59 441 206 
L 441 856 
Q 825 641 1194 531 
Q 1563 422 1919 422 
Q 2459 422 2753 634 
Q 3047 847 3047 1241 
Q 3047 1584 2836 1778 
Q 2625 1972 2144 2069 
L 1759 2144 
Q 1053 2284 737 2584 
Q 422 2884 422 3419 
Q 422 4038 858 4394 
Q 1294 4750 2059 4750 
Q 2388 4750 2728 4690 
Q 3069 4631 3425 4513 
z
" transform="scale(0.015625)"/>
       <path id="DejaVuSans-75" d="M 544 1381 
L 544 3500 
L 1119 3500 
L 1119 1403 
Q 1119 906 1312 657 
Q 1506 409 1894 409 
Q 2359 409 2629 706 
Q 2900 1003 2900 1516 
L 2900 3500 
L 3475 3500 
L 3475 0 
L 2900 0 
L 2900 538 
Q 2691 219 2414 64 
Q 2138 -91 1772 -91 
Q 1169 -91 856 284 
Q 544 659 544 1381 
z
M 1991 3584 
L 1991 3584 
z
" transform="scale(0.015625)"/>
       <path id="DejaVuSans-65" d="M 3597 1894 
L 3597 1613 
L 953 1613 
Q 991 1019 1311 708 
Q 1631 397 2203 397 
Q 2534 397 2845 478 
Q 3156 559 3463 722 
L 3463 178 
Q 3153 47 2828 -22 
Q 2503 -91 2169 -91 
Q 1331 -91 842 396 
Q 353 884 353 1716 
Q 353 2575 817 3079 
Q 1281 3584 2069 3584 
Q 2775 3584 3186 3129 
Q 3597 2675 3597 1894 
z
M 3022 2063 
Q 3016 2534 2758 2815 
Q 2500 3097 2075 3097 
Q 1594 3097 1305 2825 
Q 1016 2553 972 2059 
L 3022 2063 
z
" transform="scale(0.015625)"/>
       <path id="DejaVuSans-73" d="M 2834 3397 
L 2834 2853 
Q 2591 2978 2328 3040 
Q 2066 3103 1784 3103 
Q 1356 3103 1142 2972 
Q 928 2841 928 2578 
Q 928 2378 1081 2264 
Q 1234 2150 1697 2047 
L 1894 2003 
Q 2506 1872 2764 1633 
Q 3022 1394 3022 966 
Q 3022 478 2636 193 
Q 2250 -91 1575 -91 
Q 1294 -91 989 -36 
Q 684 19 347 128 
L 347 722 
Q 666 556 975 473 
Q 1284 391 1588 391 
Q 1994 391 2212 530 
Q 2431 669 2431 922 
Q 2431 1156 2273 1281 
Q 2116 1406 1581 1522 
L 1381 1569 
Q 847 1681 609 1914 
Q 372 2147 372 2553 
Q 372 3047 722 3315 
Q 1072 3584 1716 3584 
Q 2034 3584 2315 3537 
Q 2597 3491 2834 3397 
z
" transform="scale(0.015625)"/>
       <path id="DejaVuSans-52" d="M 2841 2188 
Q 3044 2119 3236 1894 
Q 3428 1669 3622 1275 
L 4263 0 
L 3584 0 
L 2988 1197 
Q 2756 1666 2539 1819 
Q 2322 1972 1947 1972 
L 1259 1972 
L 1259 0 
L 628 0 
L 628 4666 
L 2053 4666 
Q 2853 4666 3247 4331 
Q 3641 3997 3641 3322 
Q 3641 2881 3436 2590 
Q 3231 2300 2841 2188 
z
M 1259 4147 
L 1259 2491 
L 2053 2491 
Q 2509 2491 2742 2702 
Q 2975 2913 2975 3322 
Q 2975 3731 2742 3939 
Q 2509 4147 2053 4147 
L 1259 4147 
z
" transform="scale(0.015625)"/>
      </defs>
      <use xlink:href="#DejaVuSans-41"/>
      <use xlink:href="#DejaVuSans-74" x="66.658203"/>
      <use xlink:href="#DejaVuSans-74" x="105.867188"/>
      <use xlink:href="#DejaVuSans-61" x="145.076172"/>
      <use xlink:href="#DejaVuSans-63" x="206.355469"/>
      <use xlink:href="#DejaVuSans-6b" x="261.335938"/>
      <use xlink:href="#DejaVuSans-20" x="319.246094"/>
      <use xlink:href="#DejaVuSans-53" x="351.033203"/>
      <use xlink:href="#DejaVuSans-75" x="414.509766"/>
      <use xlink:href="#DejaVuSans-63" x="477.888672"/>
      <use xlink:href="#DejaVuSans-63" x="532.869141"/>
      <use xlink:href="#DejaVuSans-65" x="587.849609"/>
      <use xlink:href="#DejaVuSans-73" x="649.373047"/>
      <use xlink:href="#DejaVuSans-73" x="701.472656"/>
      <use xlink:href="#DejaVuSans-20" x="753.572266"/>
      <use xlink:href="#DejaVuSans-52" x="785.359375"/>
      <use xlink:href="#DejaVuSans-61" x="852.591797"/>
      <use xlink:href="#DejaVuSans-74" x="913.871094"/>
      <use xlink:href="#DejaVuSans-65" x="953.080078"/>
     </g>
    </g>
   </g>
   <g id="matplotlib.axis_2">
    <g id="ytick_1">
     <g id="line2d_7">
      <defs>
       <path id="me8ab736b38" d="M 0 0 
L -3.5 0 
" style="stroke: #000000; stroke-width: 0.8"/>
      </defs>
      <g>
       <use xlink:href="#me8ab736b38" x="86.69" y="297.88" style="stroke: #000000; stroke-width: 0.8"/>
      </g>
     </g>
     <g id="text_8">
      <!-- 0.00 -->
      <g transform="translate(35.15875 305.478437)scale(0.2 -0.2)">
       <use xlink:href="#DejaVuSans-30"/>
       <use xlink:href="#DejaVuSans-2e" x="63.623047"/>
       <use xlink:href="#DejaVuSans-30" x="95.410156"/>
       <use xlink:href="#DejaVuSans-30" x="159.033203"/>
      </g>
     </g>
    </g>
    <g id="ytick_2">
     <g id="line2d_8">
      <g>
       <use xlink:href="#me8ab736b38" x="86.69" y="243.198095" style="stroke: #000000; stroke-width: 0.8"/>
      </g>
     </g>
     <g id="text_9">
      <!-- 0.02 -->
      <g transform="translate(35.15875 250.796533)scale(0.2 -0.2)">
       <use xlink:href="#DejaVuSans-30"/>
       <use xlink:href="#DejaVuSans-2e" x="63.623047"/>
       <use xlink:href="#DejaVuSans-30" x="95.410156"/>
       <use xlink:href="#DejaVuSans-32" x="159.033203"/>
      </g>
     </g>
    </g>
    <g id="ytick_3">
     <g id="line2d_9">
      <g>
       <use xlink:href="#me8ab736b38" x="86.69" y="188.51619" style="stroke: #000000; stroke-width: 0.8"/>
      </g>
     </g>
     <g id="text_10">
      <!-- 0.04 -->
      <g transform="translate(35.15875 196.114628)scale(0.2 -0.2)">
       <use xlink:href="#DejaVuSans-30"/>
       <use xlink:href="#DejaVuSans-2e" x="63.623047"/>
       <use xlink:href="#DejaVuSans-30" x="95.410156"/>
       <use xlink:href="#DejaVuSans-34" x="159.033203"/>
      </g>
     </g>
    </g>
    <g id="ytick_4">
     <g id="line2d_10">
      <g>
       <use xlink:href="#me8ab736b38" x="86.69" y="133.834286" style="stroke: #000000; stroke-width: 0.8"/>
      </g>
     </g>
     <g id="text_11">
      <!-- 0.06 -->
      <g transform="translate(35.15875 141.432723)scale(0.2 -0.2)">
       <defs>
        <path id="DejaVuSans-36" d="M 2113 2584 
Q 1688 2584 1439 2293 
Q 1191 2003 1191 1497 
Q 1191 994 1439 701 
Q 1688 409 2113 409 
Q 2538 409 2786 701 
Q 3034 994 3034 1497 
Q 3034 2003 2786 2293 
Q 2538 2584 2113 2584 
z
M 3366 4563 
L 3366 3988 
Q 3128 4100 2886 4159 
Q 2644 4219 2406 4219 
Q 1781 4219 1451 3797 
Q 1122 3375 1075 2522 
Q 1259 2794 1537 2939 
Q 1816 3084 2150 3084 
Q 2853 3084 3261 2657 
Q 3669 2231 3669 1497 
Q 3669 778 3244 343 
Q 2819 -91 2113 -91 
Q 1303 -91 875 529 
Q 447 1150 447 2328 
Q 447 3434 972 4092 
Q 1497 4750 2381 4750 
Q 2619 4750 2861 4703 
Q 3103 4656 3366 4563 
z
" transform="scale(0.015625)"/>
       </defs>
       <use xlink:href="#DejaVuSans-30"/>
       <use xlink:href="#DejaVuSans-2e" x="63.623047"/>
       <use xlink:href="#DejaVuSans-30" x="95.410156"/>
       <use xlink:href="#DejaVuSans-36" x="159.033203"/>
      </g>
     </g>
    </g>
    <g id="ytick_5">
     <g id="line2d_11">
      <g>
       <use xlink:href="#me8ab736b38" x="86.69" y="79.152381" style="stroke: #000000; stroke-width: 0.8"/>
      </g>
     </g>
     <g id="text_12">
      <!-- 0.08 -->
      <g transform="translate(35.15875 86.750818)scale(0.2 -0.2)">
       <defs>
        <path id="DejaVuSans-38" d="M 2034 2216 
Q 1584 2216 1326 1975 
Q 1069 1734 1069 1313 
Q 1069 891 1326 650 
Q 1584 409 2034 409 
Q 2484 409 2743 651 
Q 3003 894 3003 1313 
Q 3003 1734 2745 1975 
Q 2488 2216 2034 2216 
z
M 1403 2484 
Q 997 2584 770 2862 
Q 544 3141 544 3541 
Q 544 4100 942 4425 
Q 1341 4750 2034 4750 
Q 2731 4750 3128 4425 
Q 3525 4100 3525 3541 
Q 3525 3141 3298 2862 
Q 3072 2584 2669 2484 
Q 3125 2378 3379 2068 
Q 3634 1759 3634 1313 
Q 3634 634 3220 271 
Q 2806 -91 2034 -91 
Q 1263 -91 848 271 
Q 434 634 434 1313 
Q 434 1759 690 2068 
Q 947 2378 1403 2484 
z
M 1172 3481 
Q 1172 3119 1398 2916 
Q 1625 2713 2034 2713 
Q 2441 2713 2670 2916 
Q 2900 3119 2900 3481 
Q 2900 3844 2670 4047 
Q 2441 4250 2034 4250 
Q 1625 4250 1398 4047 
Q 1172 3844 1172 3481 
z
" transform="scale(0.015625)"/>
       </defs>
       <use xlink:href="#DejaVuSans-30"/>
       <use xlink:href="#DejaVuSans-2e" x="63.623047"/>
       <use xlink:href="#DejaVuSans-30" x="95.410156"/>
       <use xlink:href="#DejaVuSans-38" x="159.033203"/>
      </g>
     </g>
    </g>
    <g id="ytick_6">
     <g id="line2d_12">
      <g>
       <use xlink:href="#me8ab736b38" x="86.69" y="24.470476" style="stroke: #000000; stroke-width: 0.8"/>
      </g>
     </g>
     <g id="text_13">
      <!-- 0.10 -->
      <g transform="translate(35.15875 32.068914)scale(0.2 -0.2)">
       <use xlink:href="#DejaVuSans-30"/>
       <use xlink:href="#DejaVuSans-2e" x="63.623047"/>
       <use xlink:href="#DejaVuSans-31" x="95.410156"/>
       <use xlink:href="#DejaVuSans-30" x="159.033203"/>
      </g>
     </g>
    </g>
    <g id="text_14">
     <!-- FAR -->
     <g transform="translate(26.999375 172.968125)rotate(-90)scale(0.2 -0.2)">
      <defs>
       <path id="DejaVuSans-46" d="M 628 4666 
L 3309 4666 
L 3309 4134 
L 1259 4134 
L 1259 2759 
L 3109 2759 
L 3109 2228 
L 1259 2228 
L 1259 0 
L 628 0 
L 628 4666 
z
" transform="scale(0.015625)"/>
      </defs>
      <use xlink:href="#DejaVuSans-46"/>
      <use xlink:href="#DejaVuSans-41" x="48.394531"/>
      <use xlink:href="#DejaVuSans-52" x="116.802734"/>
     </g>
    </g>
   </g>
   <g id="patch_51">
    <path d="M 86.69 297.88 
L 86.69 10.8 
" style="fill: none; stroke: #000000; stroke-width: 0.8; stroke-linejoin: miter; stroke-linecap: square"/>
   </g>
   <g id="patch_52">
    <path d="M 529.2 297.88 
L 529.2 10.8 
" style="fill: none; stroke: #000000; stroke-width: 0.8; stroke-linejoin: miter; stroke-linecap: square"/>
   </g>
   <g id="patch_53">
    <path d="M 86.69 297.88 
L 529.2 297.88 
" style="fill: none; stroke: #000000; stroke-width: 0.8; stroke-linejoin: miter; stroke-linecap: square"/>
   </g>
   <g id="patch_54">
    <path d="M 86.69 10.8 
L 529.2 10.8 
" style="fill: none; stroke: #000000; stroke-width: 0.8; stroke-linejoin: miter; stroke-linecap: square"/>
   </g>
  </g>
 </g>
 <defs>
  <clipPath id="pe08b4c9e20">
   <rect x="86.69" y="10.8" width="442.51" height="287.08"/>
  </clipPath>
 </defs>
</svg>
