<?xml version="1.0" encoding="utf-8" standalone="no"?>
<!DOCTYPE svg PUBLIC "-//W3C//DTD SVG 1.1//EN"
  "http://www.w3.org/Graphics/SVG/1.1/DTD/svg11.dtd">
<svg xmlns:xlink="http://www.w3.org/1999/xlink" width="540pt" height="360pt" viewBox="0 0 540 360" xmlns="http://www.w3.org/2000/svg" version="1.1">
 <metadata>
  <rdf:RDF xmlns:dc="http://purl.org/dc/elements/1.1/" xmlns:cc="http://creativecommons.org/ns#" xmlns:rdf="http://www.w3.org/1999/02/22-rdf-syntax-ns#">
   <cc:Work>
    <dc:type rdf:resource="http://purl.org/dc/dcmitype/StillImage"/>
    <dc:date>2024-04-24T21:52:41.900632</dc:date>
    <dc:format>image/svg+xml</dc:format>
    <dc:creator>
     <cc:Agent>
      <dc:title>Matplotlib v3.5.3, https://matplotlib.org/</dc:title>
     </cc:Agent>
    </dc:creator>
   </cc:Work>
  </rdf:RDF>
 </metadata>
 <defs>
  <style type="text/css">*{stroke-linejoin: round; stroke-linecap: butt}</style>
 </defs>
 <g id="figure_1">
  <g id="patch_1">
   <path d="M 0 360 
L 540 360 
L 540 0 
L 0 0 
z
" style="fill: #ffffff"/>
  </g>
  <g id="axes_1">
   <g id="patch_2">
    <path d="M 48.26 297.88 
L 519.635455 297.88 
L 519.635455 66.6 
L 48.26 66.6 
z
" style="fill: #ffffff"/>
   </g>
   <g id="matplotlib.axis_1">
    <g id="xtick_1">
     <g id="line2d_1">
      <defs>
       <path id="m69176873cc" d="M 0 0 
L 0 3.5 
" style="stroke: #000000; stroke-width: 0.8"/>
      </defs>
      <g>
       <use xlink:href="#m69176873cc" x="69.686157" y="297.88" style="stroke: #000000; stroke-width: 0.8"/>
      </g>
     </g>
     <g id="text_1">
      <!-- 0 -->
      <g transform="translate(63.323657 320.076875)scale(0.2 -0.2)">
       <defs>
        <path id="DejaVuSans-30" d="M 2034 4250 
Q 1547 4250 1301 3770 
Q 1056 3291 1056 2328 
Q 1056 1369 1301 889 
Q 1547 409 2034 409 
Q 2525 409 2770 889 
Q 3016 1369 3016 2328 
Q 3016 3291 2770 3770 
Q 2525 4250 2034 4250 
z
M 2034 4750 
Q 2819 4750 3233 4129 
Q 3647 3509 3647 2328 
Q 3647 1150 3233 529 
Q 2819 -91 2034 -91 
Q 1250 -91 836 529 
Q 422 1150 422 2328 
Q 422 3509 836 4129 
Q 1250 4750 2034 4750 
z
" transform="scale(0.015625)"/>
       </defs>
       <use xlink:href="#DejaVuSans-30"/>
      </g>
     </g>
    </g>
    <g id="xtick_2">
     <g id="line2d_2">
      <g>
       <use xlink:href="#m69176873cc" x="158.961811" y="297.88" style="stroke: #000000; stroke-width: 0.8"/>
      </g>
     </g>
     <g id="text_2">
      <!-- 10 -->
      <g transform="translate(146.236811 320.076875)scale(0.2 -0.2)">
       <defs>
        <path id="DejaVuSans-31" d="M 794 531 
L 1825 531 
L 1825 4091 
L 703 3866 
L 703 4441 
L 1819 4666 
L 2450 4666 
L 2450 531 
L 3481 531 
L 3481 0 
L 794 0 
L 794 531 
z
" transform="scale(0.015625)"/>
       </defs>
       <use xlink:href="#DejaVuSans-31"/>
       <use xlink:href="#DejaVuSans-30" x="63.623047"/>
      </g>
     </g>
    </g>
    <g id="xtick_3">
     <g id="line2d_3">
      <g>
       <use xlink:href="#m69176873cc" x="248.237466" y="297.88" style="stroke: #000000; stroke-width: 0.8"/>
      </g>
     </g>
     <g id="text_3">
      <!-- 20 -->
      <g transform="translate(235.512466 320.076875)scale(0.2 -0.2)">
       <defs>
        <path id="DejaVuSans-32" d="M 1228 531 
L 3431 531 
L 3431 0 
L 469 0 
L 469 531 
Q 828 903 1448 1529 
Q 2069 2156 2228 2338 
Q 2531 2678 2651 2914 
Q 2772 3150 2772 3378 
Q 2772 3750 2511 3984 
Q 2250 4219 1831 4219 
Q 1534 4219 1204 4116 
Q 875 4013 500 3803 
L 500 4441 
Q 881 4594 1212 4672 
Q 1544 4750 1819 4750 
Q 2544 4750 2975 4387 
Q 3406 4025 3406 3419 
Q 3406 3131 3298 2873 
Q 3191 2616 2906 2266 
Q 2828 2175 2409 1742 
Q 1991 1309 1228 531 
z
" transform="scale(0.015625)"/>
       </defs>
       <use xlink:href="#DejaVuSans-32"/>
       <use xlink:href="#DejaVuSans-30" x="63.623047"/>
      </g>
     </g>
    </g>
    <g id="xtick_4">
     <g id="line2d_4">
      <g>
       <use xlink:href="#m69176873cc" x="337.51312" y="297.88" style="stroke: #000000; stroke-width: 0.8"/>
      </g>
     </g>
     <g id="text_4">
      <!-- 30 -->
      <g transform="translate(324.78812 320.076875)scale(0.2 -0.2)">
       <defs>
        <path id="DejaVuSans-33" d="M 2597 2516 
Q 3050 2419 3304 2112 
Q 3559 1806 3559 1356 
Q 3559 666 3084 287 
Q 2609 -91 1734 -91 
Q 1441 -91 1130 -33 
Q 819 25 488 141 
L 488 750 
Q 750 597 1062 519 
Q 1375 441 1716 441 
Q 2309 441 2620 675 
Q 2931 909 2931 1356 
Q 2931 1769 2642 2001 
Q 2353 2234 1838 2234 
L 1294 2234 
L 1294 2753 
L 1863 2753 
Q 2328 2753 2575 2939 
Q 2822 3125 2822 3475 
Q 2822 3834 2567 4026 
Q 2313 4219 1838 4219 
Q 1578 4219 1281 4162 
Q 984 4106 628 3988 
L 628 4550 
Q 988 4650 1302 4700 
Q 1616 4750 1894 4750 
Q 2613 4750 3031 4423 
Q 3450 4097 3450 3541 
Q 3450 3153 3228 2886 
Q 3006 2619 2597 2516 
z
" transform="scale(0.015625)"/>
       </defs>
       <use xlink:href="#DejaVuSans-33"/>
       <use xlink:href="#DejaVuSans-30" x="63.623047"/>
      </g>
     </g>
    </g>
    <g id="xtick_5">
     <g id="line2d_5">
      <g>
       <use xlink:href="#m69176873cc" x="426.788774" y="297.88" style="stroke: #000000; stroke-width: 0.8"/>
      </g>
     </g>
     <g id="text_5">
      <!-- 40 -->
      <g transform="translate(414.063774 320.076875)scale(0.2 -0.2)">
       <defs>
        <path id="DejaVuSans-34" d="M 2419 4116 
L 825 1625 
L 2419 1625 
L 2419 4116 
z
M 2253 4666 
L 3047 4666 
L 3047 1625 
L 3713 1625 
L 3713 1100 
L 3047 1100 
L 3047 0 
L 2419 0 
L 2419 1100 
L 313 1100 
L 313 1709 
L 2253 4666 
z
" transform="scale(0.015625)"/>
       </defs>
       <use xlink:href="#DejaVuSans-34"/>
       <use xlink:href="#DejaVuSans-30" x="63.623047"/>
      </g>
     </g>
    </g>
    <g id="xtick_6">
     <g id="line2d_6">
      <g>
       <use xlink:href="#m69176873cc" x="516.064428" y="297.88" style="stroke: #000000; stroke-width: 0.8"/>
      </g>
     </g>
     <g id="text_6">
      <!-- 50 -->
      <g transform="translate(503.339428 320.076875)scale(0.2 -0.2)">
       <defs>
        <path id="DejaVuSans-35" d="M 691 4666 
L 3169 4666 
L 3169 4134 
L 1269 4134 
L 1269 2991 
Q 1406 3038 1543 3061 
Q 1681 3084 1819 3084 
Q 2600 3084 3056 2656 
Q 3513 2228 3513 1497 
Q 3513 744 3044 326 
Q 2575 -91 1722 -91 
Q 1428 -91 1123 -41 
Q 819 9 494 109 
L 494 744 
Q 775 591 1075 516 
Q 1375 441 1709 441 
Q 2250 441 2565 725 
Q 2881 1009 2881 1497 
Q 2881 1984 2565 2268 
Q 2250 2553 1709 2553 
Q 1456 2553 1204 2497 
Q 953 2441 691 2322 
L 691 4666 
z
" transform="scale(0.015625)"/>
       </defs>
       <use xlink:href="#DejaVuSans-35"/>
       <use xlink:href="#DejaVuSans-30" x="63.623047"/>
      </g>
     </g>
    </g>
    <g id="text_7">
     <!-- # of games -->
     <g transform="translate(225.99304 343.433125)scale(0.2 -0.2)">
      <defs>
       <path id="DejaVuSans-23" d="M 3272 2816 
L 2363 2816 
L 2100 1772 
L 3016 1772 
L 3272 2816 
z
M 2803 4594 
L 2478 3297 
L 3391 3297 
L 3719 4594 
L 4219 4594 
L 3897 3297 
L 4872 3297 
L 4872 2816 
L 3775 2816 
L 3519 1772 
L 4513 1772 
L 4513 1294 
L 3397 1294 
L 3072 0 
L 2572 0 
L 2894 1294 
L 1978 1294 
L 1656 0 
L 1153 0 
L 1478 1294 
L 494 1294 
L 494 1772 
L 1594 1772 
L 1856 2816 
L 850 2816 
L 850 3297 
L 1978 3297 
L 2297 4594 
L 2803 4594 
z
" transform="scale(0.015625)"/>
       <path id="DejaVuSans-20" transform="scale(0.015625)"/>
       <path id="DejaVuSans-6f" d="M 1959 3097 
Q 1497 3097 1228 2736 
Q 959 2375 959 1747 
Q 959 1119 1226 758 
Q 1494 397 1959 397 
Q 2419 397 2687 759 
Q 2956 1122 2956 1747 
Q 2956 2369 2687 2733 
Q 2419 3097 1959 3097 
z
M 1959 3584 
Q 2709 3584 3137 3096 
Q 3566 2609 3566 1747 
Q 3566 888 3137 398 
Q 2709 -91 1959 -91 
Q 1206 -91 779 398 
Q 353 888 353 1747 
Q 353 2609 779 3096 
Q 1206 3584 1959 3584 
z
" transform="scale(0.015625)"/>
       <path id="DejaVuSans-66" d="M 2375 4863 
L 2375 4384 
L 1825 4384 
Q 1516 4384 1395 4259 
Q 1275 4134 1275 3809 
L 1275 3500 
L 2222 3500 
L 2222 3053 
L 1275 3053 
L 1275 0 
L 697 0 
L 697 3053 
L 147 3053 
L 147 3500 
L 697 3500 
L 697 3744 
Q 697 4328 969 4595 
Q 1241 4863 1831 4863 
L 2375 4863 
z
" transform="scale(0.015625)"/>
       <path id="DejaVuSans-67" d="M 2906 1791 
Q 2906 2416 2648 2759 
Q 2391 3103 1925 3103 
Q 1463 3103 1205 2759 
Q 947 2416 947 1791 
Q 947 1169 1205 825 
Q 1463 481 1925 481 
Q 2391 481 2648 825 
Q 2906 1169 2906 1791 
z
M 3481 434 
Q 3481 -459 3084 -895 
Q 2688 -1331 1869 -1331 
Q 1566 -1331 1297 -1286 
Q 1028 -1241 775 -1147 
L 775 -588 
Q 1028 -725 1275 -790 
Q 1522 -856 1778 -856 
Q 2344 -856 2625 -561 
Q 2906 -266 2906 331 
L 2906 616 
Q 2728 306 2450 153 
Q 2172 0 1784 0 
Q 1141 0 747 490 
Q 353 981 353 1791 
Q 353 2603 747 3093 
Q 1141 3584 1784 3584 
Q 2172 3584 2450 3431 
Q 2728 3278 2906 2969 
L 2906 3500 
L 3481 3500 
L 3481 434 
z
" transform="scale(0.015625)"/>
       <path id="DejaVuSans-61" d="M 2194 1759 
Q 1497 1759 1228 1600 
Q 959 1441 959 1056 
Q 959 750 1161 570 
Q 1363 391 1709 391 
Q 2188 391 2477 730 
Q 2766 1069 2766 1631 
L 2766 1759 
L 2194 1759 
z
M 3341 1997 
L 3341 0 
L 2766 0 
L 2766 531 
Q 2569 213 2275 61 
Q 1981 -91 1556 -91 
Q 1019 -91 701 211 
Q 384 513 384 1019 
Q 384 1609 779 1909 
Q 1175 2209 1959 2209 
L 2766 2209 
L 2766 2266 
Q 2766 2663 2505 2880 
Q 2244 3097 1772 3097 
Q 1472 3097 1187 3025 
Q 903 2953 641 2809 
L 641 3341 
Q 956 3463 1253 3523 
Q 1550 3584 1831 3584 
Q 2591 3584 2966 3190 
Q 3341 2797 3341 1997 
z
" transform="scale(0.015625)"/>
       <path id="DejaVuSans-6d" d="M 3328 2828 
Q 3544 3216 3844 3400 
Q 4144 3584 4550 3584 
Q 5097 3584 5394 3201 
Q 5691 2819 5691 2113 
L 5691 0 
L 5113 0 
L 5113 2094 
Q 5113 2597 4934 2840 
Q 4756 3084 4391 3084 
Q 3944 3084 3684 2787 
Q 3425 2491 3425 1978 
L 3425 0 
L 2847 0 
L 2847 2094 
Q 2847 2600 2669 2842 
Q 2491 3084 2119 3084 
Q 1678 3084 1418 2786 
Q 1159 2488 1159 1978 
L 1159 0 
L 581 0 
L 581 3500 
L 1159 3500 
L 1159 2956 
Q 1356 3278 1631 3431 
Q 1906 3584 2284 3584 
Q 2666 3584 2933 3390 
Q 3200 3197 3328 2828 
z
" transform="scale(0.015625)"/>
       <path id="DejaVuSans-65" d="M 3597 1894 
L 3597 1613 
L 953 1613 
Q 991 1019 1311 708 
Q 1631 397 2203 397 
Q 2534 397 2845 478 
Q 3156 559 3463 722 
L 3463 178 
Q 3153 47 2828 -22 
Q 2503 -91 2169 -91 
Q 1331 -91 842 396 
Q 353 884 353 1716 
Q 353 2575 817 3079 
Q 1281 3584 2069 3584 
Q 2775 3584 3186 3129 
Q 3597 2675 3597 1894 
z
M 3022 2063 
Q 3016 2534 2758 2815 
Q 2500 3097 2075 3097 
Q 1594 3097 1305 2825 
Q 1016 2553 972 2059 
L 3022 2063 
z
" transform="scale(0.015625)"/>
       <path id="DejaVuSans-73" d="M 2834 3397 
L 2834 2853 
Q 2591 2978 2328 3040 
Q 2066 3103 1784 3103 
Q 1356 3103 1142 2972 
Q 928 2841 928 2578 
Q 928 2378 1081 2264 
Q 1234 2150 1697 2047 
L 1894 2003 
Q 2506 1872 2764 1633 
Q 3022 1394 3022 966 
Q 3022 478 2636 193 
Q 2250 -91 1575 -91 
Q 1294 -91 989 -36 
Q 684 19 347 128 
L 347 722 
Q 666 556 975 473 
Q 1284 391 1588 391 
Q 1994 391 2212 530 
Q 2431 669 2431 922 
Q 2431 1156 2273 1281 
Q 2116 1406 1581 1522 
L 1381 1569 
Q 847 1681 609 1914 
Q 372 2147 372 2553 
Q 372 3047 722 3315 
Q 1072 3584 1716 3584 
Q 2034 3584 2315 3537 
Q 2597 3491 2834 3397 
z
" transform="scale(0.015625)"/>
      </defs>
      <use xlink:href="#DejaVuSans-23"/>
      <use xlink:href="#DejaVuSans-20" x="83.789062"/>
      <use xlink:href="#DejaVuSans-6f" x="115.576172"/>
      <use xlink:href="#DejaVuSans-66" x="176.757812"/>
      <use xlink:href="#DejaVuSans-20" x="211.962891"/>
      <use xlink:href="#DejaVuSans-67" x="243.75"/>
      <use xlink:href="#DejaVuSans-61" x="307.226562"/>
      <use xlink:href="#DejaVuSans-6d" x="368.505859"/>
      <use xlink:href="#DejaVuSans-65" x="465.917969"/>
      <use xlink:href="#DejaVuSans-73" x="527.441406"/>
     </g>
    </g>
   </g>
   <g id="matplotlib.axis_2">
    <g id="ytick_1">
     <g id="line2d_7">
      <defs>
       <path id="m3b0aedab52" d="M 0 0 
L -3.5 0 
" style="stroke: #000000; stroke-width: 0.8"/>
      </defs>
      <g>
       <use xlink:href="#m3b0aedab52" x="48.26" y="287.367273" style="stroke: #000000; stroke-width: 0.8"/>
      </g>
     </g>
     <g id="text_8">
      <!-- 1 -->
      <g transform="translate(28.535 294.96571)scale(0.2 -0.2)">
       <use xlink:href="#DejaVuSans-31"/>
      </g>
     </g>
    </g>
    <g id="ytick_2">
     <g id="line2d_8">
      <g>
       <use xlink:href="#m3b0aedab52" x="48.26" y="261.085455" style="stroke: #000000; stroke-width: 0.8"/>
      </g>
     </g>
     <g id="text_9">
      <!-- 2 -->
      <g transform="translate(28.535 268.683892)scale(0.2 -0.2)">
       <use xlink:href="#DejaVuSans-32"/>
      </g>
     </g>
    </g>
    <g id="ytick_3">
     <g id="line2d_9">
      <g>
       <use xlink:href="#m3b0aedab52" x="48.26" y="234.803636" style="stroke: #000000; stroke-width: 0.8"/>
      </g>
     </g>
     <g id="text_10">
      <!-- 3 -->
      <g transform="translate(28.535 242.402074)scale(0.2 -0.2)">
       <use xlink:href="#DejaVuSans-33"/>
      </g>
     </g>
    </g>
    <g id="ytick_4">
     <g id="line2d_10">
      <g>
       <use xlink:href="#m3b0aedab52" x="48.26" y="208.521818" style="stroke: #000000; stroke-width: 0.8"/>
      </g>
     </g>
     <g id="text_11">
      <!-- 4 -->
      <g transform="translate(28.535 216.120256)scale(0.2 -0.2)">
       <use xlink:href="#DejaVuSans-34"/>
      </g>
     </g>
    </g>
    <g id="ytick_5">
     <g id="line2d_11">
      <g>
       <use xlink:href="#m3b0aedab52" x="48.26" y="182.24" style="stroke: #000000; stroke-width: 0.8"/>
      </g>
     </g>
     <g id="text_12">
      <!-- 5 -->
      <g transform="translate(28.535 189.838437)scale(0.2 -0.2)">
       <use xlink:href="#DejaVuSans-35"/>
      </g>
     </g>
    </g>
    <g id="ytick_6">
     <g id="line2d_12">
      <g>
       <use xlink:href="#m3b0aedab52" x="48.26" y="155.958182" style="stroke: #000000; stroke-width: 0.8"/>
      </g>
     </g>
     <g id="text_13">
      <!-- 6 -->
      <g transform="translate(28.535 163.556619)scale(0.2 -0.2)">
       <defs>
        <path id="DejaVuSans-36" d="M 2113 2584 
Q 1688 2584 1439 2293 
Q 1191 2003 1191 1497 
Q 1191 994 1439 701 
Q 1688 409 2113 409 
Q 2538 409 2786 701 
Q 3034 994 3034 1497 
Q 3034 2003 2786 2293 
Q 2538 2584 2113 2584 
z
M 3366 4563 
L 3366 3988 
Q 3128 4100 2886 4159 
Q 2644 4219 2406 4219 
Q 1781 4219 1451 3797 
Q 1122 3375 1075 2522 
Q 1259 2794 1537 2939 
Q 1816 3084 2150 3084 
Q 2853 3084 3261 2657 
Q 3669 2231 3669 1497 
Q 3669 778 3244 343 
Q 2819 -91 2113 -91 
Q 1303 -91 875 529 
Q 447 1150 447 2328 
Q 447 3434 972 4092 
Q 1497 4750 2381 4750 
Q 2619 4750 2861 4703 
Q 3103 4656 3366 4563 
z
" transform="scale(0.015625)"/>
       </defs>
       <use xlink:href="#DejaVuSans-36"/>
      </g>
     </g>
    </g>
    <g id="ytick_7">
     <g id="line2d_13">
      <g>
       <use xlink:href="#m3b0aedab52" x="48.26" y="129.676364" style="stroke: #000000; stroke-width: 0.8"/>
      </g>
     </g>
     <g id="text_14">
      <!-- 7 -->
      <g transform="translate(28.535 137.274801)scale(0.2 -0.2)">
       <defs>
        <path id="DejaVuSans-37" d="M 525 4666 
L 3525 4666 
L 3525 4397 
L 1831 0 
L 1172 0 
L 2766 4134 
L 525 4134 
L 525 4666 
z
" transform="scale(0.015625)"/>
       </defs>
       <use xlink:href="#DejaVuSans-37"/>
      </g>
     </g>
    </g>
    <g id="ytick_8">
     <g id="line2d_14">
      <g>
       <use xlink:href="#m3b0aedab52" x="48.26" y="103.394545" style="stroke: #000000; stroke-width: 0.8"/>
      </g>
     </g>
     <g id="text_15">
      <!-- 8 -->
      <g transform="translate(28.535 110.992983)scale(0.2 -0.2)">
       <defs>
        <path id="DejaVuSans-38" d="M 2034 2216 
Q 1584 2216 1326 1975 
Q 1069 1734 1069 1313 
Q 1069 891 1326 650 
Q 1584 409 2034 409 
Q 2484 409 2743 651 
Q 3003 894 3003 1313 
Q 3003 1734 2745 1975 
Q 2488 2216 2034 2216 
z
M 1403 2484 
Q 997 2584 770 2862 
Q 544 3141 544 3541 
Q 544 4100 942 4425 
Q 1341 4750 2034 4750 
Q 2731 4750 3128 4425 
Q 3525 4100 3525 3541 
Q 3525 3141 3298 2862 
Q 3072 2584 2669 2484 
Q 3125 2378 3379 2068 
Q 3634 1759 3634 1313 
Q 3634 634 3220 271 
Q 2806 -91 2034 -91 
Q 1263 -91 848 271 
Q 434 634 434 1313 
Q 434 1759 690 2068 
Q 947 2378 1403 2484 
z
M 1172 3481 
Q 1172 3119 1398 2916 
Q 1625 2713 2034 2713 
Q 2441 2713 2670 2916 
Q 2900 3119 2900 3481 
Q 2900 3844 2670 4047 
Q 2441 4250 2034 4250 
Q 1625 4250 1398 4047 
Q 1172 3844 1172 3481 
z
" transform="scale(0.015625)"/>
       </defs>
       <use xlink:href="#DejaVuSans-38"/>
      </g>
     </g>
    </g>
    <g id="ytick_9">
     <g id="line2d_15">
      <g>
       <use xlink:href="#m3b0aedab52" x="48.26" y="77.112727" style="stroke: #000000; stroke-width: 0.8"/>
      </g>
     </g>
     <g id="text_16">
      <!-- 9 -->
      <g transform="translate(28.535 84.711165)scale(0.2 -0.2)">
       <defs>
        <path id="DejaVuSans-39" d="M 703 97 
L 703 672 
Q 941 559 1184 500 
Q 1428 441 1663 441 
Q 2288 441 2617 861 
Q 2947 1281 2994 2138 
Q 2813 1869 2534 1725 
Q 2256 1581 1919 1581 
Q 1219 1581 811 2004 
Q 403 2428 403 3163 
Q 403 3881 828 4315 
Q 1253 4750 1959 4750 
Q 2769 4750 3195 4129 
Q 3622 3509 3622 2328 
Q 3622 1225 3098 567 
Q 2575 -91 1691 -91 
Q 1453 -91 1209 -44 
Q 966 3 703 97 
z
M 1959 2075 
Q 2384 2075 2632 2365 
Q 2881 2656 2881 3163 
Q 2881 3666 2632 3958 
Q 2384 4250 1959 4250 
Q 1534 4250 1286 3958 
Q 1038 3666 1038 3163 
Q 1038 2656 1286 2365 
Q 1534 2075 1959 2075 
z
" transform="scale(0.015625)"/>
       </defs>
       <use xlink:href="#DejaVuSans-39"/>
      </g>
     </g>
    </g>
    <g id="text_17">
     <!-- C-AHEU Value -->
     <g transform="translate(21.762083 228.243125)rotate(-90)scale(0.133333 -0.133333)">
      <defs>
       <path id="DejaVuSans-43" d="M 4122 4306 
L 4122 3641 
Q 3803 3938 3442 4084 
Q 3081 4231 2675 4231 
Q 1875 4231 1450 3742 
Q 1025 3253 1025 2328 
Q 1025 1406 1450 917 
Q 1875 428 2675 428 
Q 3081 428 3442 575 
Q 3803 722 4122 1019 
L 4122 359 
Q 3791 134 3420 21 
Q 3050 -91 2638 -91 
Q 1578 -91 968 557 
Q 359 1206 359 2328 
Q 359 3453 968 4101 
Q 1578 4750 2638 4750 
Q 3056 4750 3426 4639 
Q 3797 4528 4122 4306 
z
" transform="scale(0.015625)"/>
       <path id="DejaVuSans-2d" d="M 313 2009 
L 1997 2009 
L 1997 1497 
L 313 1497 
L 313 2009 
z
" transform="scale(0.015625)"/>
       <path id="DejaVuSans-41" d="M 2188 4044 
L 1331 1722 
L 3047 1722 
L 2188 4044 
z
M 1831 4666 
L 2547 4666 
L 4325 0 
L 3669 0 
L 3244 1197 
L 1141 1197 
L 716 0 
L 50 0 
L 1831 4666 
z
" transform="scale(0.015625)"/>
       <path id="DejaVuSans-48" d="M 628 4666 
L 1259 4666 
L 1259 2753 
L 3553 2753 
L 3553 4666 
L 4184 4666 
L 4184 0 
L 3553 0 
L 3553 2222 
L 1259 2222 
L 1259 0 
L 628 0 
L 628 4666 
z
" transform="scale(0.015625)"/>
       <path id="DejaVuSans-45" d="M 628 4666 
L 3578 4666 
L 3578 4134 
L 1259 4134 
L 1259 2753 
L 3481 2753 
L 3481 2222 
L 1259 2222 
L 1259 531 
L 3634 531 
L 3634 0 
L 628 0 
L 628 4666 
z
" transform="scale(0.015625)"/>
       <path id="DejaVuSans-55" d="M 556 4666 
L 1191 4666 
L 1191 1831 
Q 1191 1081 1462 751 
Q 1734 422 2344 422 
Q 2950 422 3222 751 
Q 3494 1081 3494 1831 
L 3494 4666 
L 4128 4666 
L 4128 1753 
Q 4128 841 3676 375 
Q 3225 -91 2344 -91 
Q 1459 -91 1007 375 
Q 556 841 556 1753 
L 556 4666 
z
" transform="scale(0.015625)"/>
       <path id="DejaVuSans-56" d="M 1831 0 
L 50 4666 
L 709 4666 
L 2188 738 
L 3669 4666 
L 4325 4666 
L 2547 0 
L 1831 0 
z
" transform="scale(0.015625)"/>
       <path id="DejaVuSans-6c" d="M 603 4863 
L 1178 4863 
L 1178 0 
L 603 0 
L 603 4863 
z
" transform="scale(0.015625)"/>
       <path id="DejaVuSans-75" d="M 544 1381 
L 544 3500 
L 1119 3500 
L 1119 1403 
Q 1119 906 1312 657 
Q 1506 409 1894 409 
Q 2359 409 2629 706 
Q 2900 1003 2900 1516 
L 2900 3500 
L 3475 3500 
L 3475 0 
L 2900 0 
L 2900 538 
Q 2691 219 2414 64 
Q 2138 -91 1772 -91 
Q 1169 -91 856 284 
Q 544 659 544 1381 
z
M 1991 3584 
L 1991 3584 
z
" transform="scale(0.015625)"/>
      </defs>
      <use xlink:href="#DejaVuSans-43"/>
      <use xlink:href="#DejaVuSans-2d" x="69.824219"/>
      <use xlink:href="#DejaVuSans-41" x="103.658203"/>
      <use xlink:href="#DejaVuSans-48" x="172.066406"/>
      <use xlink:href="#DejaVuSans-45" x="247.261719"/>
      <use xlink:href="#DejaVuSans-55" x="310.445312"/>
      <use xlink:href="#DejaVuSans-20" x="383.638672"/>
      <use xlink:href="#DejaVuSans-56" x="415.425781"/>
      <use xlink:href="#DejaVuSans-61" x="476.083984"/>
      <use xlink:href="#DejaVuSans-6c" x="537.363281"/>
      <use xlink:href="#DejaVuSans-75" x="565.146484"/>
      <use xlink:href="#DejaVuSans-65" x="628.525391"/>
     </g>
    </g>
   </g>
   <g id="line2d_16">
    <path d="M 69.686157 77.112727 
L 78.613722 77.112727 
L 87.541288 77.112727 
L 96.468853 77.112727 
L 105.396419 77.112727 
L 114.323984 77.112727 
L 123.25155 77.112727 
L 132.179115 77.112727 
L 141.10668 77.112727 
L 150.034246 77.112727 
L 158.961811 77.139086 
L 167.889377 77.142935 
L 176.816942 77.169176 
L 185.744508 77.19537 
L 194.672073 77.223145 
L 203.599638 77.273043 
L 212.527204 77.393981 
L 221.454769 77.495774 
L 230.382335 77.41142 
L 239.3099 77.234826 
L 248.237466 77.559737 
L 257.165031 77.335745 
L 266.092596 77.138267 
L 275.020162 77.112727 
L 283.947727 77.333991 
L 292.875293 77.587949 
L 301.802858 77.857792 
L 310.730424 78.242934 
L 319.657989 78.013188 
L 328.585554 77.525795 
L 337.51312 78.810563 
L 346.440685 77.112727 
L 355.368251 77.112727 
L 364.295816 77.112727 
L 373.223382 77.112727 
L 382.150947 77.112727 
L 391.078512 77.112727 
L 400.006078 77.112727 
L 408.933643 77.112727 
L 417.861209 77.112727 
L 426.788774 77.112727 
L 435.71634 77.112727 
L 444.643905 77.112727 
L 453.57147 77.112727 
L 462.499036 77.112727 
L 471.426601 77.112727 
L 480.354167 77.112727 
L 489.281732 77.112727 
L 498.209298 77.112727 
" clip-path="url(#pec912e00ce)" style="fill: none; stroke: #1f77b4; stroke-width: 1.5; stroke-linecap: square"/>
   </g>
   <g id="line2d_17">
    <path d="M 69.686157 287.367273 
L 78.613722 287.367273 
L 87.541288 287.367273 
L 96.468853 287.367273 
L 105.396419 287.367273 
L 114.323984 287.35871 
L 123.25155 287.367273 
L 132.179115 287.367273 
L 141.10668 287.311256 
L 150.034246 287.338686 
L 158.961811 287.360983 
L 167.889377 287.327542 
L 176.816942 287.315527 
L 185.744508 287.352912 
L 194.672073 287.262774 
L 203.599638 287.320062 
L 212.527204 287.33439 
L 221.454769 287.299239 
L 230.382335 287.283229 
L 239.3099 287.339557 
L 248.237466 287.366196 
L 257.165031 287.348241 
L 266.092596 287.341135 
L 275.020162 287.367273 
L 283.947727 287.352545 
L 292.875293 287.311259 
L 301.802858 287.367273 
L 310.730424 287.263323 
L 319.657989 287.162936 
L 328.585554 287.367273 
L 337.51312 287.367273 
L 346.440685 287.367273 
L 355.368251 287.367273 
L 364.295816 287.367273 
L 373.223382 287.367273 
L 382.150947 287.367273 
L 391.078512 287.367273 
L 400.006078 287.367273 
L 408.933643 287.367273 
L 417.861209 287.367273 
L 426.788774 287.367273 
L 435.71634 287.367273 
L 444.643905 287.367273 
L 453.57147 287.367273 
L 462.499036 287.367273 
L 471.426601 287.367273 
L 480.354167 287.367273 
L 489.281732 287.367273 
L 498.209298 287.367273 
" clip-path="url(#pec912e00ce)" style="fill: none; stroke: #ff7f0e; stroke-width: 1.5; stroke-linecap: square"/>
   </g>
   <g id="line2d_18">
    <path d="M 69.686157 287.367273 
L 78.613722 287.367273 
L 87.541288 287.367273 
L 96.468853 287.367273 
L 105.396419 287.367273 
L 114.323984 287.360881 
L 123.25155 287.366646 
L 132.179115 287.347311 
L 141.10668 287.345754 
L 150.034246 287.171571 
L 158.961811 286.959071 
L 167.889377 287.01771 
L 176.816942 286.555081 
L 185.744508 286.247682 
L 194.672073 286.331357 
L 203.599638 285.503269 
L 212.527204 285.065791 
L 221.454769 284.741344 
L 230.382335 284.433353 
L 239.3099 284.681838 
L 248.237466 284.650895 
L 257.165031 285.134219 
L 266.092596 285.259801 
L 275.020162 285.485525 
L 283.947727 285.14562 
L 292.875293 285.082221 
L 301.802858 284.184105 
L 310.730424 284.371555 
L 319.657989 284.275825 
L 328.585554 282.824461 
L 337.51312 283.077339 
L 346.440685 287.186464 
L 355.368251 287.367273 
L 364.295816 287.367273 
L 373.223382 287.367273 
L 382.150947 287.367273 
L 391.078512 287.367273 
L 400.006078 287.367273 
L 408.933643 287.367273 
L 417.861209 287.367273 
L 426.788774 287.367273 
L 435.71634 287.367273 
L 444.643905 287.367273 
L 453.57147 287.367273 
L 462.499036 287.367273 
L 471.426601 287.367273 
L 480.354167 287.367273 
L 489.281732 287.367273 
L 498.209298 287.367273 
" clip-path="url(#pec912e00ce)" style="fill: none; stroke: #2ca02c; stroke-width: 1.5; stroke-linecap: square"/>
   </g>
   <g id="line2d_19">
    <path d="M 69.686157 287.367273 
L 78.613722 287.367273 
L 87.541288 287.367273 
L 96.468853 287.367273 
L 105.396419 287.367273 
L 114.323984 287.35871 
L 123.25155 287.367273 
L 132.179115 287.367273 
L 141.10668 287.311256 
L 150.034246 287.338686 
L 158.961811 287.360983 
L 167.889377 287.327542 
L 176.816942 287.315527 
L 185.744508 287.352912 
L 194.672073 287.262774 
L 203.599638 287.320062 
L 212.527204 287.33439 
L 221.454769 287.299239 
L 230.382335 287.283229 
L 239.3099 287.339557 
L 248.237466 287.366196 
L 257.165031 287.348241 
L 266.092596 287.341135 
L 275.020162 287.367273 
L 283.947727 287.352545 
L 292.875293 287.311259 
L 301.802858 287.367273 
L 310.730424 287.263323 
L 319.657989 287.162936 
L 328.585554 287.367273 
L 337.51312 287.367273 
L 346.440685 287.367273 
L 355.368251 287.367273 
L 364.295816 287.367273 
L 373.223382 287.367273 
L 382.150947 287.367273 
L 391.078512 287.367273 
L 400.006078 287.367273 
L 408.933643 287.367273 
L 417.861209 287.367273 
L 426.788774 287.367273 
L 435.71634 287.367273 
L 444.643905 287.367273 
L 453.57147 287.367273 
L 462.499036 287.367273 
L 471.426601 287.367273 
L 480.354167 287.367273 
L 489.281732 287.367273 
L 498.209298 287.367273 
" clip-path="url(#pec912e00ce)" style="fill: none; stroke: #d62728; stroke-width: 1.5; stroke-linecap: square"/>
   </g>
   <g id="line2d_20">
    <path d="M 69.686157 77.112727 
L 78.613722 77.112727 
L 87.541288 78.151877 
L 96.468853 79.962563 
L 105.396419 82.620804 
L 114.323984 84.937177 
L 123.25155 87.554028 
L 132.179115 89.764995 
L 141.10668 91.146085 
L 150.034246 93.100085 
L 158.961811 94.70556 
L 167.889377 96.592016 
L 176.816942 98.878769 
L 185.744508 100.425055 
L 194.672073 101.984934 
L 203.599638 103.439752 
L 212.527204 105.003093 
L 221.454769 106.865212 
L 230.382335 106.831954 
L 239.3099 108.244043 
L 248.237466 109.532765 
L 257.165031 114.225494 
L 266.092596 117.277572 
L 275.020162 118.82882 
L 283.947727 120.262669 
L 292.875293 117.428397 
L 301.802858 118.076275 
L 310.730424 121.466695 
L 319.657989 119.830127 
L 328.585554 121.225774 
L 337.51312 122.985831 
L 346.440685 125.789312 
L 355.368251 121.348099 
L 364.295816 122.448864 
L 373.223382 119.95705 
L 382.150947 113.156364 
L 391.078512 104.537233 
L 400.006078 94.315372 
L 408.933643 99.052332 
L 417.861209 90.391962 
L 426.788774 84.121212 
L 435.71634 83.752344 
L 444.643905 100.766364 
L 453.57147 100.766364 
L 462.499036 89.728 
L 471.426601 77.112727 
L 480.354167 98.138182 
L 489.281732 98.138182 
L 498.209298 119.163636 
" clip-path="url(#pec912e00ce)" style="fill: none; stroke: #9467bd; stroke-width: 1.5; stroke-linecap: square"/>
   </g>
   <g id="line2d_21">
    <path d="M 69.686157 287.367273 
L 78.613722 287.367273 
L 87.541288 287.367273 
L 96.468853 287.367273 
L 105.396419 287.367273 
L 114.323984 287.35871 
L 123.25155 287.367273 
L 132.179115 287.367273 
L 141.10668 287.311256 
L 150.034246 287.338686 
L 158.961811 287.360983 
L 167.889377 287.327542 
L 176.816942 287.315527 
L 185.744508 287.352912 
L 194.672073 287.262774 
L 203.599638 287.320062 
L 212.527204 287.33439 
L 221.454769 287.299239 
L 230.382335 287.283229 
L 239.3099 287.339557 
L 248.237466 287.366196 
L 257.165031 287.348241 
L 266.092596 287.341135 
L 275.020162 287.367273 
L 283.947727 287.352545 
L 292.875293 287.311259 
L 301.802858 287.367273 
L 310.730424 287.263323 
L 319.657989 287.162936 
L 328.585554 287.367273 
L 337.51312 287.367273 
L 346.440685 287.367273 
L 355.368251 287.367273 
L 364.295816 287.367273 
L 373.223382 287.367273 
L 382.150947 287.367273 
L 391.078512 287.367273 
L 400.006078 287.367273 
L 408.933643 287.367273 
L 417.861209 287.367273 
L 426.788774 287.367273 
L 435.71634 287.367273 
L 444.643905 287.367273 
L 453.57147 287.367273 
L 462.499036 287.367273 
L 471.426601 287.367273 
L 480.354167 287.367273 
L 489.281732 287.367273 
L 498.209298 287.367273 
" clip-path="url(#pec912e00ce)" style="fill: none; stroke: #8c564b; stroke-width: 1.5; stroke-linecap: square"/>
   </g>
   <g id="line2d_22">
    <path d="M 69.686157 182.24 
L 78.613722 182.24 
L 87.541288 182.759575 
L 96.468853 183.664918 
L 105.396419 184.994038 
L 114.323984 186.147944 
L 123.25155 187.46065 
L 132.179115 188.566134 
L 141.10668 189.228671 
L 150.034246 190.219385 
L 158.961811 191.033272 
L 167.889377 191.959779 
L 176.816942 193.097148 
L 185.744508 193.888983 
L 194.672073 194.623854 
L 203.599638 195.379907 
L 212.527204 196.168742 
L 221.454769 197.082226 
L 230.382335 197.057591 
L 239.3099 197.7918 
L 248.237466 198.44948 
L 257.165031 200.786868 
L 266.092596 202.309353 
L 275.020162 203.098046 
L 283.947727 203.807607 
L 292.875293 202.369828 
L 301.802858 202.721774 
L 310.730424 204.365009 
L 319.657989 203.496532 
L 328.585554 204.296523 
L 337.51312 205.176552 
L 346.440685 206.578292 
L 355.368251 204.357686 
L 364.295816 204.908068 
L 373.223382 203.662161 
L 382.150947 200.261818 
L 391.078512 195.952253 
L 400.006078 190.841322 
L 408.933643 193.209802 
L 417.861209 188.879617 
L 426.788774 185.744242 
L 435.71634 185.559809 
L 444.643905 194.066818 
L 453.57147 194.066818 
L 462.499036 188.547636 
L 471.426601 182.24 
L 480.354167 192.752727 
L 489.281732 192.752727 
L 498.209298 203.265455 
" clip-path="url(#pec912e00ce)" style="fill: none; stroke: #e377c2; stroke-width: 1.5; stroke-linecap: square"/>
   </g>
   <g id="line2d_23">
    <path d="M 69.686157 287.367273 
L 78.613722 287.367273 
L 87.541288 287.367273 
L 96.468853 287.367273 
L 105.396419 287.367273 
L 114.323984 287.35871 
L 123.25155 287.367273 
L 132.179115 287.367273 
L 141.10668 287.311256 
L 150.034246 287.338686 
L 158.961811 287.360983 
L 167.889377 287.327542 
L 176.816942 287.315527 
L 185.744508 287.352912 
L 194.672073 287.262774 
L 203.599638 287.320062 
L 212.527204 287.33439 
L 221.454769 287.299239 
L 230.382335 287.283229 
L 239.3099 287.339557 
L 248.237466 287.366196 
L 257.165031 287.348241 
L 266.092596 287.341135 
L 275.020162 287.367273 
L 283.947727 287.352545 
L 292.875293 287.311259 
L 301.802858 287.367273 
L 310.730424 287.263323 
L 319.657989 287.162936 
L 328.585554 287.367273 
L 337.51312 287.367273 
L 346.440685 287.367273 
L 355.368251 287.367273 
L 364.295816 287.367273 
L 373.223382 287.367273 
L 382.150947 287.367273 
L 391.078512 287.367273 
L 400.006078 287.367273 
L 408.933643 287.367273 
L 417.861209 287.367273 
L 426.788774 287.367273 
L 435.71634 287.367273 
L 444.643905 287.367273 
L 453.57147 287.367273 
L 462.499036 287.367273 
L 471.426601 287.367273 
L 480.354167 287.367273 
L 489.281732 287.367273 
L 498.209298 287.367273 
" clip-path="url(#pec912e00ce)" style="fill: none; stroke: #7f7f7f; stroke-width: 1.5; stroke-linecap: square"/>
   </g>
   <g id="patch_3">
    <path d="M 48.26 297.88 
L 48.26 66.6 
" style="fill: none; stroke: #000000; stroke-width: 0.8; stroke-linejoin: miter; stroke-linecap: square"/>
   </g>
   <g id="patch_4">
    <path d="M 519.635455 297.88 
L 519.635455 66.6 
" style="fill: none; stroke: #000000; stroke-width: 0.8; stroke-linejoin: miter; stroke-linecap: square"/>
   </g>
   <g id="patch_5">
    <path d="M 48.26 297.88 
L 519.635455 297.88 
" style="fill: none; stroke: #000000; stroke-width: 0.8; stroke-linejoin: miter; stroke-linecap: square"/>
   </g>
   <g id="patch_6">
    <path d="M 48.26 66.6 
L 519.635455 66.6 
" style="fill: none; stroke: #000000; stroke-width: 0.8; stroke-linejoin: miter; stroke-linecap: square"/>
   </g>
   <g id="legend_1">
    <g id="patch_7">
     <path d="M 58.76 59.1 
L 509.135455 59.1 
Q 512.135455 59.1 512.135455 56.1 
L 512.135455 13.565625 
Q 512.135455 10.565625 509.135455 10.565625 
L 58.76 10.565625 
Q 55.76 10.565625 55.76 13.565625 
L 55.76 56.1 
Q 55.76 59.1 58.76 59.1 
z
" style="fill: #ffffff; opacity: 0.8; stroke: #cccccc; stroke-linejoin: miter"/>
    </g>
    <g id="line2d_24">
     <path d="M 61.76 22.713281 
L 76.76 22.713281 
L 91.76 22.713281 
" style="fill: none; stroke: #1f77b4; stroke-width: 1.5; stroke-linecap: square"/>
    </g>
    <g id="text_18">
     <!-- Stra 1 -->
     <g transform="translate(103.76 27.963281)scale(0.15 -0.15)">
      <defs>
       <path id="DejaVuSans-53" d="M 3425 4513 
L 3425 3897 
Q 3066 4069 2747 4153 
Q 2428 4238 2131 4238 
Q 1616 4238 1336 4038 
Q 1056 3838 1056 3469 
Q 1056 3159 1242 3001 
Q 1428 2844 1947 2747 
L 2328 2669 
Q 3034 2534 3370 2195 
Q 3706 1856 3706 1288 
Q 3706 609 3251 259 
Q 2797 -91 1919 -91 
Q 1588 -91 1214 -16 
Q 841 59 441 206 
L 441 856 
Q 825 641 1194 531 
Q 1563 422 1919 422 
Q 2459 422 2753 634 
Q 3047 847 3047 1241 
Q 3047 1584 2836 1778 
Q 2625 1972 2144 2069 
L 1759 2144 
Q 1053 2284 737 2584 
Q 422 2884 422 3419 
Q 422 4038 858 4394 
Q 1294 4750 2059 4750 
Q 2388 4750 2728 4690 
Q 3069 4631 3425 4513 
z
" transform="scale(0.015625)"/>
       <path id="DejaVuSans-74" d="M 1172 4494 
L 1172 3500 
L 2356 3500 
L 2356 3053 
L 1172 3053 
L 1172 1153 
Q 1172 725 1289 603 
Q 1406 481 1766 481 
L 2356 481 
L 2356 0 
L 1766 0 
Q 1100 0 847 248 
Q 594 497 594 1153 
L 594 3053 
L 172 3053 
L 172 3500 
L 594 3500 
L 594 4494 
L 1172 4494 
z
" transform="scale(0.015625)"/>
       <path id="DejaVuSans-72" d="M 2631 2963 
Q 2534 3019 2420 3045 
Q 2306 3072 2169 3072 
Q 1681 3072 1420 2755 
Q 1159 2438 1159 1844 
L 1159 0 
L 581 0 
L 581 3500 
L 1159 3500 
L 1159 2956 
Q 1341 3275 1631 3429 
Q 1922 3584 2338 3584 
Q 2397 3584 2469 3576 
Q 2541 3569 2628 3553 
L 2631 2963 
z
" transform="scale(0.015625)"/>
      </defs>
      <use xlink:href="#DejaVuSans-53"/>
      <use xlink:href="#DejaVuSans-74" x="63.476562"/>
      <use xlink:href="#DejaVuSans-72" x="102.685547"/>
      <use xlink:href="#DejaVuSans-61" x="143.798828"/>
      <use xlink:href="#DejaVuSans-20" x="205.078125"/>
      <use xlink:href="#DejaVuSans-31" x="236.865234"/>
     </g>
    </g>
    <g id="line2d_25">
     <path d="M 61.76 44.730469 
L 76.76 44.730469 
L 91.76 44.730469 
" style="fill: none; stroke: #ff7f0e; stroke-width: 1.5; stroke-linecap: square"/>
    </g>
    <g id="text_19">
     <!-- Stra 2 -->
     <g transform="translate(103.76 49.980469)scale(0.15 -0.15)">
      <use xlink:href="#DejaVuSans-53"/>
      <use xlink:href="#DejaVuSans-74" x="63.476562"/>
      <use xlink:href="#DejaVuSans-72" x="102.685547"/>
      <use xlink:href="#DejaVuSans-61" x="143.798828"/>
      <use xlink:href="#DejaVuSans-20" x="205.078125"/>
      <use xlink:href="#DejaVuSans-32" x="236.865234"/>
     </g>
    </g>
    <g id="line2d_26">
     <path d="M 180.860933 22.713281 
L 195.860933 22.713281 
L 210.860933 22.713281 
" style="fill: none; stroke: #2ca02c; stroke-width: 1.5; stroke-linecap: square"/>
    </g>
    <g id="text_20">
     <!-- Stra 3 -->
     <g transform="translate(222.860933 27.963281)scale(0.15 -0.15)">
      <use xlink:href="#DejaVuSans-53"/>
      <use xlink:href="#DejaVuSans-74" x="63.476562"/>
      <use xlink:href="#DejaVuSans-72" x="102.685547"/>
      <use xlink:href="#DejaVuSans-61" x="143.798828"/>
      <use xlink:href="#DejaVuSans-20" x="205.078125"/>
      <use xlink:href="#DejaVuSans-33" x="236.865234"/>
     </g>
    </g>
    <g id="line2d_27">
     <path d="M 180.860933 44.730469 
L 195.860933 44.730469 
L 210.860933 44.730469 
" style="fill: none; stroke: #d62728; stroke-width: 1.5; stroke-linecap: square"/>
    </g>
    <g id="text_21">
     <!-- Stra 4 -->
     <g transform="translate(222.860933 49.980469)scale(0.15 -0.15)">
      <use xlink:href="#DejaVuSans-53"/>
      <use xlink:href="#DejaVuSans-74" x="63.476562"/>
      <use xlink:href="#DejaVuSans-72" x="102.685547"/>
      <use xlink:href="#DejaVuSans-61" x="143.798828"/>
      <use xlink:href="#DejaVuSans-20" x="205.078125"/>
      <use xlink:href="#DejaVuSans-34" x="236.865234"/>
     </g>
    </g>
    <g id="line2d_28">
     <path d="M 299.961866 22.713281 
L 314.961866 22.713281 
L 329.961866 22.713281 
" style="fill: none; stroke: #9467bd; stroke-width: 1.5; stroke-linecap: square"/>
    </g>
    <g id="text_22">
     <!-- Stra 5 -->
     <g transform="translate(341.961866 27.963281)scale(0.15 -0.15)">
      <use xlink:href="#DejaVuSans-53"/>
      <use xlink:href="#DejaVuSans-74" x="63.476562"/>
      <use xlink:href="#DejaVuSans-72" x="102.685547"/>
      <use xlink:href="#DejaVuSans-61" x="143.798828"/>
      <use xlink:href="#DejaVuSans-20" x="205.078125"/>
      <use xlink:href="#DejaVuSans-35" x="236.865234"/>
     </g>
    </g>
    <g id="line2d_29">
     <path d="M 299.961866 44.730469 
L 314.961866 44.730469 
L 329.961866 44.730469 
" style="fill: none; stroke: #8c564b; stroke-width: 1.5; stroke-linecap: square"/>
    </g>
    <g id="text_23">
     <!-- Stra 6 -->
     <g transform="translate(341.961866 49.980469)scale(0.15 -0.15)">
      <use xlink:href="#DejaVuSans-53"/>
      <use xlink:href="#DejaVuSans-74" x="63.476562"/>
      <use xlink:href="#DejaVuSans-72" x="102.685547"/>
      <use xlink:href="#DejaVuSans-61" x="143.798828"/>
      <use xlink:href="#DejaVuSans-20" x="205.078125"/>
      <use xlink:href="#DejaVuSans-36" x="236.865234"/>
     </g>
    </g>
    <g id="line2d_30">
     <path d="M 419.062798 22.713281 
L 434.062798 22.713281 
L 449.062798 22.713281 
" style="fill: none; stroke: #e377c2; stroke-width: 1.5; stroke-linecap: square"/>
    </g>
    <g id="text_24">
     <!-- Stra 7 -->
     <g transform="translate(461.062798 27.963281)scale(0.15 -0.15)">
      <use xlink:href="#DejaVuSans-53"/>
      <use xlink:href="#DejaVuSans-74" x="63.476562"/>
      <use xlink:href="#DejaVuSans-72" x="102.685547"/>
      <use xlink:href="#DejaVuSans-61" x="143.798828"/>
      <use xlink:href="#DejaVuSans-20" x="205.078125"/>
      <use xlink:href="#DejaVuSans-37" x="236.865234"/>
     </g>
    </g>
    <g id="line2d_31">
     <path d="M 419.062798 44.730469 
L 434.062798 44.730469 
L 449.062798 44.730469 
" style="fill: none; stroke: #7f7f7f; stroke-width: 1.5; stroke-linecap: square"/>
    </g>
    <g id="text_25">
     <!-- Stra 8 -->
     <g transform="translate(461.062798 49.980469)scale(0.15 -0.15)">
      <use xlink:href="#DejaVuSans-53"/>
      <use xlink:href="#DejaVuSans-74" x="63.476562"/>
      <use xlink:href="#DejaVuSans-72" x="102.685547"/>
      <use xlink:href="#DejaVuSans-61" x="143.798828"/>
      <use xlink:href="#DejaVuSans-20" x="205.078125"/>
      <use xlink:href="#DejaVuSans-38" x="236.865234"/>
     </g>
    </g>
   </g>
  </g>
 </g>
 <defs>
  <clipPath id="pec912e00ce">
   <rect x="48.26" y="66.6" width="471.375455" height="231.28"/>
  </clipPath>
 </defs>
</svg>
