<?xml version="1.0" encoding="utf-8" standalone="no"?>
<!DOCTYPE svg PUBLIC "-//W3C//DTD SVG 1.1//EN"
  "http://www.w3.org/Graphics/SVG/1.1/DTD/svg11.dtd">
<svg xmlns:xlink="http://www.w3.org/1999/xlink" width="540pt" height="360pt" viewBox="0 0 540 360" xmlns="http://www.w3.org/2000/svg" version="1.1">
 <metadata>
  <rdf:RDF xmlns:dc="http://purl.org/dc/elements/1.1/" xmlns:cc="http://creativecommons.org/ns#" xmlns:rdf="http://www.w3.org/1999/02/22-rdf-syntax-ns#">
   <cc:Work>
    <dc:type rdf:resource="http://purl.org/dc/dcmitype/StillImage"/>
    <dc:date>2024-04-24T21:53:06.205778</dc:date>
    <dc:format>image/svg+xml</dc:format>
    <dc:creator>
     <cc:Agent>
      <dc:title>Matplotlib v3.5.3, https://matplotlib.org/</dc:title>
     </cc:Agent>
    </dc:creator>
   </cc:Work>
  </rdf:RDF>
 </metadata>
 <defs>
  <style type="text/css">*{stroke-linejoin: round; stroke-linecap: butt}</style>
 </defs>
 <g id="figure_1">
  <g id="patch_1">
   <path d="M 0 360 
L 540 360 
L 540 0 
L 0 0 
z
" style="fill: #ffffff"/>
  </g>
  <g id="axes_1">
   <g id="patch_2">
    <path d="M 67.43 297.88 
L 519.635455 297.88 
L 519.635455 66.6 
L 67.43 66.6 
z
" style="fill: #ffffff"/>
   </g>
   <g id="matplotlib.axis_1">
    <g id="xtick_1">
     <g id="line2d_1">
      <defs>
       <path id="m13e85c6d49" d="M 0 0 
L 0 3.5 
" style="stroke: #000000; stroke-width: 0.8"/>
      </defs>
      <g>
       <use xlink:href="#m13e85c6d49" x="87.984793" y="297.88" style="stroke: #000000; stroke-width: 0.8"/>
      </g>
     </g>
     <g id="text_1">
      <!-- 0 -->
      <g transform="translate(81.622293 320.076875)scale(0.2 -0.2)">
       <defs>
        <path id="DejaVuSans-30" d="M 2034 4250 
Q 1547 4250 1301 3770 
Q 1056 3291 1056 2328 
Q 1056 1369 1301 889 
Q 1547 409 2034 409 
Q 2525 409 2770 889 
Q 3016 1369 3016 2328 
Q 3016 3291 2770 3770 
Q 2525 4250 2034 4250 
z
M 2034 4750 
Q 2819 4750 3233 4129 
Q 3647 3509 3647 2328 
Q 3647 1150 3233 529 
Q 2819 -91 2034 -91 
Q 1250 -91 836 529 
Q 422 1150 422 2328 
Q 422 3509 836 4129 
Q 1250 4750 2034 4750 
z
" transform="scale(0.015625)"/>
       </defs>
       <use xlink:href="#DejaVuSans-30"/>
      </g>
     </g>
    </g>
    <g id="xtick_2">
     <g id="line2d_2">
      <g>
       <use xlink:href="#m13e85c6d49" x="173.629766" y="297.88" style="stroke: #000000; stroke-width: 0.8"/>
      </g>
     </g>
     <g id="text_2">
      <!-- 10 -->
      <g transform="translate(160.904766 320.076875)scale(0.2 -0.2)">
       <defs>
        <path id="DejaVuSans-31" d="M 794 531 
L 1825 531 
L 1825 4091 
L 703 3866 
L 703 4441 
L 1819 4666 
L 2450 4666 
L 2450 531 
L 3481 531 
L 3481 0 
L 794 0 
L 794 531 
z
" transform="scale(0.015625)"/>
       </defs>
       <use xlink:href="#DejaVuSans-31"/>
       <use xlink:href="#DejaVuSans-30" x="63.623047"/>
      </g>
     </g>
    </g>
    <g id="xtick_3">
     <g id="line2d_3">
      <g>
       <use xlink:href="#m13e85c6d49" x="259.274738" y="297.88" style="stroke: #000000; stroke-width: 0.8"/>
      </g>
     </g>
     <g id="text_3">
      <!-- 20 -->
      <g transform="translate(246.549738 320.076875)scale(0.2 -0.2)">
       <defs>
        <path id="DejaVuSans-32" d="M 1228 531 
L 3431 531 
L 3431 0 
L 469 0 
L 469 531 
Q 828 903 1448 1529 
Q 2069 2156 2228 2338 
Q 2531 2678 2651 2914 
Q 2772 3150 2772 3378 
Q 2772 3750 2511 3984 
Q 2250 4219 1831 4219 
Q 1534 4219 1204 4116 
Q 875 4013 500 3803 
L 500 4441 
Q 881 4594 1212 4672 
Q 1544 4750 1819 4750 
Q 2544 4750 2975 4387 
Q 3406 4025 3406 3419 
Q 3406 3131 3298 2873 
Q 3191 2616 2906 2266 
Q 2828 2175 2409 1742 
Q 1991 1309 1228 531 
z
" transform="scale(0.015625)"/>
       </defs>
       <use xlink:href="#DejaVuSans-32"/>
       <use xlink:href="#DejaVuSans-30" x="63.623047"/>
      </g>
     </g>
    </g>
    <g id="xtick_4">
     <g id="line2d_4">
      <g>
       <use xlink:href="#m13e85c6d49" x="344.919711" y="297.88" style="stroke: #000000; stroke-width: 0.8"/>
      </g>
     </g>
     <g id="text_4">
      <!-- 30 -->
      <g transform="translate(332.194711 320.076875)scale(0.2 -0.2)">
       <defs>
        <path id="DejaVuSans-33" d="M 2597 2516 
Q 3050 2419 3304 2112 
Q 3559 1806 3559 1356 
Q 3559 666 3084 287 
Q 2609 -91 1734 -91 
Q 1441 -91 1130 -33 
Q 819 25 488 141 
L 488 750 
Q 750 597 1062 519 
Q 1375 441 1716 441 
Q 2309 441 2620 675 
Q 2931 909 2931 1356 
Q 2931 1769 2642 2001 
Q 2353 2234 1838 2234 
L 1294 2234 
L 1294 2753 
L 1863 2753 
Q 2328 2753 2575 2939 
Q 2822 3125 2822 3475 
Q 2822 3834 2567 4026 
Q 2313 4219 1838 4219 
Q 1578 4219 1281 4162 
Q 984 4106 628 3988 
L 628 4550 
Q 988 4650 1302 4700 
Q 1616 4750 1894 4750 
Q 2613 4750 3031 4423 
Q 3450 4097 3450 3541 
Q 3450 3153 3228 2886 
Q 3006 2619 2597 2516 
z
" transform="scale(0.015625)"/>
       </defs>
       <use xlink:href="#DejaVuSans-33"/>
       <use xlink:href="#DejaVuSans-30" x="63.623047"/>
      </g>
     </g>
    </g>
    <g id="xtick_5">
     <g id="line2d_5">
      <g>
       <use xlink:href="#m13e85c6d49" x="430.564683" y="297.88" style="stroke: #000000; stroke-width: 0.8"/>
      </g>
     </g>
     <g id="text_5">
      <!-- 40 -->
      <g transform="translate(417.839683 320.076875)scale(0.2 -0.2)">
       <defs>
        <path id="DejaVuSans-34" d="M 2419 4116 
L 825 1625 
L 2419 1625 
L 2419 4116 
z
M 2253 4666 
L 3047 4666 
L 3047 1625 
L 3713 1625 
L 3713 1100 
L 3047 1100 
L 3047 0 
L 2419 0 
L 2419 1100 
L 313 1100 
L 313 1709 
L 2253 4666 
z
" transform="scale(0.015625)"/>
       </defs>
       <use xlink:href="#DejaVuSans-34"/>
       <use xlink:href="#DejaVuSans-30" x="63.623047"/>
      </g>
     </g>
    </g>
    <g id="xtick_6">
     <g id="line2d_6">
      <g>
       <use xlink:href="#m13e85c6d49" x="516.209656" y="297.88" style="stroke: #000000; stroke-width: 0.8"/>
      </g>
     </g>
     <g id="text_6">
      <!-- 50 -->
      <g transform="translate(503.484656 320.076875)scale(0.2 -0.2)">
       <defs>
        <path id="DejaVuSans-35" d="M 691 4666 
L 3169 4666 
L 3169 4134 
L 1269 4134 
L 1269 2991 
Q 1406 3038 1543 3061 
Q 1681 3084 1819 3084 
Q 2600 3084 3056 2656 
Q 3513 2228 3513 1497 
Q 3513 744 3044 326 
Q 2575 -91 1722 -91 
Q 1428 -91 1123 -41 
Q 819 9 494 109 
L 494 744 
Q 775 591 1075 516 
Q 1375 441 1709 441 
Q 2250 441 2565 725 
Q 2881 1009 2881 1497 
Q 2881 1984 2565 2268 
Q 2250 2553 1709 2553 
Q 1456 2553 1204 2497 
Q 953 2441 691 2322 
L 691 4666 
z
" transform="scale(0.015625)"/>
       </defs>
       <use xlink:href="#DejaVuSans-35"/>
       <use xlink:href="#DejaVuSans-30" x="63.623047"/>
      </g>
     </g>
    </g>
    <g id="text_7">
     <!-- number of games (DD-Random) -->
     <g transform="translate(133.543665 343.433125)scale(0.2 -0.2)">
      <defs>
       <path id="DejaVuSans-6e" d="M 3513 2113 
L 3513 0 
L 2938 0 
L 2938 2094 
Q 2938 2591 2744 2837 
Q 2550 3084 2163 3084 
Q 1697 3084 1428 2787 
Q 1159 2491 1159 1978 
L 1159 0 
L 581 0 
L 581 3500 
L 1159 3500 
L 1159 2956 
Q 1366 3272 1645 3428 
Q 1925 3584 2291 3584 
Q 2894 3584 3203 3211 
Q 3513 2838 3513 2113 
z
" transform="scale(0.015625)"/>
       <path id="DejaVuSans-75" d="M 544 1381 
L 544 3500 
L 1119 3500 
L 1119 1403 
Q 1119 906 1312 657 
Q 1506 409 1894 409 
Q 2359 409 2629 706 
Q 2900 1003 2900 1516 
L 2900 3500 
L 3475 3500 
L 3475 0 
L 2900 0 
L 2900 538 
Q 2691 219 2414 64 
Q 2138 -91 1772 -91 
Q 1169 -91 856 284 
Q 544 659 544 1381 
z
M 1991 3584 
L 1991 3584 
z
" transform="scale(0.015625)"/>
       <path id="DejaVuSans-6d" d="M 3328 2828 
Q 3544 3216 3844 3400 
Q 4144 3584 4550 3584 
Q 5097 3584 5394 3201 
Q 5691 2819 5691 2113 
L 5691 0 
L 5113 0 
L 5113 2094 
Q 5113 2597 4934 2840 
Q 4756 3084 4391 3084 
Q 3944 3084 3684 2787 
Q 3425 2491 3425 1978 
L 3425 0 
L 2847 0 
L 2847 2094 
Q 2847 2600 2669 2842 
Q 2491 3084 2119 3084 
Q 1678 3084 1418 2786 
Q 1159 2488 1159 1978 
L 1159 0 
L 581 0 
L 581 3500 
L 1159 3500 
L 1159 2956 
Q 1356 3278 1631 3431 
Q 1906 3584 2284 3584 
Q 2666 3584 2933 3390 
Q 3200 3197 3328 2828 
z
" transform="scale(0.015625)"/>
       <path id="DejaVuSans-62" d="M 3116 1747 
Q 3116 2381 2855 2742 
Q 2594 3103 2138 3103 
Q 1681 3103 1420 2742 
Q 1159 2381 1159 1747 
Q 1159 1113 1420 752 
Q 1681 391 2138 391 
Q 2594 391 2855 752 
Q 3116 1113 3116 1747 
z
M 1159 2969 
Q 1341 3281 1617 3432 
Q 1894 3584 2278 3584 
Q 2916 3584 3314 3078 
Q 3713 2572 3713 1747 
Q 3713 922 3314 415 
Q 2916 -91 2278 -91 
Q 1894 -91 1617 61 
Q 1341 213 1159 525 
L 1159 0 
L 581 0 
L 581 4863 
L 1159 4863 
L 1159 2969 
z
" transform="scale(0.015625)"/>
       <path id="DejaVuSans-65" d="M 3597 1894 
L 3597 1613 
L 953 1613 
Q 991 1019 1311 708 
Q 1631 397 2203 397 
Q 2534 397 2845 478 
Q 3156 559 3463 722 
L 3463 178 
Q 3153 47 2828 -22 
Q 2503 -91 2169 -91 
Q 1331 -91 842 396 
Q 353 884 353 1716 
Q 353 2575 817 3079 
Q 1281 3584 2069 3584 
Q 2775 3584 3186 3129 
Q 3597 2675 3597 1894 
z
M 3022 2063 
Q 3016 2534 2758 2815 
Q 2500 3097 2075 3097 
Q 1594 3097 1305 2825 
Q 1016 2553 972 2059 
L 3022 2063 
z
" transform="scale(0.015625)"/>
       <path id="DejaVuSans-72" d="M 2631 2963 
Q 2534 3019 2420 3045 
Q 2306 3072 2169 3072 
Q 1681 3072 1420 2755 
Q 1159 2438 1159 1844 
L 1159 0 
L 581 0 
L 581 3500 
L 1159 3500 
L 1159 2956 
Q 1341 3275 1631 3429 
Q 1922 3584 2338 3584 
Q 2397 3584 2469 3576 
Q 2541 3569 2628 3553 
L 2631 2963 
z
" transform="scale(0.015625)"/>
       <path id="DejaVuSans-20" transform="scale(0.015625)"/>
       <path id="DejaVuSans-6f" d="M 1959 3097 
Q 1497 3097 1228 2736 
Q 959 2375 959 1747 
Q 959 1119 1226 758 
Q 1494 397 1959 397 
Q 2419 397 2687 759 
Q 2956 1122 2956 1747 
Q 2956 2369 2687 2733 
Q 2419 3097 1959 3097 
z
M 1959 3584 
Q 2709 3584 3137 3096 
Q 3566 2609 3566 1747 
Q 3566 888 3137 398 
Q 2709 -91 1959 -91 
Q 1206 -91 779 398 
Q 353 888 353 1747 
Q 353 2609 779 3096 
Q 1206 3584 1959 3584 
z
" transform="scale(0.015625)"/>
       <path id="DejaVuSans-66" d="M 2375 4863 
L 2375 4384 
L 1825 4384 
Q 1516 4384 1395 4259 
Q 1275 4134 1275 3809 
L 1275 3500 
L 2222 3500 
L 2222 3053 
L 1275 3053 
L 1275 0 
L 697 0 
L 697 3053 
L 147 3053 
L 147 3500 
L 697 3500 
L 697 3744 
Q 697 4328 969 4595 
Q 1241 4863 1831 4863 
L 2375 4863 
z
" transform="scale(0.015625)"/>
       <path id="DejaVuSans-67" d="M 2906 1791 
Q 2906 2416 2648 2759 
Q 2391 3103 1925 3103 
Q 1463 3103 1205 2759 
Q 947 2416 947 1791 
Q 947 1169 1205 825 
Q 1463 481 1925 481 
Q 2391 481 2648 825 
Q 2906 1169 2906 1791 
z
M 3481 434 
Q 3481 -459 3084 -895 
Q 2688 -1331 1869 -1331 
Q 1566 -1331 1297 -1286 
Q 1028 -1241 775 -1147 
L 775 -588 
Q 1028 -725 1275 -790 
Q 1522 -856 1778 -856 
Q 2344 -856 2625 -561 
Q 2906 -266 2906 331 
L 2906 616 
Q 2728 306 2450 153 
Q 2172 0 1784 0 
Q 1141 0 747 490 
Q 353 981 353 1791 
Q 353 2603 747 3093 
Q 1141 3584 1784 3584 
Q 2172 3584 2450 3431 
Q 2728 3278 2906 2969 
L 2906 3500 
L 3481 3500 
L 3481 434 
z
" transform="scale(0.015625)"/>
       <path id="DejaVuSans-61" d="M 2194 1759 
Q 1497 1759 1228 1600 
Q 959 1441 959 1056 
Q 959 750 1161 570 
Q 1363 391 1709 391 
Q 2188 391 2477 730 
Q 2766 1069 2766 1631 
L 2766 1759 
L 2194 1759 
z
M 3341 1997 
L 3341 0 
L 2766 0 
L 2766 531 
Q 2569 213 2275 61 
Q 1981 -91 1556 -91 
Q 1019 -91 701 211 
Q 384 513 384 1019 
Q 384 1609 779 1909 
Q 1175 2209 1959 2209 
L 2766 2209 
L 2766 2266 
Q 2766 2663 2505 2880 
Q 2244 3097 1772 3097 
Q 1472 3097 1187 3025 
Q 903 2953 641 2809 
L 641 3341 
Q 956 3463 1253 3523 
Q 1550 3584 1831 3584 
Q 2591 3584 2966 3190 
Q 3341 2797 3341 1997 
z
" transform="scale(0.015625)"/>
       <path id="DejaVuSans-73" d="M 2834 3397 
L 2834 2853 
Q 2591 2978 2328 3040 
Q 2066 3103 1784 3103 
Q 1356 3103 1142 2972 
Q 928 2841 928 2578 
Q 928 2378 1081 2264 
Q 1234 2150 1697 2047 
L 1894 2003 
Q 2506 1872 2764 1633 
Q 3022 1394 3022 966 
Q 3022 478 2636 193 
Q 2250 -91 1575 -91 
Q 1294 -91 989 -36 
Q 684 19 347 128 
L 347 722 
Q 666 556 975 473 
Q 1284 391 1588 391 
Q 1994 391 2212 530 
Q 2431 669 2431 922 
Q 2431 1156 2273 1281 
Q 2116 1406 1581 1522 
L 1381 1569 
Q 847 1681 609 1914 
Q 372 2147 372 2553 
Q 372 3047 722 3315 
Q 1072 3584 1716 3584 
Q 2034 3584 2315 3537 
Q 2597 3491 2834 3397 
z
" transform="scale(0.015625)"/>
       <path id="DejaVuSans-28" d="M 1984 4856 
Q 1566 4138 1362 3434 
Q 1159 2731 1159 2009 
Q 1159 1288 1364 580 
Q 1569 -128 1984 -844 
L 1484 -844 
Q 1016 -109 783 600 
Q 550 1309 550 2009 
Q 550 2706 781 3412 
Q 1013 4119 1484 4856 
L 1984 4856 
z
" transform="scale(0.015625)"/>
       <path id="DejaVuSans-44" d="M 1259 4147 
L 1259 519 
L 2022 519 
Q 2988 519 3436 956 
Q 3884 1394 3884 2338 
Q 3884 3275 3436 3711 
Q 2988 4147 2022 4147 
L 1259 4147 
z
M 628 4666 
L 1925 4666 
Q 3281 4666 3915 4102 
Q 4550 3538 4550 2338 
Q 4550 1131 3912 565 
Q 3275 0 1925 0 
L 628 0 
L 628 4666 
z
" transform="scale(0.015625)"/>
       <path id="DejaVuSans-2d" d="M 313 2009 
L 1997 2009 
L 1997 1497 
L 313 1497 
L 313 2009 
z
" transform="scale(0.015625)"/>
       <path id="DejaVuSans-52" d="M 2841 2188 
Q 3044 2119 3236 1894 
Q 3428 1669 3622 1275 
L 4263 0 
L 3584 0 
L 2988 1197 
Q 2756 1666 2539 1819 
Q 2322 1972 1947 1972 
L 1259 1972 
L 1259 0 
L 628 0 
L 628 4666 
L 2053 4666 
Q 2853 4666 3247 4331 
Q 3641 3997 3641 3322 
Q 3641 2881 3436 2590 
Q 3231 2300 2841 2188 
z
M 1259 4147 
L 1259 2491 
L 2053 2491 
Q 2509 2491 2742 2702 
Q 2975 2913 2975 3322 
Q 2975 3731 2742 3939 
Q 2509 4147 2053 4147 
L 1259 4147 
z
" transform="scale(0.015625)"/>
       <path id="DejaVuSans-64" d="M 2906 2969 
L 2906 4863 
L 3481 4863 
L 3481 0 
L 2906 0 
L 2906 525 
Q 2725 213 2448 61 
Q 2172 -91 1784 -91 
Q 1150 -91 751 415 
Q 353 922 353 1747 
Q 353 2572 751 3078 
Q 1150 3584 1784 3584 
Q 2172 3584 2448 3432 
Q 2725 3281 2906 2969 
z
M 947 1747 
Q 947 1113 1208 752 
Q 1469 391 1925 391 
Q 2381 391 2643 752 
Q 2906 1113 2906 1747 
Q 2906 2381 2643 2742 
Q 2381 3103 1925 3103 
Q 1469 3103 1208 2742 
Q 947 2381 947 1747 
z
" transform="scale(0.015625)"/>
       <path id="DejaVuSans-29" d="M 513 4856 
L 1013 4856 
Q 1481 4119 1714 3412 
Q 1947 2706 1947 2009 
Q 1947 1309 1714 600 
Q 1481 -109 1013 -844 
L 513 -844 
Q 928 -128 1133 580 
Q 1338 1288 1338 2009 
Q 1338 2731 1133 3434 
Q 928 4138 513 4856 
z
" transform="scale(0.015625)"/>
      </defs>
      <use xlink:href="#DejaVuSans-6e"/>
      <use xlink:href="#DejaVuSans-75" x="63.378906"/>
      <use xlink:href="#DejaVuSans-6d" x="126.757812"/>
      <use xlink:href="#DejaVuSans-62" x="224.169922"/>
      <use xlink:href="#DejaVuSans-65" x="287.646484"/>
      <use xlink:href="#DejaVuSans-72" x="349.169922"/>
      <use xlink:href="#DejaVuSans-20" x="390.283203"/>
      <use xlink:href="#DejaVuSans-6f" x="422.070312"/>
      <use xlink:href="#DejaVuSans-66" x="483.251953"/>
      <use xlink:href="#DejaVuSans-20" x="518.457031"/>
      <use xlink:href="#DejaVuSans-67" x="550.244141"/>
      <use xlink:href="#DejaVuSans-61" x="613.720703"/>
      <use xlink:href="#DejaVuSans-6d" x="675"/>
      <use xlink:href="#DejaVuSans-65" x="772.412109"/>
      <use xlink:href="#DejaVuSans-73" x="833.935547"/>
      <use xlink:href="#DejaVuSans-20" x="886.035156"/>
      <use xlink:href="#DejaVuSans-28" x="917.822266"/>
      <use xlink:href="#DejaVuSans-44" x="956.835938"/>
      <use xlink:href="#DejaVuSans-44" x="1033.837891"/>
      <use xlink:href="#DejaVuSans-2d" x="1110.839844"/>
      <use xlink:href="#DejaVuSans-52" x="1146.923828"/>
      <use xlink:href="#DejaVuSans-61" x="1214.15625"/>
      <use xlink:href="#DejaVuSans-6e" x="1275.435547"/>
      <use xlink:href="#DejaVuSans-64" x="1338.814453"/>
      <use xlink:href="#DejaVuSans-6f" x="1402.291016"/>
      <use xlink:href="#DejaVuSans-6d" x="1463.472656"/>
      <use xlink:href="#DejaVuSans-29" x="1560.884766"/>
     </g>
    </g>
   </g>
   <g id="matplotlib.axis_2">
    <g id="ytick_1">
     <g id="line2d_7">
      <defs>
       <path id="m9f5d1fb801" d="M 0 0 
L -3.5 0 
" style="stroke: #000000; stroke-width: 0.8"/>
      </defs>
      <g>
       <use xlink:href="#m9f5d1fb801" x="67.43" y="287.367273" style="stroke: #000000; stroke-width: 0.8"/>
      </g>
     </g>
     <g id="text_8">
      <!-- 0.0 -->
      <g transform="translate(28.62375 294.96571)scale(0.2 -0.2)">
       <defs>
        <path id="DejaVuSans-2e" d="M 684 794 
L 1344 794 
L 1344 0 
L 684 0 
L 684 794 
z
" transform="scale(0.015625)"/>
       </defs>
       <use xlink:href="#DejaVuSans-30"/>
       <use xlink:href="#DejaVuSans-2e" x="63.623047"/>
       <use xlink:href="#DejaVuSans-30" x="95.410156"/>
      </g>
     </g>
    </g>
    <g id="ytick_2">
     <g id="line2d_8">
      <g>
       <use xlink:href="#m9f5d1fb801" x="67.43" y="245.316364" style="stroke: #000000; stroke-width: 0.8"/>
      </g>
     </g>
     <g id="text_9">
      <!-- 0.1 -->
      <g transform="translate(28.62375 252.914801)scale(0.2 -0.2)">
       <use xlink:href="#DejaVuSans-30"/>
       <use xlink:href="#DejaVuSans-2e" x="63.623047"/>
       <use xlink:href="#DejaVuSans-31" x="95.410156"/>
      </g>
     </g>
    </g>
    <g id="ytick_3">
     <g id="line2d_9">
      <g>
       <use xlink:href="#m9f5d1fb801" x="67.43" y="203.265455" style="stroke: #000000; stroke-width: 0.8"/>
      </g>
     </g>
     <g id="text_10">
      <!-- 0.2 -->
      <g transform="translate(28.62375 210.863892)scale(0.2 -0.2)">
       <use xlink:href="#DejaVuSans-30"/>
       <use xlink:href="#DejaVuSans-2e" x="63.623047"/>
       <use xlink:href="#DejaVuSans-32" x="95.410156"/>
      </g>
     </g>
    </g>
    <g id="ytick_4">
     <g id="line2d_10">
      <g>
       <use xlink:href="#m9f5d1fb801" x="67.43" y="161.214545" style="stroke: #000000; stroke-width: 0.8"/>
      </g>
     </g>
     <g id="text_11">
      <!-- 0.3 -->
      <g transform="translate(28.62375 168.812983)scale(0.2 -0.2)">
       <use xlink:href="#DejaVuSans-30"/>
       <use xlink:href="#DejaVuSans-2e" x="63.623047"/>
       <use xlink:href="#DejaVuSans-33" x="95.410156"/>
      </g>
     </g>
    </g>
    <g id="ytick_5">
     <g id="line2d_11">
      <g>
       <use xlink:href="#m9f5d1fb801" x="67.43" y="119.163636" style="stroke: #000000; stroke-width: 0.8"/>
      </g>
     </g>
     <g id="text_12">
      <!-- 0.4 -->
      <g transform="translate(28.62375 126.762074)scale(0.2 -0.2)">
       <use xlink:href="#DejaVuSans-30"/>
       <use xlink:href="#DejaVuSans-2e" x="63.623047"/>
       <use xlink:href="#DejaVuSans-34" x="95.410156"/>
      </g>
     </g>
    </g>
    <g id="ytick_6">
     <g id="line2d_12">
      <g>
       <use xlink:href="#m9f5d1fb801" x="67.43" y="77.112727" style="stroke: #000000; stroke-width: 0.8"/>
      </g>
     </g>
     <g id="text_13">
      <!-- 0.5 -->
      <g transform="translate(28.62375 84.711165)scale(0.2 -0.2)">
       <use xlink:href="#DejaVuSans-30"/>
       <use xlink:href="#DejaVuSans-2e" x="63.623047"/>
       <use xlink:href="#DejaVuSans-35" x="95.410156"/>
      </g>
     </g>
    </g>
    <g id="text_14">
     <!-- Percentage of Att strategy used -->
     <g transform="translate(21.850833 288.147292)rotate(-90)scale(0.133333 -0.133333)">
      <defs>
       <path id="DejaVuSans-50" d="M 1259 4147 
L 1259 2394 
L 2053 2394 
Q 2494 2394 2734 2622 
Q 2975 2850 2975 3272 
Q 2975 3691 2734 3919 
Q 2494 4147 2053 4147 
L 1259 4147 
z
M 628 4666 
L 2053 4666 
Q 2838 4666 3239 4311 
Q 3641 3956 3641 3272 
Q 3641 2581 3239 2228 
Q 2838 1875 2053 1875 
L 1259 1875 
L 1259 0 
L 628 0 
L 628 4666 
z
" transform="scale(0.015625)"/>
       <path id="DejaVuSans-63" d="M 3122 3366 
L 3122 2828 
Q 2878 2963 2633 3030 
Q 2388 3097 2138 3097 
Q 1578 3097 1268 2742 
Q 959 2388 959 1747 
Q 959 1106 1268 751 
Q 1578 397 2138 397 
Q 2388 397 2633 464 
Q 2878 531 3122 666 
L 3122 134 
Q 2881 22 2623 -34 
Q 2366 -91 2075 -91 
Q 1284 -91 818 406 
Q 353 903 353 1747 
Q 353 2603 823 3093 
Q 1294 3584 2113 3584 
Q 2378 3584 2631 3529 
Q 2884 3475 3122 3366 
z
" transform="scale(0.015625)"/>
       <path id="DejaVuSans-74" d="M 1172 4494 
L 1172 3500 
L 2356 3500 
L 2356 3053 
L 1172 3053 
L 1172 1153 
Q 1172 725 1289 603 
Q 1406 481 1766 481 
L 2356 481 
L 2356 0 
L 1766 0 
Q 1100 0 847 248 
Q 594 497 594 1153 
L 594 3053 
L 172 3053 
L 172 3500 
L 594 3500 
L 594 4494 
L 1172 4494 
z
" transform="scale(0.015625)"/>
       <path id="DejaVuSans-41" d="M 2188 4044 
L 1331 1722 
L 3047 1722 
L 2188 4044 
z
M 1831 4666 
L 2547 4666 
L 4325 0 
L 3669 0 
L 3244 1197 
L 1141 1197 
L 716 0 
L 50 0 
L 1831 4666 
z
" transform="scale(0.015625)"/>
       <path id="DejaVuSans-79" d="M 2059 -325 
Q 1816 -950 1584 -1140 
Q 1353 -1331 966 -1331 
L 506 -1331 
L 506 -850 
L 844 -850 
Q 1081 -850 1212 -737 
Q 1344 -625 1503 -206 
L 1606 56 
L 191 3500 
L 800 3500 
L 1894 763 
L 2988 3500 
L 3597 3500 
L 2059 -325 
z
" transform="scale(0.015625)"/>
      </defs>
      <use xlink:href="#DejaVuSans-50"/>
      <use xlink:href="#DejaVuSans-65" x="56.677734"/>
      <use xlink:href="#DejaVuSans-72" x="118.201172"/>
      <use xlink:href="#DejaVuSans-63" x="157.064453"/>
      <use xlink:href="#DejaVuSans-65" x="212.044922"/>
      <use xlink:href="#DejaVuSans-6e" x="273.568359"/>
      <use xlink:href="#DejaVuSans-74" x="336.947266"/>
      <use xlink:href="#DejaVuSans-61" x="376.15625"/>
      <use xlink:href="#DejaVuSans-67" x="437.435547"/>
      <use xlink:href="#DejaVuSans-65" x="500.912109"/>
      <use xlink:href="#DejaVuSans-20" x="562.435547"/>
      <use xlink:href="#DejaVuSans-6f" x="594.222656"/>
      <use xlink:href="#DejaVuSans-66" x="655.404297"/>
      <use xlink:href="#DejaVuSans-20" x="690.609375"/>
      <use xlink:href="#DejaVuSans-41" x="722.396484"/>
      <use xlink:href="#DejaVuSans-74" x="789.054688"/>
      <use xlink:href="#DejaVuSans-74" x="828.263672"/>
      <use xlink:href="#DejaVuSans-20" x="867.472656"/>
      <use xlink:href="#DejaVuSans-73" x="899.259766"/>
      <use xlink:href="#DejaVuSans-74" x="951.359375"/>
      <use xlink:href="#DejaVuSans-72" x="990.568359"/>
      <use xlink:href="#DejaVuSans-61" x="1031.681641"/>
      <use xlink:href="#DejaVuSans-74" x="1092.960938"/>
      <use xlink:href="#DejaVuSans-65" x="1132.169922"/>
      <use xlink:href="#DejaVuSans-67" x="1193.693359"/>
      <use xlink:href="#DejaVuSans-79" x="1257.169922"/>
      <use xlink:href="#DejaVuSans-20" x="1316.349609"/>
      <use xlink:href="#DejaVuSans-75" x="1348.136719"/>
      <use xlink:href="#DejaVuSans-73" x="1411.515625"/>
      <use xlink:href="#DejaVuSans-65" x="1463.615234"/>
      <use xlink:href="#DejaVuSans-64" x="1525.138672"/>
     </g>
    </g>
   </g>
   <g id="line2d_13">
    <path d="M 87.984793 233.962618 
L 96.549291 239.76247 
L 105.113788 231.25321 
L 113.678285 243.98644 
L 122.242782 236.728502 
L 130.80728 241.193725 
L 139.371777 233.342633 
L 147.936274 239.520491 
L 156.500771 232.406407 
L 165.065269 228.707266 
L 173.629766 234.191785 
L 182.194263 228.707266 
L 190.75876 233.504311 
L 199.323258 231.823699 
L 207.887755 231.987121 
L 216.452252 235.459771 
L 225.016749 230.809439 
L 233.581247 232.141615 
L 242.145744 232.77194 
L 250.710241 235.60526 
L 259.274738 238.419125 
L 267.839236 220.258208 
L 276.403733 238.73697 
L 284.96823 234.180352 
L 293.532727 243.934409 
L 302.097225 230.737109 
L 310.661722 225.015925 
L 319.226219 233.108035 
L 327.790716 231.915524 
L 336.355213 238.403885 
L 344.919711 215.092273 
L 353.484208 243.729537 
L 362.048705 221.833388 
L 370.613202 247.944545 
L 379.1777 255.630738 
L 387.742197 257.330909 
L 396.306694 232.518261 
L 404.871191 230.025124 
L 413.435689 287.367273 
L 422.000186 265.235215 
L 430.564683 193.920808 
L 439.12918 287.367273 
L 447.693678 261.085455 
L 456.258175 261.085455 
L 464.822672 245.316364 
L 473.387169 119.163636 
L 481.951667 147.197576 
L 490.516164 287.367273 
L 499.080661 287.367273 
" clip-path="url(#p6482c6de0a)" style="fill: none; stroke: #1f77b4; stroke-width: 1.5; stroke-linecap: square"/>
   </g>
   <g id="line2d_14">
    <path d="M 87.984793 233.962618 
L 96.549291 235.228679 
L 105.113788 234.024274 
L 113.678285 231.320504 
L 122.242782 233.76717 
L 130.80728 232.948449 
L 139.371777 232.303698 
L 147.936274 229.901808 
L 156.500771 237.083928 
L 165.065269 232.752784 
L 173.629766 237.084175 
L 182.194263 232.752784 
L 190.75876 239.410337 
L 199.323258 233.789843 
L 207.887755 236.602134 
L 216.452252 239.833998 
L 225.016749 240.075977 
L 233.581247 233.946375 
L 242.145744 241.940622 
L 250.710241 228.734197 
L 259.274738 226.738316 
L 267.839236 227.030683 
L 276.403733 230.155152 
L 284.96823 241.659763 
L 293.532727 234.063303 
L 302.097225 231.942006 
L 310.661722 239.516238 
L 319.226219 238.194839 
L 327.790716 238.846993 
L 336.355213 238.403885 
L 344.919711 234.803636 
L 353.484208 243.729537 
L 362.048705 243.678017 
L 370.613202 267.655909 
L 379.1777 231.828336 
L 387.742197 227.294545 
L 396.306694 250.801265 
L 404.871191 210.911074 
L 413.435689 214.235257 
L 422.000186 265.235215 
L 430.564683 264.005657 
L 439.12918 220.9711 
L 447.693678 261.085455 
L 456.258175 234.803636 
L 464.822672 203.265455 
L 473.387169 203.265455 
L 481.951667 287.367273 
L 490.516164 217.282424 
L 499.080661 217.282424 
" clip-path="url(#p6482c6de0a)" style="fill: none; stroke: #ff7f0e; stroke-width: 1.5; stroke-linecap: square"/>
   </g>
   <g id="line2d_15">
    <path d="M 87.984793 242.793309 
L 96.549291 236.739943 
L 105.113788 237.488105 
L 113.678285 232.270449 
L 122.242782 231.398105 
L 130.80728 231.849079 
L 139.371777 231.524497 
L 147.936274 239.520491 
L 156.500771 227.261135 
L 165.065269 235.449795 
L 173.629766 237.75165 
L 182.194263 231.404278 
L 190.75876 230.433177 
L 199.323258 233.789843 
L 207.887755 239.85979 
L 216.452252 230.793928 
L 225.016749 239.436905 
L 233.581247 242.248272 
L 242.145744 234.438973 
L 250.710241 233.772977 
L 259.274738 238.419125 
L 267.839236 235.650196 
L 276.403733 230.870303 
L 284.96823 232.518261 
L 293.532727 234.063303 
L 302.097225 230.737109 
L 310.661722 238.066207 
L 319.226219 246.672845 
L 327.790716 197.258182 
L 336.355213 252.804882 
L 344.919711 241.374091 
L 353.484208 263.564871 
L 362.048705 227.294545 
L 370.613202 228.233182 
L 379.1777 215.960069 
L 387.742197 257.330909 
L 396.306694 250.801265 
L 404.871191 249.139174 
L 413.435689 214.235257 
L 422.000186 220.9711 
L 430.564683 240.64404 
L 439.12918 220.9711 
L 447.693678 182.24 
L 456.258175 261.085455 
L 464.822672 287.367273 
L 473.387169 287.367273 
L 481.951667 77.112727 
L 490.516164 217.282424 
L 499.080661 287.367273 
" clip-path="url(#p6482c6de0a)" style="fill: none; stroke: #2ca02c; stroke-width: 1.5; stroke-linecap: square"/>
   </g>
   <g id="line2d_16">
    <path d="M 87.984793 237.7472 
L 96.549291 230.694889 
L 105.113788 235.75619 
L 113.678285 230.687207 
L 122.242782 233.471037 
L 130.80728 234.597504 
L 139.371777 232.303698 
L 147.936274 235.081098 
L 156.500771 240.825944 
L 165.065269 233.427037 
L 173.629766 231.299394 
L 182.194263 237.472554 
L 190.75876 233.268069 
L 199.323258 238.213668 
L 207.887755 225.471809 
L 216.452252 238.084307 
L 225.016749 230.809439 
L 233.581247 240.08256 
L 242.145744 244.441171 
L 250.710241 234.231048 
L 259.274738 232.856835 
L 267.839236 239.344273 
L 276.403733 230.870303 
L 284.96823 238.33558 
L 293.532727 240.973077 
L 302.097225 234.3518 
L 310.661722 254.016552 
L 319.226219 233.108035 
L 327.790716 238.846993 
L 336.355213 221.12269 
L 344.919711 241.374091 
L 353.484208 247.696604 
L 362.048705 238.21686 
L 370.613202 175.669545 
L 379.1777 247.696604 
L 387.742197 212.276364 
L 396.306694 141.103241 
L 404.871191 249.139174 
L 413.435689 250.801265 
L 422.000186 220.9711 
L 430.564683 264.005657 
L 439.12918 265.235215 
L 447.693678 261.085455 
L 456.258175 234.803636 
L 464.822672 287.367273 
L 473.387169 287.367273 
L 481.951667 287.367273 
L 490.516164 217.282424 
L 499.080661 287.367273 
" clip-path="url(#p6482c6de0a)" style="fill: none; stroke: #d62728; stroke-width: 1.5; stroke-linecap: square"/>
   </g>
   <g id="line2d_17">
    <path d="M 87.984793 228.075491 
L 96.549291 234.850863 
L 105.113788 235.75619 
L 113.678285 228.787317 
L 122.242782 232.878771 
L 130.80728 239.269828 
L 139.371777 239.576246 
L 147.936274 233.601301 
L 156.500771 235.212919 
L 165.065269 237.922056 
L 173.629766 233.52431 
L 182.194263 238.82106 
L 190.75876 239.174096 
L 199.323258 236.493292 
L 207.887755 233.344478 
L 216.452252 231.960388 
L 225.016749 230.170368 
L 233.581247 240.08256 
L 242.145744 229.021115 
L 250.710241 233.772977 
L 259.274738 230.07569 
L 267.839236 245.501067 
L 276.403733 238.021818 
L 284.96823 239.997672 
L 293.532727 245.90863 
L 302.097225 227.122417 
L 310.661722 225.015925 
L 319.226219 239.89044 
L 327.790716 241.157483 
L 336.355213 238.403885 
L 344.919711 234.803636 
L 353.484208 219.927136 
L 362.048705 265.522645 
L 370.613202 241.374091 
L 379.1777 231.828336 
L 387.742197 227.294545 
L 396.306694 232.518261 
L 404.871191 249.139174 
L 413.435689 269.084269 
L 422.000186 198.839043 
L 430.564683 217.282424 
L 439.12918 243.103158 
L 447.693678 261.085455 
L 456.258175 234.803636 
L 464.822672 161.214545 
L 473.387169 287.367273 
L 481.951667 287.367273 
L 490.516164 287.367273 
L 499.080661 147.197576 
" clip-path="url(#p6482c6de0a)" style="fill: none; stroke: #9467bd; stroke-width: 1.5; stroke-linecap: square"/>
   </g>
   <g id="line2d_18">
    <path d="M 87.984793 225.552436 
L 96.549291 236.739943 
L 105.113788 235.063424 
L 113.678285 236.703527 
L 122.242782 240.2821 
L 130.80728 228.001283 
L 139.371777 235.939972 
L 147.936274 234.834465 
L 156.500771 231.938655 
L 165.065269 234.775542 
L 173.629766 238.641616 
L 182.194263 236.348799 
L 190.75876 237.992891 
L 199.323258 235.018683 
L 207.887755 233.887421 
L 216.452252 239.542383 
L 225.016749 235.602476 
L 233.581247 230.697807 
L 242.145744 236.522764 
L 250.710241 240.185969 
L 259.274738 240.64404 
L 267.839236 233.803157 
L 276.403733 235.876364 
L 284.96823 236.673489 
L 293.532727 225.179309 
L 302.097225 231.942006 
L 310.661722 223.565893 
L 319.226219 228.021232 
L 327.790716 234.226014 
L 336.355213 235.523686 
L 344.919711 251.229773 
L 353.484208 204.058868 
L 362.048705 243.678017 
L 370.613202 247.944545 
L 379.1777 239.76247 
L 387.742197 242.312727 
L 396.306694 269.084269 
L 404.871191 249.139174 
L 413.435689 195.952253 
L 422.000186 220.9711 
L 430.564683 193.920808 
L 439.12918 198.839043 
L 447.693678 182.24 
L 456.258175 208.521818 
L 464.822672 287.367273 
L 473.387169 287.367273 
L 481.951667 287.367273 
L 490.516164 147.197576 
L 499.080661 217.282424 
" clip-path="url(#p6482c6de0a)" style="fill: none; stroke: #8c564b; stroke-width: 1.5; stroke-linecap: square"/>
   </g>
   <g id="line2d_19">
    <path d="M 87.984793 235.644655 
L 96.549291 235.228679 
L 105.113788 236.448956 
L 113.678285 237.97012 
L 122.242782 234.65557 
L 130.80728 231.574236 
L 139.371777 242.433318 
L 147.936274 237.054162 
L 156.500771 235.914547 
L 165.065269 236.124048 
L 173.629766 230.854411 
L 182.194263 237.023052 
L 190.75876 235.157998 
L 199.323258 235.018683 
L 207.887755 237.416548 
L 216.452252 229.335852 
L 225.016749 236.561083 
L 233.581247 227.449239 
L 242.145744 229.854632 
L 250.710241 235.60526 
L 259.274738 228.407003 
L 267.839236 241.806991 
L 276.403733 243.74303 
L 284.96823 239.166626 
L 293.532727 226.166419 
L 302.097225 250.015462 
L 310.661722 230.81605 
L 319.226219 228.021232 
L 327.790716 250.399441 
L 336.355213 232.643487 
L 344.919711 251.229773 
L 353.484208 227.861269 
L 362.048705 227.294545 
L 370.613202 234.803636 
L 379.1777 223.894202 
L 387.742197 242.312727 
L 396.306694 269.084269 
L 404.871191 210.911074 
L 413.435689 232.518261 
L 422.000186 243.103158 
L 430.564683 264.005657 
L 439.12918 154.574928 
L 447.693678 261.085455 
L 456.258175 234.803636 
L 464.822672 203.265455 
L 473.387169 203.265455 
L 481.951667 217.282424 
L 490.516164 217.282424 
L 499.080661 147.197576 
" clip-path="url(#p6482c6de0a)" style="fill: none; stroke: #e377c2; stroke-width: 1.5; stroke-linecap: square"/>
   </g>
   <g id="line2d_20">
    <path d="M 87.984793 240.690764 
L 96.549291 229.183625 
L 105.113788 232.638742 
L 113.678285 236.703527 
L 122.242782 235.247836 
L 130.80728 238.994985 
L 139.371777 231.005029 
L 147.936274 228.915276 
L 156.500771 237.785556 
L 165.065269 239.270562 
L 173.629766 235.081751 
L 182.194263 235.899297 
L 190.75876 229.488212 
L 199.323258 234.281379 
L 207.887755 239.85979 
L 216.452252 233.418464 
L 225.016749 234.963404 
L 233.581247 231.780663 
L 242.145744 229.437874 
L 250.710241 236.521402 
L 259.274738 242.868956 
L 267.839236 235.034516 
L 276.403733 230.155152 
L 284.96823 215.897348 
L 293.532727 228.14064 
L 302.097225 241.581183 
L 310.661722 242.416301 
L 319.226219 231.412434 
L 327.790716 245.778462 
L 336.355213 221.12269 
L 344.919711 208.521818 
L 353.484208 227.861269 
L 362.048705 210.911074 
L 370.613202 234.803636 
L 379.1777 231.828336 
L 387.742197 212.276364 
L 396.306694 232.518261 
L 404.871191 230.025124 
L 413.435689 214.235257 
L 422.000186 243.103158 
L 430.564683 240.64404 
L 439.12918 287.367273 
L 447.693678 208.521818 
L 456.258175 208.521818 
L 464.822672 203.265455 
L 473.387169 203.265455 
L 481.951667 287.367273 
L 490.516164 287.367273 
L 499.080661 287.367273 
" clip-path="url(#p6482c6de0a)" style="fill: none; stroke: #7f7f7f; stroke-width: 1.5; stroke-linecap: square"/>
   </g>
   <g id="patch_3">
    <path d="M 67.43 297.88 
L 67.43 66.6 
" style="fill: none; stroke: #000000; stroke-width: 0.8; stroke-linejoin: miter; stroke-linecap: square"/>
   </g>
   <g id="patch_4">
    <path d="M 519.635455 297.88 
L 519.635455 66.6 
" style="fill: none; stroke: #000000; stroke-width: 0.8; stroke-linejoin: miter; stroke-linecap: square"/>
   </g>
   <g id="patch_5">
    <path d="M 67.43 297.88 
L 519.635455 297.88 
" style="fill: none; stroke: #000000; stroke-width: 0.8; stroke-linejoin: miter; stroke-linecap: square"/>
   </g>
   <g id="patch_6">
    <path d="M 67.43 66.6 
L 519.635455 66.6 
" style="fill: none; stroke: #000000; stroke-width: 0.8; stroke-linejoin: miter; stroke-linecap: square"/>
   </g>
   <g id="legend_1">
    <g id="patch_7">
     <path d="M 77.93 59.1 
L 509.135455 59.1 
Q 512.135455 59.1 512.135455 56.1 
L 512.135455 13.565625 
Q 512.135455 10.565625 509.135455 10.565625 
L 77.93 10.565625 
Q 74.93 10.565625 74.93 13.565625 
L 74.93 56.1 
Q 74.93 59.1 77.93 59.1 
z
" style="fill: #ffffff; opacity: 0.8; stroke: #cccccc; stroke-linejoin: miter"/>
    </g>
    <g id="line2d_21">
     <path d="M 80.93 22.713281 
L 95.93 22.713281 
L 110.93 22.713281 
" style="fill: none; stroke: #1f77b4; stroke-width: 1.5; stroke-linecap: square"/>
    </g>
    <g id="text_15">
     <!-- Stra 1 -->
     <g transform="translate(122.93 27.963281)scale(0.15 -0.15)">
      <defs>
       <path id="DejaVuSans-53" d="M 3425 4513 
L 3425 3897 
Q 3066 4069 2747 4153 
Q 2428 4238 2131 4238 
Q 1616 4238 1336 4038 
Q 1056 3838 1056 3469 
Q 1056 3159 1242 3001 
Q 1428 2844 1947 2747 
L 2328 2669 
Q 3034 2534 3370 2195 
Q 3706 1856 3706 1288 
Q 3706 609 3251 259 
Q 2797 -91 1919 -91 
Q 1588 -91 1214 -16 
Q 841 59 441 206 
L 441 856 
Q 825 641 1194 531 
Q 1563 422 1919 422 
Q 2459 422 2753 634 
Q 3047 847 3047 1241 
Q 3047 1584 2836 1778 
Q 2625 1972 2144 2069 
L 1759 2144 
Q 1053 2284 737 2584 
Q 422 2884 422 3419 
Q 422 4038 858 4394 
Q 1294 4750 2059 4750 
Q 2388 4750 2728 4690 
Q 3069 4631 3425 4513 
z
" transform="scale(0.015625)"/>
      </defs>
      <use xlink:href="#DejaVuSans-53"/>
      <use xlink:href="#DejaVuSans-74" x="63.476562"/>
      <use xlink:href="#DejaVuSans-72" x="102.685547"/>
      <use xlink:href="#DejaVuSans-61" x="143.798828"/>
      <use xlink:href="#DejaVuSans-20" x="205.078125"/>
      <use xlink:href="#DejaVuSans-31" x="236.865234"/>
     </g>
    </g>
    <g id="line2d_22">
     <path d="M 80.93 44.730469 
L 95.93 44.730469 
L 110.93 44.730469 
" style="fill: none; stroke: #ff7f0e; stroke-width: 1.5; stroke-linecap: square"/>
    </g>
    <g id="text_16">
     <!-- Stra 2 -->
     <g transform="translate(122.93 49.980469)scale(0.15 -0.15)">
      <use xlink:href="#DejaVuSans-53"/>
      <use xlink:href="#DejaVuSans-74" x="63.476562"/>
      <use xlink:href="#DejaVuSans-72" x="102.685547"/>
      <use xlink:href="#DejaVuSans-61" x="143.798828"/>
      <use xlink:href="#DejaVuSans-20" x="205.078125"/>
      <use xlink:href="#DejaVuSans-32" x="236.865234"/>
     </g>
    </g>
    <g id="line2d_23">
     <path d="M 193.640933 22.713281 
L 208.640933 22.713281 
L 223.640933 22.713281 
" style="fill: none; stroke: #2ca02c; stroke-width: 1.5; stroke-linecap: square"/>
    </g>
    <g id="text_17">
     <!-- Stra 3 -->
     <g transform="translate(235.640933 27.963281)scale(0.15 -0.15)">
      <use xlink:href="#DejaVuSans-53"/>
      <use xlink:href="#DejaVuSans-74" x="63.476562"/>
      <use xlink:href="#DejaVuSans-72" x="102.685547"/>
      <use xlink:href="#DejaVuSans-61" x="143.798828"/>
      <use xlink:href="#DejaVuSans-20" x="205.078125"/>
      <use xlink:href="#DejaVuSans-33" x="236.865234"/>
     </g>
    </g>
    <g id="line2d_24">
     <path d="M 193.640933 44.730469 
L 208.640933 44.730469 
L 223.640933 44.730469 
" style="fill: none; stroke: #d62728; stroke-width: 1.5; stroke-linecap: square"/>
    </g>
    <g id="text_18">
     <!-- Stra 4 -->
     <g transform="translate(235.640933 49.980469)scale(0.15 -0.15)">
      <use xlink:href="#DejaVuSans-53"/>
      <use xlink:href="#DejaVuSans-74" x="63.476562"/>
      <use xlink:href="#DejaVuSans-72" x="102.685547"/>
      <use xlink:href="#DejaVuSans-61" x="143.798828"/>
      <use xlink:href="#DejaVuSans-20" x="205.078125"/>
      <use xlink:href="#DejaVuSans-34" x="236.865234"/>
     </g>
    </g>
    <g id="line2d_25">
     <path d="M 306.351866 22.713281 
L 321.351866 22.713281 
L 336.351866 22.713281 
" style="fill: none; stroke: #9467bd; stroke-width: 1.5; stroke-linecap: square"/>
    </g>
    <g id="text_19">
     <!-- Stra 5 -->
     <g transform="translate(348.351866 27.963281)scale(0.15 -0.15)">
      <use xlink:href="#DejaVuSans-53"/>
      <use xlink:href="#DejaVuSans-74" x="63.476562"/>
      <use xlink:href="#DejaVuSans-72" x="102.685547"/>
      <use xlink:href="#DejaVuSans-61" x="143.798828"/>
      <use xlink:href="#DejaVuSans-20" x="205.078125"/>
      <use xlink:href="#DejaVuSans-35" x="236.865234"/>
     </g>
    </g>
    <g id="line2d_26">
     <path d="M 306.351866 44.730469 
L 321.351866 44.730469 
L 336.351866 44.730469 
" style="fill: none; stroke: #8c564b; stroke-width: 1.5; stroke-linecap: square"/>
    </g>
    <g id="text_20">
     <!-- Stra 6 -->
     <g transform="translate(348.351866 49.980469)scale(0.15 -0.15)">
      <defs>
       <path id="DejaVuSans-36" d="M 2113 2584 
Q 1688 2584 1439 2293 
Q 1191 2003 1191 1497 
Q 1191 994 1439 701 
Q 1688 409 2113 409 
Q 2538 409 2786 701 
Q 3034 994 3034 1497 
Q 3034 2003 2786 2293 
Q 2538 2584 2113 2584 
z
M 3366 4563 
L 3366 3988 
Q 3128 4100 2886 4159 
Q 2644 4219 2406 4219 
Q 1781 4219 1451 3797 
Q 1122 3375 1075 2522 
Q 1259 2794 1537 2939 
Q 1816 3084 2150 3084 
Q 2853 3084 3261 2657 
Q 3669 2231 3669 1497 
Q 3669 778 3244 343 
Q 2819 -91 2113 -91 
Q 1303 -91 875 529 
Q 447 1150 447 2328 
Q 447 3434 972 4092 
Q 1497 4750 2381 4750 
Q 2619 4750 2861 4703 
Q 3103 4656 3366 4563 
z
" transform="scale(0.015625)"/>
      </defs>
      <use xlink:href="#DejaVuSans-53"/>
      <use xlink:href="#DejaVuSans-74" x="63.476562"/>
      <use xlink:href="#DejaVuSans-72" x="102.685547"/>
      <use xlink:href="#DejaVuSans-61" x="143.798828"/>
      <use xlink:href="#DejaVuSans-20" x="205.078125"/>
      <use xlink:href="#DejaVuSans-36" x="236.865234"/>
     </g>
    </g>
    <g id="line2d_27">
     <path d="M 419.062798 22.713281 
L 434.062798 22.713281 
L 449.062798 22.713281 
" style="fill: none; stroke: #e377c2; stroke-width: 1.5; stroke-linecap: square"/>
    </g>
    <g id="text_21">
     <!-- Stra 7 -->
     <g transform="translate(461.062798 27.963281)scale(0.15 -0.15)">
      <defs>
       <path id="DejaVuSans-37" d="M 525 4666 
L 3525 4666 
L 3525 4397 
L 1831 0 
L 1172 0 
L 2766 4134 
L 525 4134 
L 525 4666 
z
" transform="scale(0.015625)"/>
      </defs>
      <use xlink:href="#DejaVuSans-53"/>
      <use xlink:href="#DejaVuSans-74" x="63.476562"/>
      <use xlink:href="#DejaVuSans-72" x="102.685547"/>
      <use xlink:href="#DejaVuSans-61" x="143.798828"/>
      <use xlink:href="#DejaVuSans-20" x="205.078125"/>
      <use xlink:href="#DejaVuSans-37" x="236.865234"/>
     </g>
    </g>
    <g id="line2d_28">
     <path d="M 419.062798 44.730469 
L 434.062798 44.730469 
L 449.062798 44.730469 
" style="fill: none; stroke: #7f7f7f; stroke-width: 1.5; stroke-linecap: square"/>
    </g>
    <g id="text_22">
     <!-- Stra 8 -->
     <g transform="translate(461.062798 49.980469)scale(0.15 -0.15)">
      <defs>
       <path id="DejaVuSans-38" d="M 2034 2216 
Q 1584 2216 1326 1975 
Q 1069 1734 1069 1313 
Q 1069 891 1326 650 
Q 1584 409 2034 409 
Q 2484 409 2743 651 
Q 3003 894 3003 1313 
Q 3003 1734 2745 1975 
Q 2488 2216 2034 2216 
z
M 1403 2484 
Q 997 2584 770 2862 
Q 544 3141 544 3541 
Q 544 4100 942 4425 
Q 1341 4750 2034 4750 
Q 2731 4750 3128 4425 
Q 3525 4100 3525 3541 
Q 3525 3141 3298 2862 
Q 3072 2584 2669 2484 
Q 3125 2378 3379 2068 
Q 3634 1759 3634 1313 
Q 3634 634 3220 271 
Q 2806 -91 2034 -91 
Q 1263 -91 848 271 
Q 434 634 434 1313 
Q 434 1759 690 2068 
Q 947 2378 1403 2484 
z
M 1172 3481 
Q 1172 3119 1398 2916 
Q 1625 2713 2034 2713 
Q 2441 2713 2670 2916 
Q 2900 3119 2900 3481 
Q 2900 3844 2670 4047 
Q 2441 4250 2034 4250 
Q 1625 4250 1398 4047 
Q 1172 3844 1172 3481 
z
" transform="scale(0.015625)"/>
      </defs>
      <use xlink:href="#DejaVuSans-53"/>
      <use xlink:href="#DejaVuSans-74" x="63.476562"/>
      <use xlink:href="#DejaVuSans-72" x="102.685547"/>
      <use xlink:href="#DejaVuSans-61" x="143.798828"/>
      <use xlink:href="#DejaVuSans-20" x="205.078125"/>
      <use xlink:href="#DejaVuSans-38" x="236.865234"/>
     </g>
    </g>
   </g>
  </g>
 </g>
 <defs>
  <clipPath id="p6482c6de0a">
   <rect x="67.43" y="66.6" width="452.205455" height="231.28"/>
  </clipPath>
 </defs>
</svg>
