<?xml version="1.0" encoding="utf-8" standalone="no"?>
<!DOCTYPE svg PUBLIC "-//W3C//DTD SVG 1.1//EN"
  "http://www.w3.org/Graphics/SVG/1.1/DTD/svg11.dtd">
<svg xmlns:xlink="http://www.w3.org/1999/xlink" width="540pt" height="360pt" viewBox="0 0 540 360" xmlns="http://www.w3.org/2000/svg" version="1.1">
 <metadata>
  <rdf:RDF xmlns:dc="http://purl.org/dc/elements/1.1/" xmlns:cc="http://creativecommons.org/ns#" xmlns:rdf="http://www.w3.org/1999/02/22-rdf-syntax-ns#">
   <cc:Work>
    <dc:type rdf:resource="http://purl.org/dc/dcmitype/StillImage"/>
    <dc:date>2024-04-24T21:53:02.583739</dc:date>
    <dc:format>image/svg+xml</dc:format>
    <dc:creator>
     <cc:Agent>
      <dc:title>Matplotlib v3.5.3, https://matplotlib.org/</dc:title>
     </cc:Agent>
    </dc:creator>
   </cc:Work>
  </rdf:RDF>
 </metadata>
 <defs>
  <style type="text/css">*{stroke-linejoin: round; stroke-linecap: butt}</style>
 </defs>
 <g id="figure_1">
  <g id="patch_1">
   <path d="M 0 360 
L 540 360 
L 540 0 
L 0 0 
z
" style="fill: #ffffff"/>
  </g>
  <g id="axes_1">
   <g id="patch_2">
    <path d="M 73.73 297.88 
L 519.635455 297.88 
L 519.635455 66.6 
L 73.73 66.6 
z
" style="fill: #ffffff"/>
   </g>
   <g id="matplotlib.axis_1">
    <g id="xtick_1">
     <g id="line2d_1">
      <defs>
       <path id="m6c3fc8cf1d" d="M 0 0 
L 0 3.5 
" style="stroke: #000000; stroke-width: 0.8"/>
      </defs>
      <g>
       <use xlink:href="#m6c3fc8cf1d" x="93.99843" y="297.88" style="stroke: #000000; stroke-width: 0.8"/>
      </g>
     </g>
     <g id="text_1">
      <!-- 0 -->
      <g transform="translate(87.63593 320.076875)scale(0.2 -0.2)">
       <defs>
        <path id="DejaVuSans-30" d="M 2034 4250 
Q 1547 4250 1301 3770 
Q 1056 3291 1056 2328 
Q 1056 1369 1301 889 
Q 1547 409 2034 409 
Q 2525 409 2770 889 
Q 3016 1369 3016 2328 
Q 3016 3291 2770 3770 
Q 2525 4250 2034 4250 
z
M 2034 4750 
Q 2819 4750 3233 4129 
Q 3647 3509 3647 2328 
Q 3647 1150 3233 529 
Q 2819 -91 2034 -91 
Q 1250 -91 836 529 
Q 422 1150 422 2328 
Q 422 3509 836 4129 
Q 1250 4750 2034 4750 
z
" transform="scale(0.015625)"/>
       </defs>
       <use xlink:href="#DejaVuSans-30"/>
      </g>
     </g>
    </g>
    <g id="xtick_2">
     <g id="line2d_2">
      <g>
       <use xlink:href="#m6c3fc8cf1d" x="178.45022" y="297.88" style="stroke: #000000; stroke-width: 0.8"/>
      </g>
     </g>
     <g id="text_2">
      <!-- 10 -->
      <g transform="translate(165.72522 320.076875)scale(0.2 -0.2)">
       <defs>
        <path id="DejaVuSans-31" d="M 794 531 
L 1825 531 
L 1825 4091 
L 703 3866 
L 703 4441 
L 1819 4666 
L 2450 4666 
L 2450 531 
L 3481 531 
L 3481 0 
L 794 0 
L 794 531 
z
" transform="scale(0.015625)"/>
       </defs>
       <use xlink:href="#DejaVuSans-31"/>
       <use xlink:href="#DejaVuSans-30" x="63.623047"/>
      </g>
     </g>
    </g>
    <g id="xtick_3">
     <g id="line2d_3">
      <g>
       <use xlink:href="#m6c3fc8cf1d" x="262.902011" y="297.88" style="stroke: #000000; stroke-width: 0.8"/>
      </g>
     </g>
     <g id="text_3">
      <!-- 20 -->
      <g transform="translate(250.177011 320.076875)scale(0.2 -0.2)">
       <defs>
        <path id="DejaVuSans-32" d="M 1228 531 
L 3431 531 
L 3431 0 
L 469 0 
L 469 531 
Q 828 903 1448 1529 
Q 2069 2156 2228 2338 
Q 2531 2678 2651 2914 
Q 2772 3150 2772 3378 
Q 2772 3750 2511 3984 
Q 2250 4219 1831 4219 
Q 1534 4219 1204 4116 
Q 875 4013 500 3803 
L 500 4441 
Q 881 4594 1212 4672 
Q 1544 4750 1819 4750 
Q 2544 4750 2975 4387 
Q 3406 4025 3406 3419 
Q 3406 3131 3298 2873 
Q 3191 2616 2906 2266 
Q 2828 2175 2409 1742 
Q 1991 1309 1228 531 
z
" transform="scale(0.015625)"/>
       </defs>
       <use xlink:href="#DejaVuSans-32"/>
       <use xlink:href="#DejaVuSans-30" x="63.623047"/>
      </g>
     </g>
    </g>
    <g id="xtick_4">
     <g id="line2d_4">
      <g>
       <use xlink:href="#m6c3fc8cf1d" x="347.353802" y="297.88" style="stroke: #000000; stroke-width: 0.8"/>
      </g>
     </g>
     <g id="text_4">
      <!-- 30 -->
      <g transform="translate(334.628802 320.076875)scale(0.2 -0.2)">
       <defs>
        <path id="DejaVuSans-33" d="M 2597 2516 
Q 3050 2419 3304 2112 
Q 3559 1806 3559 1356 
Q 3559 666 3084 287 
Q 2609 -91 1734 -91 
Q 1441 -91 1130 -33 
Q 819 25 488 141 
L 488 750 
Q 750 597 1062 519 
Q 1375 441 1716 441 
Q 2309 441 2620 675 
Q 2931 909 2931 1356 
Q 2931 1769 2642 2001 
Q 2353 2234 1838 2234 
L 1294 2234 
L 1294 2753 
L 1863 2753 
Q 2328 2753 2575 2939 
Q 2822 3125 2822 3475 
Q 2822 3834 2567 4026 
Q 2313 4219 1838 4219 
Q 1578 4219 1281 4162 
Q 984 4106 628 3988 
L 628 4550 
Q 988 4650 1302 4700 
Q 1616 4750 1894 4750 
Q 2613 4750 3031 4423 
Q 3450 4097 3450 3541 
Q 3450 3153 3228 2886 
Q 3006 2619 2597 2516 
z
" transform="scale(0.015625)"/>
       </defs>
       <use xlink:href="#DejaVuSans-33"/>
       <use xlink:href="#DejaVuSans-30" x="63.623047"/>
      </g>
     </g>
    </g>
    <g id="xtick_5">
     <g id="line2d_5">
      <g>
       <use xlink:href="#m6c3fc8cf1d" x="431.805592" y="297.88" style="stroke: #000000; stroke-width: 0.8"/>
      </g>
     </g>
     <g id="text_5">
      <!-- 40 -->
      <g transform="translate(419.080592 320.076875)scale(0.2 -0.2)">
       <defs>
        <path id="DejaVuSans-34" d="M 2419 4116 
L 825 1625 
L 2419 1625 
L 2419 4116 
z
M 2253 4666 
L 3047 4666 
L 3047 1625 
L 3713 1625 
L 3713 1100 
L 3047 1100 
L 3047 0 
L 2419 0 
L 2419 1100 
L 313 1100 
L 313 1709 
L 2253 4666 
z
" transform="scale(0.015625)"/>
       </defs>
       <use xlink:href="#DejaVuSans-34"/>
       <use xlink:href="#DejaVuSans-30" x="63.623047"/>
      </g>
     </g>
    </g>
    <g id="xtick_6">
     <g id="line2d_6">
      <g>
       <use xlink:href="#m6c3fc8cf1d" x="516.257383" y="297.88" style="stroke: #000000; stroke-width: 0.8"/>
      </g>
     </g>
     <g id="text_6">
      <!-- 50 -->
      <g transform="translate(503.532383 320.076875)scale(0.2 -0.2)">
       <defs>
        <path id="DejaVuSans-35" d="M 691 4666 
L 3169 4666 
L 3169 4134 
L 1269 4134 
L 1269 2991 
Q 1406 3038 1543 3061 
Q 1681 3084 1819 3084 
Q 2600 3084 3056 2656 
Q 3513 2228 3513 1497 
Q 3513 744 3044 326 
Q 2575 -91 1722 -91 
Q 1428 -91 1123 -41 
Q 819 9 494 109 
L 494 744 
Q 775 591 1075 516 
Q 1375 441 1709 441 
Q 2250 441 2565 725 
Q 2881 1009 2881 1497 
Q 2881 1984 2565 2268 
Q 2250 2553 1709 2553 
Q 1456 2553 1204 2497 
Q 953 2441 691 2322 
L 691 4666 
z
" transform="scale(0.015625)"/>
       </defs>
       <use xlink:href="#DejaVuSans-35"/>
       <use xlink:href="#DejaVuSans-30" x="63.623047"/>
      </g>
     </g>
    </g>
    <g id="text_7">
     <!-- number of games (DD-Random) -->
     <g transform="translate(136.693665 343.433125)scale(0.2 -0.2)">
      <defs>
       <path id="DejaVuSans-6e" d="M 3513 2113 
L 3513 0 
L 2938 0 
L 2938 2094 
Q 2938 2591 2744 2837 
Q 2550 3084 2163 3084 
Q 1697 3084 1428 2787 
Q 1159 2491 1159 1978 
L 1159 0 
L 581 0 
L 581 3500 
L 1159 3500 
L 1159 2956 
Q 1366 3272 1645 3428 
Q 1925 3584 2291 3584 
Q 2894 3584 3203 3211 
Q 3513 2838 3513 2113 
z
" transform="scale(0.015625)"/>
       <path id="DejaVuSans-75" d="M 544 1381 
L 544 3500 
L 1119 3500 
L 1119 1403 
Q 1119 906 1312 657 
Q 1506 409 1894 409 
Q 2359 409 2629 706 
Q 2900 1003 2900 1516 
L 2900 3500 
L 3475 3500 
L 3475 0 
L 2900 0 
L 2900 538 
Q 2691 219 2414 64 
Q 2138 -91 1772 -91 
Q 1169 -91 856 284 
Q 544 659 544 1381 
z
M 1991 3584 
L 1991 3584 
z
" transform="scale(0.015625)"/>
       <path id="DejaVuSans-6d" d="M 3328 2828 
Q 3544 3216 3844 3400 
Q 4144 3584 4550 3584 
Q 5097 3584 5394 3201 
Q 5691 2819 5691 2113 
L 5691 0 
L 5113 0 
L 5113 2094 
Q 5113 2597 4934 2840 
Q 4756 3084 4391 3084 
Q 3944 3084 3684 2787 
Q 3425 2491 3425 1978 
L 3425 0 
L 2847 0 
L 2847 2094 
Q 2847 2600 2669 2842 
Q 2491 3084 2119 3084 
Q 1678 3084 1418 2786 
Q 1159 2488 1159 1978 
L 1159 0 
L 581 0 
L 581 3500 
L 1159 3500 
L 1159 2956 
Q 1356 3278 1631 3431 
Q 1906 3584 2284 3584 
Q 2666 3584 2933 3390 
Q 3200 3197 3328 2828 
z
" transform="scale(0.015625)"/>
       <path id="DejaVuSans-62" d="M 3116 1747 
Q 3116 2381 2855 2742 
Q 2594 3103 2138 3103 
Q 1681 3103 1420 2742 
Q 1159 2381 1159 1747 
Q 1159 1113 1420 752 
Q 1681 391 2138 391 
Q 2594 391 2855 752 
Q 3116 1113 3116 1747 
z
M 1159 2969 
Q 1341 3281 1617 3432 
Q 1894 3584 2278 3584 
Q 2916 3584 3314 3078 
Q 3713 2572 3713 1747 
Q 3713 922 3314 415 
Q 2916 -91 2278 -91 
Q 1894 -91 1617 61 
Q 1341 213 1159 525 
L 1159 0 
L 581 0 
L 581 4863 
L 1159 4863 
L 1159 2969 
z
" transform="scale(0.015625)"/>
       <path id="DejaVuSans-65" d="M 3597 1894 
L 3597 1613 
L 953 1613 
Q 991 1019 1311 708 
Q 1631 397 2203 397 
Q 2534 397 2845 478 
Q 3156 559 3463 722 
L 3463 178 
Q 3153 47 2828 -22 
Q 2503 -91 2169 -91 
Q 1331 -91 842 396 
Q 353 884 353 1716 
Q 353 2575 817 3079 
Q 1281 3584 2069 3584 
Q 2775 3584 3186 3129 
Q 3597 2675 3597 1894 
z
M 3022 2063 
Q 3016 2534 2758 2815 
Q 2500 3097 2075 3097 
Q 1594 3097 1305 2825 
Q 1016 2553 972 2059 
L 3022 2063 
z
" transform="scale(0.015625)"/>
       <path id="DejaVuSans-72" d="M 2631 2963 
Q 2534 3019 2420 3045 
Q 2306 3072 2169 3072 
Q 1681 3072 1420 2755 
Q 1159 2438 1159 1844 
L 1159 0 
L 581 0 
L 581 3500 
L 1159 3500 
L 1159 2956 
Q 1341 3275 1631 3429 
Q 1922 3584 2338 3584 
Q 2397 3584 2469 3576 
Q 2541 3569 2628 3553 
L 2631 2963 
z
" transform="scale(0.015625)"/>
       <path id="DejaVuSans-20" transform="scale(0.015625)"/>
       <path id="DejaVuSans-6f" d="M 1959 3097 
Q 1497 3097 1228 2736 
Q 959 2375 959 1747 
Q 959 1119 1226 758 
Q 1494 397 1959 397 
Q 2419 397 2687 759 
Q 2956 1122 2956 1747 
Q 2956 2369 2687 2733 
Q 2419 3097 1959 3097 
z
M 1959 3584 
Q 2709 3584 3137 3096 
Q 3566 2609 3566 1747 
Q 3566 888 3137 398 
Q 2709 -91 1959 -91 
Q 1206 -91 779 398 
Q 353 888 353 1747 
Q 353 2609 779 3096 
Q 1206 3584 1959 3584 
z
" transform="scale(0.015625)"/>
       <path id="DejaVuSans-66" d="M 2375 4863 
L 2375 4384 
L 1825 4384 
Q 1516 4384 1395 4259 
Q 1275 4134 1275 3809 
L 1275 3500 
L 2222 3500 
L 2222 3053 
L 1275 3053 
L 1275 0 
L 697 0 
L 697 3053 
L 147 3053 
L 147 3500 
L 697 3500 
L 697 3744 
Q 697 4328 969 4595 
Q 1241 4863 1831 4863 
L 2375 4863 
z
" transform="scale(0.015625)"/>
       <path id="DejaVuSans-67" d="M 2906 1791 
Q 2906 2416 2648 2759 
Q 2391 3103 1925 3103 
Q 1463 3103 1205 2759 
Q 947 2416 947 1791 
Q 947 1169 1205 825 
Q 1463 481 1925 481 
Q 2391 481 2648 825 
Q 2906 1169 2906 1791 
z
M 3481 434 
Q 3481 -459 3084 -895 
Q 2688 -1331 1869 -1331 
Q 1566 -1331 1297 -1286 
Q 1028 -1241 775 -1147 
L 775 -588 
Q 1028 -725 1275 -790 
Q 1522 -856 1778 -856 
Q 2344 -856 2625 -561 
Q 2906 -266 2906 331 
L 2906 616 
Q 2728 306 2450 153 
Q 2172 0 1784 0 
Q 1141 0 747 490 
Q 353 981 353 1791 
Q 353 2603 747 3093 
Q 1141 3584 1784 3584 
Q 2172 3584 2450 3431 
Q 2728 3278 2906 2969 
L 2906 3500 
L 3481 3500 
L 3481 434 
z
" transform="scale(0.015625)"/>
       <path id="DejaVuSans-61" d="M 2194 1759 
Q 1497 1759 1228 1600 
Q 959 1441 959 1056 
Q 959 750 1161 570 
Q 1363 391 1709 391 
Q 2188 391 2477 730 
Q 2766 1069 2766 1631 
L 2766 1759 
L 2194 1759 
z
M 3341 1997 
L 3341 0 
L 2766 0 
L 2766 531 
Q 2569 213 2275 61 
Q 1981 -91 1556 -91 
Q 1019 -91 701 211 
Q 384 513 384 1019 
Q 384 1609 779 1909 
Q 1175 2209 1959 2209 
L 2766 2209 
L 2766 2266 
Q 2766 2663 2505 2880 
Q 2244 3097 1772 3097 
Q 1472 3097 1187 3025 
Q 903 2953 641 2809 
L 641 3341 
Q 956 3463 1253 3523 
Q 1550 3584 1831 3584 
Q 2591 3584 2966 3190 
Q 3341 2797 3341 1997 
z
" transform="scale(0.015625)"/>
       <path id="DejaVuSans-73" d="M 2834 3397 
L 2834 2853 
Q 2591 2978 2328 3040 
Q 2066 3103 1784 3103 
Q 1356 3103 1142 2972 
Q 928 2841 928 2578 
Q 928 2378 1081 2264 
Q 1234 2150 1697 2047 
L 1894 2003 
Q 2506 1872 2764 1633 
Q 3022 1394 3022 966 
Q 3022 478 2636 193 
Q 2250 -91 1575 -91 
Q 1294 -91 989 -36 
Q 684 19 347 128 
L 347 722 
Q 666 556 975 473 
Q 1284 391 1588 391 
Q 1994 391 2212 530 
Q 2431 669 2431 922 
Q 2431 1156 2273 1281 
Q 2116 1406 1581 1522 
L 1381 1569 
Q 847 1681 609 1914 
Q 372 2147 372 2553 
Q 372 3047 722 3315 
Q 1072 3584 1716 3584 
Q 2034 3584 2315 3537 
Q 2597 3491 2834 3397 
z
" transform="scale(0.015625)"/>
       <path id="DejaVuSans-28" d="M 1984 4856 
Q 1566 4138 1362 3434 
Q 1159 2731 1159 2009 
Q 1159 1288 1364 580 
Q 1569 -128 1984 -844 
L 1484 -844 
Q 1016 -109 783 600 
Q 550 1309 550 2009 
Q 550 2706 781 3412 
Q 1013 4119 1484 4856 
L 1984 4856 
z
" transform="scale(0.015625)"/>
       <path id="DejaVuSans-44" d="M 1259 4147 
L 1259 519 
L 2022 519 
Q 2988 519 3436 956 
Q 3884 1394 3884 2338 
Q 3884 3275 3436 3711 
Q 2988 4147 2022 4147 
L 1259 4147 
z
M 628 4666 
L 1925 4666 
Q 3281 4666 3915 4102 
Q 4550 3538 4550 2338 
Q 4550 1131 3912 565 
Q 3275 0 1925 0 
L 628 0 
L 628 4666 
z
" transform="scale(0.015625)"/>
       <path id="DejaVuSans-2d" d="M 313 2009 
L 1997 2009 
L 1997 1497 
L 313 1497 
L 313 2009 
z
" transform="scale(0.015625)"/>
       <path id="DejaVuSans-52" d="M 2841 2188 
Q 3044 2119 3236 1894 
Q 3428 1669 3622 1275 
L 4263 0 
L 3584 0 
L 2988 1197 
Q 2756 1666 2539 1819 
Q 2322 1972 1947 1972 
L 1259 1972 
L 1259 0 
L 628 0 
L 628 4666 
L 2053 4666 
Q 2853 4666 3247 4331 
Q 3641 3997 3641 3322 
Q 3641 2881 3436 2590 
Q 3231 2300 2841 2188 
z
M 1259 4147 
L 1259 2491 
L 2053 2491 
Q 2509 2491 2742 2702 
Q 2975 2913 2975 3322 
Q 2975 3731 2742 3939 
Q 2509 4147 2053 4147 
L 1259 4147 
z
" transform="scale(0.015625)"/>
       <path id="DejaVuSans-64" d="M 2906 2969 
L 2906 4863 
L 3481 4863 
L 3481 0 
L 2906 0 
L 2906 525 
Q 2725 213 2448 61 
Q 2172 -91 1784 -91 
Q 1150 -91 751 415 
Q 353 922 353 1747 
Q 353 2572 751 3078 
Q 1150 3584 1784 3584 
Q 2172 3584 2448 3432 
Q 2725 3281 2906 2969 
z
M 947 1747 
Q 947 1113 1208 752 
Q 1469 391 1925 391 
Q 2381 391 2643 752 
Q 2906 1113 2906 1747 
Q 2906 2381 2643 2742 
Q 2381 3103 1925 3103 
Q 1469 3103 1208 2742 
Q 947 2381 947 1747 
z
" transform="scale(0.015625)"/>
       <path id="DejaVuSans-29" d="M 513 4856 
L 1013 4856 
Q 1481 4119 1714 3412 
Q 1947 2706 1947 2009 
Q 1947 1309 1714 600 
Q 1481 -109 1013 -844 
L 513 -844 
Q 928 -128 1133 580 
Q 1338 1288 1338 2009 
Q 1338 2731 1133 3434 
Q 928 4138 513 4856 
z
" transform="scale(0.015625)"/>
      </defs>
      <use xlink:href="#DejaVuSans-6e"/>
      <use xlink:href="#DejaVuSans-75" x="63.378906"/>
      <use xlink:href="#DejaVuSans-6d" x="126.757812"/>
      <use xlink:href="#DejaVuSans-62" x="224.169922"/>
      <use xlink:href="#DejaVuSans-65" x="287.646484"/>
      <use xlink:href="#DejaVuSans-72" x="349.169922"/>
      <use xlink:href="#DejaVuSans-20" x="390.283203"/>
      <use xlink:href="#DejaVuSans-6f" x="422.070312"/>
      <use xlink:href="#DejaVuSans-66" x="483.251953"/>
      <use xlink:href="#DejaVuSans-20" x="518.457031"/>
      <use xlink:href="#DejaVuSans-67" x="550.244141"/>
      <use xlink:href="#DejaVuSans-61" x="613.720703"/>
      <use xlink:href="#DejaVuSans-6d" x="675"/>
      <use xlink:href="#DejaVuSans-65" x="772.412109"/>
      <use xlink:href="#DejaVuSans-73" x="833.935547"/>
      <use xlink:href="#DejaVuSans-20" x="886.035156"/>
      <use xlink:href="#DejaVuSans-28" x="917.822266"/>
      <use xlink:href="#DejaVuSans-44" x="956.835938"/>
      <use xlink:href="#DejaVuSans-44" x="1033.837891"/>
      <use xlink:href="#DejaVuSans-2d" x="1110.839844"/>
      <use xlink:href="#DejaVuSans-52" x="1146.923828"/>
      <use xlink:href="#DejaVuSans-61" x="1214.15625"/>
      <use xlink:href="#DejaVuSans-6e" x="1275.435547"/>
      <use xlink:href="#DejaVuSans-64" x="1338.814453"/>
      <use xlink:href="#DejaVuSans-6f" x="1402.291016"/>
      <use xlink:href="#DejaVuSans-6d" x="1463.472656"/>
      <use xlink:href="#DejaVuSans-29" x="1560.884766"/>
     </g>
    </g>
   </g>
   <g id="matplotlib.axis_2">
    <g id="ytick_1">
     <g id="line2d_7">
      <defs>
       <path id="m22763b7ce3" d="M 0 0 
L -3.5 0 
" style="stroke: #000000; stroke-width: 0.8"/>
      </defs>
      <g>
       <use xlink:href="#m22763b7ce3" x="73.73" y="287.367273" style="stroke: #000000; stroke-width: 0.8"/>
      </g>
     </g>
     <g id="text_8">
      <!-- 0 -->
      <g transform="translate(54.005 294.96571)scale(0.2 -0.2)">
       <use xlink:href="#DejaVuSans-30"/>
      </g>
     </g>
    </g>
    <g id="ytick_2">
     <g id="line2d_8">
      <g>
       <use xlink:href="#m22763b7ce3" x="73.73" y="247.088624" style="stroke: #000000; stroke-width: 0.8"/>
      </g>
     </g>
     <g id="text_9">
      <!-- 50 -->
      <g transform="translate(41.28 254.687062)scale(0.2 -0.2)">
       <use xlink:href="#DejaVuSans-35"/>
       <use xlink:href="#DejaVuSans-30" x="63.623047"/>
      </g>
     </g>
    </g>
    <g id="ytick_3">
     <g id="line2d_9">
      <g>
       <use xlink:href="#m22763b7ce3" x="73.73" y="206.809976" style="stroke: #000000; stroke-width: 0.8"/>
      </g>
     </g>
     <g id="text_10">
      <!-- 100 -->
      <g transform="translate(28.555 214.408413)scale(0.2 -0.2)">
       <use xlink:href="#DejaVuSans-31"/>
       <use xlink:href="#DejaVuSans-30" x="63.623047"/>
       <use xlink:href="#DejaVuSans-30" x="127.246094"/>
      </g>
     </g>
    </g>
    <g id="ytick_4">
     <g id="line2d_10">
      <g>
       <use xlink:href="#m22763b7ce3" x="73.73" y="166.531327" style="stroke: #000000; stroke-width: 0.8"/>
      </g>
     </g>
     <g id="text_11">
      <!-- 150 -->
      <g transform="translate(28.555 174.129765)scale(0.2 -0.2)">
       <use xlink:href="#DejaVuSans-31"/>
       <use xlink:href="#DejaVuSans-35" x="63.623047"/>
       <use xlink:href="#DejaVuSans-30" x="127.246094"/>
      </g>
     </g>
    </g>
    <g id="ytick_5">
     <g id="line2d_11">
      <g>
       <use xlink:href="#m22763b7ce3" x="73.73" y="126.252679" style="stroke: #000000; stroke-width: 0.8"/>
      </g>
     </g>
     <g id="text_12">
      <!-- 200 -->
      <g transform="translate(28.555 133.851116)scale(0.2 -0.2)">
       <use xlink:href="#DejaVuSans-32"/>
       <use xlink:href="#DejaVuSans-30" x="63.623047"/>
       <use xlink:href="#DejaVuSans-30" x="127.246094"/>
      </g>
     </g>
    </g>
    <g id="ytick_6">
     <g id="line2d_12">
      <g>
       <use xlink:href="#m22763b7ce3" x="73.73" y="85.97403" style="stroke: #000000; stroke-width: 0.8"/>
      </g>
     </g>
     <g id="text_13">
      <!-- 250 -->
      <g transform="translate(28.555 93.572467)scale(0.2 -0.2)">
       <use xlink:href="#DejaVuSans-32"/>
       <use xlink:href="#DejaVuSans-35" x="63.623047"/>
       <use xlink:href="#DejaVuSans-30" x="127.246094"/>
      </g>
     </g>
    </g>
    <g id="text_14">
     <!-- Number of Att strategy used -->
     <g transform="translate(21.782083 277.431667)rotate(-90)scale(0.133333 -0.133333)">
      <defs>
       <path id="DejaVuSans-4e" d="M 628 4666 
L 1478 4666 
L 3547 763 
L 3547 4666 
L 4159 4666 
L 4159 0 
L 3309 0 
L 1241 3903 
L 1241 0 
L 628 0 
L 628 4666 
z
" transform="scale(0.015625)"/>
       <path id="DejaVuSans-41" d="M 2188 4044 
L 1331 1722 
L 3047 1722 
L 2188 4044 
z
M 1831 4666 
L 2547 4666 
L 4325 0 
L 3669 0 
L 3244 1197 
L 1141 1197 
L 716 0 
L 50 0 
L 1831 4666 
z
" transform="scale(0.015625)"/>
       <path id="DejaVuSans-74" d="M 1172 4494 
L 1172 3500 
L 2356 3500 
L 2356 3053 
L 1172 3053 
L 1172 1153 
Q 1172 725 1289 603 
Q 1406 481 1766 481 
L 2356 481 
L 2356 0 
L 1766 0 
Q 1100 0 847 248 
Q 594 497 594 1153 
L 594 3053 
L 172 3053 
L 172 3500 
L 594 3500 
L 594 4494 
L 1172 4494 
z
" transform="scale(0.015625)"/>
       <path id="DejaVuSans-79" d="M 2059 -325 
Q 1816 -950 1584 -1140 
Q 1353 -1331 966 -1331 
L 506 -1331 
L 506 -850 
L 844 -850 
Q 1081 -850 1212 -737 
Q 1344 -625 1503 -206 
L 1606 56 
L 191 3500 
L 800 3500 
L 1894 763 
L 2988 3500 
L 3597 3500 
L 2059 -325 
z
" transform="scale(0.015625)"/>
      </defs>
      <use xlink:href="#DejaVuSans-4e"/>
      <use xlink:href="#DejaVuSans-75" x="74.804688"/>
      <use xlink:href="#DejaVuSans-6d" x="138.183594"/>
      <use xlink:href="#DejaVuSans-62" x="235.595703"/>
      <use xlink:href="#DejaVuSans-65" x="299.072266"/>
      <use xlink:href="#DejaVuSans-72" x="360.595703"/>
      <use xlink:href="#DejaVuSans-20" x="401.708984"/>
      <use xlink:href="#DejaVuSans-6f" x="433.496094"/>
      <use xlink:href="#DejaVuSans-66" x="494.677734"/>
      <use xlink:href="#DejaVuSans-20" x="529.882812"/>
      <use xlink:href="#DejaVuSans-41" x="561.669922"/>
      <use xlink:href="#DejaVuSans-74" x="628.328125"/>
      <use xlink:href="#DejaVuSans-74" x="667.537109"/>
      <use xlink:href="#DejaVuSans-20" x="706.746094"/>
      <use xlink:href="#DejaVuSans-73" x="738.533203"/>
      <use xlink:href="#DejaVuSans-74" x="790.632812"/>
      <use xlink:href="#DejaVuSans-72" x="829.841797"/>
      <use xlink:href="#DejaVuSans-61" x="870.955078"/>
      <use xlink:href="#DejaVuSans-74" x="932.234375"/>
      <use xlink:href="#DejaVuSans-65" x="971.443359"/>
      <use xlink:href="#DejaVuSans-67" x="1032.966797"/>
      <use xlink:href="#DejaVuSans-79" x="1096.443359"/>
      <use xlink:href="#DejaVuSans-20" x="1155.623047"/>
      <use xlink:href="#DejaVuSans-75" x="1187.410156"/>
      <use xlink:href="#DejaVuSans-73" x="1250.789062"/>
      <use xlink:href="#DejaVuSans-65" x="1302.888672"/>
      <use xlink:href="#DejaVuSans-64" x="1364.412109"/>
     </g>
    </g>
   </g>
   <g id="line2d_13">
    <path d="M 93.99843 185.059505 
L 102.443609 185.865078 
L 110.888788 156.864451 
L 119.333967 177.003776 
L 127.779146 149.614295 
L 136.224325 152.031014 
L 144.669504 119.808095 
L 153.114683 131.086116 
L 161.559862 98.057625 
L 170.005041 77.112727 
L 178.45022 94.835333 
L 186.895399 77.112727 
L 195.340579 103.696635 
L 203.785758 105.307781 
L 212.230937 123.030387 
L 220.676116 143.975284 
L 229.121295 144.780857 
L 237.566474 164.114608 
L 246.011653 181.837214 
L 254.456832 196.337527 
L 262.902011 216.476851 
L 271.34719 199.559819 
L 279.792369 232.588311 
L 288.237548 235.810603 
L 296.682727 251.922062 
L 305.127906 249.505343 
L 313.573085 252.727635 
L 322.018264 261.588938 
L 330.463444 268.033521 
L 338.908623 273.672532 
L 347.353802 269.644667 
L 355.798981 278.50597 
L 364.24416 277.700397 
L 372.689339 282.533835 
L 381.134518 284.144981 
L 389.579697 285.756127 
L 398.024876 284.950554 
L 406.470055 284.950554 
L 414.915234 287.367273 
L 423.360413 286.5617 
L 431.805592 284.144981 
L 440.250771 287.367273 
L 448.69595 286.5617 
L 457.141129 286.5617 
L 465.586309 286.5617 
L 474.031488 285.756127 
L 482.476667 285.756127 
L 490.921846 287.367273 
L 499.367025 287.367273 
" clip-path="url(#p4e3b61bab6)" style="fill: none; stroke: #1f77b4; stroke-width: 1.5; stroke-linecap: square"/>
   </g>
   <g id="line2d_14">
    <path d="M 93.99843 185.059505 
L 102.443609 176.198203 
L 110.888788 163.309035 
L 119.333967 144.780857 
L 127.779146 141.558565 
L 136.224325 127.863824 
L 144.669504 116.585803 
L 153.114683 99.66877 
L 161.559862 114.169084 
L 170.005041 91.613041 
L 178.45022 105.307781 
L 186.895399 91.613041 
L 195.340579 123.83596 
L 203.785758 111.752365 
L 212.230937 136.725127 
L 220.676116 156.058878 
L 229.121295 168.142473 
L 237.566474 168.142473 
L 246.011653 199.559819 
L 254.456832 184.253932 
L 262.902011 199.559819 
L 271.34719 208.421122 
L 279.792369 222.921435 
L 288.237548 243.060759 
L 296.682727 243.866332 
L 305.127906 250.310916 
L 313.573085 260.783365 
L 322.018264 264.005657 
L 330.463444 270.45024 
L 338.908623 273.672532 
L 347.353802 274.478105 
L 355.798981 278.50597 
L 364.24416 280.922689 
L 372.689339 284.950554 
L 381.134518 281.728262 
L 389.579697 284.144981 
L 398.024876 285.756127 
L 406.470055 284.144981 
L 414.915234 284.144981 
L 423.360413 286.5617 
L 431.805592 286.5617 
L 440.250771 284.950554 
L 448.69595 286.5617 
L 457.141129 285.756127 
L 465.586309 285.756127 
L 474.031488 286.5617 
L 482.476667 287.367273 
L 490.921846 286.5617 
L 499.367025 286.5617 
" clip-path="url(#p4e3b61bab6)" style="fill: none; stroke: #ff7f0e; stroke-width: 1.5; stroke-linecap: square"/>
   </g>
   <g id="line2d_15">
    <path d="M 93.99843 201.976538 
L 102.443609 179.420495 
L 110.888788 171.364765 
L 119.333967 147.197576 
L 127.779146 135.113981 
L 136.224325 124.641533 
L 144.669504 114.169084 
L 153.114683 131.086116 
L 161.559862 80.335019 
L 170.005041 101.279916 
L 178.45022 107.7245 
L 186.895399 86.779603 
L 195.340579 93.224187 
L 203.785758 111.752365 
L 212.230937 146.392003 
L 220.676116 131.086116 
L 229.121295 166.531327 
L 237.566474 186.670651 
L 246.011653 185.059505 
L 254.456832 193.115235 
L 262.902011 216.476851 
L 271.34719 219.699143 
L 279.792369 223.727008 
L 288.237548 234.199457 
L 296.682727 243.866332 
L 305.127906 249.505343 
L 313.573085 259.977792 
L 322.018264 268.033521 
L 330.463444 255.949927 
L 338.908623 277.700397 
L 347.353802 276.089251 
L 355.798981 282.533835 
L 364.24416 278.50597 
L 372.689339 280.117116 
L 381.134518 280.117116 
L 389.579697 285.756127 
L 398.024876 285.756127 
L 406.470055 285.756127 
L 414.915234 284.144981 
L 423.360413 284.950554 
L 431.805592 285.756127 
L 440.250771 284.950554 
L 448.69595 284.144981 
L 457.141129 286.5617 
L 465.586309 287.367273 
L 474.031488 287.367273 
L 482.476667 284.950554 
L 490.921846 286.5617 
L 499.367025 287.367273 
" clip-path="url(#p4e3b61bab6)" style="fill: none; stroke: #2ca02c; stroke-width: 1.5; stroke-linecap: square"/>
   </g>
   <g id="line2d_16">
    <path d="M 93.99843 192.309662 
L 102.443609 166.531327 
L 110.888788 167.3369 
L 119.333967 143.169711 
L 127.779146 140.752992 
L 136.224325 132.697262 
L 144.669504 116.585803 
L 153.114683 116.585803 
L 161.559862 127.058251 
L 170.005041 94.02976 
L 178.45022 84.362884 
L 186.895399 108.530073 
L 195.340579 102.891062 
L 203.785758 126.252679 
L 212.230937 103.696635 
L 220.676116 151.225441 
L 229.121295 144.780857 
L 237.566474 181.837214 
L 246.011653 204.393257 
L 254.456832 193.920808 
L 262.902011 208.421122 
L 271.34719 224.532581 
L 279.792369 223.727008 
L 288.237548 239.838467 
L 296.682727 249.505343 
L 305.127906 251.922062 
L 313.573085 268.839094 
L 322.018264 261.588938 
L 330.463444 270.45024 
L 338.908623 268.839094 
L 347.353802 276.089251 
L 355.798981 279.311543 
L 364.24416 280.117116 
L 372.689339 273.672532 
L 381.134518 283.339408 
L 389.579697 283.339408 
L 398.024876 280.922689 
L 406.470055 285.756127 
L 414.915234 285.756127 
L 423.360413 284.950554 
L 431.805592 286.5617 
L 440.250771 286.5617 
L 448.69595 286.5617 
L 457.141129 285.756127 
L 465.586309 287.367273 
L 474.031488 287.367273 
L 482.476667 287.367273 
L 490.921846 286.5617 
L 499.367025 287.367273 
" clip-path="url(#p4e3b61bab6)" style="fill: none; stroke: #d62728; stroke-width: 1.5; stroke-linecap: square"/>
   </g>
   <g id="line2d_17">
    <path d="M 93.99843 173.781484 
L 102.443609 175.39263 
L 110.888788 167.3369 
L 119.333967 138.336273 
L 127.779146 139.141846 
L 136.224325 146.392003 
L 144.669504 139.141846 
L 153.114683 111.752365 
L 161.559862 107.7245 
L 170.005041 110.141219 
L 178.45022 92.418614 
L 186.895399 113.363511 
L 195.340579 123.030387 
L 203.785758 120.613668 
L 212.230937 127.058251 
L 220.676116 134.308408 
L 229.121295 143.169711 
L 237.566474 181.837214 
L 246.011653 174.587057 
L 254.456832 193.115235 
L 262.902011 204.393257 
L 271.34719 232.588311 
L 279.792369 231.782738 
L 288.237548 241.449613 
L 296.682727 253.533208 
L 305.127906 247.088624 
L 313.573085 252.727635 
L 322.018264 264.81123 
L 330.463444 271.255813 
L 338.908623 273.672532 
L 347.353802 274.478105 
L 355.798981 273.672532 
L 364.24416 284.144981 
L 372.689339 281.728262 
L 381.134518 281.728262 
L 389.579697 284.144981 
L 398.024876 284.950554 
L 406.470055 285.756127 
L 414.915234 286.5617 
L 423.360413 284.144981 
L 431.805592 284.950554 
L 440.250771 285.756127 
L 448.69595 286.5617 
L 457.141129 285.756127 
L 465.586309 284.950554 
L 474.031488 287.367273 
L 482.476667 287.367273 
L 490.921846 287.367273 
L 499.367025 285.756127 
" clip-path="url(#p4e3b61bab6)" style="fill: none; stroke: #9467bd; stroke-width: 1.5; stroke-linecap: square"/>
   </g>
   <g id="line2d_18">
    <path d="M 93.99843 168.948046 
L 102.443609 179.420495 
L 110.888788 165.725754 
L 119.333967 158.475597 
L 127.779146 159.28117 
L 136.224325 113.363511 
L 144.669504 127.863824 
L 153.114683 115.78023 
L 161.559862 96.446479 
L 170.005041 98.863197 
L 178.45022 110.946792 
L 186.895399 104.502208 
L 195.340579 119.002522 
L 203.785758 115.78023 
L 212.230937 128.669397 
L 220.676116 155.253305 
L 229.121295 156.864451 
L 237.566474 160.892316 
L 246.011653 189.08737 
L 254.456832 204.393257 
L 262.902011 219.699143 
L 271.34719 217.282424 
L 279.792369 229.366019 
L 288.237548 238.227321 
L 296.682727 236.616176 
L 305.127906 250.310916 
L 313.573085 251.922062 
L 322.018264 259.172219 
L 330.463444 268.839094 
L 338.908623 272.866959 
L 347.353802 278.50597 
L 355.798981 270.45024 
L 364.24416 280.922689 
L 372.689339 282.533835 
L 381.134518 282.533835 
L 389.579697 284.950554 
L 398.024876 286.5617 
L 406.470055 285.756127 
L 414.915234 283.339408 
L 423.360413 284.950554 
L 431.805592 284.144981 
L 440.250771 284.144981 
L 448.69595 284.144981 
L 457.141129 284.950554 
L 465.586309 287.367273 
L 474.031488 287.367273 
L 482.476667 287.367273 
L 490.921846 285.756127 
L 499.367025 286.5617 
" clip-path="url(#p4e3b61bab6)" style="fill: none; stroke: #8c564b; stroke-width: 1.5; stroke-linecap: square"/>
   </g>
   <g id="line2d_19">
    <path d="M 93.99843 188.281797 
L 102.443609 176.198203 
L 110.888788 168.948046 
L 119.333967 161.697889 
L 127.779146 143.975284 
L 136.224325 123.83596 
L 144.669504 148.003149 
L 153.114683 123.030387 
L 161.559862 110.141219 
L 170.005041 103.696635 
L 178.45022 82.751738 
L 186.895399 106.918927 
L 195.340579 109.335646 
L 203.785758 115.78023 
L 212.230937 139.141846 
L 220.676116 127.058251 
L 229.121295 159.28117 
L 237.566474 153.64216 
L 246.011653 176.198203 
L 254.456832 196.337527 
L 262.902011 201.976538 
L 271.34719 227.754873 
L 279.792369 238.227321 
L 288.237548 240.64404 
L 296.682727 237.421749 
L 305.127906 262.394511 
L 313.573085 255.949927 
L 322.018264 259.172219 
L 330.463444 274.478105 
L 338.908623 272.061386 
L 347.353802 278.50597 
L 355.798981 275.283678 
L 364.24416 278.50597 
L 372.689339 280.922689 
L 381.134518 280.922689 
L 389.579697 284.950554 
L 398.024876 286.5617 
L 406.470055 284.144981 
L 414.915234 284.950554 
L 423.360413 285.756127 
L 431.805592 286.5617 
L 440.250771 282.533835 
L 448.69595 286.5617 
L 457.141129 285.756127 
L 465.586309 285.756127 
L 474.031488 286.5617 
L 482.476667 286.5617 
L 490.921846 286.5617 
L 499.367025 285.756127 
" clip-path="url(#p4e3b61bab6)" style="fill: none; stroke: #e377c2; stroke-width: 1.5; stroke-linecap: square"/>
   </g>
   <g id="line2d_20">
    <path d="M 93.99843 197.948673 
L 102.443609 163.309035 
L 110.888788 160.086743 
L 119.333967 158.475597 
L 127.779146 145.58643 
L 136.224325 145.58643 
L 144.669504 112.557938 
L 153.114683 96.446479 
L 161.559862 116.585803 
L 170.005041 114.974657 
L 178.45022 98.057625 
L 186.895399 102.891062 
L 195.340579 90.001895 
L 203.785758 113.363511 
L 212.230937 146.392003 
L 220.676116 138.336273 
L 229.121295 155.253305 
L 237.566474 163.309035 
L 246.011653 175.39263 
L 254.456832 197.948673 
L 262.902011 222.921435 
L 271.34719 218.89357 
L 279.792369 222.921435 
L 288.237548 218.087997 
L 296.682727 239.032894 
L 305.127906 256.7555 
L 313.573085 262.394511 
L 322.018264 260.783365 
L 330.463444 272.866959 
L 338.908623 268.839094 
L 347.353802 268.033521 
L 355.798981 275.283678 
L 364.24416 276.089251 
L 372.689339 280.922689 
L 381.134518 281.728262 
L 389.579697 283.339408 
L 398.024876 284.950554 
L 406.470055 284.950554 
L 414.915234 284.144981 
L 423.360413 285.756127 
L 431.805592 285.756127 
L 440.250771 287.367273 
L 448.69595 284.950554 
L 457.141129 284.950554 
L 465.586309 285.756127 
L 474.031488 286.5617 
L 482.476667 287.367273 
L 490.921846 287.367273 
L 499.367025 287.367273 
" clip-path="url(#p4e3b61bab6)" style="fill: none; stroke: #7f7f7f; stroke-width: 1.5; stroke-linecap: square"/>
   </g>
   <g id="patch_3">
    <path d="M 73.73 297.88 
L 73.73 66.6 
" style="fill: none; stroke: #000000; stroke-width: 0.8; stroke-linejoin: miter; stroke-linecap: square"/>
   </g>
   <g id="patch_4">
    <path d="M 519.635455 297.88 
L 519.635455 66.6 
" style="fill: none; stroke: #000000; stroke-width: 0.8; stroke-linejoin: miter; stroke-linecap: square"/>
   </g>
   <g id="patch_5">
    <path d="M 73.73 297.88 
L 519.635455 297.88 
" style="fill: none; stroke: #000000; stroke-width: 0.8; stroke-linejoin: miter; stroke-linecap: square"/>
   </g>
   <g id="patch_6">
    <path d="M 73.73 66.6 
L 519.635455 66.6 
" style="fill: none; stroke: #000000; stroke-width: 0.8; stroke-linejoin: miter; stroke-linecap: square"/>
   </g>
   <g id="legend_1">
    <g id="patch_7">
     <path d="M 84.23 59.1 
L 509.135455 59.1 
Q 512.135455 59.1 512.135455 56.1 
L 512.135455 13.565625 
Q 512.135455 10.565625 509.135455 10.565625 
L 84.23 10.565625 
Q 81.23 10.565625 81.23 13.565625 
L 81.23 56.1 
Q 81.23 59.1 84.23 59.1 
z
" style="fill: #ffffff; opacity: 0.8; stroke: #cccccc; stroke-linejoin: miter"/>
    </g>
    <g id="line2d_21">
     <path d="M 87.23 22.713281 
L 102.23 22.713281 
L 117.23 22.713281 
" style="fill: none; stroke: #1f77b4; stroke-width: 1.5; stroke-linecap: square"/>
    </g>
    <g id="text_15">
     <!-- Stra 1 -->
     <g transform="translate(129.23 27.963281)scale(0.15 -0.15)">
      <defs>
       <path id="DejaVuSans-53" d="M 3425 4513 
L 3425 3897 
Q 3066 4069 2747 4153 
Q 2428 4238 2131 4238 
Q 1616 4238 1336 4038 
Q 1056 3838 1056 3469 
Q 1056 3159 1242 3001 
Q 1428 2844 1947 2747 
L 2328 2669 
Q 3034 2534 3370 2195 
Q 3706 1856 3706 1288 
Q 3706 609 3251 259 
Q 2797 -91 1919 -91 
Q 1588 -91 1214 -16 
Q 841 59 441 206 
L 441 856 
Q 825 641 1194 531 
Q 1563 422 1919 422 
Q 2459 422 2753 634 
Q 3047 847 3047 1241 
Q 3047 1584 2836 1778 
Q 2625 1972 2144 2069 
L 1759 2144 
Q 1053 2284 737 2584 
Q 422 2884 422 3419 
Q 422 4038 858 4394 
Q 1294 4750 2059 4750 
Q 2388 4750 2728 4690 
Q 3069 4631 3425 4513 
z
" transform="scale(0.015625)"/>
      </defs>
      <use xlink:href="#DejaVuSans-53"/>
      <use xlink:href="#DejaVuSans-74" x="63.476562"/>
      <use xlink:href="#DejaVuSans-72" x="102.685547"/>
      <use xlink:href="#DejaVuSans-61" x="143.798828"/>
      <use xlink:href="#DejaVuSans-20" x="205.078125"/>
      <use xlink:href="#DejaVuSans-31" x="236.865234"/>
     </g>
    </g>
    <g id="line2d_22">
     <path d="M 87.23 44.730469 
L 102.23 44.730469 
L 117.23 44.730469 
" style="fill: none; stroke: #ff7f0e; stroke-width: 1.5; stroke-linecap: square"/>
    </g>
    <g id="text_16">
     <!-- Stra 2 -->
     <g transform="translate(129.23 49.980469)scale(0.15 -0.15)">
      <use xlink:href="#DejaVuSans-53"/>
      <use xlink:href="#DejaVuSans-74" x="63.476562"/>
      <use xlink:href="#DejaVuSans-72" x="102.685547"/>
      <use xlink:href="#DejaVuSans-61" x="143.798828"/>
      <use xlink:href="#DejaVuSans-20" x="205.078125"/>
      <use xlink:href="#DejaVuSans-32" x="236.865234"/>
     </g>
    </g>
    <g id="line2d_23">
     <path d="M 197.840933 22.713281 
L 212.840933 22.713281 
L 227.840933 22.713281 
" style="fill: none; stroke: #2ca02c; stroke-width: 1.5; stroke-linecap: square"/>
    </g>
    <g id="text_17">
     <!-- Stra 3 -->
     <g transform="translate(239.840933 27.963281)scale(0.15 -0.15)">
      <use xlink:href="#DejaVuSans-53"/>
      <use xlink:href="#DejaVuSans-74" x="63.476562"/>
      <use xlink:href="#DejaVuSans-72" x="102.685547"/>
      <use xlink:href="#DejaVuSans-61" x="143.798828"/>
      <use xlink:href="#DejaVuSans-20" x="205.078125"/>
      <use xlink:href="#DejaVuSans-33" x="236.865234"/>
     </g>
    </g>
    <g id="line2d_24">
     <path d="M 197.840933 44.730469 
L 212.840933 44.730469 
L 227.840933 44.730469 
" style="fill: none; stroke: #d62728; stroke-width: 1.5; stroke-linecap: square"/>
    </g>
    <g id="text_18">
     <!-- Stra 4 -->
     <g transform="translate(239.840933 49.980469)scale(0.15 -0.15)">
      <use xlink:href="#DejaVuSans-53"/>
      <use xlink:href="#DejaVuSans-74" x="63.476562"/>
      <use xlink:href="#DejaVuSans-72" x="102.685547"/>
      <use xlink:href="#DejaVuSans-61" x="143.798828"/>
      <use xlink:href="#DejaVuSans-20" x="205.078125"/>
      <use xlink:href="#DejaVuSans-34" x="236.865234"/>
     </g>
    </g>
    <g id="line2d_25">
     <path d="M 308.451866 22.713281 
L 323.451866 22.713281 
L 338.451866 22.713281 
" style="fill: none; stroke: #9467bd; stroke-width: 1.5; stroke-linecap: square"/>
    </g>
    <g id="text_19">
     <!-- Stra 5 -->
     <g transform="translate(350.451866 27.963281)scale(0.15 -0.15)">
      <use xlink:href="#DejaVuSans-53"/>
      <use xlink:href="#DejaVuSans-74" x="63.476562"/>
      <use xlink:href="#DejaVuSans-72" x="102.685547"/>
      <use xlink:href="#DejaVuSans-61" x="143.798828"/>
      <use xlink:href="#DejaVuSans-20" x="205.078125"/>
      <use xlink:href="#DejaVuSans-35" x="236.865234"/>
     </g>
    </g>
    <g id="line2d_26">
     <path d="M 308.451866 44.730469 
L 323.451866 44.730469 
L 338.451866 44.730469 
" style="fill: none; stroke: #8c564b; stroke-width: 1.5; stroke-linecap: square"/>
    </g>
    <g id="text_20">
     <!-- Stra 6 -->
     <g transform="translate(350.451866 49.980469)scale(0.15 -0.15)">
      <defs>
       <path id="DejaVuSans-36" d="M 2113 2584 
Q 1688 2584 1439 2293 
Q 1191 2003 1191 1497 
Q 1191 994 1439 701 
Q 1688 409 2113 409 
Q 2538 409 2786 701 
Q 3034 994 3034 1497 
Q 3034 2003 2786 2293 
Q 2538 2584 2113 2584 
z
M 3366 4563 
L 3366 3988 
Q 3128 4100 2886 4159 
Q 2644 4219 2406 4219 
Q 1781 4219 1451 3797 
Q 1122 3375 1075 2522 
Q 1259 2794 1537 2939 
Q 1816 3084 2150 3084 
Q 2853 3084 3261 2657 
Q 3669 2231 3669 1497 
Q 3669 778 3244 343 
Q 2819 -91 2113 -91 
Q 1303 -91 875 529 
Q 447 1150 447 2328 
Q 447 3434 972 4092 
Q 1497 4750 2381 4750 
Q 2619 4750 2861 4703 
Q 3103 4656 3366 4563 
z
" transform="scale(0.015625)"/>
      </defs>
      <use xlink:href="#DejaVuSans-53"/>
      <use xlink:href="#DejaVuSans-74" x="63.476562"/>
      <use xlink:href="#DejaVuSans-72" x="102.685547"/>
      <use xlink:href="#DejaVuSans-61" x="143.798828"/>
      <use xlink:href="#DejaVuSans-20" x="205.078125"/>
      <use xlink:href="#DejaVuSans-36" x="236.865234"/>
     </g>
    </g>
    <g id="line2d_27">
     <path d="M 419.062798 22.713281 
L 434.062798 22.713281 
L 449.062798 22.713281 
" style="fill: none; stroke: #e377c2; stroke-width: 1.5; stroke-linecap: square"/>
    </g>
    <g id="text_21">
     <!-- Stra 7 -->
     <g transform="translate(461.062798 27.963281)scale(0.15 -0.15)">
      <defs>
       <path id="DejaVuSans-37" d="M 525 4666 
L 3525 4666 
L 3525 4397 
L 1831 0 
L 1172 0 
L 2766 4134 
L 525 4134 
L 525 4666 
z
" transform="scale(0.015625)"/>
      </defs>
      <use xlink:href="#DejaVuSans-53"/>
      <use xlink:href="#DejaVuSans-74" x="63.476562"/>
      <use xlink:href="#DejaVuSans-72" x="102.685547"/>
      <use xlink:href="#DejaVuSans-61" x="143.798828"/>
      <use xlink:href="#DejaVuSans-20" x="205.078125"/>
      <use xlink:href="#DejaVuSans-37" x="236.865234"/>
     </g>
    </g>
    <g id="line2d_28">
     <path d="M 419.062798 44.730469 
L 434.062798 44.730469 
L 449.062798 44.730469 
" style="fill: none; stroke: #7f7f7f; stroke-width: 1.5; stroke-linecap: square"/>
    </g>
    <g id="text_22">
     <!-- Stra 8 -->
     <g transform="translate(461.062798 49.980469)scale(0.15 -0.15)">
      <defs>
       <path id="DejaVuSans-38" d="M 2034 2216 
Q 1584 2216 1326 1975 
Q 1069 1734 1069 1313 
Q 1069 891 1326 650 
Q 1584 409 2034 409 
Q 2484 409 2743 651 
Q 3003 894 3003 1313 
Q 3003 1734 2745 1975 
Q 2488 2216 2034 2216 
z
M 1403 2484 
Q 997 2584 770 2862 
Q 544 3141 544 3541 
Q 544 4100 942 4425 
Q 1341 4750 2034 4750 
Q 2731 4750 3128 4425 
Q 3525 4100 3525 3541 
Q 3525 3141 3298 2862 
Q 3072 2584 2669 2484 
Q 3125 2378 3379 2068 
Q 3634 1759 3634 1313 
Q 3634 634 3220 271 
Q 2806 -91 2034 -91 
Q 1263 -91 848 271 
Q 434 634 434 1313 
Q 434 1759 690 2068 
Q 947 2378 1403 2484 
z
M 1172 3481 
Q 1172 3119 1398 2916 
Q 1625 2713 2034 2713 
Q 2441 2713 2670 2916 
Q 2900 3119 2900 3481 
Q 2900 3844 2670 4047 
Q 2441 4250 2034 4250 
Q 1625 4250 1398 4047 
Q 1172 3844 1172 3481 
z
" transform="scale(0.015625)"/>
      </defs>
      <use xlink:href="#DejaVuSans-53"/>
      <use xlink:href="#DejaVuSans-74" x="63.476562"/>
      <use xlink:href="#DejaVuSans-72" x="102.685547"/>
      <use xlink:href="#DejaVuSans-61" x="143.798828"/>
      <use xlink:href="#DejaVuSans-20" x="205.078125"/>
      <use xlink:href="#DejaVuSans-38" x="236.865234"/>
     </g>
    </g>
   </g>
  </g>
 </g>
 <defs>
  <clipPath id="p4e3b61bab6">
   <rect x="73.73" y="66.6" width="445.905455" height="231.28"/>
  </clipPath>
 </defs>
</svg>
