<?xml version="1.0" encoding="utf-8" standalone="no"?>
<!DOCTYPE svg PUBLIC "-//W3C//DTD SVG 1.1//EN"
  "http://www.w3.org/Graphics/SVG/1.1/DTD/svg11.dtd">
<svg xmlns:xlink="http://www.w3.org/1999/xlink" width="540pt" height="360pt" viewBox="0 0 540 360" xmlns="http://www.w3.org/2000/svg" version="1.1">
 <metadata>
  <rdf:RDF xmlns:dc="http://purl.org/dc/elements/1.1/" xmlns:cc="http://creativecommons.org/ns#" xmlns:rdf="http://www.w3.org/1999/02/22-rdf-syntax-ns#">
   <cc:Work>
    <dc:type rdf:resource="http://purl.org/dc/dcmitype/StillImage"/>
    <dc:date>2024-07-08T17:53:10.867040</dc:date>
    <dc:format>image/svg+xml</dc:format>
    <dc:creator>
     <cc:Agent>
      <dc:title>Matplotlib v3.5.3, https://matplotlib.org/</dc:title>
     </cc:Agent>
    </dc:creator>
   </cc:Work>
  </rdf:RDF>
 </metadata>
 <defs>
  <style type="text/css">*{stroke-linejoin: round; stroke-linecap: butt}</style>
 </defs>
 <g id="figure_1">
  <g id="patch_1">
   <path d="M 0 360 
L 540 360 
L 540 0 
L 0 0 
z
" style="fill: #ffffff"/>
  </g>
  <g id="axes_1">
   <g id="patch_2">
    <path d="M 54.74 297.88 
L 516.465 297.88 
L 516.465 10.8 
L 54.74 10.8 
z
" style="fill: #ffffff"/>
   </g>
   <g id="matplotlib.axis_1">
    <g id="xtick_1">
     <g id="line2d_1">
      <defs>
       <path id="ma04d68cfe0" d="M 0 0 
L 0 3.5 
" style="stroke: #000000; stroke-width: 0.8"/>
      </defs>
      <g>
       <use xlink:href="#ma04d68cfe0" x="54.74" y="297.88" style="stroke: #000000; stroke-width: 0.8"/>
      </g>
     </g>
     <g id="text_1">
      <!-- 0 -->
      <g transform="translate(48.3775 320.076875)scale(0.2 -0.2)">
       <defs>
        <path id="DejaVuSans-30" d="M 2034 4250 
Q 1547 4250 1301 3770 
Q 1056 3291 1056 2328 
Q 1056 1369 1301 889 
Q 1547 409 2034 409 
Q 2525 409 2770 889 
Q 3016 1369 3016 2328 
Q 3016 3291 2770 3770 
Q 2525 4250 2034 4250 
z
M 2034 4750 
Q 2819 4750 3233 4129 
Q 3647 3509 3647 2328 
Q 3647 1150 3233 529 
Q 2819 -91 2034 -91 
Q 1250 -91 836 529 
Q 422 1150 422 2328 
Q 422 3509 836 4129 
Q 1250 4750 2034 4750 
z
" transform="scale(0.015625)"/>
       </defs>
       <use xlink:href="#DejaVuSans-30"/>
      </g>
     </g>
    </g>
    <g id="xtick_2">
     <g id="line2d_2">
      <g>
       <use xlink:href="#ma04d68cfe0" x="131.694167" y="297.88" style="stroke: #000000; stroke-width: 0.8"/>
      </g>
     </g>
     <g id="text_2">
      <!-- 10 -->
      <g transform="translate(118.969167 320.076875)scale(0.2 -0.2)">
       <defs>
        <path id="DejaVuSans-31" d="M 794 531 
L 1825 531 
L 1825 4091 
L 703 3866 
L 703 4441 
L 1819 4666 
L 2450 4666 
L 2450 531 
L 3481 531 
L 3481 0 
L 794 0 
L 794 531 
z
" transform="scale(0.015625)"/>
       </defs>
       <use xlink:href="#DejaVuSans-31"/>
       <use xlink:href="#DejaVuSans-30" x="63.623047"/>
      </g>
     </g>
    </g>
    <g id="xtick_3">
     <g id="line2d_3">
      <g>
       <use xlink:href="#ma04d68cfe0" x="208.648333" y="297.88" style="stroke: #000000; stroke-width: 0.8"/>
      </g>
     </g>
     <g id="text_3">
      <!-- 20 -->
      <g transform="translate(195.923333 320.076875)scale(0.2 -0.2)">
       <defs>
        <path id="DejaVuSans-32" d="M 1228 531 
L 3431 531 
L 3431 0 
L 469 0 
L 469 531 
Q 828 903 1448 1529 
Q 2069 2156 2228 2338 
Q 2531 2678 2651 2914 
Q 2772 3150 2772 3378 
Q 2772 3750 2511 3984 
Q 2250 4219 1831 4219 
Q 1534 4219 1204 4116 
Q 875 4013 500 3803 
L 500 4441 
Q 881 4594 1212 4672 
Q 1544 4750 1819 4750 
Q 2544 4750 2975 4387 
Q 3406 4025 3406 3419 
Q 3406 3131 3298 2873 
Q 3191 2616 2906 2266 
Q 2828 2175 2409 1742 
Q 1991 1309 1228 531 
z
" transform="scale(0.015625)"/>
       </defs>
       <use xlink:href="#DejaVuSans-32"/>
       <use xlink:href="#DejaVuSans-30" x="63.623047"/>
      </g>
     </g>
    </g>
    <g id="xtick_4">
     <g id="line2d_4">
      <g>
       <use xlink:href="#ma04d68cfe0" x="285.6025" y="297.88" style="stroke: #000000; stroke-width: 0.8"/>
      </g>
     </g>
     <g id="text_4">
      <!-- 30 -->
      <g transform="translate(272.8775 320.076875)scale(0.2 -0.2)">
       <defs>
        <path id="DejaVuSans-33" d="M 2597 2516 
Q 3050 2419 3304 2112 
Q 3559 1806 3559 1356 
Q 3559 666 3084 287 
Q 2609 -91 1734 -91 
Q 1441 -91 1130 -33 
Q 819 25 488 141 
L 488 750 
Q 750 597 1062 519 
Q 1375 441 1716 441 
Q 2309 441 2620 675 
Q 2931 909 2931 1356 
Q 2931 1769 2642 2001 
Q 2353 2234 1838 2234 
L 1294 2234 
L 1294 2753 
L 1863 2753 
Q 2328 2753 2575 2939 
Q 2822 3125 2822 3475 
Q 2822 3834 2567 4026 
Q 2313 4219 1838 4219 
Q 1578 4219 1281 4162 
Q 984 4106 628 3988 
L 628 4550 
Q 988 4650 1302 4700 
Q 1616 4750 1894 4750 
Q 2613 4750 3031 4423 
Q 3450 4097 3450 3541 
Q 3450 3153 3228 2886 
Q 3006 2619 2597 2516 
z
" transform="scale(0.015625)"/>
       </defs>
       <use xlink:href="#DejaVuSans-33"/>
       <use xlink:href="#DejaVuSans-30" x="63.623047"/>
      </g>
     </g>
    </g>
    <g id="xtick_5">
     <g id="line2d_5">
      <g>
       <use xlink:href="#ma04d68cfe0" x="362.556667" y="297.88" style="stroke: #000000; stroke-width: 0.8"/>
      </g>
     </g>
     <g id="text_5">
      <!-- 40 -->
      <g transform="translate(349.831667 320.076875)scale(0.2 -0.2)">
       <defs>
        <path id="DejaVuSans-34" d="M 2419 4116 
L 825 1625 
L 2419 1625 
L 2419 4116 
z
M 2253 4666 
L 3047 4666 
L 3047 1625 
L 3713 1625 
L 3713 1100 
L 3047 1100 
L 3047 0 
L 2419 0 
L 2419 1100 
L 313 1100 
L 313 1709 
L 2253 4666 
z
" transform="scale(0.015625)"/>
       </defs>
       <use xlink:href="#DejaVuSans-34"/>
       <use xlink:href="#DejaVuSans-30" x="63.623047"/>
      </g>
     </g>
    </g>
    <g id="xtick_6">
     <g id="line2d_6">
      <g>
       <use xlink:href="#ma04d68cfe0" x="439.510833" y="297.88" style="stroke: #000000; stroke-width: 0.8"/>
      </g>
     </g>
     <g id="text_6">
      <!-- 50 -->
      <g transform="translate(426.785833 320.076875)scale(0.2 -0.2)">
       <defs>
        <path id="DejaVuSans-35" d="M 691 4666 
L 3169 4666 
L 3169 4134 
L 1269 4134 
L 1269 2991 
Q 1406 3038 1543 3061 
Q 1681 3084 1819 3084 
Q 2600 3084 3056 2656 
Q 3513 2228 3513 1497 
Q 3513 744 3044 326 
Q 2575 -91 1722 -91 
Q 1428 -91 1123 -41 
Q 819 9 494 109 
L 494 744 
Q 775 591 1075 516 
Q 1375 441 1709 441 
Q 2250 441 2565 725 
Q 2881 1009 2881 1497 
Q 2881 1984 2565 2268 
Q 2250 2553 1709 2553 
Q 1456 2553 1204 2497 
Q 953 2441 691 2322 
L 691 4666 
z
" transform="scale(0.015625)"/>
       </defs>
       <use xlink:href="#DejaVuSans-35"/>
       <use xlink:href="#DejaVuSans-30" x="63.623047"/>
      </g>
     </g>
    </g>
    <g id="xtick_7">
     <g id="line2d_7">
      <g>
       <use xlink:href="#ma04d68cfe0" x="516.465" y="297.88" style="stroke: #000000; stroke-width: 0.8"/>
      </g>
     </g>
     <g id="text_7">
      <!-- 60 -->
      <g transform="translate(503.74 320.076875)scale(0.2 -0.2)">
       <defs>
        <path id="DejaVuSans-36" d="M 2113 2584 
Q 1688 2584 1439 2293 
Q 1191 2003 1191 1497 
Q 1191 994 1439 701 
Q 1688 409 2113 409 
Q 2538 409 2786 701 
Q 3034 994 3034 1497 
Q 3034 2003 2786 2293 
Q 2538 2584 2113 2584 
z
M 3366 4563 
L 3366 3988 
Q 3128 4100 2886 4159 
Q 2644 4219 2406 4219 
Q 1781 4219 1451 3797 
Q 1122 3375 1075 2522 
Q 1259 2794 1537 2939 
Q 1816 3084 2150 3084 
Q 2853 3084 3261 2657 
Q 3669 2231 3669 1497 
Q 3669 778 3244 343 
Q 2819 -91 2113 -91 
Q 1303 -91 875 529 
Q 447 1150 447 2328 
Q 447 3434 972 4092 
Q 1497 4750 2381 4750 
Q 2619 4750 2861 4703 
Q 3103 4656 3366 4563 
z
" transform="scale(0.015625)"/>
       </defs>
       <use xlink:href="#DejaVuSans-36"/>
       <use xlink:href="#DejaVuSans-30" x="63.623047"/>
      </g>
     </g>
    </g>
    <g id="text_8">
     <!-- # of games -->
     <g transform="translate(227.647813 343.433125)scale(0.2 -0.2)">
      <defs>
       <path id="DejaVuSans-23" d="M 3272 2816 
L 2363 2816 
L 2100 1772 
L 3016 1772 
L 3272 2816 
z
M 2803 4594 
L 2478 3297 
L 3391 3297 
L 3719 4594 
L 4219 4594 
L 3897 3297 
L 4872 3297 
L 4872 2816 
L 3775 2816 
L 3519 1772 
L 4513 1772 
L 4513 1294 
L 3397 1294 
L 3072 0 
L 2572 0 
L 2894 1294 
L 1978 1294 
L 1656 0 
L 1153 0 
L 1478 1294 
L 494 1294 
L 494 1772 
L 1594 1772 
L 1856 2816 
L 850 2816 
L 850 3297 
L 1978 3297 
L 2297 4594 
L 2803 4594 
z
" transform="scale(0.015625)"/>
       <path id="DejaVuSans-20" transform="scale(0.015625)"/>
       <path id="DejaVuSans-6f" d="M 1959 3097 
Q 1497 3097 1228 2736 
Q 959 2375 959 1747 
Q 959 1119 1226 758 
Q 1494 397 1959 397 
Q 2419 397 2687 759 
Q 2956 1122 2956 1747 
Q 2956 2369 2687 2733 
Q 2419 3097 1959 3097 
z
M 1959 3584 
Q 2709 3584 3137 3096 
Q 3566 2609 3566 1747 
Q 3566 888 3137 398 
Q 2709 -91 1959 -91 
Q 1206 -91 779 398 
Q 353 888 353 1747 
Q 353 2609 779 3096 
Q 1206 3584 1959 3584 
z
" transform="scale(0.015625)"/>
       <path id="DejaVuSans-66" d="M 2375 4863 
L 2375 4384 
L 1825 4384 
Q 1516 4384 1395 4259 
Q 1275 4134 1275 3809 
L 1275 3500 
L 2222 3500 
L 2222 3053 
L 1275 3053 
L 1275 0 
L 697 0 
L 697 3053 
L 147 3053 
L 147 3500 
L 697 3500 
L 697 3744 
Q 697 4328 969 4595 
Q 1241 4863 1831 4863 
L 2375 4863 
z
" transform="scale(0.015625)"/>
       <path id="DejaVuSans-67" d="M 2906 1791 
Q 2906 2416 2648 2759 
Q 2391 3103 1925 3103 
Q 1463 3103 1205 2759 
Q 947 2416 947 1791 
Q 947 1169 1205 825 
Q 1463 481 1925 481 
Q 2391 481 2648 825 
Q 2906 1169 2906 1791 
z
M 3481 434 
Q 3481 -459 3084 -895 
Q 2688 -1331 1869 -1331 
Q 1566 -1331 1297 -1286 
Q 1028 -1241 775 -1147 
L 775 -588 
Q 1028 -725 1275 -790 
Q 1522 -856 1778 -856 
Q 2344 -856 2625 -561 
Q 2906 -266 2906 331 
L 2906 616 
Q 2728 306 2450 153 
Q 2172 0 1784 0 
Q 1141 0 747 490 
Q 353 981 353 1791 
Q 353 2603 747 3093 
Q 1141 3584 1784 3584 
Q 2172 3584 2450 3431 
Q 2728 3278 2906 2969 
L 2906 3500 
L 3481 3500 
L 3481 434 
z
" transform="scale(0.015625)"/>
       <path id="DejaVuSans-61" d="M 2194 1759 
Q 1497 1759 1228 1600 
Q 959 1441 959 1056 
Q 959 750 1161 570 
Q 1363 391 1709 391 
Q 2188 391 2477 730 
Q 2766 1069 2766 1631 
L 2766 1759 
L 2194 1759 
z
M 3341 1997 
L 3341 0 
L 2766 0 
L 2766 531 
Q 2569 213 2275 61 
Q 1981 -91 1556 -91 
Q 1019 -91 701 211 
Q 384 513 384 1019 
Q 384 1609 779 1909 
Q 1175 2209 1959 2209 
L 2766 2209 
L 2766 2266 
Q 2766 2663 2505 2880 
Q 2244 3097 1772 3097 
Q 1472 3097 1187 3025 
Q 903 2953 641 2809 
L 641 3341 
Q 956 3463 1253 3523 
Q 1550 3584 1831 3584 
Q 2591 3584 2966 3190 
Q 3341 2797 3341 1997 
z
" transform="scale(0.015625)"/>
       <path id="DejaVuSans-6d" d="M 3328 2828 
Q 3544 3216 3844 3400 
Q 4144 3584 4550 3584 
Q 5097 3584 5394 3201 
Q 5691 2819 5691 2113 
L 5691 0 
L 5113 0 
L 5113 2094 
Q 5113 2597 4934 2840 
Q 4756 3084 4391 3084 
Q 3944 3084 3684 2787 
Q 3425 2491 3425 1978 
L 3425 0 
L 2847 0 
L 2847 2094 
Q 2847 2600 2669 2842 
Q 2491 3084 2119 3084 
Q 1678 3084 1418 2786 
Q 1159 2488 1159 1978 
L 1159 0 
L 581 0 
L 581 3500 
L 1159 3500 
L 1159 2956 
Q 1356 3278 1631 3431 
Q 1906 3584 2284 3584 
Q 2666 3584 2933 3390 
Q 3200 3197 3328 2828 
z
" transform="scale(0.015625)"/>
       <path id="DejaVuSans-65" d="M 3597 1894 
L 3597 1613 
L 953 1613 
Q 991 1019 1311 708 
Q 1631 397 2203 397 
Q 2534 397 2845 478 
Q 3156 559 3463 722 
L 3463 178 
Q 3153 47 2828 -22 
Q 2503 -91 2169 -91 
Q 1331 -91 842 396 
Q 353 884 353 1716 
Q 353 2575 817 3079 
Q 1281 3584 2069 3584 
Q 2775 3584 3186 3129 
Q 3597 2675 3597 1894 
z
M 3022 2063 
Q 3016 2534 2758 2815 
Q 2500 3097 2075 3097 
Q 1594 3097 1305 2825 
Q 1016 2553 972 2059 
L 3022 2063 
z
" transform="scale(0.015625)"/>
       <path id="DejaVuSans-73" d="M 2834 3397 
L 2834 2853 
Q 2591 2978 2328 3040 
Q 2066 3103 1784 3103 
Q 1356 3103 1142 2972 
Q 928 2841 928 2578 
Q 928 2378 1081 2264 
Q 1234 2150 1697 2047 
L 1894 2003 
Q 2506 1872 2764 1633 
Q 3022 1394 3022 966 
Q 3022 478 2636 193 
Q 2250 -91 1575 -91 
Q 1294 -91 989 -36 
Q 684 19 347 128 
L 347 722 
Q 666 556 975 473 
Q 1284 391 1588 391 
Q 1994 391 2212 530 
Q 2431 669 2431 922 
Q 2431 1156 2273 1281 
Q 2116 1406 1581 1522 
L 1381 1569 
Q 847 1681 609 1914 
Q 372 2147 372 2553 
Q 372 3047 722 3315 
Q 1072 3584 1716 3584 
Q 2034 3584 2315 3537 
Q 2597 3491 2834 3397 
z
" transform="scale(0.015625)"/>
      </defs>
      <use xlink:href="#DejaVuSans-23"/>
      <use xlink:href="#DejaVuSans-20" x="83.789062"/>
      <use xlink:href="#DejaVuSans-6f" x="115.576172"/>
      <use xlink:href="#DejaVuSans-66" x="176.757812"/>
      <use xlink:href="#DejaVuSans-20" x="211.962891"/>
      <use xlink:href="#DejaVuSans-67" x="243.75"/>
      <use xlink:href="#DejaVuSans-61" x="307.226562"/>
      <use xlink:href="#DejaVuSans-6d" x="368.505859"/>
      <use xlink:href="#DejaVuSans-65" x="465.917969"/>
      <use xlink:href="#DejaVuSans-73" x="527.441406"/>
     </g>
    </g>
   </g>
   <g id="matplotlib.axis_2">
    <g id="ytick_1">
     <g id="line2d_8">
      <defs>
       <path id="m360fb7331f" d="M 0 0 
L -3.5 0 
" style="stroke: #000000; stroke-width: 0.8"/>
      </defs>
      <g>
       <use xlink:href="#m360fb7331f" x="54.74" y="284.830909" style="stroke: #000000; stroke-width: 0.8"/>
      </g>
     </g>
     <g id="text_9">
      <!-- 1 -->
      <g transform="translate(35.015 292.429347)scale(0.2 -0.2)">
       <use xlink:href="#DejaVuSans-31"/>
      </g>
     </g>
    </g>
    <g id="ytick_2">
     <g id="line2d_9">
      <g>
       <use xlink:href="#m360fb7331f" x="54.74" y="252.208182" style="stroke: #000000; stroke-width: 0.8"/>
      </g>
     </g>
     <g id="text_10">
      <!-- 2 -->
      <g transform="translate(35.015 259.806619)scale(0.2 -0.2)">
       <use xlink:href="#DejaVuSans-32"/>
      </g>
     </g>
    </g>
    <g id="ytick_3">
     <g id="line2d_10">
      <g>
       <use xlink:href="#m360fb7331f" x="54.74" y="219.585455" style="stroke: #000000; stroke-width: 0.8"/>
      </g>
     </g>
     <g id="text_11">
      <!-- 3 -->
      <g transform="translate(35.015 227.183892)scale(0.2 -0.2)">
       <use xlink:href="#DejaVuSans-33"/>
      </g>
     </g>
    </g>
    <g id="ytick_4">
     <g id="line2d_11">
      <g>
       <use xlink:href="#m360fb7331f" x="54.74" y="186.962727" style="stroke: #000000; stroke-width: 0.8"/>
      </g>
     </g>
     <g id="text_12">
      <!-- 4 -->
      <g transform="translate(35.015 194.561165)scale(0.2 -0.2)">
       <use xlink:href="#DejaVuSans-34"/>
      </g>
     </g>
    </g>
    <g id="ytick_5">
     <g id="line2d_12">
      <g>
       <use xlink:href="#m360fb7331f" x="54.74" y="154.34" style="stroke: #000000; stroke-width: 0.8"/>
      </g>
     </g>
     <g id="text_13">
      <!-- 5 -->
      <g transform="translate(35.015 161.938437)scale(0.2 -0.2)">
       <use xlink:href="#DejaVuSans-35"/>
      </g>
     </g>
    </g>
    <g id="ytick_6">
     <g id="line2d_13">
      <g>
       <use xlink:href="#m360fb7331f" x="54.74" y="121.717273" style="stroke: #000000; stroke-width: 0.8"/>
      </g>
     </g>
     <g id="text_14">
      <!-- 6 -->
      <g transform="translate(35.015 129.31571)scale(0.2 -0.2)">
       <use xlink:href="#DejaVuSans-36"/>
      </g>
     </g>
    </g>
    <g id="ytick_7">
     <g id="line2d_14">
      <g>
       <use xlink:href="#m360fb7331f" x="54.74" y="89.094545" style="stroke: #000000; stroke-width: 0.8"/>
      </g>
     </g>
     <g id="text_15">
      <!-- 7 -->
      <g transform="translate(35.015 96.692983)scale(0.2 -0.2)">
       <defs>
        <path id="DejaVuSans-37" d="M 525 4666 
L 3525 4666 
L 3525 4397 
L 1831 0 
L 1172 0 
L 2766 4134 
L 525 4134 
L 525 4666 
z
" transform="scale(0.015625)"/>
       </defs>
       <use xlink:href="#DejaVuSans-37"/>
      </g>
     </g>
    </g>
    <g id="ytick_8">
     <g id="line2d_15">
      <g>
       <use xlink:href="#m360fb7331f" x="54.74" y="56.471818" style="stroke: #000000; stroke-width: 0.8"/>
      </g>
     </g>
     <g id="text_16">
      <!-- 8 -->
      <g transform="translate(35.015 64.070256)scale(0.2 -0.2)">
       <defs>
        <path id="DejaVuSans-38" d="M 2034 2216 
Q 1584 2216 1326 1975 
Q 1069 1734 1069 1313 
Q 1069 891 1326 650 
Q 1584 409 2034 409 
Q 2484 409 2743 651 
Q 3003 894 3003 1313 
Q 3003 1734 2745 1975 
Q 2488 2216 2034 2216 
z
M 1403 2484 
Q 997 2584 770 2862 
Q 544 3141 544 3541 
Q 544 4100 942 4425 
Q 1341 4750 2034 4750 
Q 2731 4750 3128 4425 
Q 3525 4100 3525 3541 
Q 3525 3141 3298 2862 
Q 3072 2584 2669 2484 
Q 3125 2378 3379 2068 
Q 3634 1759 3634 1313 
Q 3634 634 3220 271 
Q 2806 -91 2034 -91 
Q 1263 -91 848 271 
Q 434 634 434 1313 
Q 434 1759 690 2068 
Q 947 2378 1403 2484 
z
M 1172 3481 
Q 1172 3119 1398 2916 
Q 1625 2713 2034 2713 
Q 2441 2713 2670 2916 
Q 2900 3119 2900 3481 
Q 2900 3844 2670 4047 
Q 2441 4250 2034 4250 
Q 1625 4250 1398 4047 
Q 1172 3844 1172 3481 
z
" transform="scale(0.015625)"/>
       </defs>
       <use xlink:href="#DejaVuSans-38"/>
      </g>
     </g>
    </g>
    <g id="ytick_9">
     <g id="line2d_16">
      <g>
       <use xlink:href="#m360fb7331f" x="54.74" y="23.849091" style="stroke: #000000; stroke-width: 0.8"/>
      </g>
     </g>
     <g id="text_17">
      <!-- 9 -->
      <g transform="translate(35.015 31.447528)scale(0.2 -0.2)">
       <defs>
        <path id="DejaVuSans-39" d="M 703 97 
L 703 672 
Q 941 559 1184 500 
Q 1428 441 1663 441 
Q 2288 441 2617 861 
Q 2947 1281 2994 2138 
Q 2813 1869 2534 1725 
Q 2256 1581 1919 1581 
Q 1219 1581 811 2004 
Q 403 2428 403 3163 
Q 403 3881 828 4315 
Q 1253 4750 1959 4750 
Q 2769 4750 3195 4129 
Q 3622 3509 3622 2328 
Q 3622 1225 3098 567 
Q 2575 -91 1691 -91 
Q 1453 -91 1209 -44 
Q 966 3 703 97 
z
M 1959 2075 
Q 2384 2075 2632 2365 
Q 2881 2656 2881 3163 
Q 2881 3666 2632 3958 
Q 2384 4250 1959 4250 
Q 1534 4250 1286 3958 
Q 1038 3666 1038 3163 
Q 1038 2656 1286 2365 
Q 1534 2075 1959 2075 
z
" transform="scale(0.015625)"/>
       </defs>
       <use xlink:href="#DejaVuSans-39"/>
      </g>
     </g>
    </g>
    <g id="text_18">
     <!-- DD-D3QN-PI - AHEU-LR -->
     <g transform="translate(26.855625 269.441563)rotate(-90)scale(0.2 -0.2)">
      <defs>
       <path id="DejaVuSans-44" d="M 1259 4147 
L 1259 519 
L 2022 519 
Q 2988 519 3436 956 
Q 3884 1394 3884 2338 
Q 3884 3275 3436 3711 
Q 2988 4147 2022 4147 
L 1259 4147 
z
M 628 4666 
L 1925 4666 
Q 3281 4666 3915 4102 
Q 4550 3538 4550 2338 
Q 4550 1131 3912 565 
Q 3275 0 1925 0 
L 628 0 
L 628 4666 
z
" transform="scale(0.015625)"/>
       <path id="DejaVuSans-2d" d="M 313 2009 
L 1997 2009 
L 1997 1497 
L 313 1497 
L 313 2009 
z
" transform="scale(0.015625)"/>
       <path id="DejaVuSans-51" d="M 2522 4238 
Q 1834 4238 1429 3725 
Q 1025 3213 1025 2328 
Q 1025 1447 1429 934 
Q 1834 422 2522 422 
Q 3209 422 3611 934 
Q 4013 1447 4013 2328 
Q 4013 3213 3611 3725 
Q 3209 4238 2522 4238 
z
M 3406 84 
L 4238 -825 
L 3475 -825 
L 2784 -78 
Q 2681 -84 2626 -87 
Q 2572 -91 2522 -91 
Q 1538 -91 948 567 
Q 359 1225 359 2328 
Q 359 3434 948 4092 
Q 1538 4750 2522 4750 
Q 3503 4750 4090 4092 
Q 4678 3434 4678 2328 
Q 4678 1516 4351 937 
Q 4025 359 3406 84 
z
" transform="scale(0.015625)"/>
       <path id="DejaVuSans-4e" d="M 628 4666 
L 1478 4666 
L 3547 763 
L 3547 4666 
L 4159 4666 
L 4159 0 
L 3309 0 
L 1241 3903 
L 1241 0 
L 628 0 
L 628 4666 
z
" transform="scale(0.015625)"/>
       <path id="DejaVuSans-50" d="M 1259 4147 
L 1259 2394 
L 2053 2394 
Q 2494 2394 2734 2622 
Q 2975 2850 2975 3272 
Q 2975 3691 2734 3919 
Q 2494 4147 2053 4147 
L 1259 4147 
z
M 628 4666 
L 2053 4666 
Q 2838 4666 3239 4311 
Q 3641 3956 3641 3272 
Q 3641 2581 3239 2228 
Q 2838 1875 2053 1875 
L 1259 1875 
L 1259 0 
L 628 0 
L 628 4666 
z
" transform="scale(0.015625)"/>
       <path id="DejaVuSans-49" d="M 628 4666 
L 1259 4666 
L 1259 0 
L 628 0 
L 628 4666 
z
" transform="scale(0.015625)"/>
       <path id="DejaVuSans-41" d="M 2188 4044 
L 1331 1722 
L 3047 1722 
L 2188 4044 
z
M 1831 4666 
L 2547 4666 
L 4325 0 
L 3669 0 
L 3244 1197 
L 1141 1197 
L 716 0 
L 50 0 
L 1831 4666 
z
" transform="scale(0.015625)"/>
       <path id="DejaVuSans-48" d="M 628 4666 
L 1259 4666 
L 1259 2753 
L 3553 2753 
L 3553 4666 
L 4184 4666 
L 4184 0 
L 3553 0 
L 3553 2222 
L 1259 2222 
L 1259 0 
L 628 0 
L 628 4666 
z
" transform="scale(0.015625)"/>
       <path id="DejaVuSans-45" d="M 628 4666 
L 3578 4666 
L 3578 4134 
L 1259 4134 
L 1259 2753 
L 3481 2753 
L 3481 2222 
L 1259 2222 
L 1259 531 
L 3634 531 
L 3634 0 
L 628 0 
L 628 4666 
z
" transform="scale(0.015625)"/>
       <path id="DejaVuSans-55" d="M 556 4666 
L 1191 4666 
L 1191 1831 
Q 1191 1081 1462 751 
Q 1734 422 2344 422 
Q 2950 422 3222 751 
Q 3494 1081 3494 1831 
L 3494 4666 
L 4128 4666 
L 4128 1753 
Q 4128 841 3676 375 
Q 3225 -91 2344 -91 
Q 1459 -91 1007 375 
Q 556 841 556 1753 
L 556 4666 
z
" transform="scale(0.015625)"/>
       <path id="DejaVuSans-4c" d="M 628 4666 
L 1259 4666 
L 1259 531 
L 3531 531 
L 3531 0 
L 628 0 
L 628 4666 
z
" transform="scale(0.015625)"/>
       <path id="DejaVuSans-52" d="M 2841 2188 
Q 3044 2119 3236 1894 
Q 3428 1669 3622 1275 
L 4263 0 
L 3584 0 
L 2988 1197 
Q 2756 1666 2539 1819 
Q 2322 1972 1947 1972 
L 1259 1972 
L 1259 0 
L 628 0 
L 628 4666 
L 2053 4666 
Q 2853 4666 3247 4331 
Q 3641 3997 3641 3322 
Q 3641 2881 3436 2590 
Q 3231 2300 2841 2188 
z
M 1259 4147 
L 1259 2491 
L 2053 2491 
Q 2509 2491 2742 2702 
Q 2975 2913 2975 3322 
Q 2975 3731 2742 3939 
Q 2509 4147 2053 4147 
L 1259 4147 
z
" transform="scale(0.015625)"/>
      </defs>
      <use xlink:href="#DejaVuSans-44"/>
      <use xlink:href="#DejaVuSans-44" x="77.001953"/>
      <use xlink:href="#DejaVuSans-2d" x="154.003906"/>
      <use xlink:href="#DejaVuSans-44" x="190.087891"/>
      <use xlink:href="#DejaVuSans-33" x="267.089844"/>
      <use xlink:href="#DejaVuSans-51" x="330.712891"/>
      <use xlink:href="#DejaVuSans-4e" x="409.423828"/>
      <use xlink:href="#DejaVuSans-2d" x="484.228516"/>
      <use xlink:href="#DejaVuSans-50" x="520.3125"/>
      <use xlink:href="#DejaVuSans-49" x="580.615234"/>
      <use xlink:href="#DejaVuSans-20" x="610.107422"/>
      <use xlink:href="#DejaVuSans-2d" x="641.894531"/>
      <use xlink:href="#DejaVuSans-20" x="677.978516"/>
      <use xlink:href="#DejaVuSans-41" x="709.765625"/>
      <use xlink:href="#DejaVuSans-48" x="778.173828"/>
      <use xlink:href="#DejaVuSans-45" x="853.369141"/>
      <use xlink:href="#DejaVuSans-55" x="916.552734"/>
      <use xlink:href="#DejaVuSans-2d" x="989.746094"/>
      <use xlink:href="#DejaVuSans-4c" x="1025.830078"/>
      <use xlink:href="#DejaVuSans-52" x="1081.542969"/>
     </g>
    </g>
   </g>
   <g id="line2d_17">
    <path d="M 62.435417 44.336164 
L 70.130833 54.988704 
L 77.82625 61.288046 
L 85.521667 66.972101 
L 93.217083 64.271679 
L 100.9125 71.290507 
L 108.607917 73.50762 
L 116.303333 69.928613 
L 123.99875 77.128754 
L 131.694167 77.115906 
L 139.389583 78.910803 
L 147.085 82.469228 
L 154.780417 82.867015 
L 162.475833 85.591808 
L 170.17125 84.238207 
L 177.866667 87.483592 
L 185.562083 87.282184 
L 193.2575 86.132769 
L 200.952917 88.011526 
L 208.648333 88.256147 
L 216.34375 92.340917 
L 224.039167 92.484239 
L 231.734583 95.301722 
L 239.43 96.451741 
L 247.125417 98.071052 
L 254.820833 96.129814 
L 262.51625 99.429216 
L 270.211667 95.810262 
L 277.907083 94.307877 
L 285.6025 95.288667 
L 293.297917 97.393263 
L 300.993333 98.866507 
L 308.68875 99.131396 
L 316.384167 95.03736 
L 324.079583 90.861851 
L 331.775 106.206752 
L 339.470417 95.881712 
L 347.165833 102.624689 
L 354.86125 92.020995 
L 362.556667 101.483491 
L 370.252083 91.093322 
L 377.9475 95.362936 
L 385.642917 84.413065 
L 393.338333 85.983718 
L 401.03375 99.738109 
L 408.729167 102.390102 
L 416.424583 107.918178 
L 424.12 112.084148 
L 431.815417 95.24626 
L 439.510833 104.931904 
L 447.20625 97.845112 
L 454.901667 97.161256 
L 462.597083 107.653253 
L 470.2925 98.315903 
L 477.987917 116.774435 
L 485.683333 88.47316 
L 493.37875 120.687081 
L 501.074167 119.183567 
L 508.769583 98.726017 
L 516.465 113.854359 
L 524.160417 98.489891 
L 531.855833 100.693737 
L 539.55125 72.565697 
L 541 94.839235 
" clip-path="url(#p6041e350be)" style="fill: none; stroke: #1f77b4; stroke-width: 1.5; stroke-linecap: square"/>
   </g>
   <g id="line2d_18">
    <path d="M 62.435417 52.165618 
L 70.130833 56.190537 
L 77.82625 61.70404 
L 85.521667 64.274849 
L 93.217083 63.221817 
L 100.9125 75.177761 
L 108.607917 72.754452 
L 116.303333 77.125105 
L 123.99875 79.107773 
L 131.694167 77.465528 
L 139.389583 84.618257 
L 147.085 85.811111 
L 154.780417 81.945775 
L 162.475833 86.131329 
L 170.17125 89.629262 
L 177.866667 89.665568 
L 185.562083 85.127145 
L 193.2575 90.757632 
L 200.952917 89.396041 
L 208.648333 91.956527 
L 216.34375 95.688196 
L 224.039167 97.509899 
L 231.734583 94.605206 
L 239.43 95.150674 
L 247.125417 94.105905 
L 254.820833 92.983674 
L 262.51625 94.394507 
L 270.211667 86.212633 
L 277.907083 98.375918 
L 285.6025 96.021363 
L 293.297917 98.074675 
L 300.993333 97.260117 
L 308.68875 92.729067 
L 316.384167 96.67158 
L 324.079583 92.429806 
L 331.775 96.227794 
L 339.470417 97.945403 
L 347.165833 91.283595 
L 354.86125 104.414246 
L 362.556667 99.021376 
L 370.252083 93.7152 
L 377.9475 84.215118 
L 385.642917 100.18321 
L 393.338333 98.50012 
L 401.03375 95.663476 
L 408.729167 94.991622 
L 416.424583 72.663963 
L 424.12 81.639342 
L 431.815417 78.568274 
L 439.510833 78.681635 
L 447.20625 90.372269 
L 454.901667 93.009273 
L 462.597083 87.451327 
L 470.2925 98.555136 
L 477.987917 101.41739 
L 485.683333 140.609879 
L 493.37875 106.220784 
L 501.074167 79.091099 
L 508.769583 80.804142 
L 516.465 92.653388 
L 524.160417 112.108397 
L 531.855833 80.395152 
L 539.55125 98.277239 
L 541 103.099533 
" clip-path="url(#p6041e350be)" style="fill: none; stroke-dasharray: 5.55,2.4; stroke-dashoffset: 0; stroke: #ff7f0e; stroke-width: 1.5"/>
   </g>
   <g id="line2d_19">
    <path d="M 62.435417 52.4266 
L 70.130833 55.956827 
L 77.82625 60.366288 
L 85.521667 64.744273 
L 93.217083 68.961366 
L 100.9125 70.356911 
L 108.607917 72.533545 
L 116.303333 73.915238 
L 123.99875 75.826643 
L 131.694167 79.471486 
L 139.389583 83.955785 
L 147.085 86.510725 
L 154.780417 85.710409 
L 162.475833 85.403013 
L 170.17125 90.915537 
L 177.866667 87.637616 
L 185.562083 90.651415 
L 193.2575 95.61519 
L 200.952917 94.965158 
L 208.648333 94.513074 
L 216.34375 98.547596 
L 224.039167 95.161716 
L 231.734583 95.760559 
L 239.43 92.929342 
L 247.125417 102.924562 
L 254.820833 99.656628 
L 262.51625 92.065696 
L 270.211667 101.454906 
L 277.907083 97.730218 
L 285.6025 106.693215 
L 293.297917 99.580796 
L 300.993333 97.244266 
L 308.68875 95.033701 
L 316.384167 96.524755 
L 324.079583 102.538889 
L 331.775 92.50469 
L 339.470417 91.362799 
L 347.165833 96.453311 
L 354.86125 99.486643 
L 362.556667 94.365673 
L 370.252083 109.830643 
L 377.9475 101.836784 
L 385.642917 107.698627 
L 393.338333 112.765643 
L 401.03375 97.574968 
L 408.729167 102.08877 
L 416.424583 87.08881 
L 424.12 103.103219 
L 431.815417 97.573704 
L 439.510833 86.384615 
L 447.20625 108.221561 
L 454.901667 82.191737 
L 462.597083 114.365593 
L 470.2925 117.802545 
L 477.987917 106.327579 
L 485.683333 97.077519 
L 493.37875 92.652306 
L 501.074167 104.463475 
L 508.769583 125.899674 
L 516.465 124.327091 
L 524.160417 89.094545 
L 531.855833 48.207394 
L 539.55125 109.103152 
L 541 100.423023 
" clip-path="url(#p6041e350be)" style="fill: none; stroke-dasharray: 9.6,2.4,1.5,2.4; stroke-dashoffset: 0; stroke: #2ca02c; stroke-width: 1.5"/>
   </g>
   <g id="line2d_20">
    <path d="M 62.435417 51.513164 
L 70.130833 58.462338 
L 77.82625 59.450478 
L 85.521667 65.907666 
L 93.217083 69.519957 
L 100.9125 68.502639 
L 108.607917 79.561054 
L 116.303333 75.359504 
L 123.99875 74.570513 
L 131.694167 78.190267 
L 139.389583 82.743818 
L 147.085 83.1775 
L 154.780417 87.521351 
L 162.475833 87.33598 
L 170.17125 87.281613 
L 177.866667 85.51152 
L 185.562083 85.895677 
L 193.2575 83.369249 
L 200.952917 95.360723 
L 208.648333 93.991483 
L 216.34375 96.592719 
L 224.039167 95.990698 
L 231.734583 95.165165 
L 239.43 100.320804 
L 247.125417 94.193077 
L 254.820833 100.178222 
L 262.51625 103.359528 
L 270.211667 101.4186 
L 277.907083 96.44155 
L 285.6025 95.365603 
L 293.297917 99.873456 
L 300.993333 104.257824 
L 308.68875 102.756857 
L 316.384167 95.183839 
L 324.079583 101.768005 
L 331.775 92.607526 
L 339.470417 95.299133 
L 347.165833 97.939425 
L 354.86125 96.724054 
L 362.556667 105.291684 
L 370.252083 95.549362 
L 377.9475 106.823287 
L 385.642917 97.359336 
L 393.338333 103.441985 
L 401.03375 88.413838 
L 408.729167 97.238928 
L 416.424583 103.495052 
L 424.12 92.213596 
L 431.815417 80.725255 
L 439.510833 90.209155 
L 447.20625 88.425361 
L 454.901667 108.510011 
L 462.597083 92.922297 
L 470.2925 89.772257 
L 477.987917 110.637658 
L 485.683333 71.026573 
L 493.37875 97.431465 
L 501.074167 96.924 
L 508.769583 96.054061 
L 516.465 130.175017 
L 524.160417 171.521303 
L 531.855833 101.025143 
L 539.55125 73.870606 
L 541 77.960215 
" clip-path="url(#p6041e350be)" style="fill: none; stroke-dasharray: 1.5,2.475; stroke-dashoffset: 0; stroke: #d62728; stroke-width: 1.5"/>
   </g>
   <g id="line2d_21">
    <path d="M 62.435417 43.683709 
L 70.130833 52.507653 
L 77.82625 60.029938 
L 85.521667 68.008307 
L 93.217083 70.805747 
L 100.9125 72.741901 
L 108.607917 72.813625 
L 116.303333 74.369486 
L 123.99875 78.770959 
L 131.694167 84.369793 
L 139.389583 79.043462 
L 147.085 84.711229 
L 154.780417 82.896626 
L 162.475833 84.701515 
L 170.17125 88.033569 
L 177.866667 86.230009 
L 185.562083 87.18628 
L 193.2575 90.501716 
L 200.952917 88.652613 
L 208.648333 88.185976 
L 216.34375 91.059846 
L 224.039167 94.056748 
L 231.734583 89.876121 
L 239.43 95.918837 
L 247.125417 95.803426 
L 254.820833 93.20224 
L 262.51625 96.835047 
L 270.211667 96.732913 
L 277.907083 95.684536 
L 285.6025 97.658501 
L 293.297917 98.056012 
L 300.993333 98.725886 
L 308.68875 97.586045 
L 316.384167 98.902465 
L 324.079583 102.865105 
L 331.775 96.593886 
L 339.470417 94.871825 
L 347.165833 94.974283 
L 354.86125 102.863286 
L 362.556667 95.701719 
L 370.252083 89.516061 
L 377.9475 90.510216 
L 385.642917 94.487563 
L 393.338333 101.088727 
L 401.03375 104.869025 
L 408.729167 106.681428 
L 416.424583 88.701023 
L 424.12 75.053724 
L 431.815417 109.140887 
L 439.510833 116.066735 
L 447.20625 92.497544 
L 454.901667 101.491182 
L 462.597083 74.208916 
L 470.2925 99.243838 
L 477.987917 81.76874 
L 485.683333 99.751303 
L 493.37875 64.301273 
L 501.074167 127.551879 
L 508.769583 92.356818 
L 516.465 119.155217 
L 524.160417 110.84303 
L 531.855833 173.602673 
L 539.55125 193.487273 
L 541 210.683755 
" clip-path="url(#p6041e350be)" style="fill: none; stroke: #9467bd; stroke-width: 1.5; stroke-linecap: square"/>
   </g>
   <g id="patch_3">
    <path d="M 54.74 297.88 
L 54.74 10.8 
" style="fill: none; stroke: #000000; stroke-width: 0.8; stroke-linejoin: miter; stroke-linecap: square"/>
   </g>
   <g id="patch_4">
    <path d="M 516.465 297.88 
L 516.465 10.8 
" style="fill: none; stroke: #000000; stroke-width: 0.8; stroke-linejoin: miter; stroke-linecap: square"/>
   </g>
   <g id="patch_5">
    <path d="M 54.74 297.88 
L 516.465 297.88 
" style="fill: none; stroke: #000000; stroke-width: 0.8; stroke-linejoin: miter; stroke-linecap: square"/>
   </g>
   <g id="patch_6">
    <path d="M 54.74 10.8 
L 516.465 10.8 
" style="fill: none; stroke: #000000; stroke-width: 0.8; stroke-linejoin: miter; stroke-linecap: square"/>
   </g>
   <g id="legend_1">
    <g id="patch_7">
     <path d="M 335.30875 62.834375 
L 509.465 62.834375 
Q 511.465 62.834375 511.465 60.834375 
L 511.465 17.8 
Q 511.465 15.8 509.465 15.8 
L 335.30875 15.8 
Q 333.30875 15.8 333.30875 17.8 
L 333.30875 60.834375 
Q 333.30875 62.834375 335.30875 62.834375 
z
" style="fill: #ffffff; opacity: 0.8; stroke: #cccccc; stroke-linejoin: miter"/>
    </g>
    <g id="line2d_22">
     <path d="M 337.30875 23.898438 
L 347.30875 23.898438 
L 357.30875 23.898438 
" style="fill: none; stroke: #1f77b4; stroke-width: 1.5; stroke-linecap: square"/>
    </g>
    <g id="text_19">
     <!-- lr=0.00001 -->
     <g transform="translate(365.30875 27.398438)scale(0.1 -0.1)">
      <defs>
       <path id="DejaVuSans-6c" d="M 603 4863 
L 1178 4863 
L 1178 0 
L 603 0 
L 603 4863 
z
" transform="scale(0.015625)"/>
       <path id="DejaVuSans-72" d="M 2631 2963 
Q 2534 3019 2420 3045 
Q 2306 3072 2169 3072 
Q 1681 3072 1420 2755 
Q 1159 2438 1159 1844 
L 1159 0 
L 581 0 
L 581 3500 
L 1159 3500 
L 1159 2956 
Q 1341 3275 1631 3429 
Q 1922 3584 2338 3584 
Q 2397 3584 2469 3576 
Q 2541 3569 2628 3553 
L 2631 2963 
z
" transform="scale(0.015625)"/>
       <path id="DejaVuSans-3d" d="M 678 2906 
L 4684 2906 
L 4684 2381 
L 678 2381 
L 678 2906 
z
M 678 1631 
L 4684 1631 
L 4684 1100 
L 678 1100 
L 678 1631 
z
" transform="scale(0.015625)"/>
       <path id="DejaVuSans-2e" d="M 684 794 
L 1344 794 
L 1344 0 
L 684 0 
L 684 794 
z
" transform="scale(0.015625)"/>
      </defs>
      <use xlink:href="#DejaVuSans-6c"/>
      <use xlink:href="#DejaVuSans-72" x="27.783203"/>
      <use xlink:href="#DejaVuSans-3d" x="68.896484"/>
      <use xlink:href="#DejaVuSans-30" x="152.685547"/>
      <use xlink:href="#DejaVuSans-2e" x="216.308594"/>
      <use xlink:href="#DejaVuSans-30" x="248.095703"/>
      <use xlink:href="#DejaVuSans-30" x="311.71875"/>
      <use xlink:href="#DejaVuSans-30" x="375.341797"/>
      <use xlink:href="#DejaVuSans-30" x="438.964844"/>
      <use xlink:href="#DejaVuSans-31" x="502.587891"/>
     </g>
    </g>
    <g id="line2d_23">
     <path d="M 337.30875 38.576563 
L 347.30875 38.576563 
L 357.30875 38.576563 
" style="fill: none; stroke-dasharray: 5.55,2.4; stroke-dashoffset: 0; stroke: #ff7f0e; stroke-width: 1.5"/>
    </g>
    <g id="text_20">
     <!-- lr=0.0001 -->
     <g transform="translate(365.30875 42.076563)scale(0.1 -0.1)">
      <use xlink:href="#DejaVuSans-6c"/>
      <use xlink:href="#DejaVuSans-72" x="27.783203"/>
      <use xlink:href="#DejaVuSans-3d" x="68.896484"/>
      <use xlink:href="#DejaVuSans-30" x="152.685547"/>
      <use xlink:href="#DejaVuSans-2e" x="216.308594"/>
      <use xlink:href="#DejaVuSans-30" x="248.095703"/>
      <use xlink:href="#DejaVuSans-30" x="311.71875"/>
      <use xlink:href="#DejaVuSans-30" x="375.341797"/>
      <use xlink:href="#DejaVuSans-31" x="438.964844"/>
     </g>
    </g>
    <g id="line2d_24">
     <path d="M 337.30875 53.254687 
L 347.30875 53.254687 
L 357.30875 53.254687 
" style="fill: none; stroke-dasharray: 9.6,2.4,1.5,2.4; stroke-dashoffset: 0; stroke: #2ca02c; stroke-width: 1.5"/>
    </g>
    <g id="text_21">
     <!-- lr=0.001 -->
     <g transform="translate(365.30875 56.754687)scale(0.1 -0.1)">
      <use xlink:href="#DejaVuSans-6c"/>
      <use xlink:href="#DejaVuSans-72" x="27.783203"/>
      <use xlink:href="#DejaVuSans-3d" x="68.896484"/>
      <use xlink:href="#DejaVuSans-30" x="152.685547"/>
      <use xlink:href="#DejaVuSans-2e" x="216.308594"/>
      <use xlink:href="#DejaVuSans-30" x="248.095703"/>
      <use xlink:href="#DejaVuSans-30" x="311.71875"/>
      <use xlink:href="#DejaVuSans-31" x="375.341797"/>
     </g>
    </g>
    <g id="line2d_25">
     <path d="M 441.930625 23.898438 
L 451.930625 23.898438 
L 461.930625 23.898438 
" style="fill: none; stroke-dasharray: 1.5,2.475; stroke-dashoffset: 0; stroke: #d62728; stroke-width: 1.5"/>
    </g>
    <g id="text_22">
     <!-- lr=0.01 -->
     <g transform="translate(469.930625 27.398438)scale(0.1 -0.1)">
      <use xlink:href="#DejaVuSans-6c"/>
      <use xlink:href="#DejaVuSans-72" x="27.783203"/>
      <use xlink:href="#DejaVuSans-3d" x="68.896484"/>
      <use xlink:href="#DejaVuSans-30" x="152.685547"/>
      <use xlink:href="#DejaVuSans-2e" x="216.308594"/>
      <use xlink:href="#DejaVuSans-30" x="248.095703"/>
      <use xlink:href="#DejaVuSans-31" x="311.71875"/>
     </g>
    </g>
    <g id="line2d_26">
     <path d="M 441.930625 38.576563 
L 451.930625 38.576563 
L 461.930625 38.576563 
" style="fill: none; stroke: #9467bd; stroke-width: 1.5; stroke-linecap: square"/>
    </g>
    <g id="text_23">
     <!-- lr=0.1 -->
     <g transform="translate(469.930625 42.076563)scale(0.1 -0.1)">
      <use xlink:href="#DejaVuSans-6c"/>
      <use xlink:href="#DejaVuSans-72" x="27.783203"/>
      <use xlink:href="#DejaVuSans-3d" x="68.896484"/>
      <use xlink:href="#DejaVuSans-30" x="152.685547"/>
      <use xlink:href="#DejaVuSans-2e" x="216.308594"/>
      <use xlink:href="#DejaVuSans-31" x="248.095703"/>
     </g>
    </g>
   </g>
  </g>
 </g>
 <defs>
  <clipPath id="p6041e350be">
   <rect x="54.74" y="10.8" width="461.725" height="287.08"/>
  </clipPath>
 </defs>
</svg>
