<?xml version="1.0" encoding="utf-8" standalone="no"?>
<!DOCTYPE svg PUBLIC "-//W3C//DTD SVG 1.1//EN"
  "http://www.w3.org/Graphics/SVG/1.1/DTD/svg11.dtd">
<svg xmlns:xlink="http://www.w3.org/1999/xlink" width="540pt" height="414pt" viewBox="0 0 540 414" xmlns="http://www.w3.org/2000/svg" version="1.1">
 <metadata>
  <rdf:RDF xmlns:dc="http://purl.org/dc/elements/1.1/" xmlns:cc="http://creativecommons.org/ns#" xmlns:rdf="http://www.w3.org/1999/02/22-rdf-syntax-ns#">
   <cc:Work>
    <dc:type rdf:resource="http://purl.org/dc/dcmitype/StillImage"/>
    <dc:date>2024-07-08T18:47:07.860519</dc:date>
    <dc:format>image/svg+xml</dc:format>
    <dc:creator>
     <cc:Agent>
      <dc:title>Matplotlib v3.5.3, https://matplotlib.org/</dc:title>
     </cc:Agent>
    </dc:creator>
   </cc:Work>
  </rdf:RDF>
 </metadata>
 <defs>
  <style type="text/css">*{stroke-linejoin: round; stroke-linecap: butt}</style>
 </defs>
 <g id="figure_1">
  <g id="patch_1">
   <path d="M 0 414 
L 540 414 
L 540 0 
L 0 0 
z
" style="fill: #ffffff"/>
  </g>
  <g id="axes_1">
   <g id="patch_2">
    <path d="M 86.69 351.88 
L 516.465 351.88 
L 516.465 59.22 
L 86.69 59.22 
z
" style="fill: #ffffff"/>
   </g>
   <g id="matplotlib.axis_1">
    <g id="xtick_1">
     <g id="line2d_1">
      <defs>
       <path id="ma7099140d1" d="M 0 0 
L 0 3.5 
" style="stroke: #000000; stroke-width: 0.8"/>
      </defs>
      <g>
       <use xlink:href="#ma7099140d1" x="86.69" y="351.88" style="stroke: #000000; stroke-width: 0.8"/>
      </g>
     </g>
     <g id="text_1">
      <!-- 0 -->
      <g transform="translate(80.3275 374.076875)scale(0.2 -0.2)">
       <defs>
        <path id="DejaVuSans-30" d="M 2034 4250 
Q 1547 4250 1301 3770 
Q 1056 3291 1056 2328 
Q 1056 1369 1301 889 
Q 1547 409 2034 409 
Q 2525 409 2770 889 
Q 3016 1369 3016 2328 
Q 3016 3291 2770 3770 
Q 2525 4250 2034 4250 
z
M 2034 4750 
Q 2819 4750 3233 4129 
Q 3647 3509 3647 2328 
Q 3647 1150 3233 529 
Q 2819 -91 2034 -91 
Q 1250 -91 836 529 
Q 422 1150 422 2328 
Q 422 3509 836 4129 
Q 1250 4750 2034 4750 
z
" transform="scale(0.015625)"/>
       </defs>
       <use xlink:href="#DejaVuSans-30"/>
      </g>
     </g>
    </g>
    <g id="xtick_2">
     <g id="line2d_2">
      <g>
       <use xlink:href="#ma7099140d1" x="158.319167" y="351.88" style="stroke: #000000; stroke-width: 0.8"/>
      </g>
     </g>
     <g id="text_2">
      <!-- 10 -->
      <g transform="translate(145.594167 374.076875)scale(0.2 -0.2)">
       <defs>
        <path id="DejaVuSans-31" d="M 794 531 
L 1825 531 
L 1825 4091 
L 703 3866 
L 703 4441 
L 1819 4666 
L 2450 4666 
L 2450 531 
L 3481 531 
L 3481 0 
L 794 0 
L 794 531 
z
" transform="scale(0.015625)"/>
       </defs>
       <use xlink:href="#DejaVuSans-31"/>
       <use xlink:href="#DejaVuSans-30" x="63.623047"/>
      </g>
     </g>
    </g>
    <g id="xtick_3">
     <g id="line2d_3">
      <g>
       <use xlink:href="#ma7099140d1" x="229.948333" y="351.88" style="stroke: #000000; stroke-width: 0.8"/>
      </g>
     </g>
     <g id="text_3">
      <!-- 20 -->
      <g transform="translate(217.223333 374.076875)scale(0.2 -0.2)">
       <defs>
        <path id="DejaVuSans-32" d="M 1228 531 
L 3431 531 
L 3431 0 
L 469 0 
L 469 531 
Q 828 903 1448 1529 
Q 2069 2156 2228 2338 
Q 2531 2678 2651 2914 
Q 2772 3150 2772 3378 
Q 2772 3750 2511 3984 
Q 2250 4219 1831 4219 
Q 1534 4219 1204 4116 
Q 875 4013 500 3803 
L 500 4441 
Q 881 4594 1212 4672 
Q 1544 4750 1819 4750 
Q 2544 4750 2975 4387 
Q 3406 4025 3406 3419 
Q 3406 3131 3298 2873 
Q 3191 2616 2906 2266 
Q 2828 2175 2409 1742 
Q 1991 1309 1228 531 
z
" transform="scale(0.015625)"/>
       </defs>
       <use xlink:href="#DejaVuSans-32"/>
       <use xlink:href="#DejaVuSans-30" x="63.623047"/>
      </g>
     </g>
    </g>
    <g id="xtick_4">
     <g id="line2d_4">
      <g>
       <use xlink:href="#ma7099140d1" x="301.5775" y="351.88" style="stroke: #000000; stroke-width: 0.8"/>
      </g>
     </g>
     <g id="text_4">
      <!-- 30 -->
      <g transform="translate(288.8525 374.076875)scale(0.2 -0.2)">
       <defs>
        <path id="DejaVuSans-33" d="M 2597 2516 
Q 3050 2419 3304 2112 
Q 3559 1806 3559 1356 
Q 3559 666 3084 287 
Q 2609 -91 1734 -91 
Q 1441 -91 1130 -33 
Q 819 25 488 141 
L 488 750 
Q 750 597 1062 519 
Q 1375 441 1716 441 
Q 2309 441 2620 675 
Q 2931 909 2931 1356 
Q 2931 1769 2642 2001 
Q 2353 2234 1838 2234 
L 1294 2234 
L 1294 2753 
L 1863 2753 
Q 2328 2753 2575 2939 
Q 2822 3125 2822 3475 
Q 2822 3834 2567 4026 
Q 2313 4219 1838 4219 
Q 1578 4219 1281 4162 
Q 984 4106 628 3988 
L 628 4550 
Q 988 4650 1302 4700 
Q 1616 4750 1894 4750 
Q 2613 4750 3031 4423 
Q 3450 4097 3450 3541 
Q 3450 3153 3228 2886 
Q 3006 2619 2597 2516 
z
" transform="scale(0.015625)"/>
       </defs>
       <use xlink:href="#DejaVuSans-33"/>
       <use xlink:href="#DejaVuSans-30" x="63.623047"/>
      </g>
     </g>
    </g>
    <g id="xtick_5">
     <g id="line2d_5">
      <g>
       <use xlink:href="#ma7099140d1" x="373.206667" y="351.88" style="stroke: #000000; stroke-width: 0.8"/>
      </g>
     </g>
     <g id="text_5">
      <!-- 40 -->
      <g transform="translate(360.481667 374.076875)scale(0.2 -0.2)">
       <defs>
        <path id="DejaVuSans-34" d="M 2419 4116 
L 825 1625 
L 2419 1625 
L 2419 4116 
z
M 2253 4666 
L 3047 4666 
L 3047 1625 
L 3713 1625 
L 3713 1100 
L 3047 1100 
L 3047 0 
L 2419 0 
L 2419 1100 
L 313 1100 
L 313 1709 
L 2253 4666 
z
" transform="scale(0.015625)"/>
       </defs>
       <use xlink:href="#DejaVuSans-34"/>
       <use xlink:href="#DejaVuSans-30" x="63.623047"/>
      </g>
     </g>
    </g>
    <g id="xtick_6">
     <g id="line2d_6">
      <g>
       <use xlink:href="#ma7099140d1" x="444.835833" y="351.88" style="stroke: #000000; stroke-width: 0.8"/>
      </g>
     </g>
     <g id="text_6">
      <!-- 50 -->
      <g transform="translate(432.110833 374.076875)scale(0.2 -0.2)">
       <defs>
        <path id="DejaVuSans-35" d="M 691 4666 
L 3169 4666 
L 3169 4134 
L 1269 4134 
L 1269 2991 
Q 1406 3038 1543 3061 
Q 1681 3084 1819 3084 
Q 2600 3084 3056 2656 
Q 3513 2228 3513 1497 
Q 3513 744 3044 326 
Q 2575 -91 1722 -91 
Q 1428 -91 1123 -41 
Q 819 9 494 109 
L 494 744 
Q 775 591 1075 516 
Q 1375 441 1709 441 
Q 2250 441 2565 725 
Q 2881 1009 2881 1497 
Q 2881 1984 2565 2268 
Q 2250 2553 1709 2553 
Q 1456 2553 1204 2497 
Q 953 2441 691 2322 
L 691 4666 
z
" transform="scale(0.015625)"/>
       </defs>
       <use xlink:href="#DejaVuSans-35"/>
       <use xlink:href="#DejaVuSans-30" x="63.623047"/>
      </g>
     </g>
    </g>
    <g id="xtick_7">
     <g id="line2d_7">
      <g>
       <use xlink:href="#ma7099140d1" x="516.465" y="351.88" style="stroke: #000000; stroke-width: 0.8"/>
      </g>
     </g>
     <g id="text_7">
      <!-- 60 -->
      <g transform="translate(503.74 374.076875)scale(0.2 -0.2)">
       <defs>
        <path id="DejaVuSans-36" d="M 2113 2584 
Q 1688 2584 1439 2293 
Q 1191 2003 1191 1497 
Q 1191 994 1439 701 
Q 1688 409 2113 409 
Q 2538 409 2786 701 
Q 3034 994 3034 1497 
Q 3034 2003 2786 2293 
Q 2538 2584 2113 2584 
z
M 3366 4563 
L 3366 3988 
Q 3128 4100 2886 4159 
Q 2644 4219 2406 4219 
Q 1781 4219 1451 3797 
Q 1122 3375 1075 2522 
Q 1259 2794 1537 2939 
Q 1816 3084 2150 3084 
Q 2853 3084 3261 2657 
Q 3669 2231 3669 1497 
Q 3669 778 3244 343 
Q 2819 -91 2113 -91 
Q 1303 -91 875 529 
Q 447 1150 447 2328 
Q 447 3434 972 4092 
Q 1497 4750 2381 4750 
Q 2619 4750 2861 4703 
Q 3103 4656 3366 4563 
z
" transform="scale(0.015625)"/>
       </defs>
       <use xlink:href="#DejaVuSans-36"/>
       <use xlink:href="#DejaVuSans-30" x="63.623047"/>
      </g>
     </g>
    </g>
    <g id="text_8">
     <!-- number of games -->
     <g transform="translate(212.974375 397.433125)scale(0.2 -0.2)">
      <defs>
       <path id="DejaVuSans-6e" d="M 3513 2113 
L 3513 0 
L 2938 0 
L 2938 2094 
Q 2938 2591 2744 2837 
Q 2550 3084 2163 3084 
Q 1697 3084 1428 2787 
Q 1159 2491 1159 1978 
L 1159 0 
L 581 0 
L 581 3500 
L 1159 3500 
L 1159 2956 
Q 1366 3272 1645 3428 
Q 1925 3584 2291 3584 
Q 2894 3584 3203 3211 
Q 3513 2838 3513 2113 
z
" transform="scale(0.015625)"/>
       <path id="DejaVuSans-75" d="M 544 1381 
L 544 3500 
L 1119 3500 
L 1119 1403 
Q 1119 906 1312 657 
Q 1506 409 1894 409 
Q 2359 409 2629 706 
Q 2900 1003 2900 1516 
L 2900 3500 
L 3475 3500 
L 3475 0 
L 2900 0 
L 2900 538 
Q 2691 219 2414 64 
Q 2138 -91 1772 -91 
Q 1169 -91 856 284 
Q 544 659 544 1381 
z
M 1991 3584 
L 1991 3584 
z
" transform="scale(0.015625)"/>
       <path id="DejaVuSans-6d" d="M 3328 2828 
Q 3544 3216 3844 3400 
Q 4144 3584 4550 3584 
Q 5097 3584 5394 3201 
Q 5691 2819 5691 2113 
L 5691 0 
L 5113 0 
L 5113 2094 
Q 5113 2597 4934 2840 
Q 4756 3084 4391 3084 
Q 3944 3084 3684 2787 
Q 3425 2491 3425 1978 
L 3425 0 
L 2847 0 
L 2847 2094 
Q 2847 2600 2669 2842 
Q 2491 3084 2119 3084 
Q 1678 3084 1418 2786 
Q 1159 2488 1159 1978 
L 1159 0 
L 581 0 
L 581 3500 
L 1159 3500 
L 1159 2956 
Q 1356 3278 1631 3431 
Q 1906 3584 2284 3584 
Q 2666 3584 2933 3390 
Q 3200 3197 3328 2828 
z
" transform="scale(0.015625)"/>
       <path id="DejaVuSans-62" d="M 3116 1747 
Q 3116 2381 2855 2742 
Q 2594 3103 2138 3103 
Q 1681 3103 1420 2742 
Q 1159 2381 1159 1747 
Q 1159 1113 1420 752 
Q 1681 391 2138 391 
Q 2594 391 2855 752 
Q 3116 1113 3116 1747 
z
M 1159 2969 
Q 1341 3281 1617 3432 
Q 1894 3584 2278 3584 
Q 2916 3584 3314 3078 
Q 3713 2572 3713 1747 
Q 3713 922 3314 415 
Q 2916 -91 2278 -91 
Q 1894 -91 1617 61 
Q 1341 213 1159 525 
L 1159 0 
L 581 0 
L 581 4863 
L 1159 4863 
L 1159 2969 
z
" transform="scale(0.015625)"/>
       <path id="DejaVuSans-65" d="M 3597 1894 
L 3597 1613 
L 953 1613 
Q 991 1019 1311 708 
Q 1631 397 2203 397 
Q 2534 397 2845 478 
Q 3156 559 3463 722 
L 3463 178 
Q 3153 47 2828 -22 
Q 2503 -91 2169 -91 
Q 1331 -91 842 396 
Q 353 884 353 1716 
Q 353 2575 817 3079 
Q 1281 3584 2069 3584 
Q 2775 3584 3186 3129 
Q 3597 2675 3597 1894 
z
M 3022 2063 
Q 3016 2534 2758 2815 
Q 2500 3097 2075 3097 
Q 1594 3097 1305 2825 
Q 1016 2553 972 2059 
L 3022 2063 
z
" transform="scale(0.015625)"/>
       <path id="DejaVuSans-72" d="M 2631 2963 
Q 2534 3019 2420 3045 
Q 2306 3072 2169 3072 
Q 1681 3072 1420 2755 
Q 1159 2438 1159 1844 
L 1159 0 
L 581 0 
L 581 3500 
L 1159 3500 
L 1159 2956 
Q 1341 3275 1631 3429 
Q 1922 3584 2338 3584 
Q 2397 3584 2469 3576 
Q 2541 3569 2628 3553 
L 2631 2963 
z
" transform="scale(0.015625)"/>
       <path id="DejaVuSans-20" transform="scale(0.015625)"/>
       <path id="DejaVuSans-6f" d="M 1959 3097 
Q 1497 3097 1228 2736 
Q 959 2375 959 1747 
Q 959 1119 1226 758 
Q 1494 397 1959 397 
Q 2419 397 2687 759 
Q 2956 1122 2956 1747 
Q 2956 2369 2687 2733 
Q 2419 3097 1959 3097 
z
M 1959 3584 
Q 2709 3584 3137 3096 
Q 3566 2609 3566 1747 
Q 3566 888 3137 398 
Q 2709 -91 1959 -91 
Q 1206 -91 779 398 
Q 353 888 353 1747 
Q 353 2609 779 3096 
Q 1206 3584 1959 3584 
z
" transform="scale(0.015625)"/>
       <path id="DejaVuSans-66" d="M 2375 4863 
L 2375 4384 
L 1825 4384 
Q 1516 4384 1395 4259 
Q 1275 4134 1275 3809 
L 1275 3500 
L 2222 3500 
L 2222 3053 
L 1275 3053 
L 1275 0 
L 697 0 
L 697 3053 
L 147 3053 
L 147 3500 
L 697 3500 
L 697 3744 
Q 697 4328 969 4595 
Q 1241 4863 1831 4863 
L 2375 4863 
z
" transform="scale(0.015625)"/>
       <path id="DejaVuSans-67" d="M 2906 1791 
Q 2906 2416 2648 2759 
Q 2391 3103 1925 3103 
Q 1463 3103 1205 2759 
Q 947 2416 947 1791 
Q 947 1169 1205 825 
Q 1463 481 1925 481 
Q 2391 481 2648 825 
Q 2906 1169 2906 1791 
z
M 3481 434 
Q 3481 -459 3084 -895 
Q 2688 -1331 1869 -1331 
Q 1566 -1331 1297 -1286 
Q 1028 -1241 775 -1147 
L 775 -588 
Q 1028 -725 1275 -790 
Q 1522 -856 1778 -856 
Q 2344 -856 2625 -561 
Q 2906 -266 2906 331 
L 2906 616 
Q 2728 306 2450 153 
Q 2172 0 1784 0 
Q 1141 0 747 490 
Q 353 981 353 1791 
Q 353 2603 747 3093 
Q 1141 3584 1784 3584 
Q 2172 3584 2450 3431 
Q 2728 3278 2906 2969 
L 2906 3500 
L 3481 3500 
L 3481 434 
z
" transform="scale(0.015625)"/>
       <path id="DejaVuSans-61" d="M 2194 1759 
Q 1497 1759 1228 1600 
Q 959 1441 959 1056 
Q 959 750 1161 570 
Q 1363 391 1709 391 
Q 2188 391 2477 730 
Q 2766 1069 2766 1631 
L 2766 1759 
L 2194 1759 
z
M 3341 1997 
L 3341 0 
L 2766 0 
L 2766 531 
Q 2569 213 2275 61 
Q 1981 -91 1556 -91 
Q 1019 -91 701 211 
Q 384 513 384 1019 
Q 384 1609 779 1909 
Q 1175 2209 1959 2209 
L 2766 2209 
L 2766 2266 
Q 2766 2663 2505 2880 
Q 2244 3097 1772 3097 
Q 1472 3097 1187 3025 
Q 903 2953 641 2809 
L 641 3341 
Q 956 3463 1253 3523 
Q 1550 3584 1831 3584 
Q 2591 3584 2966 3190 
Q 3341 2797 3341 1997 
z
" transform="scale(0.015625)"/>
       <path id="DejaVuSans-73" d="M 2834 3397 
L 2834 2853 
Q 2591 2978 2328 3040 
Q 2066 3103 1784 3103 
Q 1356 3103 1142 2972 
Q 928 2841 928 2578 
Q 928 2378 1081 2264 
Q 1234 2150 1697 2047 
L 1894 2003 
Q 2506 1872 2764 1633 
Q 3022 1394 3022 966 
Q 3022 478 2636 193 
Q 2250 -91 1575 -91 
Q 1294 -91 989 -36 
Q 684 19 347 128 
L 347 722 
Q 666 556 975 473 
Q 1284 391 1588 391 
Q 1994 391 2212 530 
Q 2431 669 2431 922 
Q 2431 1156 2273 1281 
Q 2116 1406 1581 1522 
L 1381 1569 
Q 847 1681 609 1914 
Q 372 2147 372 2553 
Q 372 3047 722 3315 
Q 1072 3584 1716 3584 
Q 2034 3584 2315 3537 
Q 2597 3491 2834 3397 
z
" transform="scale(0.015625)"/>
      </defs>
      <use xlink:href="#DejaVuSans-6e"/>
      <use xlink:href="#DejaVuSans-75" x="63.378906"/>
      <use xlink:href="#DejaVuSans-6d" x="126.757812"/>
      <use xlink:href="#DejaVuSans-62" x="224.169922"/>
      <use xlink:href="#DejaVuSans-65" x="287.646484"/>
      <use xlink:href="#DejaVuSans-72" x="349.169922"/>
      <use xlink:href="#DejaVuSans-20" x="390.283203"/>
      <use xlink:href="#DejaVuSans-6f" x="422.070312"/>
      <use xlink:href="#DejaVuSans-66" x="483.251953"/>
      <use xlink:href="#DejaVuSans-20" x="518.457031"/>
      <use xlink:href="#DejaVuSans-67" x="550.244141"/>
      <use xlink:href="#DejaVuSans-61" x="613.720703"/>
      <use xlink:href="#DejaVuSans-6d" x="675"/>
      <use xlink:href="#DejaVuSans-65" x="772.412109"/>
      <use xlink:href="#DejaVuSans-73" x="833.935547"/>
     </g>
    </g>
   </g>
   <g id="matplotlib.axis_2">
    <g id="ytick_1">
     <g id="line2d_8">
      <defs>
       <path id="mafb8bb66d7" d="M 0 0 
L -3.5 0 
" style="stroke: #000000; stroke-width: 0.8"/>
      </defs>
      <g>
       <use xlink:href="#mafb8bb66d7" x="86.69" y="338.577273" style="stroke: #000000; stroke-width: 0.8"/>
      </g>
     </g>
     <g id="text_9">
      <!-- 1.00 -->
      <g transform="translate(35.15875 346.17571)scale(0.2 -0.2)">
       <defs>
        <path id="DejaVuSans-2e" d="M 684 794 
L 1344 794 
L 1344 0 
L 684 0 
L 684 794 
z
" transform="scale(0.015625)"/>
       </defs>
       <use xlink:href="#DejaVuSans-31"/>
       <use xlink:href="#DejaVuSans-2e" x="63.623047"/>
       <use xlink:href="#DejaVuSans-30" x="95.410156"/>
       <use xlink:href="#DejaVuSans-30" x="159.033203"/>
      </g>
     </g>
    </g>
    <g id="ytick_2">
     <g id="line2d_9">
      <g>
       <use xlink:href="#mafb8bb66d7" x="86.69" y="305.320455" style="stroke: #000000; stroke-width: 0.8"/>
      </g>
     </g>
     <g id="text_10">
      <!-- 1.25 -->
      <g transform="translate(35.15875 312.918892)scale(0.2 -0.2)">
       <use xlink:href="#DejaVuSans-31"/>
       <use xlink:href="#DejaVuSans-2e" x="63.623047"/>
       <use xlink:href="#DejaVuSans-32" x="95.410156"/>
       <use xlink:href="#DejaVuSans-35" x="159.033203"/>
      </g>
     </g>
    </g>
    <g id="ytick_3">
     <g id="line2d_10">
      <g>
       <use xlink:href="#mafb8bb66d7" x="86.69" y="272.063636" style="stroke: #000000; stroke-width: 0.8"/>
      </g>
     </g>
     <g id="text_11">
      <!-- 1.50 -->
      <g transform="translate(35.15875 279.662074)scale(0.2 -0.2)">
       <use xlink:href="#DejaVuSans-31"/>
       <use xlink:href="#DejaVuSans-2e" x="63.623047"/>
       <use xlink:href="#DejaVuSans-35" x="95.410156"/>
       <use xlink:href="#DejaVuSans-30" x="159.033203"/>
      </g>
     </g>
    </g>
    <g id="ytick_4">
     <g id="line2d_11">
      <g>
       <use xlink:href="#mafb8bb66d7" x="86.69" y="238.806818" style="stroke: #000000; stroke-width: 0.8"/>
      </g>
     </g>
     <g id="text_12">
      <!-- 1.75 -->
      <g transform="translate(35.15875 246.405256)scale(0.2 -0.2)">
       <defs>
        <path id="DejaVuSans-37" d="M 525 4666 
L 3525 4666 
L 3525 4397 
L 1831 0 
L 1172 0 
L 2766 4134 
L 525 4134 
L 525 4666 
z
" transform="scale(0.015625)"/>
       </defs>
       <use xlink:href="#DejaVuSans-31"/>
       <use xlink:href="#DejaVuSans-2e" x="63.623047"/>
       <use xlink:href="#DejaVuSans-37" x="95.410156"/>
       <use xlink:href="#DejaVuSans-35" x="159.033203"/>
      </g>
     </g>
    </g>
    <g id="ytick_5">
     <g id="line2d_12">
      <g>
       <use xlink:href="#mafb8bb66d7" x="86.69" y="205.55" style="stroke: #000000; stroke-width: 0.8"/>
      </g>
     </g>
     <g id="text_13">
      <!-- 2.00 -->
      <g transform="translate(35.15875 213.148438)scale(0.2 -0.2)">
       <use xlink:href="#DejaVuSans-32"/>
       <use xlink:href="#DejaVuSans-2e" x="63.623047"/>
       <use xlink:href="#DejaVuSans-30" x="95.410156"/>
       <use xlink:href="#DejaVuSans-30" x="159.033203"/>
      </g>
     </g>
    </g>
    <g id="ytick_6">
     <g id="line2d_13">
      <g>
       <use xlink:href="#mafb8bb66d7" x="86.69" y="172.293182" style="stroke: #000000; stroke-width: 0.8"/>
      </g>
     </g>
     <g id="text_14">
      <!-- 2.25 -->
      <g transform="translate(35.15875 179.891619)scale(0.2 -0.2)">
       <use xlink:href="#DejaVuSans-32"/>
       <use xlink:href="#DejaVuSans-2e" x="63.623047"/>
       <use xlink:href="#DejaVuSans-32" x="95.410156"/>
       <use xlink:href="#DejaVuSans-35" x="159.033203"/>
      </g>
     </g>
    </g>
    <g id="ytick_7">
     <g id="line2d_14">
      <g>
       <use xlink:href="#mafb8bb66d7" x="86.69" y="139.036364" style="stroke: #000000; stroke-width: 0.8"/>
      </g>
     </g>
     <g id="text_15">
      <!-- 2.50 -->
      <g transform="translate(35.15875 146.634801)scale(0.2 -0.2)">
       <use xlink:href="#DejaVuSans-32"/>
       <use xlink:href="#DejaVuSans-2e" x="63.623047"/>
       <use xlink:href="#DejaVuSans-35" x="95.410156"/>
       <use xlink:href="#DejaVuSans-30" x="159.033203"/>
      </g>
     </g>
    </g>
    <g id="ytick_8">
     <g id="line2d_15">
      <g>
       <use xlink:href="#mafb8bb66d7" x="86.69" y="105.779545" style="stroke: #000000; stroke-width: 0.8"/>
      </g>
     </g>
     <g id="text_16">
      <!-- 2.75 -->
      <g transform="translate(35.15875 113.377983)scale(0.2 -0.2)">
       <use xlink:href="#DejaVuSans-32"/>
       <use xlink:href="#DejaVuSans-2e" x="63.623047"/>
       <use xlink:href="#DejaVuSans-37" x="95.410156"/>
       <use xlink:href="#DejaVuSans-35" x="159.033203"/>
      </g>
     </g>
    </g>
    <g id="ytick_9">
     <g id="line2d_16">
      <g>
       <use xlink:href="#mafb8bb66d7" x="86.69" y="72.522727" style="stroke: #000000; stroke-width: 0.8"/>
      </g>
     </g>
     <g id="text_17">
      <!-- 3.00 -->
      <g transform="translate(35.15875 80.121165)scale(0.2 -0.2)">
       <use xlink:href="#DejaVuSans-33"/>
       <use xlink:href="#DejaVuSans-2e" x="63.623047"/>
       <use xlink:href="#DejaVuSans-30" x="95.410156"/>
       <use xlink:href="#DejaVuSans-30" x="159.033203"/>
      </g>
     </g>
    </g>
    <g id="text_18">
     <!-- DD-D3QN-IPI - Attack cost -->
     <g transform="translate(26.999375 335.323438)rotate(-90)scale(0.2 -0.2)">
      <defs>
       <path id="DejaVuSans-44" d="M 1259 4147 
L 1259 519 
L 2022 519 
Q 2988 519 3436 956 
Q 3884 1394 3884 2338 
Q 3884 3275 3436 3711 
Q 2988 4147 2022 4147 
L 1259 4147 
z
M 628 4666 
L 1925 4666 
Q 3281 4666 3915 4102 
Q 4550 3538 4550 2338 
Q 4550 1131 3912 565 
Q 3275 0 1925 0 
L 628 0 
L 628 4666 
z
" transform="scale(0.015625)"/>
       <path id="DejaVuSans-2d" d="M 313 2009 
L 1997 2009 
L 1997 1497 
L 313 1497 
L 313 2009 
z
" transform="scale(0.015625)"/>
       <path id="DejaVuSans-51" d="M 2522 4238 
Q 1834 4238 1429 3725 
Q 1025 3213 1025 2328 
Q 1025 1447 1429 934 
Q 1834 422 2522 422 
Q 3209 422 3611 934 
Q 4013 1447 4013 2328 
Q 4013 3213 3611 3725 
Q 3209 4238 2522 4238 
z
M 3406 84 
L 4238 -825 
L 3475 -825 
L 2784 -78 
Q 2681 -84 2626 -87 
Q 2572 -91 2522 -91 
Q 1538 -91 948 567 
Q 359 1225 359 2328 
Q 359 3434 948 4092 
Q 1538 4750 2522 4750 
Q 3503 4750 4090 4092 
Q 4678 3434 4678 2328 
Q 4678 1516 4351 937 
Q 4025 359 3406 84 
z
" transform="scale(0.015625)"/>
       <path id="DejaVuSans-4e" d="M 628 4666 
L 1478 4666 
L 3547 763 
L 3547 4666 
L 4159 4666 
L 4159 0 
L 3309 0 
L 1241 3903 
L 1241 0 
L 628 0 
L 628 4666 
z
" transform="scale(0.015625)"/>
       <path id="DejaVuSans-49" d="M 628 4666 
L 1259 4666 
L 1259 0 
L 628 0 
L 628 4666 
z
" transform="scale(0.015625)"/>
       <path id="DejaVuSans-50" d="M 1259 4147 
L 1259 2394 
L 2053 2394 
Q 2494 2394 2734 2622 
Q 2975 2850 2975 3272 
Q 2975 3691 2734 3919 
Q 2494 4147 2053 4147 
L 1259 4147 
z
M 628 4666 
L 2053 4666 
Q 2838 4666 3239 4311 
Q 3641 3956 3641 3272 
Q 3641 2581 3239 2228 
Q 2838 1875 2053 1875 
L 1259 1875 
L 1259 0 
L 628 0 
L 628 4666 
z
" transform="scale(0.015625)"/>
       <path id="DejaVuSans-41" d="M 2188 4044 
L 1331 1722 
L 3047 1722 
L 2188 4044 
z
M 1831 4666 
L 2547 4666 
L 4325 0 
L 3669 0 
L 3244 1197 
L 1141 1197 
L 716 0 
L 50 0 
L 1831 4666 
z
" transform="scale(0.015625)"/>
       <path id="DejaVuSans-74" d="M 1172 4494 
L 1172 3500 
L 2356 3500 
L 2356 3053 
L 1172 3053 
L 1172 1153 
Q 1172 725 1289 603 
Q 1406 481 1766 481 
L 2356 481 
L 2356 0 
L 1766 0 
Q 1100 0 847 248 
Q 594 497 594 1153 
L 594 3053 
L 172 3053 
L 172 3500 
L 594 3500 
L 594 4494 
L 1172 4494 
z
" transform="scale(0.015625)"/>
       <path id="DejaVuSans-63" d="M 3122 3366 
L 3122 2828 
Q 2878 2963 2633 3030 
Q 2388 3097 2138 3097 
Q 1578 3097 1268 2742 
Q 959 2388 959 1747 
Q 959 1106 1268 751 
Q 1578 397 2138 397 
Q 2388 397 2633 464 
Q 2878 531 3122 666 
L 3122 134 
Q 2881 22 2623 -34 
Q 2366 -91 2075 -91 
Q 1284 -91 818 406 
Q 353 903 353 1747 
Q 353 2603 823 3093 
Q 1294 3584 2113 3584 
Q 2378 3584 2631 3529 
Q 2884 3475 3122 3366 
z
" transform="scale(0.015625)"/>
       <path id="DejaVuSans-6b" d="M 581 4863 
L 1159 4863 
L 1159 1991 
L 2875 3500 
L 3609 3500 
L 1753 1863 
L 3688 0 
L 2938 0 
L 1159 1709 
L 1159 0 
L 581 0 
L 581 4863 
z
" transform="scale(0.015625)"/>
      </defs>
      <use xlink:href="#DejaVuSans-44"/>
      <use xlink:href="#DejaVuSans-44" x="77.001953"/>
      <use xlink:href="#DejaVuSans-2d" x="154.003906"/>
      <use xlink:href="#DejaVuSans-44" x="190.087891"/>
      <use xlink:href="#DejaVuSans-33" x="267.089844"/>
      <use xlink:href="#DejaVuSans-51" x="330.712891"/>
      <use xlink:href="#DejaVuSans-4e" x="409.423828"/>
      <use xlink:href="#DejaVuSans-2d" x="484.228516"/>
      <use xlink:href="#DejaVuSans-49" x="520.3125"/>
      <use xlink:href="#DejaVuSans-50" x="549.804688"/>
      <use xlink:href="#DejaVuSans-49" x="610.107422"/>
      <use xlink:href="#DejaVuSans-20" x="639.599609"/>
      <use xlink:href="#DejaVuSans-2d" x="671.386719"/>
      <use xlink:href="#DejaVuSans-20" x="707.470703"/>
      <use xlink:href="#DejaVuSans-41" x="739.257812"/>
      <use xlink:href="#DejaVuSans-74" x="805.916016"/>
      <use xlink:href="#DejaVuSans-74" x="845.125"/>
      <use xlink:href="#DejaVuSans-61" x="884.333984"/>
      <use xlink:href="#DejaVuSans-63" x="945.613281"/>
      <use xlink:href="#DejaVuSans-6b" x="1000.59375"/>
      <use xlink:href="#DejaVuSans-20" x="1058.503906"/>
      <use xlink:href="#DejaVuSans-63" x="1090.291016"/>
      <use xlink:href="#DejaVuSans-6f" x="1145.271484"/>
      <use xlink:href="#DejaVuSans-73" x="1206.453125"/>
      <use xlink:href="#DejaVuSans-74" x="1258.552734"/>
     </g>
    </g>
   </g>
   <g id="line2d_17">
    <path d="M 93.852917 159.988159 
L 101.015833 155.531745 
L 108.17875 156.130368 
L 115.341667 155.565002 
L 122.504583 151.677065 
L 129.6675 156.354841 
L 136.830417 159.447248 
L 143.993333 163.851582 
L 151.15625 155.369753 
L 158.319167 163.82781 
L 165.482083 161.079014 
L 172.645 162.646079 
L 179.807917 168.685196 
L 186.970833 166.069521 
L 194.13375 168.924309 
L 201.296667 169.868523 
L 208.459583 167.486867 
L 215.6225 167.277308 
L 222.785417 173.949618 
L 229.948333 174.312346 
L 237.11125 169.714482 
L 244.274167 171.033159 
L 251.437083 175.491206 
L 258.6 172.722835 
L 265.762917 175.28132 
L 272.925833 173.156072 
L 280.08875 176.6112 
L 287.251667 176.294808 
L 294.414583 179.592661 
L 301.5775 176.455987 
L 308.740417 179.335444 
L 315.903333 172.893508 
L 323.06625 175.005196 
L 330.229167 180.295756 
L 337.392083 181.914762 
L 344.555 175.058238 
L 351.717917 179.145664 
L 358.880833 170.819778 
L 366.04375 177.742999 
L 373.206667 174.853957 
L 380.369583 173.868186 
L 387.5325 187.549087 
L 394.695417 169.386955 
L 401.858333 180.291873 
L 409.02125 171.224213 
L 416.184167 188.766392 
L 423.347083 181.135886 
L 430.51 168.578006 
L 437.672917 190.480504 
L 444.835833 174.251639 
L 451.99875 166.799328 
L 459.161667 155.295253 
L 466.324583 175.284536 
L 473.4875 164.089833 
L 480.650417 194.628625 
L 487.813333 191.415852 
L 494.97625 184.930773 
L 502.139167 173.460088 
L 509.302083 190.821981 
L 516.465 203.702399 
L 523.627917 164.533258 
L 530.790833 204.340661 
L 537.95375 144.579167 
L 541 129.649936 
" clip-path="url(#p2acedb71f9)" style="fill: none; stroke: #1f77b4; stroke-width: 1.5; stroke-linecap: square"/>
   </g>
   <g id="line2d_18">
    <path d="M 93.852917 154.3345 
L 101.015833 152.228235 
L 108.17875 165.508791 
L 115.341667 157.649096 
L 122.504583 152.31692 
L 129.6675 157.443574 
L 136.830417 155.588052 
L 143.993333 158.883605 
L 151.15625 158.512164 
L 158.319167 157.626048 
L 165.482083 164.151638 
L 172.645 164.503979 
L 179.807917 173.161987 
L 186.970833 170.520475 
L 194.13375 167.73571 
L 201.296667 166.633635 
L 208.459583 168.472156 
L 215.6225 167.42008 
L 222.785417 171.175941 
L 229.948333 168.178859 
L 237.11125 166.130861 
L 244.274167 169.462368 
L 251.437083 166.385048 
L 258.6 163.520372 
L 265.762917 167.534777 
L 272.925833 176.054431 
L 280.08875 175.675007 
L 287.251667 173.520867 
L 294.414583 178.465466 
L 301.5775 171.471062 
L 308.740417 176.739443 
L 315.903333 173.179727 
L 323.06625 176.435764 
L 330.229167 180.179262 
L 337.392083 178.488879 
L 344.555 173.890474 
L 351.717917 172.094789 
L 358.880833 180.838497 
L 366.04375 178.568691 
L 373.206667 189.029025 
L 380.369583 179.985235 
L 387.5325 183.697537 
L 394.695417 173.82933 
L 401.858333 186.214641 
L 409.02125 166.029814 
L 416.184167 166.900184 
L 423.347083 177.52092 
L 430.51 181.638769 
L 437.672917 182.067251 
L 444.835833 181.696834 
L 451.99875 165.464448 
L 459.161667 176.778985 
L 466.324583 175.708747 
L 473.4875 187.745845 
L 480.650417 186.168069 
L 487.813333 173.287064 
L 494.97625 187.301387 
L 502.139167 160.875008 
L 509.302083 184.29172 
L 516.465 137.452706 
L 523.627917 197.890854 
L 530.790833 206.28904 
L 537.95375 139.669827 
L 541 138.861628 
" clip-path="url(#p2acedb71f9)" style="fill: none; stroke-dasharray: 5.55,2.4; stroke-dashoffset: 0; stroke: #ff7f0e; stroke-width: 1.5"/>
   </g>
   <g id="line2d_19">
    <path d="M 93.852917 156.196882 
L 101.015833 157.43847 
L 108.17875 159.256509 
L 115.341667 154.944208 
L 122.504583 158.006053 
L 129.6675 152.279229 
L 136.830417 158.923874 
L 143.993333 153.460981 
L 151.15625 160.302901 
L 158.319167 159.447708 
L 165.482083 163.41573 
L 172.645 163.602879 
L 179.807917 164.030194 
L 186.970833 166.97671 
L 194.13375 164.104836 
L 201.296667 165.895677 
L 208.459583 168.913445 
L 215.6225 165.336057 
L 222.785417 166.708282 
L 229.948333 167.997416 
L 237.11125 174.870842 
L 244.274167 174.564034 
L 251.437083 171.414119 
L 258.6 173.033547 
L 265.762917 176.249532 
L 272.925833 175.675106 
L 280.08875 175.175959 
L 287.251667 178.165729 
L 294.414583 171.075538 
L 301.5775 180.738247 
L 308.740417 174.468665 
L 315.903333 175.408724 
L 323.06625 175.85351 
L 330.229167 180.19772 
L 337.392083 171.375719 
L 344.555 176.075083 
L 351.717917 172.61561 
L 358.880833 181.536812 
L 366.04375 168.348304 
L 373.206667 175.080743 
L 380.369583 174.812638 
L 387.5325 168.561257 
L 394.695417 178.916343 
L 401.858333 180.255327 
L 409.02125 168.653596 
L 416.184167 177.920549 
L 423.347083 173.570906 
L 430.51 186.70447 
L 437.672917 185.985403 
L 444.835833 172.641587 
L 451.99875 199.859389 
L 459.161667 203.816614 
L 466.324583 173.216982 
L 473.4875 183.157076 
L 480.650417 174.079196 
L 487.813333 170.228966 
L 494.97625 162.500896 
L 502.139167 171.510668 
L 509.302083 171.901925 
L 516.465 171.554141 
L 523.627917 220.046562 
L 530.790833 197.022611 
L 537.95375 192.247273 
L 541 178.522857 
" clip-path="url(#p2acedb71f9)" style="fill: none; stroke-dasharray: 9.6,2.4,1.5,2.4; stroke-dashoffset: 0; stroke: #2ca02c; stroke-width: 1.5"/>
   </g>
   <g id="line2d_20">
    <path d="M 93.852917 148.215245 
L 101.015833 158.790914 
L 108.17875 154.844438 
L 115.341667 155.31225 
L 122.504583 157.378607 
L 129.6675 153.186879 
L 136.830417 165.348572 
L 143.993333 161.554836 
L 151.15625 163.118502 
L 158.319167 163.007304 
L 165.482083 160.821891 
L 172.645 167.134286 
L 179.807917 163.103042 
L 186.970833 169.675996 
L 194.13375 171.808292 
L 201.296667 163.365546 
L 208.459583 162.467471 
L 215.6225 171.86799 
L 222.785417 172.310653 
L 229.948333 168.670807 
L 237.11125 163.199939 
L 244.274167 168.534067 
L 251.437083 168.771153 
L 258.6 171.118831 
L 265.762917 168.164501 
L 272.925833 171.740614 
L 280.08875 171.393146 
L 287.251667 178.03447 
L 294.414583 171.193146 
L 301.5775 173.302178 
L 308.740417 167.052957 
L 315.903333 172.426764 
L 323.06625 180.07919 
L 330.229167 172.439366 
L 337.392083 176.145293 
L 344.555 166.074486 
L 351.717917 171.79891 
L 358.880833 172.449207 
L 366.04375 173.343308 
L 373.206667 168.068273 
L 380.369583 168.635443 
L 387.5325 160.330144 
L 394.695417 172.590271 
L 401.858333 177.415496 
L 409.02125 175.771364 
L 416.184167 177.09924 
L 423.347083 197.783741 
L 430.51 189.256954 
L 437.672917 179.086529 
L 444.835833 170.175772 
L 451.99875 159.166816 
L 459.161667 173.845167 
L 466.324583 179.929933 
L 473.4875 166.649601 
L 480.650417 163.266331 
L 487.813333 176.727424 
L 494.97625 165.063439 
L 502.139167 158.757073 
L 509.302083 191.138712 
L 516.465 213.864205 
L 523.627917 205.13429 
L 530.790833 144.024886 
L 537.95375 179.736374 
L 541 167.504594 
" clip-path="url(#p2acedb71f9)" style="fill: none; stroke-dasharray: 1.5,2.475; stroke-dashoffset: 0; stroke: #d62728; stroke-width: 1.5"/>
   </g>
   <g id="line2d_21">
    <path d="M 93.852917 159.256509 
L 101.015833 158.414003 
L 108.17875 164.256117 
L 115.341667 160.353984 
L 122.504583 158.797565 
L 129.6675 160.710941 
L 136.830417 159.416568 
L 143.993333 160.477439 
L 151.15625 162.396435 
L 158.319167 159.716753 
L 165.482083 160.304971 
L 172.645 162.139672 
L 179.807917 167.051501 
L 186.970833 169.009576 
L 194.13375 162.847542 
L 201.296667 170.037535 
L 208.459583 167.005156 
L 215.6225 169.931249 
L 222.785417 169.224111 
L 229.948333 168.367559 
L 237.11125 171.210485 
L 244.274167 169.767664 
L 251.437083 172.81548 
L 258.6 175.27825 
L 265.762917 173.534712 
L 272.925833 175.343097 
L 280.08875 177.590996 
L 287.251667 169.976727 
L 294.414583 173.218112 
L 301.5775 176.720011 
L 308.740417 177.430059 
L 315.903333 170.280583 
L 323.06625 177.671391 
L 330.229167 172.757459 
L 337.392083 179.394865 
L 344.555 176.887583 
L 351.717917 172.607183 
L 358.880833 176.627795 
L 366.04375 177.557797 
L 373.206667 172.481411 
L 380.369583 179.847608 
L 387.5325 171.52192 
L 394.695417 165.293638 
L 401.858333 185.987166 
L 409.02125 196.790198 
L 416.184167 163.737702 
L 423.347083 180.568353 
L 430.51 173.233779 
L 437.672917 169.57542 
L 444.835833 176.029442 
L 451.99875 163.046164 
L 459.161667 174.379884 
L 466.324583 173.196453 
L 473.4875 201.670038 
L 480.650417 175.354921 
L 487.813333 177.901194 
L 494.97625 166.324009 
L 502.139167 137.927803 
L 509.302083 192.000926 
L 516.465 180.607386 
L 523.627917 199.215368 
L 530.790833 208.717316 
L 537.95375 189.71342 
L 541 180.957931 
" clip-path="url(#p2acedb71f9)" style="fill: none; stroke: #9467bd; stroke-width: 1.5; stroke-linecap: square"/>
   </g>
   <g id="patch_3">
    <path d="M 86.69 351.88 
L 86.69 59.22 
" style="fill: none; stroke: #000000; stroke-width: 0.8; stroke-linejoin: miter; stroke-linecap: square"/>
   </g>
   <g id="patch_4">
    <path d="M 516.465 351.88 
L 516.465 59.22 
" style="fill: none; stroke: #000000; stroke-width: 0.8; stroke-linejoin: miter; stroke-linecap: square"/>
   </g>
   <g id="patch_5">
    <path d="M 86.69 351.88 
L 516.465 351.88 
" style="fill: none; stroke: #000000; stroke-width: 0.8; stroke-linejoin: miter; stroke-linecap: square"/>
   </g>
   <g id="patch_6">
    <path d="M 86.69 59.22 
L 516.465 59.22 
" style="fill: none; stroke: #000000; stroke-width: 0.8; stroke-linejoin: miter; stroke-linecap: square"/>
   </g>
   <g id="legend_1">
    <g id="patch_7">
     <path d="M 18.0805 52.97 
L 516.3105 52.97 
Q 518.8105 52.97 518.8105 50.47 
L 518.8105 15.024688 
Q 518.8105 12.524688 516.3105 12.524688 
L 18.0805 12.524688 
Q 15.5805 12.524688 15.5805 15.024688 
L 15.5805 50.47 
Q 15.5805 52.97 18.0805 52.97 
z
" style="fill: #ffffff; opacity: 0.8; stroke: #cccccc; stroke-linejoin: miter"/>
    </g>
    <g id="line2d_22">
     <path d="M 20.5805 22.647734 
L 33.0805 22.647734 
L 45.5805 22.647734 
" style="fill: none; stroke: #1f77b4; stroke-width: 1.5; stroke-linecap: square"/>
    </g>
    <g id="text_19">
     <!-- lr=0.00001 -->
     <g transform="translate(55.5805 27.022734)scale(0.125 -0.125)">
      <defs>
       <path id="DejaVuSans-6c" d="M 603 4863 
L 1178 4863 
L 1178 0 
L 603 0 
L 603 4863 
z
" transform="scale(0.015625)"/>
       <path id="DejaVuSans-3d" d="M 678 2906 
L 4684 2906 
L 4684 2381 
L 678 2381 
L 678 2906 
z
M 678 1631 
L 4684 1631 
L 4684 1100 
L 678 1100 
L 678 1631 
z
" transform="scale(0.015625)"/>
      </defs>
      <use xlink:href="#DejaVuSans-6c"/>
      <use xlink:href="#DejaVuSans-72" x="27.783203"/>
      <use xlink:href="#DejaVuSans-3d" x="68.896484"/>
      <use xlink:href="#DejaVuSans-30" x="152.685547"/>
      <use xlink:href="#DejaVuSans-2e" x="216.308594"/>
      <use xlink:href="#DejaVuSans-30" x="248.095703"/>
      <use xlink:href="#DejaVuSans-30" x="311.71875"/>
      <use xlink:href="#DejaVuSans-30" x="375.341797"/>
      <use xlink:href="#DejaVuSans-30" x="438.964844"/>
      <use xlink:href="#DejaVuSans-31" x="502.587891"/>
     </g>
    </g>
    <g id="line2d_23">
     <path d="M 20.5805 40.995391 
L 33.0805 40.995391 
L 45.5805 40.995391 
" style="fill: none; stroke-dasharray: 5.55,2.4; stroke-dashoffset: 0; stroke: #ff7f0e; stroke-width: 1.5"/>
    </g>
    <g id="text_20">
     <!-- lr=0.0001 -->
     <g transform="translate(55.5805 45.370391)scale(0.125 -0.125)">
      <use xlink:href="#DejaVuSans-6c"/>
      <use xlink:href="#DejaVuSans-72" x="27.783203"/>
      <use xlink:href="#DejaVuSans-3d" x="68.896484"/>
      <use xlink:href="#DejaVuSans-30" x="152.685547"/>
      <use xlink:href="#DejaVuSans-2e" x="216.308594"/>
      <use xlink:href="#DejaVuSans-30" x="248.095703"/>
      <use xlink:href="#DejaVuSans-30" x="311.71875"/>
      <use xlink:href="#DejaVuSans-30" x="375.341797"/>
      <use xlink:href="#DejaVuSans-31" x="438.964844"/>
     </g>
    </g>
    <g id="line2d_24">
     <path d="M 173.59076 22.647734 
L 186.09076 22.647734 
L 198.59076 22.647734 
" style="fill: none; stroke-dasharray: 9.6,2.4,1.5,2.4; stroke-dashoffset: 0; stroke: #2ca02c; stroke-width: 1.5"/>
    </g>
    <g id="text_21">
     <!-- lr=0.001 -->
     <g transform="translate(208.59076 27.022734)scale(0.125 -0.125)">
      <use xlink:href="#DejaVuSans-6c"/>
      <use xlink:href="#DejaVuSans-72" x="27.783203"/>
      <use xlink:href="#DejaVuSans-3d" x="68.896484"/>
      <use xlink:href="#DejaVuSans-30" x="152.685547"/>
      <use xlink:href="#DejaVuSans-2e" x="216.308594"/>
      <use xlink:href="#DejaVuSans-30" x="248.095703"/>
      <use xlink:href="#DejaVuSans-30" x="311.71875"/>
      <use xlink:href="#DejaVuSans-31" x="375.341797"/>
     </g>
    </g>
    <g id="line2d_25">
     <path d="M 310.694771 22.647734 
L 323.194771 22.647734 
L 335.694771 22.647734 
" style="fill: none; stroke-dasharray: 1.5,2.475; stroke-dashoffset: 0; stroke: #d62728; stroke-width: 1.5"/>
    </g>
    <g id="text_22">
     <!-- lr=0.01 -->
     <g transform="translate(345.694771 27.022734)scale(0.125 -0.125)">
      <use xlink:href="#DejaVuSans-6c"/>
      <use xlink:href="#DejaVuSans-72" x="27.783203"/>
      <use xlink:href="#DejaVuSans-3d" x="68.896484"/>
      <use xlink:href="#DejaVuSans-30" x="152.685547"/>
      <use xlink:href="#DejaVuSans-2e" x="216.308594"/>
      <use xlink:href="#DejaVuSans-30" x="248.095703"/>
      <use xlink:href="#DejaVuSans-31" x="311.71875"/>
     </g>
    </g>
    <g id="line2d_26">
     <path d="M 439.845656 22.647734 
L 452.345656 22.647734 
L 464.845656 22.647734 
" style="fill: none; stroke: #9467bd; stroke-width: 1.5; stroke-linecap: square"/>
    </g>
    <g id="text_23">
     <!-- lr=0.1 -->
     <g transform="translate(474.845656 27.022734)scale(0.125 -0.125)">
      <use xlink:href="#DejaVuSans-6c"/>
      <use xlink:href="#DejaVuSans-72" x="27.783203"/>
      <use xlink:href="#DejaVuSans-3d" x="68.896484"/>
      <use xlink:href="#DejaVuSans-30" x="152.685547"/>
      <use xlink:href="#DejaVuSans-2e" x="216.308594"/>
      <use xlink:href="#DejaVuSans-31" x="248.095703"/>
     </g>
    </g>
   </g>
  </g>
 </g>
 <defs>
  <clipPath id="p2acedb71f9">
   <rect x="86.69" y="59.22" width="429.775" height="292.66"/>
  </clipPath>
 </defs>
</svg>
