<?xml version="1.0" encoding="utf-8" standalone="no"?>
<!DOCTYPE svg PUBLIC "-//W3C//DTD SVG 1.1//EN"
  "http://www.w3.org/Graphics/SVG/1.1/DTD/svg11.dtd">
<svg xmlns:xlink="http://www.w3.org/1999/xlink" width="540pt" height="360pt" viewBox="0 0 540 360" xmlns="http://www.w3.org/2000/svg" version="1.1">
 <metadata>
  <rdf:RDF xmlns:dc="http://purl.org/dc/elements/1.1/" xmlns:cc="http://creativecommons.org/ns#" xmlns:rdf="http://www.w3.org/1999/02/22-rdf-syntax-ns#">
   <cc:Work>
    <dc:type rdf:resource="http://purl.org/dc/dcmitype/StillImage"/>
    <dc:date>2024-07-08T17:34:25.451806</dc:date>
    <dc:format>image/svg+xml</dc:format>
    <dc:creator>
     <cc:Agent>
      <dc:title>Matplotlib v3.5.3, https://matplotlib.org/</dc:title>
     </cc:Agent>
    </dc:creator>
   </cc:Work>
  </rdf:RDF>
 </metadata>
 <defs>
  <style type="text/css">*{stroke-linejoin: round; stroke-linecap: butt}</style>
 </defs>
 <g id="figure_1">
  <g id="patch_1">
   <path d="M 0 360 
L 540 360 
L 540 0 
L 0 0 
z
" style="fill: #ffffff"/>
  </g>
  <g id="axes_1">
   <g id="patch_2">
    <path d="M 54.74 297.88 
L 516.465 297.88 
L 516.465 10.8 
L 54.74 10.8 
z
" style="fill: #ffffff"/>
   </g>
   <g id="matplotlib.axis_1">
    <g id="xtick_1">
     <g id="line2d_1">
      <defs>
       <path id="m14b330cdf1" d="M 0 0 
L 0 3.5 
" style="stroke: #000000; stroke-width: 0.8"/>
      </defs>
      <g>
       <use xlink:href="#m14b330cdf1" x="54.74" y="297.88" style="stroke: #000000; stroke-width: 0.8"/>
      </g>
     </g>
     <g id="text_1">
      <!-- 0 -->
      <g transform="translate(48.3775 320.076875)scale(0.2 -0.2)">
       <defs>
        <path id="DejaVuSans-30" d="M 2034 4250 
Q 1547 4250 1301 3770 
Q 1056 3291 1056 2328 
Q 1056 1369 1301 889 
Q 1547 409 2034 409 
Q 2525 409 2770 889 
Q 3016 1369 3016 2328 
Q 3016 3291 2770 3770 
Q 2525 4250 2034 4250 
z
M 2034 4750 
Q 2819 4750 3233 4129 
Q 3647 3509 3647 2328 
Q 3647 1150 3233 529 
Q 2819 -91 2034 -91 
Q 1250 -91 836 529 
Q 422 1150 422 2328 
Q 422 3509 836 4129 
Q 1250 4750 2034 4750 
z
" transform="scale(0.015625)"/>
       </defs>
       <use xlink:href="#DejaVuSans-30"/>
      </g>
     </g>
    </g>
    <g id="xtick_2">
     <g id="line2d_2">
      <g>
       <use xlink:href="#m14b330cdf1" x="131.694167" y="297.88" style="stroke: #000000; stroke-width: 0.8"/>
      </g>
     </g>
     <g id="text_2">
      <!-- 10 -->
      <g transform="translate(118.969167 320.076875)scale(0.2 -0.2)">
       <defs>
        <path id="DejaVuSans-31" d="M 794 531 
L 1825 531 
L 1825 4091 
L 703 3866 
L 703 4441 
L 1819 4666 
L 2450 4666 
L 2450 531 
L 3481 531 
L 3481 0 
L 794 0 
L 794 531 
z
" transform="scale(0.015625)"/>
       </defs>
       <use xlink:href="#DejaVuSans-31"/>
       <use xlink:href="#DejaVuSans-30" x="63.623047"/>
      </g>
     </g>
    </g>
    <g id="xtick_3">
     <g id="line2d_3">
      <g>
       <use xlink:href="#m14b330cdf1" x="208.648333" y="297.88" style="stroke: #000000; stroke-width: 0.8"/>
      </g>
     </g>
     <g id="text_3">
      <!-- 20 -->
      <g transform="translate(195.923333 320.076875)scale(0.2 -0.2)">
       <defs>
        <path id="DejaVuSans-32" d="M 1228 531 
L 3431 531 
L 3431 0 
L 469 0 
L 469 531 
Q 828 903 1448 1529 
Q 2069 2156 2228 2338 
Q 2531 2678 2651 2914 
Q 2772 3150 2772 3378 
Q 2772 3750 2511 3984 
Q 2250 4219 1831 4219 
Q 1534 4219 1204 4116 
Q 875 4013 500 3803 
L 500 4441 
Q 881 4594 1212 4672 
Q 1544 4750 1819 4750 
Q 2544 4750 2975 4387 
Q 3406 4025 3406 3419 
Q 3406 3131 3298 2873 
Q 3191 2616 2906 2266 
Q 2828 2175 2409 1742 
Q 1991 1309 1228 531 
z
" transform="scale(0.015625)"/>
       </defs>
       <use xlink:href="#DejaVuSans-32"/>
       <use xlink:href="#DejaVuSans-30" x="63.623047"/>
      </g>
     </g>
    </g>
    <g id="xtick_4">
     <g id="line2d_4">
      <g>
       <use xlink:href="#m14b330cdf1" x="285.6025" y="297.88" style="stroke: #000000; stroke-width: 0.8"/>
      </g>
     </g>
     <g id="text_4">
      <!-- 30 -->
      <g transform="translate(272.8775 320.076875)scale(0.2 -0.2)">
       <defs>
        <path id="DejaVuSans-33" d="M 2597 2516 
Q 3050 2419 3304 2112 
Q 3559 1806 3559 1356 
Q 3559 666 3084 287 
Q 2609 -91 1734 -91 
Q 1441 -91 1130 -33 
Q 819 25 488 141 
L 488 750 
Q 750 597 1062 519 
Q 1375 441 1716 441 
Q 2309 441 2620 675 
Q 2931 909 2931 1356 
Q 2931 1769 2642 2001 
Q 2353 2234 1838 2234 
L 1294 2234 
L 1294 2753 
L 1863 2753 
Q 2328 2753 2575 2939 
Q 2822 3125 2822 3475 
Q 2822 3834 2567 4026 
Q 2313 4219 1838 4219 
Q 1578 4219 1281 4162 
Q 984 4106 628 3988 
L 628 4550 
Q 988 4650 1302 4700 
Q 1616 4750 1894 4750 
Q 2613 4750 3031 4423 
Q 3450 4097 3450 3541 
Q 3450 3153 3228 2886 
Q 3006 2619 2597 2516 
z
" transform="scale(0.015625)"/>
       </defs>
       <use xlink:href="#DejaVuSans-33"/>
       <use xlink:href="#DejaVuSans-30" x="63.623047"/>
      </g>
     </g>
    </g>
    <g id="xtick_5">
     <g id="line2d_5">
      <g>
       <use xlink:href="#m14b330cdf1" x="362.556667" y="297.88" style="stroke: #000000; stroke-width: 0.8"/>
      </g>
     </g>
     <g id="text_5">
      <!-- 40 -->
      <g transform="translate(349.831667 320.076875)scale(0.2 -0.2)">
       <defs>
        <path id="DejaVuSans-34" d="M 2419 4116 
L 825 1625 
L 2419 1625 
L 2419 4116 
z
M 2253 4666 
L 3047 4666 
L 3047 1625 
L 3713 1625 
L 3713 1100 
L 3047 1100 
L 3047 0 
L 2419 0 
L 2419 1100 
L 313 1100 
L 313 1709 
L 2253 4666 
z
" transform="scale(0.015625)"/>
       </defs>
       <use xlink:href="#DejaVuSans-34"/>
       <use xlink:href="#DejaVuSans-30" x="63.623047"/>
      </g>
     </g>
    </g>
    <g id="xtick_6">
     <g id="line2d_6">
      <g>
       <use xlink:href="#m14b330cdf1" x="439.510833" y="297.88" style="stroke: #000000; stroke-width: 0.8"/>
      </g>
     </g>
     <g id="text_6">
      <!-- 50 -->
      <g transform="translate(426.785833 320.076875)scale(0.2 -0.2)">
       <defs>
        <path id="DejaVuSans-35" d="M 691 4666 
L 3169 4666 
L 3169 4134 
L 1269 4134 
L 1269 2991 
Q 1406 3038 1543 3061 
Q 1681 3084 1819 3084 
Q 2600 3084 3056 2656 
Q 3513 2228 3513 1497 
Q 3513 744 3044 326 
Q 2575 -91 1722 -91 
Q 1428 -91 1123 -41 
Q 819 9 494 109 
L 494 744 
Q 775 591 1075 516 
Q 1375 441 1709 441 
Q 2250 441 2565 725 
Q 2881 1009 2881 1497 
Q 2881 1984 2565 2268 
Q 2250 2553 1709 2553 
Q 1456 2553 1204 2497 
Q 953 2441 691 2322 
L 691 4666 
z
" transform="scale(0.015625)"/>
       </defs>
       <use xlink:href="#DejaVuSans-35"/>
       <use xlink:href="#DejaVuSans-30" x="63.623047"/>
      </g>
     </g>
    </g>
    <g id="xtick_7">
     <g id="line2d_7">
      <g>
       <use xlink:href="#m14b330cdf1" x="516.465" y="297.88" style="stroke: #000000; stroke-width: 0.8"/>
      </g>
     </g>
     <g id="text_7">
      <!-- 60 -->
      <g transform="translate(503.74 320.076875)scale(0.2 -0.2)">
       <defs>
        <path id="DejaVuSans-36" d="M 2113 2584 
Q 1688 2584 1439 2293 
Q 1191 2003 1191 1497 
Q 1191 994 1439 701 
Q 1688 409 2113 409 
Q 2538 409 2786 701 
Q 3034 994 3034 1497 
Q 3034 2003 2786 2293 
Q 2538 2584 2113 2584 
z
M 3366 4563 
L 3366 3988 
Q 3128 4100 2886 4159 
Q 2644 4219 2406 4219 
Q 1781 4219 1451 3797 
Q 1122 3375 1075 2522 
Q 1259 2794 1537 2939 
Q 1816 3084 2150 3084 
Q 2853 3084 3261 2657 
Q 3669 2231 3669 1497 
Q 3669 778 3244 343 
Q 2819 -91 2113 -91 
Q 1303 -91 875 529 
Q 447 1150 447 2328 
Q 447 3434 972 4092 
Q 1497 4750 2381 4750 
Q 2619 4750 2861 4703 
Q 3103 4656 3366 4563 
z
" transform="scale(0.015625)"/>
       </defs>
       <use xlink:href="#DejaVuSans-36"/>
       <use xlink:href="#DejaVuSans-30" x="63.623047"/>
      </g>
     </g>
    </g>
    <g id="text_8">
     <!-- Attack Success Rate -->
     <g transform="translate(184.143125 343.433125)scale(0.2 -0.2)">
      <defs>
       <path id="DejaVuSans-41" d="M 2188 4044 
L 1331 1722 
L 3047 1722 
L 2188 4044 
z
M 1831 4666 
L 2547 4666 
L 4325 0 
L 3669 0 
L 3244 1197 
L 1141 1197 
L 716 0 
L 50 0 
L 1831 4666 
z
" transform="scale(0.015625)"/>
       <path id="DejaVuSans-74" d="M 1172 4494 
L 1172 3500 
L 2356 3500 
L 2356 3053 
L 1172 3053 
L 1172 1153 
Q 1172 725 1289 603 
Q 1406 481 1766 481 
L 2356 481 
L 2356 0 
L 1766 0 
Q 1100 0 847 248 
Q 594 497 594 1153 
L 594 3053 
L 172 3053 
L 172 3500 
L 594 3500 
L 594 4494 
L 1172 4494 
z
" transform="scale(0.015625)"/>
       <path id="DejaVuSans-61" d="M 2194 1759 
Q 1497 1759 1228 1600 
Q 959 1441 959 1056 
Q 959 750 1161 570 
Q 1363 391 1709 391 
Q 2188 391 2477 730 
Q 2766 1069 2766 1631 
L 2766 1759 
L 2194 1759 
z
M 3341 1997 
L 3341 0 
L 2766 0 
L 2766 531 
Q 2569 213 2275 61 
Q 1981 -91 1556 -91 
Q 1019 -91 701 211 
Q 384 513 384 1019 
Q 384 1609 779 1909 
Q 1175 2209 1959 2209 
L 2766 2209 
L 2766 2266 
Q 2766 2663 2505 2880 
Q 2244 3097 1772 3097 
Q 1472 3097 1187 3025 
Q 903 2953 641 2809 
L 641 3341 
Q 956 3463 1253 3523 
Q 1550 3584 1831 3584 
Q 2591 3584 2966 3190 
Q 3341 2797 3341 1997 
z
" transform="scale(0.015625)"/>
       <path id="DejaVuSans-63" d="M 3122 3366 
L 3122 2828 
Q 2878 2963 2633 3030 
Q 2388 3097 2138 3097 
Q 1578 3097 1268 2742 
Q 959 2388 959 1747 
Q 959 1106 1268 751 
Q 1578 397 2138 397 
Q 2388 397 2633 464 
Q 2878 531 3122 666 
L 3122 134 
Q 2881 22 2623 -34 
Q 2366 -91 2075 -91 
Q 1284 -91 818 406 
Q 353 903 353 1747 
Q 353 2603 823 3093 
Q 1294 3584 2113 3584 
Q 2378 3584 2631 3529 
Q 2884 3475 3122 3366 
z
" transform="scale(0.015625)"/>
       <path id="DejaVuSans-6b" d="M 581 4863 
L 1159 4863 
L 1159 1991 
L 2875 3500 
L 3609 3500 
L 1753 1863 
L 3688 0 
L 2938 0 
L 1159 1709 
L 1159 0 
L 581 0 
L 581 4863 
z
" transform="scale(0.015625)"/>
       <path id="DejaVuSans-20" transform="scale(0.015625)"/>
       <path id="DejaVuSans-53" d="M 3425 4513 
L 3425 3897 
Q 3066 4069 2747 4153 
Q 2428 4238 2131 4238 
Q 1616 4238 1336 4038 
Q 1056 3838 1056 3469 
Q 1056 3159 1242 3001 
Q 1428 2844 1947 2747 
L 2328 2669 
Q 3034 2534 3370 2195 
Q 3706 1856 3706 1288 
Q 3706 609 3251 259 
Q 2797 -91 1919 -91 
Q 1588 -91 1214 -16 
Q 841 59 441 206 
L 441 856 
Q 825 641 1194 531 
Q 1563 422 1919 422 
Q 2459 422 2753 634 
Q 3047 847 3047 1241 
Q 3047 1584 2836 1778 
Q 2625 1972 2144 2069 
L 1759 2144 
Q 1053 2284 737 2584 
Q 422 2884 422 3419 
Q 422 4038 858 4394 
Q 1294 4750 2059 4750 
Q 2388 4750 2728 4690 
Q 3069 4631 3425 4513 
z
" transform="scale(0.015625)"/>
       <path id="DejaVuSans-75" d="M 544 1381 
L 544 3500 
L 1119 3500 
L 1119 1403 
Q 1119 906 1312 657 
Q 1506 409 1894 409 
Q 2359 409 2629 706 
Q 2900 1003 2900 1516 
L 2900 3500 
L 3475 3500 
L 3475 0 
L 2900 0 
L 2900 538 
Q 2691 219 2414 64 
Q 2138 -91 1772 -91 
Q 1169 -91 856 284 
Q 544 659 544 1381 
z
M 1991 3584 
L 1991 3584 
z
" transform="scale(0.015625)"/>
       <path id="DejaVuSans-65" d="M 3597 1894 
L 3597 1613 
L 953 1613 
Q 991 1019 1311 708 
Q 1631 397 2203 397 
Q 2534 397 2845 478 
Q 3156 559 3463 722 
L 3463 178 
Q 3153 47 2828 -22 
Q 2503 -91 2169 -91 
Q 1331 -91 842 396 
Q 353 884 353 1716 
Q 353 2575 817 3079 
Q 1281 3584 2069 3584 
Q 2775 3584 3186 3129 
Q 3597 2675 3597 1894 
z
M 3022 2063 
Q 3016 2534 2758 2815 
Q 2500 3097 2075 3097 
Q 1594 3097 1305 2825 
Q 1016 2553 972 2059 
L 3022 2063 
z
" transform="scale(0.015625)"/>
       <path id="DejaVuSans-73" d="M 2834 3397 
L 2834 2853 
Q 2591 2978 2328 3040 
Q 2066 3103 1784 3103 
Q 1356 3103 1142 2972 
Q 928 2841 928 2578 
Q 928 2378 1081 2264 
Q 1234 2150 1697 2047 
L 1894 2003 
Q 2506 1872 2764 1633 
Q 3022 1394 3022 966 
Q 3022 478 2636 193 
Q 2250 -91 1575 -91 
Q 1294 -91 989 -36 
Q 684 19 347 128 
L 347 722 
Q 666 556 975 473 
Q 1284 391 1588 391 
Q 1994 391 2212 530 
Q 2431 669 2431 922 
Q 2431 1156 2273 1281 
Q 2116 1406 1581 1522 
L 1381 1569 
Q 847 1681 609 1914 
Q 372 2147 372 2553 
Q 372 3047 722 3315 
Q 1072 3584 1716 3584 
Q 2034 3584 2315 3537 
Q 2597 3491 2834 3397 
z
" transform="scale(0.015625)"/>
       <path id="DejaVuSans-52" d="M 2841 2188 
Q 3044 2119 3236 1894 
Q 3428 1669 3622 1275 
L 4263 0 
L 3584 0 
L 2988 1197 
Q 2756 1666 2539 1819 
Q 2322 1972 1947 1972 
L 1259 1972 
L 1259 0 
L 628 0 
L 628 4666 
L 2053 4666 
Q 2853 4666 3247 4331 
Q 3641 3997 3641 3322 
Q 3641 2881 3436 2590 
Q 3231 2300 2841 2188 
z
M 1259 4147 
L 1259 2491 
L 2053 2491 
Q 2509 2491 2742 2702 
Q 2975 2913 2975 3322 
Q 2975 3731 2742 3939 
Q 2509 4147 2053 4147 
L 1259 4147 
z
" transform="scale(0.015625)"/>
      </defs>
      <use xlink:href="#DejaVuSans-41"/>
      <use xlink:href="#DejaVuSans-74" x="66.658203"/>
      <use xlink:href="#DejaVuSans-74" x="105.867188"/>
      <use xlink:href="#DejaVuSans-61" x="145.076172"/>
      <use xlink:href="#DejaVuSans-63" x="206.355469"/>
      <use xlink:href="#DejaVuSans-6b" x="261.335938"/>
      <use xlink:href="#DejaVuSans-20" x="319.246094"/>
      <use xlink:href="#DejaVuSans-53" x="351.033203"/>
      <use xlink:href="#DejaVuSans-75" x="414.509766"/>
      <use xlink:href="#DejaVuSans-63" x="477.888672"/>
      <use xlink:href="#DejaVuSans-63" x="532.869141"/>
      <use xlink:href="#DejaVuSans-65" x="587.849609"/>
      <use xlink:href="#DejaVuSans-73" x="649.373047"/>
      <use xlink:href="#DejaVuSans-73" x="701.472656"/>
      <use xlink:href="#DejaVuSans-20" x="753.572266"/>
      <use xlink:href="#DejaVuSans-52" x="785.359375"/>
      <use xlink:href="#DejaVuSans-61" x="852.591797"/>
      <use xlink:href="#DejaVuSans-74" x="913.871094"/>
      <use xlink:href="#DejaVuSans-65" x="953.080078"/>
     </g>
    </g>
   </g>
   <g id="matplotlib.axis_2">
    <g id="ytick_1">
     <g id="line2d_8">
      <defs>
       <path id="m213a886ad6" d="M 0 0 
L -3.5 0 
" style="stroke: #000000; stroke-width: 0.8"/>
      </defs>
      <g>
       <use xlink:href="#m213a886ad6" x="54.74" y="284.830909" style="stroke: #000000; stroke-width: 0.8"/>
      </g>
     </g>
     <g id="text_9">
      <!-- 1 -->
      <g transform="translate(35.015 292.429347)scale(0.2 -0.2)">
       <use xlink:href="#DejaVuSans-31"/>
      </g>
     </g>
    </g>
    <g id="ytick_2">
     <g id="line2d_9">
      <g>
       <use xlink:href="#m213a886ad6" x="54.74" y="252.208182" style="stroke: #000000; stroke-width: 0.8"/>
      </g>
     </g>
     <g id="text_10">
      <!-- 2 -->
      <g transform="translate(35.015 259.806619)scale(0.2 -0.2)">
       <use xlink:href="#DejaVuSans-32"/>
      </g>
     </g>
    </g>
    <g id="ytick_3">
     <g id="line2d_10">
      <g>
       <use xlink:href="#m213a886ad6" x="54.74" y="219.585455" style="stroke: #000000; stroke-width: 0.8"/>
      </g>
     </g>
     <g id="text_11">
      <!-- 3 -->
      <g transform="translate(35.015 227.183892)scale(0.2 -0.2)">
       <use xlink:href="#DejaVuSans-33"/>
      </g>
     </g>
    </g>
    <g id="ytick_4">
     <g id="line2d_11">
      <g>
       <use xlink:href="#m213a886ad6" x="54.74" y="186.962727" style="stroke: #000000; stroke-width: 0.8"/>
      </g>
     </g>
     <g id="text_12">
      <!-- 4 -->
      <g transform="translate(35.015 194.561165)scale(0.2 -0.2)">
       <use xlink:href="#DejaVuSans-34"/>
      </g>
     </g>
    </g>
    <g id="ytick_5">
     <g id="line2d_12">
      <g>
       <use xlink:href="#m213a886ad6" x="54.74" y="154.34" style="stroke: #000000; stroke-width: 0.8"/>
      </g>
     </g>
     <g id="text_13">
      <!-- 5 -->
      <g transform="translate(35.015 161.938437)scale(0.2 -0.2)">
       <use xlink:href="#DejaVuSans-35"/>
      </g>
     </g>
    </g>
    <g id="ytick_6">
     <g id="line2d_13">
      <g>
       <use xlink:href="#m213a886ad6" x="54.74" y="121.717273" style="stroke: #000000; stroke-width: 0.8"/>
      </g>
     </g>
     <g id="text_14">
      <!-- 6 -->
      <g transform="translate(35.015 129.31571)scale(0.2 -0.2)">
       <use xlink:href="#DejaVuSans-36"/>
      </g>
     </g>
    </g>
    <g id="ytick_7">
     <g id="line2d_14">
      <g>
       <use xlink:href="#m213a886ad6" x="54.74" y="89.094545" style="stroke: #000000; stroke-width: 0.8"/>
      </g>
     </g>
     <g id="text_15">
      <!-- 7 -->
      <g transform="translate(35.015 96.692983)scale(0.2 -0.2)">
       <defs>
        <path id="DejaVuSans-37" d="M 525 4666 
L 3525 4666 
L 3525 4397 
L 1831 0 
L 1172 0 
L 2766 4134 
L 525 4134 
L 525 4666 
z
" transform="scale(0.015625)"/>
       </defs>
       <use xlink:href="#DejaVuSans-37"/>
      </g>
     </g>
    </g>
    <g id="ytick_8">
     <g id="line2d_15">
      <g>
       <use xlink:href="#m213a886ad6" x="54.74" y="56.471818" style="stroke: #000000; stroke-width: 0.8"/>
      </g>
     </g>
     <g id="text_16">
      <!-- 8 -->
      <g transform="translate(35.015 64.070256)scale(0.2 -0.2)">
       <defs>
        <path id="DejaVuSans-38" d="M 2034 2216 
Q 1584 2216 1326 1975 
Q 1069 1734 1069 1313 
Q 1069 891 1326 650 
Q 1584 409 2034 409 
Q 2484 409 2743 651 
Q 3003 894 3003 1313 
Q 3003 1734 2745 1975 
Q 2488 2216 2034 2216 
z
M 1403 2484 
Q 997 2584 770 2862 
Q 544 3141 544 3541 
Q 544 4100 942 4425 
Q 1341 4750 2034 4750 
Q 2731 4750 3128 4425 
Q 3525 4100 3525 3541 
Q 3525 3141 3298 2862 
Q 3072 2584 2669 2484 
Q 3125 2378 3379 2068 
Q 3634 1759 3634 1313 
Q 3634 634 3220 271 
Q 2806 -91 2034 -91 
Q 1263 -91 848 271 
Q 434 634 434 1313 
Q 434 1759 690 2068 
Q 947 2378 1403 2484 
z
M 1172 3481 
Q 1172 3119 1398 2916 
Q 1625 2713 2034 2713 
Q 2441 2713 2670 2916 
Q 2900 3119 2900 3481 
Q 2900 3844 2670 4047 
Q 2441 4250 2034 4250 
Q 1625 4250 1398 4047 
Q 1172 3844 1172 3481 
z
" transform="scale(0.015625)"/>
       </defs>
       <use xlink:href="#DejaVuSans-38"/>
      </g>
     </g>
    </g>
    <g id="ytick_9">
     <g id="line2d_16">
      <g>
       <use xlink:href="#m213a886ad6" x="54.74" y="23.849091" style="stroke: #000000; stroke-width: 0.8"/>
      </g>
     </g>
     <g id="text_17">
      <!-- 9 -->
      <g transform="translate(35.015 31.447528)scale(0.2 -0.2)">
       <defs>
        <path id="DejaVuSans-39" d="M 703 97 
L 703 672 
Q 941 559 1184 500 
Q 1428 441 1663 441 
Q 2288 441 2617 861 
Q 2947 1281 2994 2138 
Q 2813 1869 2534 1725 
Q 2256 1581 1919 1581 
Q 1219 1581 811 2004 
Q 403 2428 403 3163 
Q 403 3881 828 4315 
Q 1253 4750 1959 4750 
Q 2769 4750 3195 4129 
Q 3622 3509 3622 2328 
Q 3622 1225 3098 567 
Q 2575 -91 1691 -91 
Q 1453 -91 1209 -44 
Q 966 3 703 97 
z
M 1959 2075 
Q 2384 2075 2632 2365 
Q 2881 2656 2881 3163 
Q 2881 3666 2632 3958 
Q 2384 4250 1959 4250 
Q 1534 4250 1286 3958 
Q 1038 3666 1038 3163 
Q 1038 2656 1286 2365 
Q 1534 2075 1959 2075 
z
" transform="scale(0.015625)"/>
       </defs>
       <use xlink:href="#DejaVuSans-39"/>
      </g>
     </g>
    </g>
    <g id="text_18">
     <!-- DD-D3QN-PIDHEU -->
     <g transform="translate(26.855625 244.20875)rotate(-90)scale(0.2 -0.2)">
      <defs>
       <path id="DejaVuSans-44" d="M 1259 4147 
L 1259 519 
L 2022 519 
Q 2988 519 3436 956 
Q 3884 1394 3884 2338 
Q 3884 3275 3436 3711 
Q 2988 4147 2022 4147 
L 1259 4147 
z
M 628 4666 
L 1925 4666 
Q 3281 4666 3915 4102 
Q 4550 3538 4550 2338 
Q 4550 1131 3912 565 
Q 3275 0 1925 0 
L 628 0 
L 628 4666 
z
" transform="scale(0.015625)"/>
       <path id="DejaVuSans-2d" d="M 313 2009 
L 1997 2009 
L 1997 1497 
L 313 1497 
L 313 2009 
z
" transform="scale(0.015625)"/>
       <path id="DejaVuSans-51" d="M 2522 4238 
Q 1834 4238 1429 3725 
Q 1025 3213 1025 2328 
Q 1025 1447 1429 934 
Q 1834 422 2522 422 
Q 3209 422 3611 934 
Q 4013 1447 4013 2328 
Q 4013 3213 3611 3725 
Q 3209 4238 2522 4238 
z
M 3406 84 
L 4238 -825 
L 3475 -825 
L 2784 -78 
Q 2681 -84 2626 -87 
Q 2572 -91 2522 -91 
Q 1538 -91 948 567 
Q 359 1225 359 2328 
Q 359 3434 948 4092 
Q 1538 4750 2522 4750 
Q 3503 4750 4090 4092 
Q 4678 3434 4678 2328 
Q 4678 1516 4351 937 
Q 4025 359 3406 84 
z
" transform="scale(0.015625)"/>
       <path id="DejaVuSans-4e" d="M 628 4666 
L 1478 4666 
L 3547 763 
L 3547 4666 
L 4159 4666 
L 4159 0 
L 3309 0 
L 1241 3903 
L 1241 0 
L 628 0 
L 628 4666 
z
" transform="scale(0.015625)"/>
       <path id="DejaVuSans-50" d="M 1259 4147 
L 1259 2394 
L 2053 2394 
Q 2494 2394 2734 2622 
Q 2975 2850 2975 3272 
Q 2975 3691 2734 3919 
Q 2494 4147 2053 4147 
L 1259 4147 
z
M 628 4666 
L 2053 4666 
Q 2838 4666 3239 4311 
Q 3641 3956 3641 3272 
Q 3641 2581 3239 2228 
Q 2838 1875 2053 1875 
L 1259 1875 
L 1259 0 
L 628 0 
L 628 4666 
z
" transform="scale(0.015625)"/>
       <path id="DejaVuSans-49" d="M 628 4666 
L 1259 4666 
L 1259 0 
L 628 0 
L 628 4666 
z
" transform="scale(0.015625)"/>
       <path id="DejaVuSans-48" d="M 628 4666 
L 1259 4666 
L 1259 2753 
L 3553 2753 
L 3553 4666 
L 4184 4666 
L 4184 0 
L 3553 0 
L 3553 2222 
L 1259 2222 
L 1259 0 
L 628 0 
L 628 4666 
z
" transform="scale(0.015625)"/>
       <path id="DejaVuSans-45" d="M 628 4666 
L 3578 4666 
L 3578 4134 
L 1259 4134 
L 1259 2753 
L 3481 2753 
L 3481 2222 
L 1259 2222 
L 1259 531 
L 3634 531 
L 3634 0 
L 628 0 
L 628 4666 
z
" transform="scale(0.015625)"/>
       <path id="DejaVuSans-55" d="M 556 4666 
L 1191 4666 
L 1191 1831 
Q 1191 1081 1462 751 
Q 1734 422 2344 422 
Q 2950 422 3222 751 
Q 3494 1081 3494 1831 
L 3494 4666 
L 4128 4666 
L 4128 1753 
Q 4128 841 3676 375 
Q 3225 -91 2344 -91 
Q 1459 -91 1007 375 
Q 556 841 556 1753 
L 556 4666 
z
" transform="scale(0.015625)"/>
      </defs>
      <use xlink:href="#DejaVuSans-44"/>
      <use xlink:href="#DejaVuSans-44" x="77.001953"/>
      <use xlink:href="#DejaVuSans-2d" x="154.003906"/>
      <use xlink:href="#DejaVuSans-44" x="190.087891"/>
      <use xlink:href="#DejaVuSans-33" x="267.089844"/>
      <use xlink:href="#DejaVuSans-51" x="330.712891"/>
      <use xlink:href="#DejaVuSans-4e" x="409.423828"/>
      <use xlink:href="#DejaVuSans-2d" x="484.228516"/>
      <use xlink:href="#DejaVuSans-50" x="520.3125"/>
      <use xlink:href="#DejaVuSans-49" x="580.615234"/>
      <use xlink:href="#DejaVuSans-44" x="610.107422"/>
      <use xlink:href="#DejaVuSans-48" x="687.109375"/>
      <use xlink:href="#DejaVuSans-45" x="762.304688"/>
      <use xlink:href="#DejaVuSans-55" x="825.488281"/>
     </g>
    </g>
   </g>
   <g id="line2d_17">
    <path d="M 62.435417 23.849091 
L 70.130833 26.980873 
L 77.82625 36.430215 
L 85.521667 45.02704 
L 93.217083 60.197526 
L 100.9125 69.017029 
L 108.607917 76.668229 
L 116.303333 80.069311 
L 123.99875 81.461538 
L 131.694167 84.393219 
L 139.389583 88.887854 
L 147.085 86.715982 
L 154.780417 92.420369 
L 162.475833 91.880748 
L 170.17125 93.841039 
L 177.866667 93.581934 
L 185.562083 97.739866 
L 193.2575 102.198431 
L 200.952917 99.604228 
L 208.648333 99.048329 
L 216.34375 99.057188 
L 224.039167 104.159314 
L 231.734583 108.771636 
L 239.43 113.139536 
L 247.125417 111.213567 
L 254.820833 116.551018 
L 262.51625 119.943939 
L 270.211667 118.249139 
L 277.907083 119.679098 
L 285.6025 117.197172 
L 293.297917 114.548632 
L 300.993333 114.200955 
L 308.68875 117.658528 
L 316.384167 117.295238 
L 324.079583 118.533705 
L 331.775 118.834255 
L 339.470417 124.807804 
L 347.165833 126.072724 
L 354.86125 114.822222 
L 362.556667 115.573836 
L 370.252083 111.852878 
L 377.9475 127.065086 
L 385.642917 127.67687 
L 393.338333 117.09939 
L 401.03375 118.560821 
L 408.729167 116.539729 
L 416.424583 120.940084 
L 424.12 124.983786 
L 431.815417 128.54146 
L 439.510833 116.385563 
L 447.20625 127.345506 
L 454.901667 124.82379 
L 462.597083 125.909966 
L 470.2925 135.129367 
L 477.987917 150.544948 
L 485.683333 162.251562 
L 493.37875 171.889331 
L 501.074167 163.608977 
L 508.769583 152.408309 
L 516.465 131.122858 
L 524.160417 132.930176 
L 531.855833 175.319434 
L 539.55125 160.367503 
L 541 173.07765 
" clip-path="url(#pb7e97bdd88)" style="fill: none; stroke: #1f77b4; stroke-width: 1.5; stroke-linecap: square"/>
   </g>
   <g id="line2d_18">
    <path d="M 62.435417 23.849091 
L 70.130833 29.329709 
L 77.82625 41.494612 
L 85.521667 54.939918 
L 93.217083 63.320375 
L 100.9125 64.224324 
L 108.607917 69.976238 
L 116.303333 77.687016 
L 123.99875 82.974764 
L 131.694167 87.702052 
L 139.389583 86.666545 
L 147.085 95.405971 
L 154.780417 94.671288 
L 162.475833 93.720368 
L 170.17125 92.519519 
L 177.866667 99.117054 
L 185.562083 99.472627 
L 193.2575 101.228672 
L 200.952917 101.375606 
L 208.648333 106.343469 
L 216.34375 110.63102 
L 224.039167 113.425318 
L 231.734583 117.289968 
L 239.43 115.369637 
L 247.125417 116.572505 
L 254.820833 111.5602 
L 262.51625 109.887759 
L 270.211667 109.415468 
L 277.907083 112.316905 
L 285.6025 119.458609 
L 293.297917 115.641851 
L 300.993333 108.614497 
L 308.68875 112.599266 
L 316.384167 115.051041 
L 324.079583 111.414568 
L 331.775 111.310207 
L 339.470417 113.547297 
L 347.165833 108.926634 
L 354.86125 109.322658 
L 362.556667 104.768214 
L 370.252083 113.138102 
L 377.9475 110.491362 
L 385.642917 108.969005 
L 393.338333 128.712176 
L 401.03375 119.449858 
L 408.729167 109.896497 
L 416.424583 110.105311 
L 424.12 101.515903 
L 431.815417 97.163102 
L 439.510833 80.80758 
L 447.20625 100.522196 
L 454.901667 106.527661 
L 462.597083 140.551768 
L 470.2925 135.317286 
L 477.987917 155.324197 
L 485.683333 174.525041 
L 493.37875 169.838407 
L 501.074167 172.226058 
L 508.769583 174.701595 
L 516.465 159.578773 
L 524.160417 135.430991 
L 531.855833 106.993547 
L 539.55125 129.749994 
L 541 132.569856 
" clip-path="url(#pb7e97bdd88)" style="fill: none; stroke-dasharray: 5.55,2.4; stroke-dashoffset: 0; stroke: #ff7f0e; stroke-width: 1.5"/>
   </g>
   <g id="line2d_19">
    <path d="M 62.435417 23.849091 
L 70.130833 28.0248 
L 77.82625 43.271498 
L 85.521667 56.118446 
L 93.217083 64.689456 
L 100.9125 71.989783 
L 108.607917 74.75781 
L 116.303333 77.413583 
L 123.99875 76.435702 
L 131.694167 78.153575 
L 139.389583 86.433947 
L 147.085 86.942899 
L 154.780417 93.813478 
L 162.475833 95.430783 
L 170.17125 97.782526 
L 177.866667 103.673004 
L 185.562083 103.855764 
L 193.2575 108.764229 
L 200.952917 111.295418 
L 208.648333 112.426874 
L 216.34375 112.639732 
L 224.039167 113.749871 
L 231.734583 115.770173 
L 239.43 117.109266 
L 247.125417 120.08035 
L 254.820833 121.101545 
L 262.51625 124.651003 
L 270.211667 123.003776 
L 277.907083 126.381534 
L 285.6025 122.025254 
L 293.297917 120.846441 
L 300.993333 118.985759 
L 308.68875 115.432534 
L 316.384167 116.059892 
L 324.079583 117.785763 
L 331.775 120.233317 
L 339.470417 119.376513 
L 347.165833 117.827893 
L 354.86125 130.571694 
L 362.556667 128.519414 
L 370.252083 135.43407 
L 377.9475 134.915893 
L 385.642917 135.776565 
L 393.338333 135.35962 
L 401.03375 134.247798 
L 408.729167 129.557082 
L 416.424583 127.18196 
L 424.12 126.813121 
L 431.815417 118.937292 
L 439.510833 123.430697 
L 447.20625 120.870521 
L 454.901667 116.406726 
L 462.597083 125.808529 
L 470.2925 116.881501 
L 477.987917 123.82887 
L 485.683333 134.958951 
L 493.37875 127.356845 
L 501.074167 111.885099 
L 508.769583 104.725235 
L 516.465 58.783303 
L 524.160417 84.779573 
L 531.855833 62.658626 
L 539.55125 62.719374 
L 541 55.4016 
" clip-path="url(#pb7e97bdd88)" style="fill: none; stroke-dasharray: 9.6,2.4,1.5,2.4; stroke-dashoffset: 0; stroke: #2ca02c; stroke-width: 1.5"/>
   </g>
   <g id="line2d_20">
    <path d="M 62.435417 23.849091 
L 70.130833 27.63069 
L 77.82625 44.825079 
L 85.521667 51.080742 
L 93.217083 61.256985 
L 100.9125 68.714588 
L 108.607917 74.912229 
L 116.303333 79.646791 
L 123.99875 83.27591 
L 131.694167 84.178759 
L 139.389583 88.094647 
L 147.085 92.740535 
L 154.780417 93.475167 
L 162.475833 96.617152 
L 170.17125 96.663309 
L 177.866667 99.672866 
L 185.562083 99.778092 
L 193.2575 101.680394 
L 200.952917 102.938076 
L 208.648333 110.04364 
L 216.34375 111.152039 
L 224.039167 115.550349 
L 231.734583 116.681756 
L 239.43 116.892823 
L 247.125417 117.762036 
L 254.820833 116.63957 
L 262.51625 121.081618 
L 270.211667 119.50924 
L 277.907083 116.093802 
L 285.6025 114.047026 
L 293.297917 114.741335 
L 300.993333 113.855833 
L 308.68875 116.523344 
L 316.384167 125.366527 
L 324.079583 130.301144 
L 331.775 130.080651 
L 339.470417 130.92747 
L 347.165833 133.703106 
L 354.86125 127.580522 
L 362.556667 124.072848 
L 370.252083 127.895103 
L 377.9475 128.013192 
L 385.642917 123.8826 
L 393.338333 114.377602 
L 401.03375 117.615351 
L 408.729167 116.045268 
L 416.424583 109.358112 
L 424.12 80.795988 
L 431.815417 90.803244 
L 439.510833 93.301247 
L 447.20625 99.030215 
L 454.901667 99.432575 
L 462.597083 128.107568 
L 470.2925 125.197974 
L 477.987917 95.449376 
L 485.683333 101.974452 
L 493.37875 74.377697 
L 501.074167 138.666839 
L 508.769583 150.443501 
L 516.465 135.33838 
L 524.160417 145.790249 
L 531.855833 146.273646 
L 539.55125 131.205702 
L 541 133.658394 
" clip-path="url(#pb7e97bdd88)" style="fill: none; stroke-dasharray: 1.5,2.475; stroke-dashoffset: 0; stroke: #d62728; stroke-width: 1.5"/>
   </g>
   <g id="line2d_21">
    <path d="M 62.435417 23.849091 
L 70.130833 28.014249 
L 77.82625 38.162891 
L 85.521667 50.28217 
L 93.217083 60.704397 
L 100.9125 67.440241 
L 108.607917 75.830153 
L 116.303333 81.565797 
L 123.99875 83.388558 
L 131.694167 88.200772 
L 139.389583 94.626207 
L 147.085 91.18212 
L 154.780417 94.062028 
L 162.475833 93.034165 
L 170.17125 99.094267 
L 177.866667 100.181017 
L 185.562083 99.848931 
L 193.2575 97.608294 
L 200.952917 103.172335 
L 208.648333 103.900398 
L 216.34375 108.460254 
L 224.039167 109.070507 
L 231.734583 112.591156 
L 239.43 116.755788 
L 247.125417 116.173458 
L 254.820833 111.451963 
L 262.51625 110.908159 
L 270.211667 116.038762 
L 277.907083 113.170835 
L 285.6025 113.746147 
L 293.297917 121.448624 
L 300.993333 126.833451 
L 308.68875 123.343324 
L 316.384167 128.747634 
L 324.079583 129.020342 
L 331.775 133.065128 
L 339.470417 126.190248 
L 347.165833 124.715066 
L 354.86125 129.868249 
L 362.556667 128.321423 
L 370.252083 124.032734 
L 377.9475 123.598036 
L 385.642917 121.400162 
L 393.338333 115.42118 
L 401.03375 118.11551 
L 408.729167 125.644688 
L 416.424583 108.245783 
L 424.12 97.784538 
L 431.815417 111.972042 
L 439.510833 126.887224 
L 447.20625 135.509624 
L 454.901667 132.238186 
L 462.597083 146.101941 
L 470.2925 126.541365 
L 477.987917 130.062551 
L 485.683333 115.792324 
L 493.37875 119.575233 
L 501.074167 114.380049 
L 508.769583 148.243957 
L 516.465 131.6217 
L 524.160417 149.823406 
L 531.855833 144.31095 
L 539.55125 224.970645 
L 541 236.240023 
" clip-path="url(#pb7e97bdd88)" style="fill: none; stroke: #9467bd; stroke-width: 1.5; stroke-linecap: square"/>
   </g>
   <g id="patch_3">
    <path d="M 54.74 297.88 
L 54.74 10.8 
" style="fill: none; stroke: #000000; stroke-width: 0.8; stroke-linejoin: miter; stroke-linecap: square"/>
   </g>
   <g id="patch_4">
    <path d="M 516.465 297.88 
L 516.465 10.8 
" style="fill: none; stroke: #000000; stroke-width: 0.8; stroke-linejoin: miter; stroke-linecap: square"/>
   </g>
   <g id="patch_5">
    <path d="M 54.74 297.88 
L 516.465 297.88 
" style="fill: none; stroke: #000000; stroke-width: 0.8; stroke-linejoin: miter; stroke-linecap: square"/>
   </g>
   <g id="patch_6">
    <path d="M 54.74 10.8 
L 516.465 10.8 
" style="fill: none; stroke: #000000; stroke-width: 0.8; stroke-linejoin: miter; stroke-linecap: square"/>
   </g>
   <g id="legend_1">
    <g id="patch_7">
     <path d="M 61.74 292.88 
L 150.361875 292.88 
Q 152.361875 292.88 152.361875 290.88 
L 152.361875 218.489375 
Q 152.361875 216.489375 150.361875 216.489375 
L 61.74 216.489375 
Q 59.74 216.489375 59.74 218.489375 
L 59.74 290.88 
Q 59.74 292.88 61.74 292.88 
z
" style="fill: #ffffff; opacity: 0.8; stroke: #cccccc; stroke-linejoin: miter"/>
    </g>
    <g id="line2d_22">
     <path d="M 63.74 224.587812 
L 73.74 224.587812 
L 83.74 224.587812 
" style="fill: none; stroke: #1f77b4; stroke-width: 1.5; stroke-linecap: square"/>
    </g>
    <g id="text_19">
     <!-- lr=0.00001 -->
     <g transform="translate(91.74 228.087812)scale(0.1 -0.1)">
      <defs>
       <path id="DejaVuSans-6c" d="M 603 4863 
L 1178 4863 
L 1178 0 
L 603 0 
L 603 4863 
z
" transform="scale(0.015625)"/>
       <path id="DejaVuSans-72" d="M 2631 2963 
Q 2534 3019 2420 3045 
Q 2306 3072 2169 3072 
Q 1681 3072 1420 2755 
Q 1159 2438 1159 1844 
L 1159 0 
L 581 0 
L 581 3500 
L 1159 3500 
L 1159 2956 
Q 1341 3275 1631 3429 
Q 1922 3584 2338 3584 
Q 2397 3584 2469 3576 
Q 2541 3569 2628 3553 
L 2631 2963 
z
" transform="scale(0.015625)"/>
       <path id="DejaVuSans-3d" d="M 678 2906 
L 4684 2906 
L 4684 2381 
L 678 2381 
L 678 2906 
z
M 678 1631 
L 4684 1631 
L 4684 1100 
L 678 1100 
L 678 1631 
z
" transform="scale(0.015625)"/>
       <path id="DejaVuSans-2e" d="M 684 794 
L 1344 794 
L 1344 0 
L 684 0 
L 684 794 
z
" transform="scale(0.015625)"/>
      </defs>
      <use xlink:href="#DejaVuSans-6c"/>
      <use xlink:href="#DejaVuSans-72" x="27.783203"/>
      <use xlink:href="#DejaVuSans-3d" x="68.896484"/>
      <use xlink:href="#DejaVuSans-30" x="152.685547"/>
      <use xlink:href="#DejaVuSans-2e" x="216.308594"/>
      <use xlink:href="#DejaVuSans-30" x="248.095703"/>
      <use xlink:href="#DejaVuSans-30" x="311.71875"/>
      <use xlink:href="#DejaVuSans-30" x="375.341797"/>
      <use xlink:href="#DejaVuSans-30" x="438.964844"/>
      <use xlink:href="#DejaVuSans-31" x="502.587891"/>
     </g>
    </g>
    <g id="line2d_23">
     <path d="M 63.74 239.265937 
L 73.74 239.265937 
L 83.74 239.265937 
" style="fill: none; stroke-dasharray: 5.55,2.4; stroke-dashoffset: 0; stroke: #ff7f0e; stroke-width: 1.5"/>
    </g>
    <g id="text_20">
     <!-- lr=0.0001 -->
     <g transform="translate(91.74 242.765937)scale(0.1 -0.1)">
      <use xlink:href="#DejaVuSans-6c"/>
      <use xlink:href="#DejaVuSans-72" x="27.783203"/>
      <use xlink:href="#DejaVuSans-3d" x="68.896484"/>
      <use xlink:href="#DejaVuSans-30" x="152.685547"/>
      <use xlink:href="#DejaVuSans-2e" x="216.308594"/>
      <use xlink:href="#DejaVuSans-30" x="248.095703"/>
      <use xlink:href="#DejaVuSans-30" x="311.71875"/>
      <use xlink:href="#DejaVuSans-30" x="375.341797"/>
      <use xlink:href="#DejaVuSans-31" x="438.964844"/>
     </g>
    </g>
    <g id="line2d_24">
     <path d="M 63.74 253.944062 
L 73.74 253.944062 
L 83.74 253.944062 
" style="fill: none; stroke-dasharray: 9.6,2.4,1.5,2.4; stroke-dashoffset: 0; stroke: #2ca02c; stroke-width: 1.5"/>
    </g>
    <g id="text_21">
     <!-- lr=0.001 -->
     <g transform="translate(91.74 257.444062)scale(0.1 -0.1)">
      <use xlink:href="#DejaVuSans-6c"/>
      <use xlink:href="#DejaVuSans-72" x="27.783203"/>
      <use xlink:href="#DejaVuSans-3d" x="68.896484"/>
      <use xlink:href="#DejaVuSans-30" x="152.685547"/>
      <use xlink:href="#DejaVuSans-2e" x="216.308594"/>
      <use xlink:href="#DejaVuSans-30" x="248.095703"/>
      <use xlink:href="#DejaVuSans-30" x="311.71875"/>
      <use xlink:href="#DejaVuSans-31" x="375.341797"/>
     </g>
    </g>
    <g id="line2d_25">
     <path d="M 63.74 268.622187 
L 73.74 268.622187 
L 83.74 268.622187 
" style="fill: none; stroke-dasharray: 1.5,2.475; stroke-dashoffset: 0; stroke: #d62728; stroke-width: 1.5"/>
    </g>
    <g id="text_22">
     <!-- lr=0.01 -->
     <g transform="translate(91.74 272.122187)scale(0.1 -0.1)">
      <use xlink:href="#DejaVuSans-6c"/>
      <use xlink:href="#DejaVuSans-72" x="27.783203"/>
      <use xlink:href="#DejaVuSans-3d" x="68.896484"/>
      <use xlink:href="#DejaVuSans-30" x="152.685547"/>
      <use xlink:href="#DejaVuSans-2e" x="216.308594"/>
      <use xlink:href="#DejaVuSans-30" x="248.095703"/>
      <use xlink:href="#DejaVuSans-31" x="311.71875"/>
     </g>
    </g>
    <g id="line2d_26">
     <path d="M 63.74 283.300313 
L 73.74 283.300313 
L 83.74 283.300313 
" style="fill: none; stroke: #9467bd; stroke-width: 1.5; stroke-linecap: square"/>
    </g>
    <g id="text_23">
     <!-- lr=0.1 -->
     <g transform="translate(91.74 286.800313)scale(0.1 -0.1)">
      <use xlink:href="#DejaVuSans-6c"/>
      <use xlink:href="#DejaVuSans-72" x="27.783203"/>
      <use xlink:href="#DejaVuSans-3d" x="68.896484"/>
      <use xlink:href="#DejaVuSans-30" x="152.685547"/>
      <use xlink:href="#DejaVuSans-2e" x="216.308594"/>
      <use xlink:href="#DejaVuSans-31" x="248.095703"/>
     </g>
    </g>
   </g>
  </g>
 </g>
 <defs>
  <clipPath id="pb7e97bdd88">
   <rect x="54.74" y="10.8" width="461.725" height="287.08"/>
  </clipPath>
 </defs>
</svg>
