<?xml version="1.0" encoding="utf-8" standalone="no"?>
<!DOCTYPE svg PUBLIC "-//W3C//DTD SVG 1.1//EN"
  "http://www.w3.org/Graphics/SVG/1.1/DTD/svg11.dtd">
<svg xmlns:xlink="http://www.w3.org/1999/xlink" width="540pt" height="360pt" viewBox="0 0 540 360" xmlns="http://www.w3.org/2000/svg" version="1.1">
 <metadata>
  <rdf:RDF xmlns:dc="http://purl.org/dc/elements/1.1/" xmlns:cc="http://creativecommons.org/ns#" xmlns:rdf="http://www.w3.org/1999/02/22-rdf-syntax-ns#">
   <cc:Work>
    <dc:type rdf:resource="http://purl.org/dc/dcmitype/StillImage"/>
    <dc:date>2024-04-24T21:52:52.211055</dc:date>
    <dc:format>image/svg+xml</dc:format>
    <dc:creator>
     <cc:Agent>
      <dc:title>Matplotlib v3.5.3, https://matplotlib.org/</dc:title>
     </cc:Agent>
    </dc:creator>
   </cc:Work>
  </rdf:RDF>
 </metadata>
 <defs>
  <style type="text/css">*{stroke-linejoin: round; stroke-linecap: butt}</style>
 </defs>
 <g id="figure_1">
  <g id="patch_1">
   <path d="M 0 360 
L 540 360 
L 540 0 
L 0 0 
z
" style="fill: #ffffff"/>
  </g>
  <g id="axes_1">
   <g id="patch_2">
    <path d="M 48.26 297.88 
L 529.2 297.88 
L 529.2 66.6 
L 48.26 66.6 
z
" style="fill: #ffffff"/>
   </g>
   <g id="matplotlib.axis_1">
    <g id="xtick_1">
     <g id="line2d_1">
      <defs>
       <path id="m421c5ae389" d="M 0 0 
L 0 3.5 
" style="stroke: #000000; stroke-width: 0.8"/>
      </defs>
      <g>
       <use xlink:href="#m421c5ae389" x="70.120909" y="297.88" style="stroke: #000000; stroke-width: 0.8"/>
      </g>
     </g>
     <g id="text_1">
      <!-- 0 -->
      <g transform="translate(63.758409 320.076875)scale(0.2 -0.2)">
       <defs>
        <path id="DejaVuSans-30" d="M 2034 4250 
Q 1547 4250 1301 3770 
Q 1056 3291 1056 2328 
Q 1056 1369 1301 889 
Q 1547 409 2034 409 
Q 2525 409 2770 889 
Q 3016 1369 3016 2328 
Q 3016 3291 2770 3770 
Q 2525 4250 2034 4250 
z
M 2034 4750 
Q 2819 4750 3233 4129 
Q 3647 3509 3647 2328 
Q 3647 1150 3233 529 
Q 2819 -91 2034 -91 
Q 1250 -91 836 529 
Q 422 1150 422 2328 
Q 422 3509 836 4129 
Q 1250 4750 2034 4750 
z
" transform="scale(0.015625)"/>
       </defs>
       <use xlink:href="#DejaVuSans-30"/>
      </g>
     </g>
    </g>
    <g id="xtick_2">
     <g id="line2d_2">
      <g>
       <use xlink:href="#m421c5ae389" x="139.52062" y="297.88" style="stroke: #000000; stroke-width: 0.8"/>
      </g>
     </g>
     <g id="text_2">
      <!-- 10 -->
      <g transform="translate(126.79562 320.076875)scale(0.2 -0.2)">
       <defs>
        <path id="DejaVuSans-31" d="M 794 531 
L 1825 531 
L 1825 4091 
L 703 3866 
L 703 4441 
L 1819 4666 
L 2450 4666 
L 2450 531 
L 3481 531 
L 3481 0 
L 794 0 
L 794 531 
z
" transform="scale(0.015625)"/>
       </defs>
       <use xlink:href="#DejaVuSans-31"/>
       <use xlink:href="#DejaVuSans-30" x="63.623047"/>
      </g>
     </g>
    </g>
    <g id="xtick_3">
     <g id="line2d_3">
      <g>
       <use xlink:href="#m421c5ae389" x="208.920332" y="297.88" style="stroke: #000000; stroke-width: 0.8"/>
      </g>
     </g>
     <g id="text_3">
      <!-- 20 -->
      <g transform="translate(196.195332 320.076875)scale(0.2 -0.2)">
       <defs>
        <path id="DejaVuSans-32" d="M 1228 531 
L 3431 531 
L 3431 0 
L 469 0 
L 469 531 
Q 828 903 1448 1529 
Q 2069 2156 2228 2338 
Q 2531 2678 2651 2914 
Q 2772 3150 2772 3378 
Q 2772 3750 2511 3984 
Q 2250 4219 1831 4219 
Q 1534 4219 1204 4116 
Q 875 4013 500 3803 
L 500 4441 
Q 881 4594 1212 4672 
Q 1544 4750 1819 4750 
Q 2544 4750 2975 4387 
Q 3406 4025 3406 3419 
Q 3406 3131 3298 2873 
Q 3191 2616 2906 2266 
Q 2828 2175 2409 1742 
Q 1991 1309 1228 531 
z
" transform="scale(0.015625)"/>
       </defs>
       <use xlink:href="#DejaVuSans-32"/>
       <use xlink:href="#DejaVuSans-30" x="63.623047"/>
      </g>
     </g>
    </g>
    <g id="xtick_4">
     <g id="line2d_4">
      <g>
       <use xlink:href="#m421c5ae389" x="278.320043" y="297.88" style="stroke: #000000; stroke-width: 0.8"/>
      </g>
     </g>
     <g id="text_4">
      <!-- 30 -->
      <g transform="translate(265.595043 320.076875)scale(0.2 -0.2)">
       <defs>
        <path id="DejaVuSans-33" d="M 2597 2516 
Q 3050 2419 3304 2112 
Q 3559 1806 3559 1356 
Q 3559 666 3084 287 
Q 2609 -91 1734 -91 
Q 1441 -91 1130 -33 
Q 819 25 488 141 
L 488 750 
Q 750 597 1062 519 
Q 1375 441 1716 441 
Q 2309 441 2620 675 
Q 2931 909 2931 1356 
Q 2931 1769 2642 2001 
Q 2353 2234 1838 2234 
L 1294 2234 
L 1294 2753 
L 1863 2753 
Q 2328 2753 2575 2939 
Q 2822 3125 2822 3475 
Q 2822 3834 2567 4026 
Q 2313 4219 1838 4219 
Q 1578 4219 1281 4162 
Q 984 4106 628 3988 
L 628 4550 
Q 988 4650 1302 4700 
Q 1616 4750 1894 4750 
Q 2613 4750 3031 4423 
Q 3450 4097 3450 3541 
Q 3450 3153 3228 2886 
Q 3006 2619 2597 2516 
z
" transform="scale(0.015625)"/>
       </defs>
       <use xlink:href="#DejaVuSans-33"/>
       <use xlink:href="#DejaVuSans-30" x="63.623047"/>
      </g>
     </g>
    </g>
    <g id="xtick_5">
     <g id="line2d_5">
      <g>
       <use xlink:href="#m421c5ae389" x="347.719755" y="297.88" style="stroke: #000000; stroke-width: 0.8"/>
      </g>
     </g>
     <g id="text_5">
      <!-- 40 -->
      <g transform="translate(334.994755 320.076875)scale(0.2 -0.2)">
       <defs>
        <path id="DejaVuSans-34" d="M 2419 4116 
L 825 1625 
L 2419 1625 
L 2419 4116 
z
M 2253 4666 
L 3047 4666 
L 3047 1625 
L 3713 1625 
L 3713 1100 
L 3047 1100 
L 3047 0 
L 2419 0 
L 2419 1100 
L 313 1100 
L 313 1709 
L 2253 4666 
z
" transform="scale(0.015625)"/>
       </defs>
       <use xlink:href="#DejaVuSans-34"/>
       <use xlink:href="#DejaVuSans-30" x="63.623047"/>
      </g>
     </g>
    </g>
    <g id="xtick_6">
     <g id="line2d_6">
      <g>
       <use xlink:href="#m421c5ae389" x="417.119466" y="297.88" style="stroke: #000000; stroke-width: 0.8"/>
      </g>
     </g>
     <g id="text_6">
      <!-- 50 -->
      <g transform="translate(404.394466 320.076875)scale(0.2 -0.2)">
       <defs>
        <path id="DejaVuSans-35" d="M 691 4666 
L 3169 4666 
L 3169 4134 
L 1269 4134 
L 1269 2991 
Q 1406 3038 1543 3061 
Q 1681 3084 1819 3084 
Q 2600 3084 3056 2656 
Q 3513 2228 3513 1497 
Q 3513 744 3044 326 
Q 2575 -91 1722 -91 
Q 1428 -91 1123 -41 
Q 819 9 494 109 
L 494 744 
Q 775 591 1075 516 
Q 1375 441 1709 441 
Q 2250 441 2565 725 
Q 2881 1009 2881 1497 
Q 2881 1984 2565 2268 
Q 2250 2553 1709 2553 
Q 1456 2553 1204 2497 
Q 953 2441 691 2322 
L 691 4666 
z
" transform="scale(0.015625)"/>
       </defs>
       <use xlink:href="#DejaVuSans-35"/>
       <use xlink:href="#DejaVuSans-30" x="63.623047"/>
      </g>
     </g>
    </g>
    <g id="xtick_7">
     <g id="line2d_7">
      <g>
       <use xlink:href="#m421c5ae389" x="486.519177" y="297.88" style="stroke: #000000; stroke-width: 0.8"/>
      </g>
     </g>
     <g id="text_7">
      <!-- 60 -->
      <g transform="translate(473.794177 320.076875)scale(0.2 -0.2)">
       <defs>
        <path id="DejaVuSans-36" d="M 2113 2584 
Q 1688 2584 1439 2293 
Q 1191 2003 1191 1497 
Q 1191 994 1439 701 
Q 1688 409 2113 409 
Q 2538 409 2786 701 
Q 3034 994 3034 1497 
Q 3034 2003 2786 2293 
Q 2538 2584 2113 2584 
z
M 3366 4563 
L 3366 3988 
Q 3128 4100 2886 4159 
Q 2644 4219 2406 4219 
Q 1781 4219 1451 3797 
Q 1122 3375 1075 2522 
Q 1259 2794 1537 2939 
Q 1816 3084 2150 3084 
Q 2853 3084 3261 2657 
Q 3669 2231 3669 1497 
Q 3669 778 3244 343 
Q 2819 -91 2113 -91 
Q 1303 -91 875 529 
Q 447 1150 447 2328 
Q 447 3434 972 4092 
Q 1497 4750 2381 4750 
Q 2619 4750 2861 4703 
Q 3103 4656 3366 4563 
z
" transform="scale(0.015625)"/>
       </defs>
       <use xlink:href="#DejaVuSans-36"/>
       <use xlink:href="#DejaVuSans-30" x="63.623047"/>
      </g>
     </g>
    </g>
    <g id="text_8">
     <!-- # of games -->
     <g transform="translate(230.775313 343.433125)scale(0.2 -0.2)">
      <defs>
       <path id="DejaVuSans-23" d="M 3272 2816 
L 2363 2816 
L 2100 1772 
L 3016 1772 
L 3272 2816 
z
M 2803 4594 
L 2478 3297 
L 3391 3297 
L 3719 4594 
L 4219 4594 
L 3897 3297 
L 4872 3297 
L 4872 2816 
L 3775 2816 
L 3519 1772 
L 4513 1772 
L 4513 1294 
L 3397 1294 
L 3072 0 
L 2572 0 
L 2894 1294 
L 1978 1294 
L 1656 0 
L 1153 0 
L 1478 1294 
L 494 1294 
L 494 1772 
L 1594 1772 
L 1856 2816 
L 850 2816 
L 850 3297 
L 1978 3297 
L 2297 4594 
L 2803 4594 
z
" transform="scale(0.015625)"/>
       <path id="DejaVuSans-20" transform="scale(0.015625)"/>
       <path id="DejaVuSans-6f" d="M 1959 3097 
Q 1497 3097 1228 2736 
Q 959 2375 959 1747 
Q 959 1119 1226 758 
Q 1494 397 1959 397 
Q 2419 397 2687 759 
Q 2956 1122 2956 1747 
Q 2956 2369 2687 2733 
Q 2419 3097 1959 3097 
z
M 1959 3584 
Q 2709 3584 3137 3096 
Q 3566 2609 3566 1747 
Q 3566 888 3137 398 
Q 2709 -91 1959 -91 
Q 1206 -91 779 398 
Q 353 888 353 1747 
Q 353 2609 779 3096 
Q 1206 3584 1959 3584 
z
" transform="scale(0.015625)"/>
       <path id="DejaVuSans-66" d="M 2375 4863 
L 2375 4384 
L 1825 4384 
Q 1516 4384 1395 4259 
Q 1275 4134 1275 3809 
L 1275 3500 
L 2222 3500 
L 2222 3053 
L 1275 3053 
L 1275 0 
L 697 0 
L 697 3053 
L 147 3053 
L 147 3500 
L 697 3500 
L 697 3744 
Q 697 4328 969 4595 
Q 1241 4863 1831 4863 
L 2375 4863 
z
" transform="scale(0.015625)"/>
       <path id="DejaVuSans-67" d="M 2906 1791 
Q 2906 2416 2648 2759 
Q 2391 3103 1925 3103 
Q 1463 3103 1205 2759 
Q 947 2416 947 1791 
Q 947 1169 1205 825 
Q 1463 481 1925 481 
Q 2391 481 2648 825 
Q 2906 1169 2906 1791 
z
M 3481 434 
Q 3481 -459 3084 -895 
Q 2688 -1331 1869 -1331 
Q 1566 -1331 1297 -1286 
Q 1028 -1241 775 -1147 
L 775 -588 
Q 1028 -725 1275 -790 
Q 1522 -856 1778 -856 
Q 2344 -856 2625 -561 
Q 2906 -266 2906 331 
L 2906 616 
Q 2728 306 2450 153 
Q 2172 0 1784 0 
Q 1141 0 747 490 
Q 353 981 353 1791 
Q 353 2603 747 3093 
Q 1141 3584 1784 3584 
Q 2172 3584 2450 3431 
Q 2728 3278 2906 2969 
L 2906 3500 
L 3481 3500 
L 3481 434 
z
" transform="scale(0.015625)"/>
       <path id="DejaVuSans-61" d="M 2194 1759 
Q 1497 1759 1228 1600 
Q 959 1441 959 1056 
Q 959 750 1161 570 
Q 1363 391 1709 391 
Q 2188 391 2477 730 
Q 2766 1069 2766 1631 
L 2766 1759 
L 2194 1759 
z
M 3341 1997 
L 3341 0 
L 2766 0 
L 2766 531 
Q 2569 213 2275 61 
Q 1981 -91 1556 -91 
Q 1019 -91 701 211 
Q 384 513 384 1019 
Q 384 1609 779 1909 
Q 1175 2209 1959 2209 
L 2766 2209 
L 2766 2266 
Q 2766 2663 2505 2880 
Q 2244 3097 1772 3097 
Q 1472 3097 1187 3025 
Q 903 2953 641 2809 
L 641 3341 
Q 956 3463 1253 3523 
Q 1550 3584 1831 3584 
Q 2591 3584 2966 3190 
Q 3341 2797 3341 1997 
z
" transform="scale(0.015625)"/>
       <path id="DejaVuSans-6d" d="M 3328 2828 
Q 3544 3216 3844 3400 
Q 4144 3584 4550 3584 
Q 5097 3584 5394 3201 
Q 5691 2819 5691 2113 
L 5691 0 
L 5113 0 
L 5113 2094 
Q 5113 2597 4934 2840 
Q 4756 3084 4391 3084 
Q 3944 3084 3684 2787 
Q 3425 2491 3425 1978 
L 3425 0 
L 2847 0 
L 2847 2094 
Q 2847 2600 2669 2842 
Q 2491 3084 2119 3084 
Q 1678 3084 1418 2786 
Q 1159 2488 1159 1978 
L 1159 0 
L 581 0 
L 581 3500 
L 1159 3500 
L 1159 2956 
Q 1356 3278 1631 3431 
Q 1906 3584 2284 3584 
Q 2666 3584 2933 3390 
Q 3200 3197 3328 2828 
z
" transform="scale(0.015625)"/>
       <path id="DejaVuSans-65" d="M 3597 1894 
L 3597 1613 
L 953 1613 
Q 991 1019 1311 708 
Q 1631 397 2203 397 
Q 2534 397 2845 478 
Q 3156 559 3463 722 
L 3463 178 
Q 3153 47 2828 -22 
Q 2503 -91 2169 -91 
Q 1331 -91 842 396 
Q 353 884 353 1716 
Q 353 2575 817 3079 
Q 1281 3584 2069 3584 
Q 2775 3584 3186 3129 
Q 3597 2675 3597 1894 
z
M 3022 2063 
Q 3016 2534 2758 2815 
Q 2500 3097 2075 3097 
Q 1594 3097 1305 2825 
Q 1016 2553 972 2059 
L 3022 2063 
z
" transform="scale(0.015625)"/>
       <path id="DejaVuSans-73" d="M 2834 3397 
L 2834 2853 
Q 2591 2978 2328 3040 
Q 2066 3103 1784 3103 
Q 1356 3103 1142 2972 
Q 928 2841 928 2578 
Q 928 2378 1081 2264 
Q 1234 2150 1697 2047 
L 1894 2003 
Q 2506 1872 2764 1633 
Q 3022 1394 3022 966 
Q 3022 478 2636 193 
Q 2250 -91 1575 -91 
Q 1294 -91 989 -36 
Q 684 19 347 128 
L 347 722 
Q 666 556 975 473 
Q 1284 391 1588 391 
Q 1994 391 2212 530 
Q 2431 669 2431 922 
Q 2431 1156 2273 1281 
Q 2116 1406 1581 1522 
L 1381 1569 
Q 847 1681 609 1914 
Q 372 2147 372 2553 
Q 372 3047 722 3315 
Q 1072 3584 1716 3584 
Q 2034 3584 2315 3537 
Q 2597 3491 2834 3397 
z
" transform="scale(0.015625)"/>
      </defs>
      <use xlink:href="#DejaVuSans-23"/>
      <use xlink:href="#DejaVuSans-20" x="83.789062"/>
      <use xlink:href="#DejaVuSans-6f" x="115.576172"/>
      <use xlink:href="#DejaVuSans-66" x="176.757812"/>
      <use xlink:href="#DejaVuSans-20" x="211.962891"/>
      <use xlink:href="#DejaVuSans-67" x="243.75"/>
      <use xlink:href="#DejaVuSans-61" x="307.226562"/>
      <use xlink:href="#DejaVuSans-6d" x="368.505859"/>
      <use xlink:href="#DejaVuSans-65" x="465.917969"/>
      <use xlink:href="#DejaVuSans-73" x="527.441406"/>
     </g>
    </g>
   </g>
   <g id="matplotlib.axis_2">
    <g id="ytick_1">
     <g id="line2d_8">
      <defs>
       <path id="mf48f3f97aa" d="M 0 0 
L -3.5 0 
" style="stroke: #000000; stroke-width: 0.8"/>
      </defs>
      <g>
       <use xlink:href="#mf48f3f97aa" x="48.26" y="287.367273" style="stroke: #000000; stroke-width: 0.8"/>
      </g>
     </g>
     <g id="text_9">
      <!-- 1 -->
      <g transform="translate(28.535 294.96571)scale(0.2 -0.2)">
       <use xlink:href="#DejaVuSans-31"/>
      </g>
     </g>
    </g>
    <g id="ytick_2">
     <g id="line2d_9">
      <g>
       <use xlink:href="#mf48f3f97aa" x="48.26" y="261.085455" style="stroke: #000000; stroke-width: 0.8"/>
      </g>
     </g>
     <g id="text_10">
      <!-- 2 -->
      <g transform="translate(28.535 268.683892)scale(0.2 -0.2)">
       <use xlink:href="#DejaVuSans-32"/>
      </g>
     </g>
    </g>
    <g id="ytick_3">
     <g id="line2d_10">
      <g>
       <use xlink:href="#mf48f3f97aa" x="48.26" y="234.803636" style="stroke: #000000; stroke-width: 0.8"/>
      </g>
     </g>
     <g id="text_11">
      <!-- 3 -->
      <g transform="translate(28.535 242.402074)scale(0.2 -0.2)">
       <use xlink:href="#DejaVuSans-33"/>
      </g>
     </g>
    </g>
    <g id="ytick_4">
     <g id="line2d_11">
      <g>
       <use xlink:href="#mf48f3f97aa" x="48.26" y="208.521818" style="stroke: #000000; stroke-width: 0.8"/>
      </g>
     </g>
     <g id="text_12">
      <!-- 4 -->
      <g transform="translate(28.535 216.120256)scale(0.2 -0.2)">
       <use xlink:href="#DejaVuSans-34"/>
      </g>
     </g>
    </g>
    <g id="ytick_5">
     <g id="line2d_12">
      <g>
       <use xlink:href="#mf48f3f97aa" x="48.26" y="182.24" style="stroke: #000000; stroke-width: 0.8"/>
      </g>
     </g>
     <g id="text_13">
      <!-- 5 -->
      <g transform="translate(28.535 189.838437)scale(0.2 -0.2)">
       <use xlink:href="#DejaVuSans-35"/>
      </g>
     </g>
    </g>
    <g id="ytick_6">
     <g id="line2d_13">
      <g>
       <use xlink:href="#mf48f3f97aa" x="48.26" y="155.958182" style="stroke: #000000; stroke-width: 0.8"/>
      </g>
     </g>
     <g id="text_14">
      <!-- 6 -->
      <g transform="translate(28.535 163.556619)scale(0.2 -0.2)">
       <use xlink:href="#DejaVuSans-36"/>
      </g>
     </g>
    </g>
    <g id="ytick_7">
     <g id="line2d_14">
      <g>
       <use xlink:href="#mf48f3f97aa" x="48.26" y="129.676364" style="stroke: #000000; stroke-width: 0.8"/>
      </g>
     </g>
     <g id="text_15">
      <!-- 7 -->
      <g transform="translate(28.535 137.274801)scale(0.2 -0.2)">
       <defs>
        <path id="DejaVuSans-37" d="M 525 4666 
L 3525 4666 
L 3525 4397 
L 1831 0 
L 1172 0 
L 2766 4134 
L 525 4134 
L 525 4666 
z
" transform="scale(0.015625)"/>
       </defs>
       <use xlink:href="#DejaVuSans-37"/>
      </g>
     </g>
    </g>
    <g id="ytick_8">
     <g id="line2d_15">
      <g>
       <use xlink:href="#mf48f3f97aa" x="48.26" y="103.394545" style="stroke: #000000; stroke-width: 0.8"/>
      </g>
     </g>
     <g id="text_16">
      <!-- 8 -->
      <g transform="translate(28.535 110.992983)scale(0.2 -0.2)">
       <defs>
        <path id="DejaVuSans-38" d="M 2034 2216 
Q 1584 2216 1326 1975 
Q 1069 1734 1069 1313 
Q 1069 891 1326 650 
Q 1584 409 2034 409 
Q 2484 409 2743 651 
Q 3003 894 3003 1313 
Q 3003 1734 2745 1975 
Q 2488 2216 2034 2216 
z
M 1403 2484 
Q 997 2584 770 2862 
Q 544 3141 544 3541 
Q 544 4100 942 4425 
Q 1341 4750 2034 4750 
Q 2731 4750 3128 4425 
Q 3525 4100 3525 3541 
Q 3525 3141 3298 2862 
Q 3072 2584 2669 2484 
Q 3125 2378 3379 2068 
Q 3634 1759 3634 1313 
Q 3634 634 3220 271 
Q 2806 -91 2034 -91 
Q 1263 -91 848 271 
Q 434 634 434 1313 
Q 434 1759 690 2068 
Q 947 2378 1403 2484 
z
M 1172 3481 
Q 1172 3119 1398 2916 
Q 1625 2713 2034 2713 
Q 2441 2713 2670 2916 
Q 2900 3119 2900 3481 
Q 2900 3844 2670 4047 
Q 2441 4250 2034 4250 
Q 1625 4250 1398 4047 
Q 1172 3844 1172 3481 
z
" transform="scale(0.015625)"/>
       </defs>
       <use xlink:href="#DejaVuSans-38"/>
      </g>
     </g>
    </g>
    <g id="ytick_9">
     <g id="line2d_16">
      <g>
       <use xlink:href="#mf48f3f97aa" x="48.26" y="77.112727" style="stroke: #000000; stroke-width: 0.8"/>
      </g>
     </g>
     <g id="text_17">
      <!-- 9 -->
      <g transform="translate(28.535 84.711165)scale(0.2 -0.2)">
       <defs>
        <path id="DejaVuSans-39" d="M 703 97 
L 703 672 
Q 941 559 1184 500 
Q 1428 441 1663 441 
Q 2288 441 2617 861 
Q 2947 1281 2994 2138 
Q 2813 1869 2534 1725 
Q 2256 1581 1919 1581 
Q 1219 1581 811 2004 
Q 403 2428 403 3163 
Q 403 3881 828 4315 
Q 1253 4750 1959 4750 
Q 2769 4750 3195 4129 
Q 3622 3509 3622 2328 
Q 3622 1225 3098 567 
Q 2575 -91 1691 -91 
Q 1453 -91 1209 -44 
Q 966 3 703 97 
z
M 1959 2075 
Q 2384 2075 2632 2365 
Q 2881 2656 2881 3163 
Q 2881 3666 2632 3958 
Q 2384 4250 1959 4250 
Q 1534 4250 1286 3958 
Q 1038 3666 1038 3163 
Q 1038 2656 1286 2365 
Q 1534 2075 1959 2075 
z
" transform="scale(0.015625)"/>
       </defs>
       <use xlink:href="#DejaVuSans-39"/>
      </g>
     </g>
    </g>
    <g id="text_18">
     <!-- C-AHEU Value -->
     <g transform="translate(21.762083 228.243125)rotate(-90)scale(0.133333 -0.133333)">
      <defs>
       <path id="DejaVuSans-43" d="M 4122 4306 
L 4122 3641 
Q 3803 3938 3442 4084 
Q 3081 4231 2675 4231 
Q 1875 4231 1450 3742 
Q 1025 3253 1025 2328 
Q 1025 1406 1450 917 
Q 1875 428 2675 428 
Q 3081 428 3442 575 
Q 3803 722 4122 1019 
L 4122 359 
Q 3791 134 3420 21 
Q 3050 -91 2638 -91 
Q 1578 -91 968 557 
Q 359 1206 359 2328 
Q 359 3453 968 4101 
Q 1578 4750 2638 4750 
Q 3056 4750 3426 4639 
Q 3797 4528 4122 4306 
z
" transform="scale(0.015625)"/>
       <path id="DejaVuSans-2d" d="M 313 2009 
L 1997 2009 
L 1997 1497 
L 313 1497 
L 313 2009 
z
" transform="scale(0.015625)"/>
       <path id="DejaVuSans-41" d="M 2188 4044 
L 1331 1722 
L 3047 1722 
L 2188 4044 
z
M 1831 4666 
L 2547 4666 
L 4325 0 
L 3669 0 
L 3244 1197 
L 1141 1197 
L 716 0 
L 50 0 
L 1831 4666 
z
" transform="scale(0.015625)"/>
       <path id="DejaVuSans-48" d="M 628 4666 
L 1259 4666 
L 1259 2753 
L 3553 2753 
L 3553 4666 
L 4184 4666 
L 4184 0 
L 3553 0 
L 3553 2222 
L 1259 2222 
L 1259 0 
L 628 0 
L 628 4666 
z
" transform="scale(0.015625)"/>
       <path id="DejaVuSans-45" d="M 628 4666 
L 3578 4666 
L 3578 4134 
L 1259 4134 
L 1259 2753 
L 3481 2753 
L 3481 2222 
L 1259 2222 
L 1259 531 
L 3634 531 
L 3634 0 
L 628 0 
L 628 4666 
z
" transform="scale(0.015625)"/>
       <path id="DejaVuSans-55" d="M 556 4666 
L 1191 4666 
L 1191 1831 
Q 1191 1081 1462 751 
Q 1734 422 2344 422 
Q 2950 422 3222 751 
Q 3494 1081 3494 1831 
L 3494 4666 
L 4128 4666 
L 4128 1753 
Q 4128 841 3676 375 
Q 3225 -91 2344 -91 
Q 1459 -91 1007 375 
Q 556 841 556 1753 
L 556 4666 
z
" transform="scale(0.015625)"/>
       <path id="DejaVuSans-56" d="M 1831 0 
L 50 4666 
L 709 4666 
L 2188 738 
L 3669 4666 
L 4325 4666 
L 2547 0 
L 1831 0 
z
" transform="scale(0.015625)"/>
       <path id="DejaVuSans-6c" d="M 603 4863 
L 1178 4863 
L 1178 0 
L 603 0 
L 603 4863 
z
" transform="scale(0.015625)"/>
       <path id="DejaVuSans-75" d="M 544 1381 
L 544 3500 
L 1119 3500 
L 1119 1403 
Q 1119 906 1312 657 
Q 1506 409 1894 409 
Q 2359 409 2629 706 
Q 2900 1003 2900 1516 
L 2900 3500 
L 3475 3500 
L 3475 0 
L 2900 0 
L 2900 538 
Q 2691 219 2414 64 
Q 2138 -91 1772 -91 
Q 1169 -91 856 284 
Q 544 659 544 1381 
z
M 1991 3584 
L 1991 3584 
z
" transform="scale(0.015625)"/>
      </defs>
      <use xlink:href="#DejaVuSans-43"/>
      <use xlink:href="#DejaVuSans-2d" x="69.824219"/>
      <use xlink:href="#DejaVuSans-41" x="103.658203"/>
      <use xlink:href="#DejaVuSans-48" x="172.066406"/>
      <use xlink:href="#DejaVuSans-45" x="247.261719"/>
      <use xlink:href="#DejaVuSans-55" x="310.445312"/>
      <use xlink:href="#DejaVuSans-20" x="383.638672"/>
      <use xlink:href="#DejaVuSans-56" x="415.425781"/>
      <use xlink:href="#DejaVuSans-61" x="476.083984"/>
      <use xlink:href="#DejaVuSans-6c" x="537.363281"/>
      <use xlink:href="#DejaVuSans-75" x="565.146484"/>
      <use xlink:href="#DejaVuSans-65" x="628.525391"/>
     </g>
    </g>
   </g>
   <g id="line2d_17">
    <path d="M 70.120909 77.112727 
L 77.06088 77.112727 
L 84.000851 77.112727 
L 90.940823 77.112727 
L 97.880794 77.112727 
L 104.820765 77.112727 
L 111.760736 77.112727 
L 118.700707 77.135152 
L 125.640678 77.142585 
L 132.580649 77.129971 
L 139.52062 77.189488 
L 146.460592 77.283453 
L 153.400563 77.17042 
L 160.340534 77.189319 
L 167.280505 77.351006 
L 174.220476 77.335792 
L 181.160447 77.344688 
L 188.100418 77.331844 
L 195.04039 77.380852 
L 201.980361 77.288736 
L 208.920332 77.365396 
L 215.860303 77.473652 
L 222.800274 77.446713 
L 229.740245 77.32161 
L 236.680216 77.305999 
L 243.620188 77.269652 
L 250.560159 77.598983 
L 257.50013 77.888941 
L 264.440101 77.644962 
L 271.380072 77.32815 
L 278.320043 77.293549 
L 285.260014 77.112727 
L 292.199986 77.490053 
L 299.139957 77.155229 
L 306.079928 77.112727 
L 313.019899 77.112727 
L 319.95987 77.112727 
L 326.899841 77.112727 
L 333.839812 77.112727 
L 340.779784 77.112727 
L 347.719755 77.112727 
L 354.659726 77.112727 
L 361.599697 77.112727 
L 368.539668 77.112727 
L 375.479639 77.112727 
L 382.41961 77.112727 
L 389.359582 77.112727 
L 396.299553 77.112727 
L 403.239524 77.112727 
L 410.179495 77.112727 
L 417.119466 77.112727 
L 424.059437 77.112727 
L 430.999408 77.112727 
L 437.93938 77.112727 
L 444.879351 77.112727 
L 451.819322 77.112727 
L 458.759293 77.112727 
L 465.699264 77.112727 
L 472.639235 77.112727 
L 479.579206 77.112727 
L 486.519177 77.112727 
L 493.459149 77.112727 
L 500.39912 77.112727 
L 507.339091 77.112727 
" clip-path="url(#pb4a5e41495)" style="fill: none; stroke: #1f77b4; stroke-width: 1.5; stroke-linecap: square"/>
   </g>
   <g id="line2d_18">
    <path d="M 70.120909 287.367273 
L 77.06088 287.367273 
L 84.000851 287.367273 
L 90.940823 287.367273 
L 97.880794 287.367273 
L 104.820765 287.367273 
L 111.760736 287.367273 
L 118.700707 287.363995 
L 125.640678 287.367273 
L 132.580649 287.367273 
L 139.52062 287.363744 
L 146.460592 287.353532 
L 153.400563 287.367273 
L 160.340534 287.364564 
L 167.280505 287.357553 
L 174.220476 287.358951 
L 181.160447 287.347579 
L 188.100418 287.363961 
L 195.04039 287.367273 
L 201.980361 287.367068 
L 208.920332 287.364448 
L 215.860303 287.322762 
L 222.800274 287.304027 
L 229.740245 287.346311 
L 236.680216 287.354302 
L 243.620188 287.327455 
L 250.560159 287.352669 
L 257.50013 287.364937 
L 264.440101 287.36456 
L 271.380072 287.367273 
L 278.320043 287.367273 
L 285.260014 287.367273 
L 292.199986 287.316214 
L 299.139957 287.367273 
L 306.079928 287.361683 
L 313.019899 287.367273 
L 319.95987 287.367273 
L 326.899841 287.367273 
L 333.839812 287.367273 
L 340.779784 287.367273 
L 347.719755 287.367273 
L 354.659726 287.367273 
L 361.599697 287.367273 
L 368.539668 287.367273 
L 375.479639 287.367273 
L 382.41961 287.367273 
L 389.359582 287.367273 
L 396.299553 287.367273 
L 403.239524 287.367273 
L 410.179495 287.367273 
L 417.119466 287.367273 
L 424.059437 287.367273 
L 430.999408 287.367273 
L 437.93938 287.367273 
L 444.879351 287.367273 
L 451.819322 287.367273 
L 458.759293 287.367273 
L 465.699264 287.367273 
L 472.639235 287.367273 
L 479.579206 287.367273 
L 486.519177 287.367273 
L 493.459149 287.367273 
L 500.39912 287.367273 
L 507.339091 287.367273 
" clip-path="url(#pb4a5e41495)" style="fill: none; stroke: #ff7f0e; stroke-width: 1.5; stroke-linecap: square"/>
   </g>
   <g id="line2d_19">
    <path d="M 70.120909 287.367273 
L 77.06088 287.367273 
L 84.000851 287.367273 
L 90.940823 287.367273 
L 97.880794 287.367273 
L 104.820765 287.367273 
L 111.760736 287.324363 
L 118.700707 287.13358 
L 125.640678 286.915082 
L 132.580649 286.863429 
L 139.52062 286.701233 
L 146.460592 286.414506 
L 153.400563 286.385913 
L 160.340534 285.889215 
L 167.280505 285.544812 
L 174.220476 285.210266 
L 181.160447 285.540543 
L 188.100418 285.222516 
L 195.04039 284.766838 
L 201.980361 284.778418 
L 208.920332 284.734245 
L 215.860303 284.582285 
L 222.800274 284.125005 
L 229.740245 284.512381 
L 236.680216 284.964353 
L 243.620188 284.955038 
L 250.560159 283.220968 
L 257.50013 283.756219 
L 264.440101 284.717667 
L 271.380072 285.02349 
L 278.320043 286.309886 
L 285.260014 286.724879 
L 292.199986 285.794393 
L 299.139957 285.896477 
L 306.079928 286.826916 
L 313.019899 286.425122 
L 319.95987 285.395104 
L 326.899841 285.750266 
L 333.839812 287.140766 
L 340.779784 287.367273 
L 347.719755 287.367273 
L 354.659726 287.367273 
L 361.599697 287.367273 
L 368.539668 287.367273 
L 375.479639 287.367273 
L 382.41961 287.367273 
L 389.359582 287.367273 
L 396.299553 286.489321 
L 403.239524 287.115148 
L 410.179495 287.199571 
L 417.119466 287.367273 
L 424.059437 287.367273 
L 430.999408 287.367273 
L 437.93938 287.367273 
L 444.879351 287.367273 
L 451.819322 287.367273 
L 458.759293 287.367273 
L 465.699264 287.367273 
L 472.639235 287.367273 
L 479.579206 287.367273 
L 486.519177 287.367273 
L 493.459149 287.367273 
L 500.39912 287.367273 
L 507.339091 287.367273 
" clip-path="url(#pb4a5e41495)" style="fill: none; stroke: #2ca02c; stroke-width: 1.5; stroke-linecap: square"/>
   </g>
   <g id="line2d_20">
    <path d="M 70.120909 287.367273 
L 77.06088 287.367273 
L 84.000851 287.367273 
L 90.940823 287.367273 
L 97.880794 287.367273 
L 104.820765 287.367273 
L 111.760736 287.367273 
L 118.700707 287.363995 
L 125.640678 287.367273 
L 132.580649 287.367273 
L 139.52062 287.363744 
L 146.460592 287.353532 
L 153.400563 287.367273 
L 160.340534 287.364564 
L 167.280505 287.357553 
L 174.220476 287.358951 
L 181.160447 287.347579 
L 188.100418 287.363961 
L 195.04039 287.367273 
L 201.980361 287.367068 
L 208.920332 287.364448 
L 215.860303 287.322762 
L 222.800274 287.304027 
L 229.740245 287.346311 
L 236.680216 287.354302 
L 243.620188 287.327455 
L 250.560159 287.352669 
L 257.50013 287.364937 
L 264.440101 287.36456 
L 271.380072 287.367273 
L 278.320043 287.367273 
L 285.260014 287.367273 
L 292.199986 287.316214 
L 299.139957 287.367273 
L 306.079928 287.361683 
L 313.019899 287.367273 
L 319.95987 287.367273 
L 326.899841 287.367273 
L 333.839812 287.367273 
L 340.779784 287.367273 
L 347.719755 287.367273 
L 354.659726 287.367273 
L 361.599697 287.367273 
L 368.539668 287.367273 
L 375.479639 287.367273 
L 382.41961 287.367273 
L 389.359582 287.367273 
L 396.299553 287.367273 
L 403.239524 287.367273 
L 410.179495 287.367273 
L 417.119466 287.367273 
L 424.059437 287.367273 
L 430.999408 287.367273 
L 437.93938 287.367273 
L 444.879351 287.367273 
L 451.819322 287.367273 
L 458.759293 287.367273 
L 465.699264 287.367273 
L 472.639235 287.367273 
L 479.579206 287.367273 
L 486.519177 287.367273 
L 493.459149 287.367273 
L 500.39912 287.367273 
L 507.339091 287.367273 
" clip-path="url(#pb4a5e41495)" style="fill: none; stroke: #d62728; stroke-width: 1.5; stroke-linecap: square"/>
   </g>
   <g id="line2d_21">
    <path d="M 70.120909 77.112727 
L 77.06088 77.112727 
L 84.000851 85.697394 
L 90.940823 93.809412 
L 97.880794 99.941237 
L 104.820765 103.883001 
L 111.760736 107.957114 
L 118.700707 111.367791 
L 125.640678 113.563488 
L 132.580649 115.513278 
L 139.52062 118.164857 
L 146.460592 119.639217 
L 153.400563 121.267139 
L 160.340534 122.919268 
L 167.280505 123.908378 
L 174.220476 125.436891 
L 181.160447 125.31281 
L 188.100418 126.011721 
L 195.04039 127.360323 
L 201.980361 127.302391 
L 208.920332 127.774643 
L 215.860303 130.81139 
L 222.800274 130.392446 
L 229.740245 131.37551 
L 236.680216 132.968543 
L 243.620188 131.747626 
L 250.560159 133.838464 
L 257.50013 133.970745 
L 264.440101 133.951605 
L 271.380072 134.10155 
L 278.320043 131.250471 
L 285.260014 129.073961 
L 292.199986 129.431376 
L 299.139957 126.773264 
L 306.079928 132.768309 
L 313.019899 133.818861 
L 319.95987 134.512135 
L 326.899841 135.794691 
L 333.839812 138.229649 
L 340.779784 139.700127 
L 347.719755 141.357172 
L 354.659726 142.712145 
L 361.599697 136.584727 
L 368.539668 142.931542 
L 375.479639 151.869899 
L 382.41961 150.510678 
L 389.359582 141.476364 
L 396.299553 144.050909 
L 403.239524 147.88007 
L 410.179495 151.51049 
L 417.119466 143.192727 
L 424.059437 143.899465 
L 430.999408 143.899465 
L 437.93938 77.112727 
L 444.879351 77.112727 
L 451.819322 77.112727 
L 458.759293 77.112727 
L 465.699264 77.112727 
L 472.639235 102.343273 
L 479.579206 98.138182 
L 486.519177 77.112727 
L 493.459149 77.112727 
L 500.39912 77.112727 
L 507.339091 140.189091 
" clip-path="url(#pb4a5e41495)" style="fill: none; stroke: #9467bd; stroke-width: 1.5; stroke-linecap: square"/>
   </g>
   <g id="line2d_22">
    <path d="M 70.120909 287.367273 
L 77.06088 287.367273 
L 84.000851 287.367273 
L 90.940823 287.367273 
L 97.880794 287.367273 
L 104.820765 287.367273 
L 111.760736 287.367273 
L 118.700707 287.363995 
L 125.640678 287.367273 
L 132.580649 287.367273 
L 139.52062 287.363744 
L 146.460592 287.353532 
L 153.400563 287.367273 
L 160.340534 287.364564 
L 167.280505 287.357553 
L 174.220476 287.358951 
L 181.160447 287.347579 
L 188.100418 287.363961 
L 195.04039 287.367273 
L 201.980361 287.367068 
L 208.920332 287.364448 
L 215.860303 287.322762 
L 222.800274 287.304027 
L 229.740245 287.346311 
L 236.680216 287.354302 
L 243.620188 287.327455 
L 250.560159 287.352669 
L 257.50013 287.364937 
L 264.440101 287.36456 
L 271.380072 287.367273 
L 278.320043 287.367273 
L 285.260014 287.367273 
L 292.199986 287.316214 
L 299.139957 287.367273 
L 306.079928 287.361683 
L 313.019899 287.367273 
L 319.95987 287.367273 
L 326.899841 287.367273 
L 333.839812 287.367273 
L 340.779784 287.367273 
L 347.719755 287.367273 
L 354.659726 287.367273 
L 361.599697 287.367273 
L 368.539668 287.367273 
L 375.479639 287.367273 
L 382.41961 287.367273 
L 389.359582 287.367273 
L 396.299553 287.367273 
L 403.239524 287.367273 
L 410.179495 287.367273 
L 417.119466 287.367273 
L 424.059437 287.367273 
L 430.999408 287.367273 
L 437.93938 287.367273 
L 444.879351 287.367273 
L 451.819322 287.367273 
L 458.759293 287.367273 
L 465.699264 287.367273 
L 472.639235 287.367273 
L 479.579206 287.367273 
L 486.519177 287.367273 
L 493.459149 287.367273 
L 500.39912 287.367273 
L 507.339091 287.367273 
" clip-path="url(#pb4a5e41495)" style="fill: none; stroke: #8c564b; stroke-width: 1.5; stroke-linecap: square"/>
   </g>
   <g id="line2d_23">
    <path d="M 70.120909 182.24 
L 77.06088 182.24 
L 84.000851 186.532333 
L 90.940823 190.588342 
L 97.880794 193.654255 
L 104.820765 195.625137 
L 111.760736 197.662194 
L 118.700707 199.365893 
L 125.640678 200.465381 
L 132.580649 201.440275 
L 139.52062 202.7643 
L 146.460592 203.496374 
L 153.400563 204.317206 
L 160.340534 205.141916 
L 167.280505 205.632965 
L 174.220476 206.397921 
L 181.160447 206.330194 
L 188.100418 206.687841 
L 195.04039 207.363798 
L 201.980361 207.33473 
L 208.920332 207.569546 
L 215.860303 209.067076 
L 222.800274 208.848236 
L 229.740245 209.360911 
L 236.680216 210.161423 
L 243.620188 209.53754 
L 250.560159 210.595567 
L 257.50013 210.667841 
L 264.440101 210.658082 
L 271.380072 210.734412 
L 278.320043 209.308872 
L 285.260014 208.220617 
L 292.199986 208.373795 
L 299.139957 207.070268 
L 306.079928 210.064996 
L 313.019899 210.593067 
L 319.95987 210.939704 
L 326.899841 211.580982 
L 333.839812 212.798461 
L 340.779784 213.5337 
L 347.719755 214.362222 
L 354.659726 215.039709 
L 361.599697 211.976 
L 368.539668 215.149407 
L 375.479639 219.618586 
L 382.41961 218.938975 
L 389.359582 214.421818 
L 396.299553 215.709091 
L 403.239524 217.623672 
L 410.179495 219.438881 
L 417.119466 215.28 
L 424.059437 215.633369 
L 430.999408 215.633369 
L 437.93938 182.24 
L 444.879351 182.24 
L 451.819322 182.24 
L 458.759293 182.24 
L 465.699264 182.24 
L 472.639235 194.855273 
L 479.579206 192.752727 
L 486.519177 182.24 
L 493.459149 182.24 
L 500.39912 182.24 
L 507.339091 213.778182 
" clip-path="url(#pb4a5e41495)" style="fill: none; stroke: #e377c2; stroke-width: 1.5; stroke-linecap: square"/>
   </g>
   <g id="line2d_24">
    <path d="M 70.120909 287.367273 
L 77.06088 287.367273 
L 84.000851 287.367273 
L 90.940823 287.367273 
L 97.880794 287.367273 
L 104.820765 287.367273 
L 111.760736 287.367273 
L 118.700707 287.363995 
L 125.640678 287.367273 
L 132.580649 287.367273 
L 139.52062 287.363744 
L 146.460592 287.353532 
L 153.400563 287.367273 
L 160.340534 287.364564 
L 167.280505 287.357553 
L 174.220476 287.358951 
L 181.160447 287.347579 
L 188.100418 287.363961 
L 195.04039 287.367273 
L 201.980361 287.367068 
L 208.920332 287.364448 
L 215.860303 287.322762 
L 222.800274 287.304027 
L 229.740245 287.346311 
L 236.680216 287.354302 
L 243.620188 287.327455 
L 250.560159 287.352669 
L 257.50013 287.364937 
L 264.440101 287.36456 
L 271.380072 287.367273 
L 278.320043 287.367273 
L 285.260014 287.367273 
L 292.199986 287.316214 
L 299.139957 287.367273 
L 306.079928 287.361683 
L 313.019899 287.367273 
L 319.95987 287.367273 
L 326.899841 287.367273 
L 333.839812 287.367273 
L 340.779784 287.367273 
L 347.719755 287.367273 
L 354.659726 287.367273 
L 361.599697 287.367273 
L 368.539668 287.367273 
L 375.479639 287.367273 
L 382.41961 287.367273 
L 389.359582 287.367273 
L 396.299553 287.367273 
L 403.239524 287.367273 
L 410.179495 287.367273 
L 417.119466 287.367273 
L 424.059437 287.367273 
L 430.999408 287.367273 
L 437.93938 287.367273 
L 444.879351 287.367273 
L 451.819322 287.367273 
L 458.759293 287.367273 
L 465.699264 287.367273 
L 472.639235 287.367273 
L 479.579206 287.367273 
L 486.519177 287.367273 
L 493.459149 287.367273 
L 500.39912 287.367273 
L 507.339091 287.367273 
" clip-path="url(#pb4a5e41495)" style="fill: none; stroke: #7f7f7f; stroke-width: 1.5; stroke-linecap: square"/>
   </g>
   <g id="patch_3">
    <path d="M 48.26 297.88 
L 48.26 66.6 
" style="fill: none; stroke: #000000; stroke-width: 0.8; stroke-linejoin: miter; stroke-linecap: square"/>
   </g>
   <g id="patch_4">
    <path d="M 529.2 297.88 
L 529.2 66.6 
" style="fill: none; stroke: #000000; stroke-width: 0.8; stroke-linejoin: miter; stroke-linecap: square"/>
   </g>
   <g id="patch_5">
    <path d="M 48.26 297.88 
L 529.2 297.88 
" style="fill: none; stroke: #000000; stroke-width: 0.8; stroke-linejoin: miter; stroke-linecap: square"/>
   </g>
   <g id="patch_6">
    <path d="M 48.26 66.6 
L 529.2 66.6 
" style="fill: none; stroke: #000000; stroke-width: 0.8; stroke-linejoin: miter; stroke-linecap: square"/>
   </g>
   <g id="legend_1">
    <g id="patch_7">
     <path d="M 58.76 59.1 
L 518.7 59.1 
Q 521.7 59.1 521.7 56.1 
L 521.7 13.565625 
Q 521.7 10.565625 518.7 10.565625 
L 58.76 10.565625 
Q 55.76 10.565625 55.76 13.565625 
L 55.76 56.1 
Q 55.76 59.1 58.76 59.1 
z
" style="fill: #ffffff; opacity: 0.8; stroke: #cccccc; stroke-linejoin: miter"/>
    </g>
    <g id="line2d_25">
     <path d="M 61.76 22.713281 
L 76.76 22.713281 
L 91.76 22.713281 
" style="fill: none; stroke: #1f77b4; stroke-width: 1.5; stroke-linecap: square"/>
    </g>
    <g id="text_19">
     <!-- Stra 1 -->
     <g transform="translate(103.76 27.963281)scale(0.15 -0.15)">
      <defs>
       <path id="DejaVuSans-53" d="M 3425 4513 
L 3425 3897 
Q 3066 4069 2747 4153 
Q 2428 4238 2131 4238 
Q 1616 4238 1336 4038 
Q 1056 3838 1056 3469 
Q 1056 3159 1242 3001 
Q 1428 2844 1947 2747 
L 2328 2669 
Q 3034 2534 3370 2195 
Q 3706 1856 3706 1288 
Q 3706 609 3251 259 
Q 2797 -91 1919 -91 
Q 1588 -91 1214 -16 
Q 841 59 441 206 
L 441 856 
Q 825 641 1194 531 
Q 1563 422 1919 422 
Q 2459 422 2753 634 
Q 3047 847 3047 1241 
Q 3047 1584 2836 1778 
Q 2625 1972 2144 2069 
L 1759 2144 
Q 1053 2284 737 2584 
Q 422 2884 422 3419 
Q 422 4038 858 4394 
Q 1294 4750 2059 4750 
Q 2388 4750 2728 4690 
Q 3069 4631 3425 4513 
z
" transform="scale(0.015625)"/>
       <path id="DejaVuSans-74" d="M 1172 4494 
L 1172 3500 
L 2356 3500 
L 2356 3053 
L 1172 3053 
L 1172 1153 
Q 1172 725 1289 603 
Q 1406 481 1766 481 
L 2356 481 
L 2356 0 
L 1766 0 
Q 1100 0 847 248 
Q 594 497 594 1153 
L 594 3053 
L 172 3053 
L 172 3500 
L 594 3500 
L 594 4494 
L 1172 4494 
z
" transform="scale(0.015625)"/>
       <path id="DejaVuSans-72" d="M 2631 2963 
Q 2534 3019 2420 3045 
Q 2306 3072 2169 3072 
Q 1681 3072 1420 2755 
Q 1159 2438 1159 1844 
L 1159 0 
L 581 0 
L 581 3500 
L 1159 3500 
L 1159 2956 
Q 1341 3275 1631 3429 
Q 1922 3584 2338 3584 
Q 2397 3584 2469 3576 
Q 2541 3569 2628 3553 
L 2631 2963 
z
" transform="scale(0.015625)"/>
      </defs>
      <use xlink:href="#DejaVuSans-53"/>
      <use xlink:href="#DejaVuSans-74" x="63.476562"/>
      <use xlink:href="#DejaVuSans-72" x="102.685547"/>
      <use xlink:href="#DejaVuSans-61" x="143.798828"/>
      <use xlink:href="#DejaVuSans-20" x="205.078125"/>
      <use xlink:href="#DejaVuSans-31" x="236.865234"/>
     </g>
    </g>
    <g id="line2d_26">
     <path d="M 61.76 44.730469 
L 76.76 44.730469 
L 91.76 44.730469 
" style="fill: none; stroke: #ff7f0e; stroke-width: 1.5; stroke-linecap: square"/>
    </g>
    <g id="text_20">
     <!-- Stra 2 -->
     <g transform="translate(103.76 49.980469)scale(0.15 -0.15)">
      <use xlink:href="#DejaVuSans-53"/>
      <use xlink:href="#DejaVuSans-74" x="63.476562"/>
      <use xlink:href="#DejaVuSans-72" x="102.685547"/>
      <use xlink:href="#DejaVuSans-61" x="143.798828"/>
      <use xlink:href="#DejaVuSans-20" x="205.078125"/>
      <use xlink:href="#DejaVuSans-32" x="236.865234"/>
     </g>
    </g>
    <g id="line2d_27">
     <path d="M 184.049115 22.713281 
L 199.049115 22.713281 
L 214.049115 22.713281 
" style="fill: none; stroke: #2ca02c; stroke-width: 1.5; stroke-linecap: square"/>
    </g>
    <g id="text_21">
     <!-- Stra 3 -->
     <g transform="translate(226.049115 27.963281)scale(0.15 -0.15)">
      <use xlink:href="#DejaVuSans-53"/>
      <use xlink:href="#DejaVuSans-74" x="63.476562"/>
      <use xlink:href="#DejaVuSans-72" x="102.685547"/>
      <use xlink:href="#DejaVuSans-61" x="143.798828"/>
      <use xlink:href="#DejaVuSans-20" x="205.078125"/>
      <use xlink:href="#DejaVuSans-33" x="236.865234"/>
     </g>
    </g>
    <g id="line2d_28">
     <path d="M 184.049115 44.730469 
L 199.049115 44.730469 
L 214.049115 44.730469 
" style="fill: none; stroke: #d62728; stroke-width: 1.5; stroke-linecap: square"/>
    </g>
    <g id="text_22">
     <!-- Stra 4 -->
     <g transform="translate(226.049115 49.980469)scale(0.15 -0.15)">
      <use xlink:href="#DejaVuSans-53"/>
      <use xlink:href="#DejaVuSans-74" x="63.476562"/>
      <use xlink:href="#DejaVuSans-72" x="102.685547"/>
      <use xlink:href="#DejaVuSans-61" x="143.798828"/>
      <use xlink:href="#DejaVuSans-20" x="205.078125"/>
      <use xlink:href="#DejaVuSans-34" x="236.865234"/>
     </g>
    </g>
    <g id="line2d_29">
     <path d="M 306.338229 22.713281 
L 321.338229 22.713281 
L 336.338229 22.713281 
" style="fill: none; stroke: #9467bd; stroke-width: 1.5; stroke-linecap: square"/>
    </g>
    <g id="text_23">
     <!-- Stra 5 -->
     <g transform="translate(348.338229 27.963281)scale(0.15 -0.15)">
      <use xlink:href="#DejaVuSans-53"/>
      <use xlink:href="#DejaVuSans-74" x="63.476562"/>
      <use xlink:href="#DejaVuSans-72" x="102.685547"/>
      <use xlink:href="#DejaVuSans-61" x="143.798828"/>
      <use xlink:href="#DejaVuSans-20" x="205.078125"/>
      <use xlink:href="#DejaVuSans-35" x="236.865234"/>
     </g>
    </g>
    <g id="line2d_30">
     <path d="M 306.338229 44.730469 
L 321.338229 44.730469 
L 336.338229 44.730469 
" style="fill: none; stroke: #8c564b; stroke-width: 1.5; stroke-linecap: square"/>
    </g>
    <g id="text_24">
     <!-- Stra 6 -->
     <g transform="translate(348.338229 49.980469)scale(0.15 -0.15)">
      <use xlink:href="#DejaVuSans-53"/>
      <use xlink:href="#DejaVuSans-74" x="63.476562"/>
      <use xlink:href="#DejaVuSans-72" x="102.685547"/>
      <use xlink:href="#DejaVuSans-61" x="143.798828"/>
      <use xlink:href="#DejaVuSans-20" x="205.078125"/>
      <use xlink:href="#DejaVuSans-36" x="236.865234"/>
     </g>
    </g>
    <g id="line2d_31">
     <path d="M 428.627344 22.713281 
L 443.627344 22.713281 
L 458.627344 22.713281 
" style="fill: none; stroke: #e377c2; stroke-width: 1.5; stroke-linecap: square"/>
    </g>
    <g id="text_25">
     <!-- Stra 7 -->
     <g transform="translate(470.627344 27.963281)scale(0.15 -0.15)">
      <use xlink:href="#DejaVuSans-53"/>
      <use xlink:href="#DejaVuSans-74" x="63.476562"/>
      <use xlink:href="#DejaVuSans-72" x="102.685547"/>
      <use xlink:href="#DejaVuSans-61" x="143.798828"/>
      <use xlink:href="#DejaVuSans-20" x="205.078125"/>
      <use xlink:href="#DejaVuSans-37" x="236.865234"/>
     </g>
    </g>
    <g id="line2d_32">
     <path d="M 428.627344 44.730469 
L 443.627344 44.730469 
L 458.627344 44.730469 
" style="fill: none; stroke: #7f7f7f; stroke-width: 1.5; stroke-linecap: square"/>
    </g>
    <g id="text_26">
     <!-- Stra 8 -->
     <g transform="translate(470.627344 49.980469)scale(0.15 -0.15)">
      <use xlink:href="#DejaVuSans-53"/>
      <use xlink:href="#DejaVuSans-74" x="63.476562"/>
      <use xlink:href="#DejaVuSans-72" x="102.685547"/>
      <use xlink:href="#DejaVuSans-61" x="143.798828"/>
      <use xlink:href="#DejaVuSans-20" x="205.078125"/>
      <use xlink:href="#DejaVuSans-38" x="236.865234"/>
     </g>
    </g>
   </g>
  </g>
 </g>
 <defs>
  <clipPath id="pb4a5e41495">
   <rect x="48.26" y="66.6" width="480.94" height="231.28"/>
  </clipPath>
 </defs>
</svg>
