<?xml version="1.0" encoding="utf-8" standalone="no"?>
<!DOCTYPE svg PUBLIC "-//W3C//DTD SVG 1.1//EN"
  "http://www.w3.org/Graphics/SVG/1.1/DTD/svg11.dtd">
<svg xmlns:xlink="http://www.w3.org/1999/xlink" width="540pt" height="360pt" viewBox="0 0 540 360" xmlns="http://www.w3.org/2000/svg" version="1.1">
 <metadata>
  <rdf:RDF xmlns:dc="http://purl.org/dc/elements/1.1/" xmlns:cc="http://creativecommons.org/ns#" xmlns:rdf="http://www.w3.org/1999/02/22-rdf-syntax-ns#">
   <cc:Work>
    <dc:type rdf:resource="http://purl.org/dc/dcmitype/StillImage"/>
    <dc:date>2024-04-24T21:55:19.750606</dc:date>
    <dc:format>image/svg+xml</dc:format>
    <dc:creator>
     <cc:Agent>
      <dc:title>Matplotlib v3.5.3, https://matplotlib.org/</dc:title>
     </cc:Agent>
    </dc:creator>
   </cc:Work>
  </rdf:RDF>
 </metadata>
 <defs>
  <style type="text/css">*{stroke-linejoin: round; stroke-linecap: butt}</style>
 </defs>
 <g id="figure_1">
  <g id="patch_1">
   <path d="M 0 360 
L 540 360 
L 540 0 
L 0 0 
z
" style="fill: #ffffff"/>
  </g>
  <g id="axes_1">
   <g id="patch_2">
    <path d="M 80.21 297.88 
L 529.2 297.88 
L 529.2 66.6 
L 80.21 66.6 
z
" style="fill: #ffffff"/>
   </g>
   <g id="matplotlib.axis_1">
    <g id="xtick_1">
     <g id="line2d_1">
      <defs>
       <path id="mfbcf1f5221" d="M 0 0 
L 0 3.5 
" style="stroke: #000000; stroke-width: 0.8"/>
      </defs>
      <g>
       <use xlink:href="#mfbcf1f5221" x="100.618636" y="297.88" style="stroke: #000000; stroke-width: 0.8"/>
      </g>
     </g>
     <g id="text_1">
      <!-- 0 -->
      <g transform="translate(94.256136 320.076875)scale(0.2 -0.2)">
       <defs>
        <path id="DejaVuSans-30" d="M 2034 4250 
Q 1547 4250 1301 3770 
Q 1056 3291 1056 2328 
Q 1056 1369 1301 889 
Q 1547 409 2034 409 
Q 2525 409 2770 889 
Q 3016 1369 3016 2328 
Q 3016 3291 2770 3770 
Q 2525 4250 2034 4250 
z
M 2034 4750 
Q 2819 4750 3233 4129 
Q 3647 3509 3647 2328 
Q 3647 1150 3233 529 
Q 2819 -91 2034 -91 
Q 1250 -91 836 529 
Q 422 1150 422 2328 
Q 422 3509 836 4129 
Q 1250 4750 2034 4750 
z
" transform="scale(0.015625)"/>
       </defs>
       <use xlink:href="#DejaVuSans-30"/>
      </g>
     </g>
    </g>
    <g id="xtick_2">
     <g id="line2d_2">
      <g>
       <use xlink:href="#mfbcf1f5221" x="165.407958" y="297.88" style="stroke: #000000; stroke-width: 0.8"/>
      </g>
     </g>
     <g id="text_2">
      <!-- 10 -->
      <g transform="translate(152.682958 320.076875)scale(0.2 -0.2)">
       <defs>
        <path id="DejaVuSans-31" d="M 794 531 
L 1825 531 
L 1825 4091 
L 703 3866 
L 703 4441 
L 1819 4666 
L 2450 4666 
L 2450 531 
L 3481 531 
L 3481 0 
L 794 0 
L 794 531 
z
" transform="scale(0.015625)"/>
       </defs>
       <use xlink:href="#DejaVuSans-31"/>
       <use xlink:href="#DejaVuSans-30" x="63.623047"/>
      </g>
     </g>
    </g>
    <g id="xtick_3">
     <g id="line2d_3">
      <g>
       <use xlink:href="#mfbcf1f5221" x="230.19728" y="297.88" style="stroke: #000000; stroke-width: 0.8"/>
      </g>
     </g>
     <g id="text_3">
      <!-- 20 -->
      <g transform="translate(217.47228 320.076875)scale(0.2 -0.2)">
       <defs>
        <path id="DejaVuSans-32" d="M 1228 531 
L 3431 531 
L 3431 0 
L 469 0 
L 469 531 
Q 828 903 1448 1529 
Q 2069 2156 2228 2338 
Q 2531 2678 2651 2914 
Q 2772 3150 2772 3378 
Q 2772 3750 2511 3984 
Q 2250 4219 1831 4219 
Q 1534 4219 1204 4116 
Q 875 4013 500 3803 
L 500 4441 
Q 881 4594 1212 4672 
Q 1544 4750 1819 4750 
Q 2544 4750 2975 4387 
Q 3406 4025 3406 3419 
Q 3406 3131 3298 2873 
Q 3191 2616 2906 2266 
Q 2828 2175 2409 1742 
Q 1991 1309 1228 531 
z
" transform="scale(0.015625)"/>
       </defs>
       <use xlink:href="#DejaVuSans-32"/>
       <use xlink:href="#DejaVuSans-30" x="63.623047"/>
      </g>
     </g>
    </g>
    <g id="xtick_4">
     <g id="line2d_4">
      <g>
       <use xlink:href="#mfbcf1f5221" x="294.986602" y="297.88" style="stroke: #000000; stroke-width: 0.8"/>
      </g>
     </g>
     <g id="text_4">
      <!-- 30 -->
      <g transform="translate(282.261602 320.076875)scale(0.2 -0.2)">
       <defs>
        <path id="DejaVuSans-33" d="M 2597 2516 
Q 3050 2419 3304 2112 
Q 3559 1806 3559 1356 
Q 3559 666 3084 287 
Q 2609 -91 1734 -91 
Q 1441 -91 1130 -33 
Q 819 25 488 141 
L 488 750 
Q 750 597 1062 519 
Q 1375 441 1716 441 
Q 2309 441 2620 675 
Q 2931 909 2931 1356 
Q 2931 1769 2642 2001 
Q 2353 2234 1838 2234 
L 1294 2234 
L 1294 2753 
L 1863 2753 
Q 2328 2753 2575 2939 
Q 2822 3125 2822 3475 
Q 2822 3834 2567 4026 
Q 2313 4219 1838 4219 
Q 1578 4219 1281 4162 
Q 984 4106 628 3988 
L 628 4550 
Q 988 4650 1302 4700 
Q 1616 4750 1894 4750 
Q 2613 4750 3031 4423 
Q 3450 4097 3450 3541 
Q 3450 3153 3228 2886 
Q 3006 2619 2597 2516 
z
" transform="scale(0.015625)"/>
       </defs>
       <use xlink:href="#DejaVuSans-33"/>
       <use xlink:href="#DejaVuSans-30" x="63.623047"/>
      </g>
     </g>
    </g>
    <g id="xtick_5">
     <g id="line2d_5">
      <g>
       <use xlink:href="#mfbcf1f5221" x="359.775924" y="297.88" style="stroke: #000000; stroke-width: 0.8"/>
      </g>
     </g>
     <g id="text_5">
      <!-- 40 -->
      <g transform="translate(347.050924 320.076875)scale(0.2 -0.2)">
       <defs>
        <path id="DejaVuSans-34" d="M 2419 4116 
L 825 1625 
L 2419 1625 
L 2419 4116 
z
M 2253 4666 
L 3047 4666 
L 3047 1625 
L 3713 1625 
L 3713 1100 
L 3047 1100 
L 3047 0 
L 2419 0 
L 2419 1100 
L 313 1100 
L 313 1709 
L 2253 4666 
z
" transform="scale(0.015625)"/>
       </defs>
       <use xlink:href="#DejaVuSans-34"/>
       <use xlink:href="#DejaVuSans-30" x="63.623047"/>
      </g>
     </g>
    </g>
    <g id="xtick_6">
     <g id="line2d_6">
      <g>
       <use xlink:href="#mfbcf1f5221" x="424.565245" y="297.88" style="stroke: #000000; stroke-width: 0.8"/>
      </g>
     </g>
     <g id="text_6">
      <!-- 50 -->
      <g transform="translate(411.840245 320.076875)scale(0.2 -0.2)">
       <defs>
        <path id="DejaVuSans-35" d="M 691 4666 
L 3169 4666 
L 3169 4134 
L 1269 4134 
L 1269 2991 
Q 1406 3038 1543 3061 
Q 1681 3084 1819 3084 
Q 2600 3084 3056 2656 
Q 3513 2228 3513 1497 
Q 3513 744 3044 326 
Q 2575 -91 1722 -91 
Q 1428 -91 1123 -41 
Q 819 9 494 109 
L 494 744 
Q 775 591 1075 516 
Q 1375 441 1709 441 
Q 2250 441 2565 725 
Q 2881 1009 2881 1497 
Q 2881 1984 2565 2268 
Q 2250 2553 1709 2553 
Q 1456 2553 1204 2497 
Q 953 2441 691 2322 
L 691 4666 
z
" transform="scale(0.015625)"/>
       </defs>
       <use xlink:href="#DejaVuSans-35"/>
       <use xlink:href="#DejaVuSans-30" x="63.623047"/>
      </g>
     </g>
    </g>
    <g id="xtick_7">
     <g id="line2d_7">
      <g>
       <use xlink:href="#mfbcf1f5221" x="489.354567" y="297.88" style="stroke: #000000; stroke-width: 0.8"/>
      </g>
     </g>
     <g id="text_7">
      <!-- 60 -->
      <g transform="translate(476.629567 320.076875)scale(0.2 -0.2)">
       <defs>
        <path id="DejaVuSans-36" d="M 2113 2584 
Q 1688 2584 1439 2293 
Q 1191 2003 1191 1497 
Q 1191 994 1439 701 
Q 1688 409 2113 409 
Q 2538 409 2786 701 
Q 3034 994 3034 1497 
Q 3034 2003 2786 2293 
Q 2538 2584 2113 2584 
z
M 3366 4563 
L 3366 3988 
Q 3128 4100 2886 4159 
Q 2644 4219 2406 4219 
Q 1781 4219 1451 3797 
Q 1122 3375 1075 2522 
Q 1259 2794 1537 2939 
Q 1816 3084 2150 3084 
Q 2853 3084 3261 2657 
Q 3669 2231 3669 1497 
Q 3669 778 3244 343 
Q 2819 -91 2113 -91 
Q 1303 -91 875 529 
Q 447 1150 447 2328 
Q 447 3434 972 4092 
Q 1497 4750 2381 4750 
Q 2619 4750 2861 4703 
Q 3103 4656 3366 4563 
z
" transform="scale(0.015625)"/>
       </defs>
       <use xlink:href="#DejaVuSans-36"/>
       <use xlink:href="#DejaVuSans-30" x="63.623047"/>
      </g>
     </g>
    </g>
    <g id="text_8">
     <!-- # of games -->
     <g transform="translate(246.750313 343.433125)scale(0.2 -0.2)">
      <defs>
       <path id="DejaVuSans-23" d="M 3272 2816 
L 2363 2816 
L 2100 1772 
L 3016 1772 
L 3272 2816 
z
M 2803 4594 
L 2478 3297 
L 3391 3297 
L 3719 4594 
L 4219 4594 
L 3897 3297 
L 4872 3297 
L 4872 2816 
L 3775 2816 
L 3519 1772 
L 4513 1772 
L 4513 1294 
L 3397 1294 
L 3072 0 
L 2572 0 
L 2894 1294 
L 1978 1294 
L 1656 0 
L 1153 0 
L 1478 1294 
L 494 1294 
L 494 1772 
L 1594 1772 
L 1856 2816 
L 850 2816 
L 850 3297 
L 1978 3297 
L 2297 4594 
L 2803 4594 
z
" transform="scale(0.015625)"/>
       <path id="DejaVuSans-20" transform="scale(0.015625)"/>
       <path id="DejaVuSans-6f" d="M 1959 3097 
Q 1497 3097 1228 2736 
Q 959 2375 959 1747 
Q 959 1119 1226 758 
Q 1494 397 1959 397 
Q 2419 397 2687 759 
Q 2956 1122 2956 1747 
Q 2956 2369 2687 2733 
Q 2419 3097 1959 3097 
z
M 1959 3584 
Q 2709 3584 3137 3096 
Q 3566 2609 3566 1747 
Q 3566 888 3137 398 
Q 2709 -91 1959 -91 
Q 1206 -91 779 398 
Q 353 888 353 1747 
Q 353 2609 779 3096 
Q 1206 3584 1959 3584 
z
" transform="scale(0.015625)"/>
       <path id="DejaVuSans-66" d="M 2375 4863 
L 2375 4384 
L 1825 4384 
Q 1516 4384 1395 4259 
Q 1275 4134 1275 3809 
L 1275 3500 
L 2222 3500 
L 2222 3053 
L 1275 3053 
L 1275 0 
L 697 0 
L 697 3053 
L 147 3053 
L 147 3500 
L 697 3500 
L 697 3744 
Q 697 4328 969 4595 
Q 1241 4863 1831 4863 
L 2375 4863 
z
" transform="scale(0.015625)"/>
       <path id="DejaVuSans-67" d="M 2906 1791 
Q 2906 2416 2648 2759 
Q 2391 3103 1925 3103 
Q 1463 3103 1205 2759 
Q 947 2416 947 1791 
Q 947 1169 1205 825 
Q 1463 481 1925 481 
Q 2391 481 2648 825 
Q 2906 1169 2906 1791 
z
M 3481 434 
Q 3481 -459 3084 -895 
Q 2688 -1331 1869 -1331 
Q 1566 -1331 1297 -1286 
Q 1028 -1241 775 -1147 
L 775 -588 
Q 1028 -725 1275 -790 
Q 1522 -856 1778 -856 
Q 2344 -856 2625 -561 
Q 2906 -266 2906 331 
L 2906 616 
Q 2728 306 2450 153 
Q 2172 0 1784 0 
Q 1141 0 747 490 
Q 353 981 353 1791 
Q 353 2603 747 3093 
Q 1141 3584 1784 3584 
Q 2172 3584 2450 3431 
Q 2728 3278 2906 2969 
L 2906 3500 
L 3481 3500 
L 3481 434 
z
" transform="scale(0.015625)"/>
       <path id="DejaVuSans-61" d="M 2194 1759 
Q 1497 1759 1228 1600 
Q 959 1441 959 1056 
Q 959 750 1161 570 
Q 1363 391 1709 391 
Q 2188 391 2477 730 
Q 2766 1069 2766 1631 
L 2766 1759 
L 2194 1759 
z
M 3341 1997 
L 3341 0 
L 2766 0 
L 2766 531 
Q 2569 213 2275 61 
Q 1981 -91 1556 -91 
Q 1019 -91 701 211 
Q 384 513 384 1019 
Q 384 1609 779 1909 
Q 1175 2209 1959 2209 
L 2766 2209 
L 2766 2266 
Q 2766 2663 2505 2880 
Q 2244 3097 1772 3097 
Q 1472 3097 1187 3025 
Q 903 2953 641 2809 
L 641 3341 
Q 956 3463 1253 3523 
Q 1550 3584 1831 3584 
Q 2591 3584 2966 3190 
Q 3341 2797 3341 1997 
z
" transform="scale(0.015625)"/>
       <path id="DejaVuSans-6d" d="M 3328 2828 
Q 3544 3216 3844 3400 
Q 4144 3584 4550 3584 
Q 5097 3584 5394 3201 
Q 5691 2819 5691 2113 
L 5691 0 
L 5113 0 
L 5113 2094 
Q 5113 2597 4934 2840 
Q 4756 3084 4391 3084 
Q 3944 3084 3684 2787 
Q 3425 2491 3425 1978 
L 3425 0 
L 2847 0 
L 2847 2094 
Q 2847 2600 2669 2842 
Q 2491 3084 2119 3084 
Q 1678 3084 1418 2786 
Q 1159 2488 1159 1978 
L 1159 0 
L 581 0 
L 581 3500 
L 1159 3500 
L 1159 2956 
Q 1356 3278 1631 3431 
Q 1906 3584 2284 3584 
Q 2666 3584 2933 3390 
Q 3200 3197 3328 2828 
z
" transform="scale(0.015625)"/>
       <path id="DejaVuSans-65" d="M 3597 1894 
L 3597 1613 
L 953 1613 
Q 991 1019 1311 708 
Q 1631 397 2203 397 
Q 2534 397 2845 478 
Q 3156 559 3463 722 
L 3463 178 
Q 3153 47 2828 -22 
Q 2503 -91 2169 -91 
Q 1331 -91 842 396 
Q 353 884 353 1716 
Q 353 2575 817 3079 
Q 1281 3584 2069 3584 
Q 2775 3584 3186 3129 
Q 3597 2675 3597 1894 
z
M 3022 2063 
Q 3016 2534 2758 2815 
Q 2500 3097 2075 3097 
Q 1594 3097 1305 2825 
Q 1016 2553 972 2059 
L 3022 2063 
z
" transform="scale(0.015625)"/>
       <path id="DejaVuSans-73" d="M 2834 3397 
L 2834 2853 
Q 2591 2978 2328 3040 
Q 2066 3103 1784 3103 
Q 1356 3103 1142 2972 
Q 928 2841 928 2578 
Q 928 2378 1081 2264 
Q 1234 2150 1697 2047 
L 1894 2003 
Q 2506 1872 2764 1633 
Q 3022 1394 3022 966 
Q 3022 478 2636 193 
Q 2250 -91 1575 -91 
Q 1294 -91 989 -36 
Q 684 19 347 128 
L 347 722 
Q 666 556 975 473 
Q 1284 391 1588 391 
Q 1994 391 2212 530 
Q 2431 669 2431 922 
Q 2431 1156 2273 1281 
Q 2116 1406 1581 1522 
L 1381 1569 
Q 847 1681 609 1914 
Q 372 2147 372 2553 
Q 372 3047 722 3315 
Q 1072 3584 1716 3584 
Q 2034 3584 2315 3537 
Q 2597 3491 2834 3397 
z
" transform="scale(0.015625)"/>
      </defs>
      <use xlink:href="#DejaVuSans-23"/>
      <use xlink:href="#DejaVuSans-20" x="83.789062"/>
      <use xlink:href="#DejaVuSans-6f" x="115.576172"/>
      <use xlink:href="#DejaVuSans-66" x="176.757812"/>
      <use xlink:href="#DejaVuSans-20" x="211.962891"/>
      <use xlink:href="#DejaVuSans-67" x="243.75"/>
      <use xlink:href="#DejaVuSans-61" x="307.226562"/>
      <use xlink:href="#DejaVuSans-6d" x="368.505859"/>
      <use xlink:href="#DejaVuSans-65" x="465.917969"/>
      <use xlink:href="#DejaVuSans-73" x="527.441406"/>
     </g>
    </g>
   </g>
   <g id="matplotlib.axis_2">
    <g id="ytick_1">
     <g id="line2d_8">
      <defs>
       <path id="mf13919f558" d="M 0 0 
L -3.5 0 
" style="stroke: #000000; stroke-width: 0.8"/>
      </defs>
      <g>
       <use xlink:href="#mf13919f558" x="80.21" y="286.283924" style="stroke: #000000; stroke-width: 0.8"/>
      </g>
     </g>
     <g id="text_9">
      <!-- 0.70 -->
      <g transform="translate(28.67875 293.882361)scale(0.2 -0.2)">
       <defs>
        <path id="DejaVuSans-2e" d="M 684 794 
L 1344 794 
L 1344 0 
L 684 0 
L 684 794 
z
" transform="scale(0.015625)"/>
        <path id="DejaVuSans-37" d="M 525 4666 
L 3525 4666 
L 3525 4397 
L 1831 0 
L 1172 0 
L 2766 4134 
L 525 4134 
L 525 4666 
z
" transform="scale(0.015625)"/>
       </defs>
       <use xlink:href="#DejaVuSans-30"/>
       <use xlink:href="#DejaVuSans-2e" x="63.623047"/>
       <use xlink:href="#DejaVuSans-37" x="95.410156"/>
       <use xlink:href="#DejaVuSans-30" x="159.033203"/>
      </g>
     </g>
    </g>
    <g id="ytick_2">
     <g id="line2d_9">
      <g>
       <use xlink:href="#mf13919f558" x="80.21" y="251.422058" style="stroke: #000000; stroke-width: 0.8"/>
      </g>
     </g>
     <g id="text_10">
      <!-- 0.75 -->
      <g transform="translate(28.67875 259.020495)scale(0.2 -0.2)">
       <use xlink:href="#DejaVuSans-30"/>
       <use xlink:href="#DejaVuSans-2e" x="63.623047"/>
       <use xlink:href="#DejaVuSans-37" x="95.410156"/>
       <use xlink:href="#DejaVuSans-35" x="159.033203"/>
      </g>
     </g>
    </g>
    <g id="ytick_3">
     <g id="line2d_10">
      <g>
       <use xlink:href="#mf13919f558" x="80.21" y="216.560192" style="stroke: #000000; stroke-width: 0.8"/>
      </g>
     </g>
     <g id="text_11">
      <!-- 0.80 -->
      <g transform="translate(28.67875 224.158629)scale(0.2 -0.2)">
       <defs>
        <path id="DejaVuSans-38" d="M 2034 2216 
Q 1584 2216 1326 1975 
Q 1069 1734 1069 1313 
Q 1069 891 1326 650 
Q 1584 409 2034 409 
Q 2484 409 2743 651 
Q 3003 894 3003 1313 
Q 3003 1734 2745 1975 
Q 2488 2216 2034 2216 
z
M 1403 2484 
Q 997 2584 770 2862 
Q 544 3141 544 3541 
Q 544 4100 942 4425 
Q 1341 4750 2034 4750 
Q 2731 4750 3128 4425 
Q 3525 4100 3525 3541 
Q 3525 3141 3298 2862 
Q 3072 2584 2669 2484 
Q 3125 2378 3379 2068 
Q 3634 1759 3634 1313 
Q 3634 634 3220 271 
Q 2806 -91 2034 -91 
Q 1263 -91 848 271 
Q 434 634 434 1313 
Q 434 1759 690 2068 
Q 947 2378 1403 2484 
z
M 1172 3481 
Q 1172 3119 1398 2916 
Q 1625 2713 2034 2713 
Q 2441 2713 2670 2916 
Q 2900 3119 2900 3481 
Q 2900 3844 2670 4047 
Q 2441 4250 2034 4250 
Q 1625 4250 1398 4047 
Q 1172 3844 1172 3481 
z
" transform="scale(0.015625)"/>
       </defs>
       <use xlink:href="#DejaVuSans-30"/>
       <use xlink:href="#DejaVuSans-2e" x="63.623047"/>
       <use xlink:href="#DejaVuSans-38" x="95.410156"/>
       <use xlink:href="#DejaVuSans-30" x="159.033203"/>
      </g>
     </g>
    </g>
    <g id="ytick_4">
     <g id="line2d_11">
      <g>
       <use xlink:href="#mf13919f558" x="80.21" y="181.698326" style="stroke: #000000; stroke-width: 0.8"/>
      </g>
     </g>
     <g id="text_12">
      <!-- 0.85 -->
      <g transform="translate(28.67875 189.296763)scale(0.2 -0.2)">
       <use xlink:href="#DejaVuSans-30"/>
       <use xlink:href="#DejaVuSans-2e" x="63.623047"/>
       <use xlink:href="#DejaVuSans-38" x="95.410156"/>
       <use xlink:href="#DejaVuSans-35" x="159.033203"/>
      </g>
     </g>
    </g>
    <g id="ytick_5">
     <g id="line2d_12">
      <g>
       <use xlink:href="#mf13919f558" x="80.21" y="146.836459" style="stroke: #000000; stroke-width: 0.8"/>
      </g>
     </g>
     <g id="text_13">
      <!-- 0.90 -->
      <g transform="translate(28.67875 154.434897)scale(0.2 -0.2)">
       <defs>
        <path id="DejaVuSans-39" d="M 703 97 
L 703 672 
Q 941 559 1184 500 
Q 1428 441 1663 441 
Q 2288 441 2617 861 
Q 2947 1281 2994 2138 
Q 2813 1869 2534 1725 
Q 2256 1581 1919 1581 
Q 1219 1581 811 2004 
Q 403 2428 403 3163 
Q 403 3881 828 4315 
Q 1253 4750 1959 4750 
Q 2769 4750 3195 4129 
Q 3622 3509 3622 2328 
Q 3622 1225 3098 567 
Q 2575 -91 1691 -91 
Q 1453 -91 1209 -44 
Q 966 3 703 97 
z
M 1959 2075 
Q 2384 2075 2632 2365 
Q 2881 2656 2881 3163 
Q 2881 3666 2632 3958 
Q 2384 4250 1959 4250 
Q 1534 4250 1286 3958 
Q 1038 3666 1038 3163 
Q 1038 2656 1286 2365 
Q 1534 2075 1959 2075 
z
" transform="scale(0.015625)"/>
       </defs>
       <use xlink:href="#DejaVuSans-30"/>
       <use xlink:href="#DejaVuSans-2e" x="63.623047"/>
       <use xlink:href="#DejaVuSans-39" x="95.410156"/>
       <use xlink:href="#DejaVuSans-30" x="159.033203"/>
      </g>
     </g>
    </g>
    <g id="ytick_6">
     <g id="line2d_13">
      <g>
       <use xlink:href="#mf13919f558" x="80.21" y="111.974593" style="stroke: #000000; stroke-width: 0.8"/>
      </g>
     </g>
     <g id="text_14">
      <!-- 0.95 -->
      <g transform="translate(28.67875 119.573031)scale(0.2 -0.2)">
       <use xlink:href="#DejaVuSans-30"/>
       <use xlink:href="#DejaVuSans-2e" x="63.623047"/>
       <use xlink:href="#DejaVuSans-39" x="95.410156"/>
       <use xlink:href="#DejaVuSans-35" x="159.033203"/>
      </g>
     </g>
    </g>
    <g id="ytick_7">
     <g id="line2d_14">
      <g>
       <use xlink:href="#mf13919f558" x="80.21" y="77.112727" style="stroke: #000000; stroke-width: 0.8"/>
      </g>
     </g>
     <g id="text_15">
      <!-- 1.00 -->
      <g transform="translate(28.67875 84.711165)scale(0.2 -0.2)">
       <use xlink:href="#DejaVuSans-31"/>
       <use xlink:href="#DejaVuSans-2e" x="63.623047"/>
       <use xlink:href="#DejaVuSans-30" x="95.410156"/>
       <use xlink:href="#DejaVuSans-30" x="159.033203"/>
      </g>
     </g>
    </g>
    <g id="text_16">
     <!-- defense impact Value -->
     <g transform="translate(21.905833 254.311875)rotate(-90)scale(0.133333 -0.133333)">
      <defs>
       <path id="DejaVuSans-64" d="M 2906 2969 
L 2906 4863 
L 3481 4863 
L 3481 0 
L 2906 0 
L 2906 525 
Q 2725 213 2448 61 
Q 2172 -91 1784 -91 
Q 1150 -91 751 415 
Q 353 922 353 1747 
Q 353 2572 751 3078 
Q 1150 3584 1784 3584 
Q 2172 3584 2448 3432 
Q 2725 3281 2906 2969 
z
M 947 1747 
Q 947 1113 1208 752 
Q 1469 391 1925 391 
Q 2381 391 2643 752 
Q 2906 1113 2906 1747 
Q 2906 2381 2643 2742 
Q 2381 3103 1925 3103 
Q 1469 3103 1208 2742 
Q 947 2381 947 1747 
z
" transform="scale(0.015625)"/>
       <path id="DejaVuSans-6e" d="M 3513 2113 
L 3513 0 
L 2938 0 
L 2938 2094 
Q 2938 2591 2744 2837 
Q 2550 3084 2163 3084 
Q 1697 3084 1428 2787 
Q 1159 2491 1159 1978 
L 1159 0 
L 581 0 
L 581 3500 
L 1159 3500 
L 1159 2956 
Q 1366 3272 1645 3428 
Q 1925 3584 2291 3584 
Q 2894 3584 3203 3211 
Q 3513 2838 3513 2113 
z
" transform="scale(0.015625)"/>
       <path id="DejaVuSans-69" d="M 603 3500 
L 1178 3500 
L 1178 0 
L 603 0 
L 603 3500 
z
M 603 4863 
L 1178 4863 
L 1178 4134 
L 603 4134 
L 603 4863 
z
" transform="scale(0.015625)"/>
       <path id="DejaVuSans-70" d="M 1159 525 
L 1159 -1331 
L 581 -1331 
L 581 3500 
L 1159 3500 
L 1159 2969 
Q 1341 3281 1617 3432 
Q 1894 3584 2278 3584 
Q 2916 3584 3314 3078 
Q 3713 2572 3713 1747 
Q 3713 922 3314 415 
Q 2916 -91 2278 -91 
Q 1894 -91 1617 61 
Q 1341 213 1159 525 
z
M 3116 1747 
Q 3116 2381 2855 2742 
Q 2594 3103 2138 3103 
Q 1681 3103 1420 2742 
Q 1159 2381 1159 1747 
Q 1159 1113 1420 752 
Q 1681 391 2138 391 
Q 2594 391 2855 752 
Q 3116 1113 3116 1747 
z
" transform="scale(0.015625)"/>
       <path id="DejaVuSans-63" d="M 3122 3366 
L 3122 2828 
Q 2878 2963 2633 3030 
Q 2388 3097 2138 3097 
Q 1578 3097 1268 2742 
Q 959 2388 959 1747 
Q 959 1106 1268 751 
Q 1578 397 2138 397 
Q 2388 397 2633 464 
Q 2878 531 3122 666 
L 3122 134 
Q 2881 22 2623 -34 
Q 2366 -91 2075 -91 
Q 1284 -91 818 406 
Q 353 903 353 1747 
Q 353 2603 823 3093 
Q 1294 3584 2113 3584 
Q 2378 3584 2631 3529 
Q 2884 3475 3122 3366 
z
" transform="scale(0.015625)"/>
       <path id="DejaVuSans-74" d="M 1172 4494 
L 1172 3500 
L 2356 3500 
L 2356 3053 
L 1172 3053 
L 1172 1153 
Q 1172 725 1289 603 
Q 1406 481 1766 481 
L 2356 481 
L 2356 0 
L 1766 0 
Q 1100 0 847 248 
Q 594 497 594 1153 
L 594 3053 
L 172 3053 
L 172 3500 
L 594 3500 
L 594 4494 
L 1172 4494 
z
" transform="scale(0.015625)"/>
       <path id="DejaVuSans-56" d="M 1831 0 
L 50 4666 
L 709 4666 
L 2188 738 
L 3669 4666 
L 4325 4666 
L 2547 0 
L 1831 0 
z
" transform="scale(0.015625)"/>
       <path id="DejaVuSans-6c" d="M 603 4863 
L 1178 4863 
L 1178 0 
L 603 0 
L 603 4863 
z
" transform="scale(0.015625)"/>
       <path id="DejaVuSans-75" d="M 544 1381 
L 544 3500 
L 1119 3500 
L 1119 1403 
Q 1119 906 1312 657 
Q 1506 409 1894 409 
Q 2359 409 2629 706 
Q 2900 1003 2900 1516 
L 2900 3500 
L 3475 3500 
L 3475 0 
L 2900 0 
L 2900 538 
Q 2691 219 2414 64 
Q 2138 -91 1772 -91 
Q 1169 -91 856 284 
Q 544 659 544 1381 
z
M 1991 3584 
L 1991 3584 
z
" transform="scale(0.015625)"/>
      </defs>
      <use xlink:href="#DejaVuSans-64"/>
      <use xlink:href="#DejaVuSans-65" x="63.476562"/>
      <use xlink:href="#DejaVuSans-66" x="125"/>
      <use xlink:href="#DejaVuSans-65" x="160.205078"/>
      <use xlink:href="#DejaVuSans-6e" x="221.728516"/>
      <use xlink:href="#DejaVuSans-73" x="285.107422"/>
      <use xlink:href="#DejaVuSans-65" x="337.207031"/>
      <use xlink:href="#DejaVuSans-20" x="398.730469"/>
      <use xlink:href="#DejaVuSans-69" x="430.517578"/>
      <use xlink:href="#DejaVuSans-6d" x="458.300781"/>
      <use xlink:href="#DejaVuSans-70" x="555.712891"/>
      <use xlink:href="#DejaVuSans-61" x="619.189453"/>
      <use xlink:href="#DejaVuSans-63" x="680.46875"/>
      <use xlink:href="#DejaVuSans-74" x="735.449219"/>
      <use xlink:href="#DejaVuSans-20" x="774.658203"/>
      <use xlink:href="#DejaVuSans-56" x="806.445312"/>
      <use xlink:href="#DejaVuSans-61" x="867.103516"/>
      <use xlink:href="#DejaVuSans-6c" x="928.382812"/>
      <use xlink:href="#DejaVuSans-75" x="956.166016"/>
      <use xlink:href="#DejaVuSans-65" x="1019.544922"/>
     </g>
    </g>
   </g>
   <g id="line2d_15">
    <path d="M 100.618636 77.112727 
L 107.097569 77.112727 
L 113.576501 87.017665 
L 120.055433 103.903355 
L 126.534365 126.273236 
L 133.013297 138.872645 
L 139.492229 152.236066 
L 145.971162 161.087236 
L 152.450094 172.245024 
L 158.929026 179.642441 
L 165.407958 184.629574 
L 171.88689 184.816139 
L 178.365823 184.076136 
L 184.844755 184.700972 
L 191.323687 184.1178 
L 197.802619 176.330638 
L 204.281551 171.204914 
L 210.760483 174.185702 
L 217.239416 174.100457 
L 223.718348 172.235013 
L 230.19728 166.296919 
L 236.676212 172.495259 
L 243.155144 172.918596 
L 249.634076 167.643056 
L 256.113009 176.759809 
L 262.591941 171.968228 
L 269.070873 174.403271 
L 275.549805 173.926681 
L 282.028737 172.465507 
L 288.50767 180.133234 
L 294.986602 183.010695 
L 301.465534 169.36948 
L 307.944466 171.45536 
L 314.423398 186.78088 
L 320.90233 209.565846 
L 327.381263 187.389815 
L 333.860195 196.534094 
L 340.339127 213.130522 
L 346.818059 163.788137 
L 353.296991 204.853427 
L 359.775924 226.893096 
L 366.254856 186.287897 
L 372.733788 213.161147 
L 379.21272 238.513601 
L 385.691652 280.891679 
L 392.170584 271.054906 
L 398.649517 208.552017 
L 405.128449 184.124275 
L 411.607381 168.888961 
L 418.086313 143.446733 
L 424.565245 157.134541 
L 431.044177 153.761443 
L 437.52311 146.47137 
L 444.002042 77.112727 
L 450.480974 77.112727 
L 456.959906 77.112727 
L 463.438838 77.112727 
L 469.917771 77.112727 
L 476.396703 166.907023 
L 482.875635 77.112727 
L 489.354567 77.112727 
L 495.833499 77.112727 
L 502.312431 77.112727 
L 508.791364 287.367273 
" clip-path="url(#pc21f47462c)" style="fill: none; stroke: #1f77b4; stroke-width: 1.5; stroke-linecap: square"/>
   </g>
   <g id="line2d_16">
    <path d="M 100.618636 77.112727 
L 107.097569 77.112727 
L 113.576501 83.668151 
L 120.055433 93.557243 
L 126.534365 103.004307 
L 133.013297 110.275163 
L 139.492229 127.275765 
L 145.971162 134.565208 
L 152.450094 141.114265 
L 158.929026 151.363284 
L 165.407958 153.289212 
L 171.88689 160.213719 
L 178.365823 161.401075 
L 184.844755 160.322947 
L 191.323687 158.082618 
L 197.802619 153.257499 
L 204.281551 153.436126 
L 210.760483 154.793927 
L 217.239416 151.851197 
L 223.718348 155.885298 
L 230.19728 162.745453 
L 236.676212 162.665419 
L 243.155144 158.010144 
L 249.634076 158.983831 
L 256.113009 164.295171 
L 262.591941 163.299002 
L 269.070873 158.344867 
L 275.549805 155.390744 
L 282.028737 156.047413 
L 288.50767 157.276621 
L 294.986602 147.917163 
L 301.465534 151.846826 
L 307.944466 147.411052 
L 314.423398 147.464504 
L 320.90233 157.982933 
L 327.381263 159.289822 
L 333.860195 140.405492 
L 340.339127 147.920022 
L 346.818059 141.943935 
L 353.296991 160.772387 
L 359.775924 157.179956 
L 366.254856 162.195496 
L 372.733788 190.413398 
L 379.21272 201.105432 
L 385.691652 190.865168 
L 392.170584 177.500218 
L 398.649517 163.820251 
L 405.128449 146.33005 
L 411.607381 154.256024 
L 418.086313 161.909785 
L 424.565245 92.871447 
L 431.044177 118.381803 
L 437.52311 132.676166 
L 444.002042 77.112727 
L 450.480974 77.112727 
L 456.959906 77.112727 
L 463.438838 77.112727 
L 469.917771 77.112727 
L 476.396703 77.112727 
L 482.875635 77.112727 
L 489.354567 77.112727 
L 495.833499 77.112727 
L 502.312431 77.112727 
L 508.791364 77.112727 
" clip-path="url(#pc21f47462c)" style="fill: none; stroke: #ff7f0e; stroke-width: 1.5; stroke-linecap: square"/>
   </g>
   <g id="line2d_17">
    <path d="M 100.618636 77.112727 
L 107.097569 77.112727 
L 113.576501 77.112727 
L 120.055433 77.881304 
L 126.534365 80.367241 
L 133.013297 86.08042 
L 139.492229 89.030863 
L 145.971162 94.342726 
L 152.450094 99.519775 
L 158.929026 108.00341 
L 165.407958 114.286772 
L 171.88689 117.872476 
L 178.365823 121.610942 
L 184.844755 124.171761 
L 191.323687 129.855892 
L 197.802619 131.122995 
L 204.281551 133.739431 
L 210.760483 135.317016 
L 217.239416 142.079679 
L 223.718348 138.406436 
L 230.19728 141.119718 
L 236.676212 140.55182 
L 243.155144 145.428115 
L 249.634076 146.675808 
L 256.113009 147.175234 
L 262.591941 148.382822 
L 269.070873 157.017963 
L 275.549805 159.233283 
L 282.028737 151.528682 
L 288.50767 147.414161 
L 294.986602 149.678732 
L 301.465534 139.61676 
L 307.944466 143.951445 
L 314.423398 139.921861 
L 320.90233 145.976961 
L 327.381263 157.458143 
L 333.860195 157.82512 
L 340.339127 156.429729 
L 346.818059 159.887883 
L 353.296991 170.255263 
L 359.775924 158.398061 
L 366.254856 153.280253 
L 372.733788 149.502286 
L 379.21272 148.157655 
L 385.691652 170.50739 
L 392.170584 178.767009 
L 398.649517 153.324699 
L 405.128449 148.778225 
L 411.607381 156.258911 
L 418.086313 136.024055 
L 424.565245 108.174085 
L 431.044177 125.030328 
L 437.52311 125.030328 
L 444.002042 85.843352 
L 450.480974 85.843352 
L 456.959906 85.843352 
L 463.438838 85.843352 
L 469.917771 85.843352 
L 476.396703 85.843352 
L 482.875635 85.843352 
L 489.354567 77.112727 
L 495.833499 77.112727 
L 502.312431 77.112727 
L 508.791364 77.112727 
" clip-path="url(#pc21f47462c)" style="fill: none; stroke: #2ca02c; stroke-width: 1.5; stroke-linecap: square"/>
   </g>
   <g id="line2d_18">
    <path d="M 100.618636 77.112727 
L 107.097569 77.112727 
L 113.576501 77.112727 
L 120.055433 78.260943 
L 126.534365 81.203234 
L 133.013297 83.794465 
L 139.492229 85.637299 
L 145.971162 91.085297 
L 152.450094 96.811933 
L 158.929026 102.074732 
L 165.407958 107.497653 
L 171.88689 110.417004 
L 178.365823 115.073542 
L 184.844755 118.730641 
L 191.323687 119.562115 
L 197.802619 124.373936 
L 204.281551 121.501223 
L 210.760483 121.186863 
L 217.239416 122.585564 
L 223.718348 120.135911 
L 230.19728 117.715202 
L 236.676212 119.306514 
L 243.155144 119.226133 
L 249.634076 117.252253 
L 256.113009 119.459339 
L 262.591941 123.077595 
L 269.070873 124.701762 
L 275.549805 122.413356 
L 282.028737 120.317822 
L 288.50767 116.766877 
L 294.986602 120.791206 
L 301.465534 116.37346 
L 307.944466 116.828997 
L 314.423398 120.63634 
L 320.90233 121.458064 
L 327.381263 123.119302 
L 333.860195 114.065938 
L 340.339127 115.541529 
L 346.818059 120.046273 
L 353.296991 117.874001 
L 359.775924 116.403825 
L 366.254856 121.274534 
L 372.733788 122.36889 
L 379.21272 127.207139 
L 385.691652 128.237451 
L 392.170584 133.349924 
L 398.649517 135.643554 
L 405.128449 101.188813 
L 411.607381 113.576111 
L 418.086313 125.730572 
L 424.565245 101.637933 
L 431.044177 106.542974 
L 437.52311 106.542974 
L 444.002042 77.112727 
L 450.480974 77.112727 
L 456.959906 77.112727 
L 463.438838 77.112727 
L 469.917771 77.112727 
L 476.396703 77.112727 
L 482.875635 77.112727 
L 489.354567 77.112727 
L 495.833499 77.112727 
L 502.312431 77.112727 
L 508.791364 77.112727 
" clip-path="url(#pc21f47462c)" style="fill: none; stroke: #d62728; stroke-width: 1.5; stroke-linecap: square"/>
   </g>
   <g id="line2d_19">
    <path d="M 100.618636 77.112727 
L 107.097569 77.112727 
L 113.576501 77.112727 
L 120.055433 77.48198 
L 126.534365 78.896595 
L 133.013297 79.258176 
L 139.492229 79.331117 
L 145.971162 79.728046 
L 152.450094 80.498252 
L 158.929026 81.829177 
L 165.407958 82.617365 
L 171.88689 82.948651 
L 178.365823 83.898546 
L 184.844755 84.152324 
L 191.323687 84.492225 
L 197.802619 85.785111 
L 204.281551 86.230738 
L 210.760483 85.606002 
L 217.239416 86.175737 
L 223.718348 86.878514 
L 230.19728 86.229379 
L 236.676212 86.817025 
L 243.155144 85.629277 
L 249.634076 85.306873 
L 256.113009 86.983307 
L 262.591941 88.239717 
L 269.070873 85.671958 
L 275.549805 86.040299 
L 282.028737 86.466996 
L 288.50767 87.830614 
L 294.986602 88.687922 
L 301.465534 87.927259 
L 307.944466 89.159448 
L 314.423398 89.082423 
L 320.90233 89.90792 
L 327.381263 87.218389 
L 333.860195 87.158461 
L 340.339127 87.290623 
L 346.818059 89.074648 
L 353.296991 87.408339 
L 359.775924 88.036515 
L 366.254856 90.707948 
L 372.733788 92.11435 
L 379.21272 93.225581 
L 385.691652 97.001907 
L 392.170584 98.990825 
L 398.649517 102.851666 
L 405.128449 104.46035 
L 411.607381 104.46035 
L 418.086313 101.150085 
L 424.565245 81.34304 
L 431.044177 82.189102 
L 437.52311 82.189102 
L 444.002042 77.112727 
L 450.480974 77.112727 
L 456.959906 77.112727 
L 463.438838 77.112727 
L 469.917771 77.112727 
L 476.396703 77.112727 
L 482.875635 77.112727 
L 489.354567 77.112727 
L 495.833499 77.112727 
L 502.312431 77.112727 
L 508.791364 77.112727 
" clip-path="url(#pc21f47462c)" style="fill: none; stroke: #9467bd; stroke-width: 1.5; stroke-linecap: square"/>
   </g>
   <g id="line2d_20">
    <path d="M 100.618636 77.112727 
L 107.097569 77.112727 
L 113.576501 77.112727 
L 120.055433 77.112727 
L 126.534365 77.944364 
L 133.013297 80.893071 
L 139.492229 86.270305 
L 145.971162 90.002664 
L 152.450094 95.110079 
L 158.929026 100.820516 
L 165.407958 108.963736 
L 171.88689 112.032033 
L 178.365823 117.645264 
L 184.844755 118.445109 
L 191.323687 123.399655 
L 197.802619 121.493085 
L 204.281551 123.503484 
L 210.760483 130.020784 
L 217.239416 128.577183 
L 223.718348 124.776715 
L 230.19728 125.986964 
L 236.676212 135.821429 
L 243.155144 132.461192 
L 249.634076 135.158323 
L 256.113009 131.424688 
L 262.591941 134.723325 
L 269.070873 134.223589 
L 275.549805 135.684741 
L 282.028737 125.903778 
L 288.50767 135.797493 
L 294.986602 140.337754 
L 301.465534 126.143579 
L 307.944466 116.880661 
L 314.423398 119.831372 
L 320.90233 123.702356 
L 327.381263 124.407617 
L 333.860195 120.511872 
L 340.339127 115.023324 
L 346.818059 111.343994 
L 353.296991 140.810405 
L 359.775924 120.554808 
L 366.254856 121.038682 
L 372.733788 135.331121 
L 379.21272 134.737845 
L 385.691652 143.970785 
L 392.170584 139.650644 
L 398.649517 103.53109 
L 405.128449 117.602978 
L 411.607381 136.198073 
L 418.086313 140.156352 
L 424.565245 107.097852 
L 431.044177 143.748061 
L 437.52311 176.448031 
L 444.002042 77.112727 
L 450.480974 77.112727 
L 456.959906 77.112727 
L 463.438838 77.112727 
L 469.917771 77.112727 
L 476.396703 77.112727 
L 482.875635 77.112727 
L 489.354567 77.112727 
L 495.833499 77.112727 
L 502.312431 77.112727 
L 508.791364 77.112727 
" clip-path="url(#pc21f47462c)" style="fill: none; stroke: #8c564b; stroke-width: 1.5; stroke-linecap: square"/>
   </g>
   <g id="line2d_21">
    <path d="M 100.618636 77.112727 
L 107.097569 77.112727 
L 113.576501 77.112727 
L 120.055433 77.454887 
L 126.534365 79.232259 
L 133.013297 80.407088 
L 139.492229 81.863301 
L 145.971162 85.514757 
L 152.450094 88.09745 
L 158.929026 89.591276 
L 165.407958 91.771914 
L 171.88689 94.344698 
L 178.365823 95.719188 
L 184.844755 96.255177 
L 191.323687 98.594349 
L 197.802619 98.524782 
L 204.281551 99.285878 
L 210.760483 102.217849 
L 217.239416 103.957334 
L 223.718348 106.847389 
L 230.19728 105.243068 
L 236.676212 111.710764 
L 243.155144 111.463746 
L 249.634076 115.015044 
L 256.113009 116.836873 
L 262.591941 113.490145 
L 269.070873 118.991832 
L 275.549805 117.375894 
L 282.028737 118.915431 
L 288.50767 122.542986 
L 294.986602 121.103883 
L 301.465534 119.196069 
L 307.944466 111.31433 
L 314.423398 118.865339 
L 320.90233 119.307024 
L 327.381263 114.488547 
L 333.860195 119.577234 
L 340.339127 125.946836 
L 346.818059 103.732464 
L 353.296991 103.262473 
L 359.775924 101.169573 
L 366.254856 97.569889 
L 372.733788 97.560365 
L 379.21272 99.075005 
L 385.691652 84.540834 
L 392.170584 88.29135 
L 398.649517 88.089514 
L 405.128449 84.642222 
L 411.607381 95.143462 
L 418.086313 84.956992 
L 424.565245 98.020265 
L 431.044177 82.824312 
L 437.52311 94.800784 
L 444.002042 77.112727 
L 450.480974 77.112727 
L 456.959906 77.112727 
L 463.438838 77.112727 
L 469.917771 77.112727 
L 476.396703 77.112727 
L 482.875635 77.112727 
L 489.354567 77.112727 
L 495.833499 77.112727 
L 502.312431 77.112727 
L 508.791364 77.112727 
" clip-path="url(#pc21f47462c)" style="fill: none; stroke: #e377c2; stroke-width: 1.5; stroke-linecap: square"/>
   </g>
   <g id="line2d_22">
    <path d="M 100.618636 77.112727 
L 107.097569 77.112727 
L 113.576501 81.760824 
L 120.055433 89.283182 
L 126.534365 100.904066 
L 133.013297 108.945046 
L 139.492229 120.424799 
L 145.971162 127.280782 
L 152.450094 134.443879 
L 158.929026 137.185391 
L 165.407958 141.791227 
L 171.88689 146.320533 
L 178.365823 150.623346 
L 184.844755 155.003607 
L 191.323687 148.240039 
L 197.802619 152.2799 
L 204.281551 150.544722 
L 210.760483 152.621789 
L 217.239416 153.026052 
L 223.718348 153.333553 
L 230.19728 152.182506 
L 236.676212 148.984576 
L 243.155144 148.60677 
L 249.634076 143.530817 
L 256.113009 148.571849 
L 262.591941 139.038834 
L 269.070873 145.157015 
L 275.549805 146.156572 
L 282.028737 159.397954 
L 288.50767 157.513259 
L 294.986602 152.000331 
L 301.465534 149.007603 
L 307.944466 144.285828 
L 314.423398 147.675501 
L 320.90233 158.171963 
L 327.381263 150.745874 
L 333.860195 151.427197 
L 340.339127 151.945396 
L 346.818059 155.096002 
L 353.296991 150.705893 
L 359.775924 147.010229 
L 366.254856 145.515213 
L 372.733788 144.846011 
L 379.21272 125.857833 
L 385.691652 161.045566 
L 392.170584 171.091915 
L 398.649517 174.759626 
L 405.128449 118.939289 
L 411.607381 116.545073 
L 418.086313 116.862849 
L 424.565245 100.033131 
L 431.044177 103.61182 
L 437.52311 103.61182 
L 444.002042 77.112727 
L 450.480974 77.112727 
L 456.959906 77.112727 
L 463.438838 77.112727 
L 469.917771 77.112727 
L 476.396703 166.907023 
L 482.875635 166.907023 
L 489.354567 77.112727 
L 495.833499 77.112727 
L 502.312431 77.112727 
L 508.791364 287.367273 
" clip-path="url(#pc21f47462c)" style="fill: none; stroke: #7f7f7f; stroke-width: 1.5; stroke-linecap: square"/>
   </g>
   <g id="patch_3">
    <path d="M 80.21 297.88 
L 80.21 66.6 
" style="fill: none; stroke: #000000; stroke-width: 0.8; stroke-linejoin: miter; stroke-linecap: square"/>
   </g>
   <g id="patch_4">
    <path d="M 529.2 297.88 
L 529.2 66.6 
" style="fill: none; stroke: #000000; stroke-width: 0.8; stroke-linejoin: miter; stroke-linecap: square"/>
   </g>
   <g id="patch_5">
    <path d="M 80.21 297.88 
L 529.2 297.88 
" style="fill: none; stroke: #000000; stroke-width: 0.8; stroke-linejoin: miter; stroke-linecap: square"/>
   </g>
   <g id="patch_6">
    <path d="M 80.21 66.6 
L 529.2 66.6 
" style="fill: none; stroke: #000000; stroke-width: 0.8; stroke-linejoin: miter; stroke-linecap: square"/>
   </g>
   <g id="legend_1">
    <g id="patch_7">
     <path d="M 90.71 59.1 
L 518.7 59.1 
Q 521.7 59.1 521.7 56.1 
L 521.7 13.565625 
Q 521.7 10.565625 518.7 10.565625 
L 90.71 10.565625 
Q 87.71 10.565625 87.71 13.565625 
L 87.71 56.1 
Q 87.71 59.1 90.71 59.1 
z
" style="fill: #ffffff; opacity: 0.8; stroke: #cccccc; stroke-linejoin: miter"/>
    </g>
    <g id="line2d_23">
     <path d="M 93.71 22.713281 
L 108.71 22.713281 
L 123.71 22.713281 
" style="fill: none; stroke: #1f77b4; stroke-width: 1.5; stroke-linecap: square"/>
    </g>
    <g id="text_17">
     <!-- Stra 1 -->
     <g transform="translate(135.71 27.963281)scale(0.15 -0.15)">
      <defs>
       <path id="DejaVuSans-53" d="M 3425 4513 
L 3425 3897 
Q 3066 4069 2747 4153 
Q 2428 4238 2131 4238 
Q 1616 4238 1336 4038 
Q 1056 3838 1056 3469 
Q 1056 3159 1242 3001 
Q 1428 2844 1947 2747 
L 2328 2669 
Q 3034 2534 3370 2195 
Q 3706 1856 3706 1288 
Q 3706 609 3251 259 
Q 2797 -91 1919 -91 
Q 1588 -91 1214 -16 
Q 841 59 441 206 
L 441 856 
Q 825 641 1194 531 
Q 1563 422 1919 422 
Q 2459 422 2753 634 
Q 3047 847 3047 1241 
Q 3047 1584 2836 1778 
Q 2625 1972 2144 2069 
L 1759 2144 
Q 1053 2284 737 2584 
Q 422 2884 422 3419 
Q 422 4038 858 4394 
Q 1294 4750 2059 4750 
Q 2388 4750 2728 4690 
Q 3069 4631 3425 4513 
z
" transform="scale(0.015625)"/>
       <path id="DejaVuSans-72" d="M 2631 2963 
Q 2534 3019 2420 3045 
Q 2306 3072 2169 3072 
Q 1681 3072 1420 2755 
Q 1159 2438 1159 1844 
L 1159 0 
L 581 0 
L 581 3500 
L 1159 3500 
L 1159 2956 
Q 1341 3275 1631 3429 
Q 1922 3584 2338 3584 
Q 2397 3584 2469 3576 
Q 2541 3569 2628 3553 
L 2631 2963 
z
" transform="scale(0.015625)"/>
      </defs>
      <use xlink:href="#DejaVuSans-53"/>
      <use xlink:href="#DejaVuSans-74" x="63.476562"/>
      <use xlink:href="#DejaVuSans-72" x="102.685547"/>
      <use xlink:href="#DejaVuSans-61" x="143.798828"/>
      <use xlink:href="#DejaVuSans-20" x="205.078125"/>
      <use xlink:href="#DejaVuSans-31" x="236.865234"/>
     </g>
    </g>
    <g id="line2d_24">
     <path d="M 93.71 44.730469 
L 108.71 44.730469 
L 123.71 44.730469 
" style="fill: none; stroke: #ff7f0e; stroke-width: 1.5; stroke-linecap: square"/>
    </g>
    <g id="text_18">
     <!-- Stra 2 -->
     <g transform="translate(135.71 49.980469)scale(0.15 -0.15)">
      <use xlink:href="#DejaVuSans-53"/>
      <use xlink:href="#DejaVuSans-74" x="63.476562"/>
      <use xlink:href="#DejaVuSans-72" x="102.685547"/>
      <use xlink:href="#DejaVuSans-61" x="143.798828"/>
      <use xlink:href="#DejaVuSans-20" x="205.078125"/>
      <use xlink:href="#DejaVuSans-32" x="236.865234"/>
     </g>
    </g>
    <g id="line2d_25">
     <path d="M 205.349115 22.713281 
L 220.349115 22.713281 
L 235.349115 22.713281 
" style="fill: none; stroke: #2ca02c; stroke-width: 1.5; stroke-linecap: square"/>
    </g>
    <g id="text_19">
     <!-- Stra 3 -->
     <g transform="translate(247.349115 27.963281)scale(0.15 -0.15)">
      <use xlink:href="#DejaVuSans-53"/>
      <use xlink:href="#DejaVuSans-74" x="63.476562"/>
      <use xlink:href="#DejaVuSans-72" x="102.685547"/>
      <use xlink:href="#DejaVuSans-61" x="143.798828"/>
      <use xlink:href="#DejaVuSans-20" x="205.078125"/>
      <use xlink:href="#DejaVuSans-33" x="236.865234"/>
     </g>
    </g>
    <g id="line2d_26">
     <path d="M 205.349115 44.730469 
L 220.349115 44.730469 
L 235.349115 44.730469 
" style="fill: none; stroke: #d62728; stroke-width: 1.5; stroke-linecap: square"/>
    </g>
    <g id="text_20">
     <!-- Stra 4 -->
     <g transform="translate(247.349115 49.980469)scale(0.15 -0.15)">
      <use xlink:href="#DejaVuSans-53"/>
      <use xlink:href="#DejaVuSans-74" x="63.476562"/>
      <use xlink:href="#DejaVuSans-72" x="102.685547"/>
      <use xlink:href="#DejaVuSans-61" x="143.798828"/>
      <use xlink:href="#DejaVuSans-20" x="205.078125"/>
      <use xlink:href="#DejaVuSans-34" x="236.865234"/>
     </g>
    </g>
    <g id="line2d_27">
     <path d="M 316.988229 22.713281 
L 331.988229 22.713281 
L 346.988229 22.713281 
" style="fill: none; stroke: #9467bd; stroke-width: 1.5; stroke-linecap: square"/>
    </g>
    <g id="text_21">
     <!-- Stra 5 -->
     <g transform="translate(358.988229 27.963281)scale(0.15 -0.15)">
      <use xlink:href="#DejaVuSans-53"/>
      <use xlink:href="#DejaVuSans-74" x="63.476562"/>
      <use xlink:href="#DejaVuSans-72" x="102.685547"/>
      <use xlink:href="#DejaVuSans-61" x="143.798828"/>
      <use xlink:href="#DejaVuSans-20" x="205.078125"/>
      <use xlink:href="#DejaVuSans-35" x="236.865234"/>
     </g>
    </g>
    <g id="line2d_28">
     <path d="M 316.988229 44.730469 
L 331.988229 44.730469 
L 346.988229 44.730469 
" style="fill: none; stroke: #8c564b; stroke-width: 1.5; stroke-linecap: square"/>
    </g>
    <g id="text_22">
     <!-- Stra 6 -->
     <g transform="translate(358.988229 49.980469)scale(0.15 -0.15)">
      <use xlink:href="#DejaVuSans-53"/>
      <use xlink:href="#DejaVuSans-74" x="63.476562"/>
      <use xlink:href="#DejaVuSans-72" x="102.685547"/>
      <use xlink:href="#DejaVuSans-61" x="143.798828"/>
      <use xlink:href="#DejaVuSans-20" x="205.078125"/>
      <use xlink:href="#DejaVuSans-36" x="236.865234"/>
     </g>
    </g>
    <g id="line2d_29">
     <path d="M 428.627344 22.713281 
L 443.627344 22.713281 
L 458.627344 22.713281 
" style="fill: none; stroke: #e377c2; stroke-width: 1.5; stroke-linecap: square"/>
    </g>
    <g id="text_23">
     <!-- Stra 7 -->
     <g transform="translate(470.627344 27.963281)scale(0.15 -0.15)">
      <use xlink:href="#DejaVuSans-53"/>
      <use xlink:href="#DejaVuSans-74" x="63.476562"/>
      <use xlink:href="#DejaVuSans-72" x="102.685547"/>
      <use xlink:href="#DejaVuSans-61" x="143.798828"/>
      <use xlink:href="#DejaVuSans-20" x="205.078125"/>
      <use xlink:href="#DejaVuSans-37" x="236.865234"/>
     </g>
    </g>
    <g id="line2d_30">
     <path d="M 428.627344 44.730469 
L 443.627344 44.730469 
L 458.627344 44.730469 
" style="fill: none; stroke: #7f7f7f; stroke-width: 1.5; stroke-linecap: square"/>
    </g>
    <g id="text_24">
     <!-- Stra 8 -->
     <g transform="translate(470.627344 49.980469)scale(0.15 -0.15)">
      <use xlink:href="#DejaVuSans-53"/>
      <use xlink:href="#DejaVuSans-74" x="63.476562"/>
      <use xlink:href="#DejaVuSans-72" x="102.685547"/>
      <use xlink:href="#DejaVuSans-61" x="143.798828"/>
      <use xlink:href="#DejaVuSans-20" x="205.078125"/>
      <use xlink:href="#DejaVuSans-38" x="236.865234"/>
     </g>
    </g>
   </g>
  </g>
 </g>
 <defs>
  <clipPath id="pc21f47462c">
   <rect x="80.21" y="66.6" width="448.99" height="231.28"/>
  </clipPath>
 </defs>
</svg>
