<?xml version="1.0" encoding="utf-8" standalone="no"?>
<!DOCTYPE svg PUBLIC "-//W3C//DTD SVG 1.1//EN"
  "http://www.w3.org/Graphics/SVG/1.1/DTD/svg11.dtd">
<svg xmlns:xlink="http://www.w3.org/1999/xlink" width="540pt" height="360pt" viewBox="0 0 540 360" xmlns="http://www.w3.org/2000/svg" version="1.1">
 <metadata>
  <rdf:RDF xmlns:dc="http://purl.org/dc/elements/1.1/" xmlns:cc="http://creativecommons.org/ns#" xmlns:rdf="http://www.w3.org/1999/02/22-rdf-syntax-ns#">
   <cc:Work>
    <dc:type rdf:resource="http://purl.org/dc/dcmitype/StillImage"/>
    <dc:date>2024-04-24T21:53:07.689847</dc:date>
    <dc:format>image/svg+xml</dc:format>
    <dc:creator>
     <cc:Agent>
      <dc:title>Matplotlib v3.5.3, https://matplotlib.org/</dc:title>
     </cc:Agent>
    </dc:creator>
   </cc:Work>
  </rdf:RDF>
 </metadata>
 <defs>
  <style type="text/css">*{stroke-linejoin: round; stroke-linecap: butt}</style>
 </defs>
 <g id="figure_1">
  <g id="patch_1">
   <path d="M 0 360 
L 540 360 
L 540 0 
L 0 0 
z
" style="fill: #ffffff"/>
  </g>
  <g id="axes_1">
   <g id="patch_2">
    <path d="M 86.51 297.88 
L 529.2 297.88 
L 529.2 66.6 
L 86.51 66.6 
z
" style="fill: #ffffff"/>
   </g>
   <g id="matplotlib.axis_1">
    <g id="xtick_1">
     <g id="line2d_1">
      <defs>
       <path id="m50dc1fbd8a" d="M 0 0 
L 0 3.5 
" style="stroke: #000000; stroke-width: 0.8"/>
      </defs>
      <g>
       <use xlink:href="#m50dc1fbd8a" x="106.632273" y="297.88" style="stroke: #000000; stroke-width: 0.8"/>
      </g>
     </g>
     <g id="text_1">
      <!-- 0 -->
      <g transform="translate(100.269773 320.076875)scale(0.2 -0.2)">
       <defs>
        <path id="DejaVuSans-30" d="M 2034 4250 
Q 1547 4250 1301 3770 
Q 1056 3291 1056 2328 
Q 1056 1369 1301 889 
Q 1547 409 2034 409 
Q 2525 409 2770 889 
Q 3016 1369 3016 2328 
Q 3016 3291 2770 3770 
Q 2525 4250 2034 4250 
z
M 2034 4750 
Q 2819 4750 3233 4129 
Q 3647 3509 3647 2328 
Q 3647 1150 3233 529 
Q 2819 -91 2034 -91 
Q 1250 -91 836 529 
Q 422 1150 422 2328 
Q 422 3509 836 4129 
Q 1250 4750 2034 4750 
z
" transform="scale(0.015625)"/>
       </defs>
       <use xlink:href="#DejaVuSans-30"/>
      </g>
     </g>
    </g>
    <g id="xtick_2">
     <g id="line2d_2">
      <g>
       <use xlink:href="#m50dc1fbd8a" x="173.706515" y="297.88" style="stroke: #000000; stroke-width: 0.8"/>
      </g>
     </g>
     <g id="text_2">
      <!-- 10 -->
      <g transform="translate(160.981515 320.076875)scale(0.2 -0.2)">
       <defs>
        <path id="DejaVuSans-31" d="M 794 531 
L 1825 531 
L 1825 4091 
L 703 3866 
L 703 4441 
L 1819 4666 
L 2450 4666 
L 2450 531 
L 3481 531 
L 3481 0 
L 794 0 
L 794 531 
z
" transform="scale(0.015625)"/>
       </defs>
       <use xlink:href="#DejaVuSans-31"/>
       <use xlink:href="#DejaVuSans-30" x="63.623047"/>
      </g>
     </g>
    </g>
    <g id="xtick_3">
     <g id="line2d_3">
      <g>
       <use xlink:href="#m50dc1fbd8a" x="240.780758" y="297.88" style="stroke: #000000; stroke-width: 0.8"/>
      </g>
     </g>
     <g id="text_3">
      <!-- 20 -->
      <g transform="translate(228.055758 320.076875)scale(0.2 -0.2)">
       <defs>
        <path id="DejaVuSans-32" d="M 1228 531 
L 3431 531 
L 3431 0 
L 469 0 
L 469 531 
Q 828 903 1448 1529 
Q 2069 2156 2228 2338 
Q 2531 2678 2651 2914 
Q 2772 3150 2772 3378 
Q 2772 3750 2511 3984 
Q 2250 4219 1831 4219 
Q 1534 4219 1204 4116 
Q 875 4013 500 3803 
L 500 4441 
Q 881 4594 1212 4672 
Q 1544 4750 1819 4750 
Q 2544 4750 2975 4387 
Q 3406 4025 3406 3419 
Q 3406 3131 3298 2873 
Q 3191 2616 2906 2266 
Q 2828 2175 2409 1742 
Q 1991 1309 1228 531 
z
" transform="scale(0.015625)"/>
       </defs>
       <use xlink:href="#DejaVuSans-32"/>
       <use xlink:href="#DejaVuSans-30" x="63.623047"/>
      </g>
     </g>
    </g>
    <g id="xtick_4">
     <g id="line2d_4">
      <g>
       <use xlink:href="#m50dc1fbd8a" x="307.855" y="297.88" style="stroke: #000000; stroke-width: 0.8"/>
      </g>
     </g>
     <g id="text_4">
      <!-- 30 -->
      <g transform="translate(295.13 320.076875)scale(0.2 -0.2)">
       <defs>
        <path id="DejaVuSans-33" d="M 2597 2516 
Q 3050 2419 3304 2112 
Q 3559 1806 3559 1356 
Q 3559 666 3084 287 
Q 2609 -91 1734 -91 
Q 1441 -91 1130 -33 
Q 819 25 488 141 
L 488 750 
Q 750 597 1062 519 
Q 1375 441 1716 441 
Q 2309 441 2620 675 
Q 2931 909 2931 1356 
Q 2931 1769 2642 2001 
Q 2353 2234 1838 2234 
L 1294 2234 
L 1294 2753 
L 1863 2753 
Q 2328 2753 2575 2939 
Q 2822 3125 2822 3475 
Q 2822 3834 2567 4026 
Q 2313 4219 1838 4219 
Q 1578 4219 1281 4162 
Q 984 4106 628 3988 
L 628 4550 
Q 988 4650 1302 4700 
Q 1616 4750 1894 4750 
Q 2613 4750 3031 4423 
Q 3450 4097 3450 3541 
Q 3450 3153 3228 2886 
Q 3006 2619 2597 2516 
z
" transform="scale(0.015625)"/>
       </defs>
       <use xlink:href="#DejaVuSans-33"/>
       <use xlink:href="#DejaVuSans-30" x="63.623047"/>
      </g>
     </g>
    </g>
    <g id="xtick_5">
     <g id="line2d_5">
      <g>
       <use xlink:href="#m50dc1fbd8a" x="374.929242" y="297.88" style="stroke: #000000; stroke-width: 0.8"/>
      </g>
     </g>
     <g id="text_5">
      <!-- 40 -->
      <g transform="translate(362.204242 320.076875)scale(0.2 -0.2)">
       <defs>
        <path id="DejaVuSans-34" d="M 2419 4116 
L 825 1625 
L 2419 1625 
L 2419 4116 
z
M 2253 4666 
L 3047 4666 
L 3047 1625 
L 3713 1625 
L 3713 1100 
L 3047 1100 
L 3047 0 
L 2419 0 
L 2419 1100 
L 313 1100 
L 313 1709 
L 2253 4666 
z
" transform="scale(0.015625)"/>
       </defs>
       <use xlink:href="#DejaVuSans-34"/>
       <use xlink:href="#DejaVuSans-30" x="63.623047"/>
      </g>
     </g>
    </g>
    <g id="xtick_6">
     <g id="line2d_6">
      <g>
       <use xlink:href="#m50dc1fbd8a" x="442.003485" y="297.88" style="stroke: #000000; stroke-width: 0.8"/>
      </g>
     </g>
     <g id="text_6">
      <!-- 50 -->
      <g transform="translate(429.278485 320.076875)scale(0.2 -0.2)">
       <defs>
        <path id="DejaVuSans-35" d="M 691 4666 
L 3169 4666 
L 3169 4134 
L 1269 4134 
L 1269 2991 
Q 1406 3038 1543 3061 
Q 1681 3084 1819 3084 
Q 2600 3084 3056 2656 
Q 3513 2228 3513 1497 
Q 3513 744 3044 326 
Q 2575 -91 1722 -91 
Q 1428 -91 1123 -41 
Q 819 9 494 109 
L 494 744 
Q 775 591 1075 516 
Q 1375 441 1709 441 
Q 2250 441 2565 725 
Q 2881 1009 2881 1497 
Q 2881 1984 2565 2268 
Q 2250 2553 1709 2553 
Q 1456 2553 1204 2497 
Q 953 2441 691 2322 
L 691 4666 
z
" transform="scale(0.015625)"/>
       </defs>
       <use xlink:href="#DejaVuSans-35"/>
       <use xlink:href="#DejaVuSans-30" x="63.623047"/>
      </g>
     </g>
    </g>
    <g id="xtick_7">
     <g id="line2d_7">
      <g>
       <use xlink:href="#m50dc1fbd8a" x="509.077727" y="297.88" style="stroke: #000000; stroke-width: 0.8"/>
      </g>
     </g>
     <g id="text_7">
      <!-- 60 -->
      <g transform="translate(496.352727 320.076875)scale(0.2 -0.2)">
       <defs>
        <path id="DejaVuSans-36" d="M 2113 2584 
Q 1688 2584 1439 2293 
Q 1191 2003 1191 1497 
Q 1191 994 1439 701 
Q 1688 409 2113 409 
Q 2538 409 2786 701 
Q 3034 994 3034 1497 
Q 3034 2003 2786 2293 
Q 2538 2584 2113 2584 
z
M 3366 4563 
L 3366 3988 
Q 3128 4100 2886 4159 
Q 2644 4219 2406 4219 
Q 1781 4219 1451 3797 
Q 1122 3375 1075 2522 
Q 1259 2794 1537 2939 
Q 1816 3084 2150 3084 
Q 2853 3084 3261 2657 
Q 3669 2231 3669 1497 
Q 3669 778 3244 343 
Q 2819 -91 2113 -91 
Q 1303 -91 875 529 
Q 447 1150 447 2328 
Q 447 3434 972 4092 
Q 1497 4750 2381 4750 
Q 2619 4750 2861 4703 
Q 3103 4656 3366 4563 
z
" transform="scale(0.015625)"/>
       </defs>
       <use xlink:href="#DejaVuSans-36"/>
       <use xlink:href="#DejaVuSans-30" x="63.623047"/>
      </g>
     </g>
    </g>
    <g id="text_8">
     <!-- number of games (DD-IPI) -->
     <g transform="translate(177.333125 343.433125)scale(0.2 -0.2)">
      <defs>
       <path id="DejaVuSans-6e" d="M 3513 2113 
L 3513 0 
L 2938 0 
L 2938 2094 
Q 2938 2591 2744 2837 
Q 2550 3084 2163 3084 
Q 1697 3084 1428 2787 
Q 1159 2491 1159 1978 
L 1159 0 
L 581 0 
L 581 3500 
L 1159 3500 
L 1159 2956 
Q 1366 3272 1645 3428 
Q 1925 3584 2291 3584 
Q 2894 3584 3203 3211 
Q 3513 2838 3513 2113 
z
" transform="scale(0.015625)"/>
       <path id="DejaVuSans-75" d="M 544 1381 
L 544 3500 
L 1119 3500 
L 1119 1403 
Q 1119 906 1312 657 
Q 1506 409 1894 409 
Q 2359 409 2629 706 
Q 2900 1003 2900 1516 
L 2900 3500 
L 3475 3500 
L 3475 0 
L 2900 0 
L 2900 538 
Q 2691 219 2414 64 
Q 2138 -91 1772 -91 
Q 1169 -91 856 284 
Q 544 659 544 1381 
z
M 1991 3584 
L 1991 3584 
z
" transform="scale(0.015625)"/>
       <path id="DejaVuSans-6d" d="M 3328 2828 
Q 3544 3216 3844 3400 
Q 4144 3584 4550 3584 
Q 5097 3584 5394 3201 
Q 5691 2819 5691 2113 
L 5691 0 
L 5113 0 
L 5113 2094 
Q 5113 2597 4934 2840 
Q 4756 3084 4391 3084 
Q 3944 3084 3684 2787 
Q 3425 2491 3425 1978 
L 3425 0 
L 2847 0 
L 2847 2094 
Q 2847 2600 2669 2842 
Q 2491 3084 2119 3084 
Q 1678 3084 1418 2786 
Q 1159 2488 1159 1978 
L 1159 0 
L 581 0 
L 581 3500 
L 1159 3500 
L 1159 2956 
Q 1356 3278 1631 3431 
Q 1906 3584 2284 3584 
Q 2666 3584 2933 3390 
Q 3200 3197 3328 2828 
z
" transform="scale(0.015625)"/>
       <path id="DejaVuSans-62" d="M 3116 1747 
Q 3116 2381 2855 2742 
Q 2594 3103 2138 3103 
Q 1681 3103 1420 2742 
Q 1159 2381 1159 1747 
Q 1159 1113 1420 752 
Q 1681 391 2138 391 
Q 2594 391 2855 752 
Q 3116 1113 3116 1747 
z
M 1159 2969 
Q 1341 3281 1617 3432 
Q 1894 3584 2278 3584 
Q 2916 3584 3314 3078 
Q 3713 2572 3713 1747 
Q 3713 922 3314 415 
Q 2916 -91 2278 -91 
Q 1894 -91 1617 61 
Q 1341 213 1159 525 
L 1159 0 
L 581 0 
L 581 4863 
L 1159 4863 
L 1159 2969 
z
" transform="scale(0.015625)"/>
       <path id="DejaVuSans-65" d="M 3597 1894 
L 3597 1613 
L 953 1613 
Q 991 1019 1311 708 
Q 1631 397 2203 397 
Q 2534 397 2845 478 
Q 3156 559 3463 722 
L 3463 178 
Q 3153 47 2828 -22 
Q 2503 -91 2169 -91 
Q 1331 -91 842 396 
Q 353 884 353 1716 
Q 353 2575 817 3079 
Q 1281 3584 2069 3584 
Q 2775 3584 3186 3129 
Q 3597 2675 3597 1894 
z
M 3022 2063 
Q 3016 2534 2758 2815 
Q 2500 3097 2075 3097 
Q 1594 3097 1305 2825 
Q 1016 2553 972 2059 
L 3022 2063 
z
" transform="scale(0.015625)"/>
       <path id="DejaVuSans-72" d="M 2631 2963 
Q 2534 3019 2420 3045 
Q 2306 3072 2169 3072 
Q 1681 3072 1420 2755 
Q 1159 2438 1159 1844 
L 1159 0 
L 581 0 
L 581 3500 
L 1159 3500 
L 1159 2956 
Q 1341 3275 1631 3429 
Q 1922 3584 2338 3584 
Q 2397 3584 2469 3576 
Q 2541 3569 2628 3553 
L 2631 2963 
z
" transform="scale(0.015625)"/>
       <path id="DejaVuSans-20" transform="scale(0.015625)"/>
       <path id="DejaVuSans-6f" d="M 1959 3097 
Q 1497 3097 1228 2736 
Q 959 2375 959 1747 
Q 959 1119 1226 758 
Q 1494 397 1959 397 
Q 2419 397 2687 759 
Q 2956 1122 2956 1747 
Q 2956 2369 2687 2733 
Q 2419 3097 1959 3097 
z
M 1959 3584 
Q 2709 3584 3137 3096 
Q 3566 2609 3566 1747 
Q 3566 888 3137 398 
Q 2709 -91 1959 -91 
Q 1206 -91 779 398 
Q 353 888 353 1747 
Q 353 2609 779 3096 
Q 1206 3584 1959 3584 
z
" transform="scale(0.015625)"/>
       <path id="DejaVuSans-66" d="M 2375 4863 
L 2375 4384 
L 1825 4384 
Q 1516 4384 1395 4259 
Q 1275 4134 1275 3809 
L 1275 3500 
L 2222 3500 
L 2222 3053 
L 1275 3053 
L 1275 0 
L 697 0 
L 697 3053 
L 147 3053 
L 147 3500 
L 697 3500 
L 697 3744 
Q 697 4328 969 4595 
Q 1241 4863 1831 4863 
L 2375 4863 
z
" transform="scale(0.015625)"/>
       <path id="DejaVuSans-67" d="M 2906 1791 
Q 2906 2416 2648 2759 
Q 2391 3103 1925 3103 
Q 1463 3103 1205 2759 
Q 947 2416 947 1791 
Q 947 1169 1205 825 
Q 1463 481 1925 481 
Q 2391 481 2648 825 
Q 2906 1169 2906 1791 
z
M 3481 434 
Q 3481 -459 3084 -895 
Q 2688 -1331 1869 -1331 
Q 1566 -1331 1297 -1286 
Q 1028 -1241 775 -1147 
L 775 -588 
Q 1028 -725 1275 -790 
Q 1522 -856 1778 -856 
Q 2344 -856 2625 -561 
Q 2906 -266 2906 331 
L 2906 616 
Q 2728 306 2450 153 
Q 2172 0 1784 0 
Q 1141 0 747 490 
Q 353 981 353 1791 
Q 353 2603 747 3093 
Q 1141 3584 1784 3584 
Q 2172 3584 2450 3431 
Q 2728 3278 2906 2969 
L 2906 3500 
L 3481 3500 
L 3481 434 
z
" transform="scale(0.015625)"/>
       <path id="DejaVuSans-61" d="M 2194 1759 
Q 1497 1759 1228 1600 
Q 959 1441 959 1056 
Q 959 750 1161 570 
Q 1363 391 1709 391 
Q 2188 391 2477 730 
Q 2766 1069 2766 1631 
L 2766 1759 
L 2194 1759 
z
M 3341 1997 
L 3341 0 
L 2766 0 
L 2766 531 
Q 2569 213 2275 61 
Q 1981 -91 1556 -91 
Q 1019 -91 701 211 
Q 384 513 384 1019 
Q 384 1609 779 1909 
Q 1175 2209 1959 2209 
L 2766 2209 
L 2766 2266 
Q 2766 2663 2505 2880 
Q 2244 3097 1772 3097 
Q 1472 3097 1187 3025 
Q 903 2953 641 2809 
L 641 3341 
Q 956 3463 1253 3523 
Q 1550 3584 1831 3584 
Q 2591 3584 2966 3190 
Q 3341 2797 3341 1997 
z
" transform="scale(0.015625)"/>
       <path id="DejaVuSans-73" d="M 2834 3397 
L 2834 2853 
Q 2591 2978 2328 3040 
Q 2066 3103 1784 3103 
Q 1356 3103 1142 2972 
Q 928 2841 928 2578 
Q 928 2378 1081 2264 
Q 1234 2150 1697 2047 
L 1894 2003 
Q 2506 1872 2764 1633 
Q 3022 1394 3022 966 
Q 3022 478 2636 193 
Q 2250 -91 1575 -91 
Q 1294 -91 989 -36 
Q 684 19 347 128 
L 347 722 
Q 666 556 975 473 
Q 1284 391 1588 391 
Q 1994 391 2212 530 
Q 2431 669 2431 922 
Q 2431 1156 2273 1281 
Q 2116 1406 1581 1522 
L 1381 1569 
Q 847 1681 609 1914 
Q 372 2147 372 2553 
Q 372 3047 722 3315 
Q 1072 3584 1716 3584 
Q 2034 3584 2315 3537 
Q 2597 3491 2834 3397 
z
" transform="scale(0.015625)"/>
       <path id="DejaVuSans-28" d="M 1984 4856 
Q 1566 4138 1362 3434 
Q 1159 2731 1159 2009 
Q 1159 1288 1364 580 
Q 1569 -128 1984 -844 
L 1484 -844 
Q 1016 -109 783 600 
Q 550 1309 550 2009 
Q 550 2706 781 3412 
Q 1013 4119 1484 4856 
L 1984 4856 
z
" transform="scale(0.015625)"/>
       <path id="DejaVuSans-44" d="M 1259 4147 
L 1259 519 
L 2022 519 
Q 2988 519 3436 956 
Q 3884 1394 3884 2338 
Q 3884 3275 3436 3711 
Q 2988 4147 2022 4147 
L 1259 4147 
z
M 628 4666 
L 1925 4666 
Q 3281 4666 3915 4102 
Q 4550 3538 4550 2338 
Q 4550 1131 3912 565 
Q 3275 0 1925 0 
L 628 0 
L 628 4666 
z
" transform="scale(0.015625)"/>
       <path id="DejaVuSans-2d" d="M 313 2009 
L 1997 2009 
L 1997 1497 
L 313 1497 
L 313 2009 
z
" transform="scale(0.015625)"/>
       <path id="DejaVuSans-49" d="M 628 4666 
L 1259 4666 
L 1259 0 
L 628 0 
L 628 4666 
z
" transform="scale(0.015625)"/>
       <path id="DejaVuSans-50" d="M 1259 4147 
L 1259 2394 
L 2053 2394 
Q 2494 2394 2734 2622 
Q 2975 2850 2975 3272 
Q 2975 3691 2734 3919 
Q 2494 4147 2053 4147 
L 1259 4147 
z
M 628 4666 
L 2053 4666 
Q 2838 4666 3239 4311 
Q 3641 3956 3641 3272 
Q 3641 2581 3239 2228 
Q 2838 1875 2053 1875 
L 1259 1875 
L 1259 0 
L 628 0 
L 628 4666 
z
" transform="scale(0.015625)"/>
       <path id="DejaVuSans-29" d="M 513 4856 
L 1013 4856 
Q 1481 4119 1714 3412 
Q 1947 2706 1947 2009 
Q 1947 1309 1714 600 
Q 1481 -109 1013 -844 
L 513 -844 
Q 928 -128 1133 580 
Q 1338 1288 1338 2009 
Q 1338 2731 1133 3434 
Q 928 4138 513 4856 
z
" transform="scale(0.015625)"/>
      </defs>
      <use xlink:href="#DejaVuSans-6e"/>
      <use xlink:href="#DejaVuSans-75" x="63.378906"/>
      <use xlink:href="#DejaVuSans-6d" x="126.757812"/>
      <use xlink:href="#DejaVuSans-62" x="224.169922"/>
      <use xlink:href="#DejaVuSans-65" x="287.646484"/>
      <use xlink:href="#DejaVuSans-72" x="349.169922"/>
      <use xlink:href="#DejaVuSans-20" x="390.283203"/>
      <use xlink:href="#DejaVuSans-6f" x="422.070312"/>
      <use xlink:href="#DejaVuSans-66" x="483.251953"/>
      <use xlink:href="#DejaVuSans-20" x="518.457031"/>
      <use xlink:href="#DejaVuSans-67" x="550.244141"/>
      <use xlink:href="#DejaVuSans-61" x="613.720703"/>
      <use xlink:href="#DejaVuSans-6d" x="675"/>
      <use xlink:href="#DejaVuSans-65" x="772.412109"/>
      <use xlink:href="#DejaVuSans-73" x="833.935547"/>
      <use xlink:href="#DejaVuSans-20" x="886.035156"/>
      <use xlink:href="#DejaVuSans-28" x="917.822266"/>
      <use xlink:href="#DejaVuSans-44" x="956.835938"/>
      <use xlink:href="#DejaVuSans-44" x="1033.837891"/>
      <use xlink:href="#DejaVuSans-2d" x="1110.839844"/>
      <use xlink:href="#DejaVuSans-49" x="1146.923828"/>
      <use xlink:href="#DejaVuSans-50" x="1176.416016"/>
      <use xlink:href="#DejaVuSans-49" x="1236.71875"/>
      <use xlink:href="#DejaVuSans-29" x="1266.210938"/>
     </g>
    </g>
   </g>
   <g id="matplotlib.axis_2">
    <g id="ytick_1">
     <g id="line2d_8">
      <defs>
       <path id="ma096667edd" d="M 0 0 
L -3.5 0 
" style="stroke: #000000; stroke-width: 0.8"/>
      </defs>
      <g>
       <use xlink:href="#ma096667edd" x="86.51" y="287.367273" style="stroke: #000000; stroke-width: 0.8"/>
      </g>
     </g>
     <g id="text_9">
      <!-- 0 -->
      <g transform="translate(66.785 294.96571)scale(0.2 -0.2)">
       <use xlink:href="#DejaVuSans-30"/>
      </g>
     </g>
    </g>
    <g id="ytick_2">
     <g id="line2d_9">
      <g>
       <use xlink:href="#ma096667edd" x="86.51" y="251.518245" style="stroke: #000000; stroke-width: 0.8"/>
      </g>
     </g>
     <g id="text_10">
      <!-- 200 -->
      <g transform="translate(41.335 259.116683)scale(0.2 -0.2)">
       <use xlink:href="#DejaVuSans-32"/>
       <use xlink:href="#DejaVuSans-30" x="63.623047"/>
       <use xlink:href="#DejaVuSans-30" x="127.246094"/>
      </g>
     </g>
    </g>
    <g id="ytick_3">
     <g id="line2d_10">
      <g>
       <use xlink:href="#ma096667edd" x="86.51" y="215.669218" style="stroke: #000000; stroke-width: 0.8"/>
      </g>
     </g>
     <g id="text_11">
      <!-- 400 -->
      <g transform="translate(41.335 223.267656)scale(0.2 -0.2)">
       <use xlink:href="#DejaVuSans-34"/>
       <use xlink:href="#DejaVuSans-30" x="63.623047"/>
       <use xlink:href="#DejaVuSans-30" x="127.246094"/>
      </g>
     </g>
    </g>
    <g id="ytick_4">
     <g id="line2d_11">
      <g>
       <use xlink:href="#ma096667edd" x="86.51" y="179.820191" style="stroke: #000000; stroke-width: 0.8"/>
      </g>
     </g>
     <g id="text_12">
      <!-- 600 -->
      <g transform="translate(41.335 187.418628)scale(0.2 -0.2)">
       <use xlink:href="#DejaVuSans-36"/>
       <use xlink:href="#DejaVuSans-30" x="63.623047"/>
       <use xlink:href="#DejaVuSans-30" x="127.246094"/>
      </g>
     </g>
    </g>
    <g id="ytick_5">
     <g id="line2d_12">
      <g>
       <use xlink:href="#ma096667edd" x="86.51" y="143.971163" style="stroke: #000000; stroke-width: 0.8"/>
      </g>
     </g>
     <g id="text_13">
      <!-- 800 -->
      <g transform="translate(41.335 151.569601)scale(0.2 -0.2)">
       <defs>
        <path id="DejaVuSans-38" d="M 2034 2216 
Q 1584 2216 1326 1975 
Q 1069 1734 1069 1313 
Q 1069 891 1326 650 
Q 1584 409 2034 409 
Q 2484 409 2743 651 
Q 3003 894 3003 1313 
Q 3003 1734 2745 1975 
Q 2488 2216 2034 2216 
z
M 1403 2484 
Q 997 2584 770 2862 
Q 544 3141 544 3541 
Q 544 4100 942 4425 
Q 1341 4750 2034 4750 
Q 2731 4750 3128 4425 
Q 3525 4100 3525 3541 
Q 3525 3141 3298 2862 
Q 3072 2584 2669 2484 
Q 3125 2378 3379 2068 
Q 3634 1759 3634 1313 
Q 3634 634 3220 271 
Q 2806 -91 2034 -91 
Q 1263 -91 848 271 
Q 434 634 434 1313 
Q 434 1759 690 2068 
Q 947 2378 1403 2484 
z
M 1172 3481 
Q 1172 3119 1398 2916 
Q 1625 2713 2034 2713 
Q 2441 2713 2670 2916 
Q 2900 3119 2900 3481 
Q 2900 3844 2670 4047 
Q 2441 4250 2034 4250 
Q 1625 4250 1398 4047 
Q 1172 3844 1172 3481 
z
" transform="scale(0.015625)"/>
       </defs>
       <use xlink:href="#DejaVuSans-38"/>
       <use xlink:href="#DejaVuSans-30" x="63.623047"/>
       <use xlink:href="#DejaVuSans-30" x="127.246094"/>
      </g>
     </g>
    </g>
    <g id="ytick_6">
     <g id="line2d_13">
      <g>
       <use xlink:href="#ma096667edd" x="86.51" y="108.122136" style="stroke: #000000; stroke-width: 0.8"/>
      </g>
     </g>
     <g id="text_14">
      <!-- 1000 -->
      <g transform="translate(28.61 115.720573)scale(0.2 -0.2)">
       <use xlink:href="#DejaVuSans-31"/>
       <use xlink:href="#DejaVuSans-30" x="63.623047"/>
       <use xlink:href="#DejaVuSans-30" x="127.246094"/>
       <use xlink:href="#DejaVuSans-30" x="190.869141"/>
      </g>
     </g>
    </g>
    <g id="ytick_7">
     <g id="line2d_14">
      <g>
       <use xlink:href="#ma096667edd" x="86.51" y="72.273109" style="stroke: #000000; stroke-width: 0.8"/>
      </g>
     </g>
     <g id="text_15">
      <!-- 1200 -->
      <g transform="translate(28.61 79.871546)scale(0.2 -0.2)">
       <use xlink:href="#DejaVuSans-31"/>
       <use xlink:href="#DejaVuSans-32" x="63.623047"/>
       <use xlink:href="#DejaVuSans-30" x="127.246094"/>
       <use xlink:href="#DejaVuSans-30" x="190.869141"/>
      </g>
     </g>
    </g>
    <g id="text_16">
     <!-- Number of Att strategy used -->
     <g transform="translate(21.837083 277.431667)rotate(-90)scale(0.133333 -0.133333)">
      <defs>
       <path id="DejaVuSans-4e" d="M 628 4666 
L 1478 4666 
L 3547 763 
L 3547 4666 
L 4159 4666 
L 4159 0 
L 3309 0 
L 1241 3903 
L 1241 0 
L 628 0 
L 628 4666 
z
" transform="scale(0.015625)"/>
       <path id="DejaVuSans-41" d="M 2188 4044 
L 1331 1722 
L 3047 1722 
L 2188 4044 
z
M 1831 4666 
L 2547 4666 
L 4325 0 
L 3669 0 
L 3244 1197 
L 1141 1197 
L 716 0 
L 50 0 
L 1831 4666 
z
" transform="scale(0.015625)"/>
       <path id="DejaVuSans-74" d="M 1172 4494 
L 1172 3500 
L 2356 3500 
L 2356 3053 
L 1172 3053 
L 1172 1153 
Q 1172 725 1289 603 
Q 1406 481 1766 481 
L 2356 481 
L 2356 0 
L 1766 0 
Q 1100 0 847 248 
Q 594 497 594 1153 
L 594 3053 
L 172 3053 
L 172 3500 
L 594 3500 
L 594 4494 
L 1172 4494 
z
" transform="scale(0.015625)"/>
       <path id="DejaVuSans-79" d="M 2059 -325 
Q 1816 -950 1584 -1140 
Q 1353 -1331 966 -1331 
L 506 -1331 
L 506 -850 
L 844 -850 
Q 1081 -850 1212 -737 
Q 1344 -625 1503 -206 
L 1606 56 
L 191 3500 
L 800 3500 
L 1894 763 
L 2988 3500 
L 3597 3500 
L 2059 -325 
z
" transform="scale(0.015625)"/>
       <path id="DejaVuSans-64" d="M 2906 2969 
L 2906 4863 
L 3481 4863 
L 3481 0 
L 2906 0 
L 2906 525 
Q 2725 213 2448 61 
Q 2172 -91 1784 -91 
Q 1150 -91 751 415 
Q 353 922 353 1747 
Q 353 2572 751 3078 
Q 1150 3584 1784 3584 
Q 2172 3584 2448 3432 
Q 2725 3281 2906 2969 
z
M 947 1747 
Q 947 1113 1208 752 
Q 1469 391 1925 391 
Q 2381 391 2643 752 
Q 2906 1113 2906 1747 
Q 2906 2381 2643 2742 
Q 2381 3103 1925 3103 
Q 1469 3103 1208 2742 
Q 947 2381 947 1747 
z
" transform="scale(0.015625)"/>
      </defs>
      <use xlink:href="#DejaVuSans-4e"/>
      <use xlink:href="#DejaVuSans-75" x="74.804688"/>
      <use xlink:href="#DejaVuSans-6d" x="138.183594"/>
      <use xlink:href="#DejaVuSans-62" x="235.595703"/>
      <use xlink:href="#DejaVuSans-65" x="299.072266"/>
      <use xlink:href="#DejaVuSans-72" x="360.595703"/>
      <use xlink:href="#DejaVuSans-20" x="401.708984"/>
      <use xlink:href="#DejaVuSans-6f" x="433.496094"/>
      <use xlink:href="#DejaVuSans-66" x="494.677734"/>
      <use xlink:href="#DejaVuSans-20" x="529.882812"/>
      <use xlink:href="#DejaVuSans-41" x="561.669922"/>
      <use xlink:href="#DejaVuSans-74" x="628.328125"/>
      <use xlink:href="#DejaVuSans-74" x="667.537109"/>
      <use xlink:href="#DejaVuSans-20" x="706.746094"/>
      <use xlink:href="#DejaVuSans-73" x="738.533203"/>
      <use xlink:href="#DejaVuSans-74" x="790.632812"/>
      <use xlink:href="#DejaVuSans-72" x="829.841797"/>
      <use xlink:href="#DejaVuSans-61" x="870.955078"/>
      <use xlink:href="#DejaVuSans-74" x="932.234375"/>
      <use xlink:href="#DejaVuSans-65" x="971.443359"/>
      <use xlink:href="#DejaVuSans-67" x="1032.966797"/>
      <use xlink:href="#DejaVuSans-79" x="1096.443359"/>
      <use xlink:href="#DejaVuSans-20" x="1155.623047"/>
      <use xlink:href="#DejaVuSans-75" x="1187.410156"/>
      <use xlink:href="#DejaVuSans-73" x="1250.789062"/>
      <use xlink:href="#DejaVuSans-65" x="1302.888672"/>
      <use xlink:href="#DejaVuSans-64" x="1364.412109"/>
     </g>
    </g>
   </g>
   <g id="line2d_15">
    <path d="M 106.632273 262.452199 
L 113.339697 191.471125 
L 120.047121 162.254167 
L 126.754545 148.631537 
L 133.46197 134.112681 
L 140.169394 121.207031 
L 146.876818 115.112696 
L 153.584242 105.791949 
L 160.291667 100.95233 
L 166.999091 96.471202 
L 173.706515 88.763661 
L 180.413939 86.074984 
L 187.121364 77.112727 
L 193.828788 83.565552 
L 200.536212 86.254229 
L 207.243636 91.990074 
L 213.951061 94.857996 
L 220.658485 106.50893 
L 227.365909 124.612689 
L 234.073333 131.961739 
L 240.780758 144.150408 
L 247.488182 152.93342 
L 254.195606 165.48058 
L 260.90303 182.329623 
L 267.610455 196.848479 
L 274.317879 206.527716 
L 281.025303 206.348471 
L 287.732727 221.046572 
L 294.440152 220.867327 
L 301.147576 231.44279 
L 307.855 241.480518 
L 314.562424 244.70693 
L 321.269848 253.489942 
L 327.977273 255.282393 
L 334.684697 256.537109 
L 341.392121 262.272954 
L 348.099545 261.018238 
L 354.80697 266.037101 
L 361.514394 267.829553 
L 368.221818 270.338985 
L 374.929242 271.952191 
L 381.636667 274.999358 
L 388.344091 278.405016 
L 395.051515 278.225771 
L 401.758939 280.555958 
L 408.466364 281.452183 
L 415.173788 282.169164 
L 421.881212 282.169164 
L 428.588636 283.42388 
L 435.296061 283.42388 
L 442.003485 284.499351 
L 448.710909 285.216331 
L 455.418333 286.291802 
L 462.125758 286.471047 
L 468.833182 286.291802 
L 475.540606 286.471047 
L 482.24803 286.471047 
L 488.955455 286.291802 
L 495.662879 286.650292 
L 502.370303 287.188028 
L 509.077727 287.188028 
" clip-path="url(#p26976e6abd)" style="fill: none; stroke: #1f77b4; stroke-width: 1.5; stroke-linecap: square"/>
   </g>
   <g id="line2d_16">
    <path d="M 106.632273 264.065405 
L 113.339697 271.952191 
L 120.047121 267.291817 
L 126.754545 268.008798 
L 133.46197 262.810689 
L 140.169394 261.555973 
L 146.876818 257.61258 
L 153.584242 258.867296 
L 160.291667 260.301257 
L 166.999091 257.433335 
L 173.706515 256.178619 
L 180.413939 257.074845 
L 187.121364 262.272954 
L 193.828788 258.329561 
L 200.536212 254.923903 
L 207.243636 257.433335 
L 213.951061 262.272954 
L 220.658485 262.810689 
L 227.365909 266.395592 
L 234.073333 261.735218 
L 240.780758 268.188043 
L 247.488182 270.338985 
L 254.195606 269.622004 
L 260.90303 270.338985 
L 267.610455 272.489926 
L 274.317879 274.820113 
L 281.025303 278.225771 
L 287.732727 277.329545 
L 294.440152 279.121996 
L 301.147576 280.735203 
L 307.855 279.659732 
L 314.562424 282.886144 
L 321.269848 282.527654 
L 327.977273 282.169164 
L 334.684697 283.78237 
L 341.392121 282.348409 
L 348.099545 284.320105 
L 354.80697 285.037086 
L 361.514394 284.14086 
L 368.221818 284.320105 
L 374.929242 284.857841 
L 381.636667 286.471047 
L 388.344091 285.754066 
L 395.051515 286.650292 
L 401.758939 286.112557 
L 408.466364 287.008782 
L 415.173788 286.829537 
L 421.881212 286.829537 
L 428.588636 286.829537 
L 435.296061 286.829537 
L 442.003485 287.367273 
L 448.710909 287.188028 
L 455.418333 287.188028 
L 462.125758 287.367273 
L 468.833182 287.367273 
L 475.540606 287.367273 
L 482.24803 287.367273 
L 488.955455 287.367273 
L 495.662879 287.367273 
L 502.370303 287.367273 
L 509.077727 287.367273 
" clip-path="url(#p26976e6abd)" style="fill: none; stroke: #ff7f0e; stroke-width: 1.5; stroke-linecap: square"/>
   </g>
   <g id="line2d_17">
    <path d="M 106.632273 265.140876 
L 113.339697 273.565397 
L 120.047121 276.79181 
L 126.754545 276.612565 
L 133.46197 274.103133 
L 140.169394 275.357849 
L 146.876818 277.1503 
L 153.584242 275.716339 
L 160.291667 272.669172 
L 166.999091 274.640868 
L 173.706515 273.206907 
L 180.413939 272.669172 
L 187.121364 271.952191 
L 193.828788 272.848417 
L 200.536212 271.593701 
L 207.243636 272.489926 
L 213.951061 272.310681 
L 220.658485 276.79181 
L 227.365909 274.999358 
L 234.073333 276.074829 
L 240.780758 274.999358 
L 247.488182 278.763506 
L 254.195606 278.942751 
L 260.90303 278.942751 
L 267.610455 280.555958 
L 274.317879 279.480487 
L 281.025303 281.989919 
L 287.732727 282.527654 
L 294.440152 283.961615 
L 301.147576 282.706899 
L 307.855 283.42388 
L 314.562424 285.037086 
L 321.269848 285.574821 
L 327.977273 285.754066 
L 334.684697 285.754066 
L 341.392121 284.678596 
L 348.099545 285.933312 
L 354.80697 285.933312 
L 361.514394 285.574821 
L 368.221818 285.037086 
L 374.929242 286.112557 
L 381.636667 286.471047 
L 388.344091 286.829537 
L 395.051515 286.829537 
L 401.758939 286.829537 
L 408.466364 287.367273 
L 415.173788 286.650292 
L 421.881212 287.367273 
L 428.588636 287.188028 
L 435.296061 287.008782 
L 442.003485 287.008782 
L 448.710909 286.829537 
L 455.418333 287.367273 
L 462.125758 287.008782 
L 468.833182 287.367273 
L 475.540606 287.188028 
L 482.24803 287.367273 
L 488.955455 287.188028 
L 495.662879 287.188028 
L 502.370303 287.188028 
L 509.077727 287.188028 
" clip-path="url(#p26976e6abd)" style="fill: none; stroke: #2ca02c; stroke-width: 1.5; stroke-linecap: square"/>
   </g>
   <g id="line2d_18">
    <path d="M 106.632273 265.678611 
L 113.339697 274.461623 
L 120.047121 276.971055 
L 126.754545 274.103133 
L 133.46197 279.121996 
L 140.169394 277.688035 
L 146.876818 274.282378 
L 153.584242 273.206907 
L 160.291667 275.357849 
L 166.999091 273.386152 
L 173.706515 273.027662 
L 180.413939 273.027662 
L 187.121364 275.178603 
L 193.828788 274.999358 
L 200.536212 273.206907 
L 207.243636 271.952191 
L 213.951061 274.461623 
L 220.658485 273.206907 
L 227.365909 275.716339 
L 234.073333 277.1503 
L 240.780758 278.405016 
L 247.488182 278.046526 
L 254.195606 279.659732 
L 260.90303 280.376712 
L 267.610455 282.169164 
L 274.317879 279.480487 
L 281.025303 284.14086 
L 287.732727 281.989919 
L 294.440152 283.065389 
L 301.147576 284.320105 
L 307.855 283.78237 
L 314.562424 284.857841 
L 321.269848 285.395576 
L 327.977273 285.754066 
L 334.684697 285.216331 
L 341.392121 285.754066 
L 348.099545 286.112557 
L 354.80697 285.574821 
L 361.514394 286.650292 
L 368.221818 286.471047 
L 374.929242 285.395576 
L 381.636667 286.650292 
L 388.344091 287.188028 
L 395.051515 286.829537 
L 401.758939 286.829537 
L 408.466364 286.650292 
L 415.173788 287.008782 
L 421.881212 287.008782 
L 428.588636 286.829537 
L 435.296061 287.188028 
L 442.003485 287.188028 
L 448.710909 287.367273 
L 455.418333 287.008782 
L 462.125758 287.008782 
L 468.833182 287.008782 
L 475.540606 287.367273 
L 482.24803 287.188028 
L 488.955455 287.367273 
L 495.662879 287.188028 
L 502.370303 287.367273 
L 509.077727 287.367273 
" clip-path="url(#p26976e6abd)" style="fill: none; stroke: #d62728; stroke-width: 1.5; stroke-linecap: square"/>
   </g>
   <g id="line2d_19">
    <path d="M 106.632273 263.706915 
L 113.339697 273.923887 
L 120.047121 277.1503 
L 126.754545 274.640868 
L 133.46197 274.999358 
L 140.169394 273.206907 
L 146.876818 268.367288 
L 153.584242 266.574837 
L 160.291667 263.88616 
L 166.999091 261.197483 
L 173.706515 258.867296 
L 180.413939 257.433335 
L 187.121364 256.178619 
L 193.828788 257.791825 
L 200.536212 256.357864 
L 207.243636 258.150315 
L 213.951061 254.206922 
L 220.658485 257.25409 
L 227.365909 255.820129 
L 234.073333 259.405031 
L 240.780758 264.961631 
L 247.488182 266.754082 
L 254.195606 268.367288 
L 260.90303 269.980494 
L 267.610455 271.772946 
L 274.317879 273.744642 
L 281.025303 274.999358 
L 287.732727 276.074829 
L 294.440152 278.225771 
L 301.147576 278.763506 
L 307.855 279.659732 
L 314.562424 280.914448 
L 321.269848 280.197467 
L 327.977273 282.169164 
L 334.684697 281.272938 
L 341.392121 284.499351 
L 348.099545 282.886144 
L 354.80697 283.065389 
L 361.514394 283.42388 
L 368.221818 284.320105 
L 374.929242 285.216331 
L 381.636667 284.14086 
L 388.344091 284.499351 
L 395.051515 286.829537 
L 401.758939 285.395576 
L 408.466364 286.471047 
L 415.173788 286.471047 
L 421.881212 286.829537 
L 428.588636 286.112557 
L 435.296061 286.291802 
L 442.003485 286.829537 
L 448.710909 286.471047 
L 455.418333 287.367273 
L 462.125758 287.367273 
L 468.833182 287.188028 
L 475.540606 287.188028 
L 482.24803 287.008782 
L 488.955455 287.188028 
L 495.662879 287.367273 
L 502.370303 287.367273 
L 509.077727 287.367273 
" clip-path="url(#p26976e6abd)" style="fill: none; stroke: #9467bd; stroke-width: 1.5; stroke-linecap: square"/>
   </g>
   <g id="line2d_20">
    <path d="M 106.632273 268.008798 
L 113.339697 276.971055 
L 120.047121 275.537094 
L 126.754545 275.357849 
L 133.46197 277.50879 
L 140.169394 275.178603 
L 146.876818 275.716339 
L 153.584242 277.329545 
L 160.291667 274.999358 
L 166.999091 276.074829 
L 173.706515 275.716339 
L 180.413939 273.744642 
L 187.121364 274.282378 
L 193.828788 273.386152 
L 200.536212 272.848417 
L 207.243636 274.640868 
L 213.951061 276.971055 
L 220.658485 278.225771 
L 227.365909 275.716339 
L 234.073333 277.1503 
L 240.780758 276.612565 
L 247.488182 279.121996 
L 254.195606 278.942751 
L 260.90303 281.093693 
L 267.610455 282.169164 
L 274.317879 281.989919 
L 281.025303 282.169164 
L 287.732727 283.065389 
L 294.440152 284.678596 
L 301.147576 284.320105 
L 307.855 284.678596 
L 314.562424 284.14086 
L 321.269848 285.395576 
L 327.977273 283.78237 
L 334.684697 285.933312 
L 341.392121 285.395576 
L 348.099545 286.291802 
L 354.80697 286.650292 
L 361.514394 286.112557 
L 368.221818 286.650292 
L 374.929242 286.471047 
L 381.636667 286.291802 
L 388.344091 287.008782 
L 395.051515 287.367273 
L 401.758939 287.367273 
L 408.466364 287.008782 
L 415.173788 287.188028 
L 421.881212 287.008782 
L 428.588636 287.367273 
L 435.296061 287.367273 
L 442.003485 287.008782 
L 448.710909 287.188028 
L 455.418333 287.367273 
L 462.125758 287.367273 
L 468.833182 287.367273 
L 475.540606 287.367273 
L 482.24803 287.367273 
L 488.955455 287.367273 
L 495.662879 287.188028 
L 502.370303 287.367273 
L 509.077727 287.367273 
" clip-path="url(#p26976e6abd)" style="fill: none; stroke: #8c564b; stroke-width: 1.5; stroke-linecap: square"/>
   </g>
   <g id="line2d_21">
    <path d="M 106.632273 265.320121 
L 113.339697 270.15974 
L 120.047121 275.537094 
L 126.754545 274.103133 
L 133.46197 272.848417 
L 140.169394 273.565397 
L 146.876818 271.772946 
L 153.584242 270.51823 
L 160.291667 268.725779 
L 166.999091 265.499366 
L 173.706515 266.754082 
L 180.413939 265.678611 
L 187.121364 264.782385 
L 193.828788 264.60314 
L 200.536212 267.650308 
L 207.243636 267.829553 
L 213.951061 267.829553 
L 220.658485 269.442759 
L 227.365909 270.15974 
L 234.073333 271.055965 
L 240.780758 269.263514 
L 247.488182 270.338985 
L 254.195606 273.027662 
L 260.90303 274.282378 
L 267.610455 273.206907 
L 274.317879 277.50879 
L 281.025303 279.301242 
L 287.732727 277.50879 
L 294.440152 280.914448 
L 301.147576 282.886144 
L 307.855 283.065389 
L 314.562424 280.555958 
L 321.269848 282.886144 
L 327.977273 284.499351 
L 334.684697 284.499351 
L 341.392121 284.499351 
L 348.099545 284.857841 
L 354.80697 282.886144 
L 361.514394 285.037086 
L 368.221818 284.857841 
L 374.929242 285.216331 
L 381.636667 285.395576 
L 388.344091 285.754066 
L 395.051515 286.829537 
L 401.758939 286.291802 
L 408.466364 286.650292 
L 415.173788 286.650292 
L 421.881212 287.188028 
L 428.588636 286.471047 
L 435.296061 286.471047 
L 442.003485 287.008782 
L 448.710909 287.188028 
L 455.418333 287.367273 
L 462.125758 287.188028 
L 468.833182 287.367273 
L 475.540606 287.188028 
L 482.24803 287.367273 
L 488.955455 287.188028 
L 495.662879 287.008782 
L 502.370303 287.367273 
L 509.077727 287.367273 
" clip-path="url(#p26976e6abd)" style="fill: none; stroke: #e377c2; stroke-width: 1.5; stroke-linecap: square"/>
   </g>
   <g id="line2d_22">
    <path d="M 106.632273 265.320121 
L 113.339697 272.131436 
L 120.047121 275.537094 
L 126.754545 276.79181 
L 133.46197 276.254074 
L 140.169394 275.716339 
L 146.876818 276.971055 
L 153.584242 276.433319 
L 160.291667 277.86728 
L 166.999091 276.254074 
L 173.706515 277.329545 
L 180.413939 276.79181 
L 187.121364 278.405016 
L 193.828788 276.433319 
L 200.536212 278.942751 
L 207.243636 275.716339 
L 213.951061 279.659732 
L 220.658485 276.433319 
L 227.365909 279.121996 
L 234.073333 280.376712 
L 240.780758 278.225771 
L 247.488182 280.197467 
L 254.195606 282.348409 
L 260.90303 281.452183 
L 267.610455 281.631428 
L 274.317879 281.810673 
L 281.025303 283.961615 
L 287.732727 284.320105 
L 294.440152 283.961615 
L 301.147576 285.933312 
L 307.855 284.857841 
L 314.562424 285.037086 
L 321.269848 285.216331 
L 327.977273 285.395576 
L 334.684697 286.112557 
L 341.392121 285.037086 
L 348.099545 286.829537 
L 354.80697 286.291802 
L 361.514394 286.650292 
L 368.221818 286.471047 
L 374.929242 286.829537 
L 381.636667 287.008782 
L 388.344091 287.008782 
L 395.051515 287.008782 
L 401.758939 287.188028 
L 408.466364 286.650292 
L 415.173788 287.367273 
L 421.881212 287.188028 
L 428.588636 287.008782 
L 435.296061 287.367273 
L 442.003485 287.367273 
L 448.710909 287.367273 
L 455.418333 287.188028 
L 462.125758 287.367273 
L 468.833182 287.188028 
L 475.540606 287.367273 
L 482.24803 287.367273 
L 488.955455 287.367273 
L 495.662879 287.367273 
L 502.370303 287.367273 
L 509.077727 287.367273 
" clip-path="url(#p26976e6abd)" style="fill: none; stroke: #7f7f7f; stroke-width: 1.5; stroke-linecap: square"/>
   </g>
   <g id="patch_3">
    <path d="M 86.51 297.88 
L 86.51 66.6 
" style="fill: none; stroke: #000000; stroke-width: 0.8; stroke-linejoin: miter; stroke-linecap: square"/>
   </g>
   <g id="patch_4">
    <path d="M 529.2 297.88 
L 529.2 66.6 
" style="fill: none; stroke: #000000; stroke-width: 0.8; stroke-linejoin: miter; stroke-linecap: square"/>
   </g>
   <g id="patch_5">
    <path d="M 86.51 297.88 
L 529.2 297.88 
" style="fill: none; stroke: #000000; stroke-width: 0.8; stroke-linejoin: miter; stroke-linecap: square"/>
   </g>
   <g id="patch_6">
    <path d="M 86.51 66.6 
L 529.2 66.6 
" style="fill: none; stroke: #000000; stroke-width: 0.8; stroke-linejoin: miter; stroke-linecap: square"/>
   </g>
   <g id="legend_1">
    <g id="patch_7">
     <path d="M 97.01 59.1 
L 518.7 59.1 
Q 521.7 59.1 521.7 56.1 
L 521.7 13.565625 
Q 521.7 10.565625 518.7 10.565625 
L 97.01 10.565625 
Q 94.01 10.565625 94.01 13.565625 
L 94.01 56.1 
Q 94.01 59.1 97.01 59.1 
z
" style="fill: #ffffff; opacity: 0.8; stroke: #cccccc; stroke-linejoin: miter"/>
    </g>
    <g id="line2d_23">
     <path d="M 100.01 22.713281 
L 115.01 22.713281 
L 130.01 22.713281 
" style="fill: none; stroke: #1f77b4; stroke-width: 1.5; stroke-linecap: square"/>
    </g>
    <g id="text_17">
     <!-- Stra 1 -->
     <g transform="translate(142.01 27.963281)scale(0.15 -0.15)">
      <defs>
       <path id="DejaVuSans-53" d="M 3425 4513 
L 3425 3897 
Q 3066 4069 2747 4153 
Q 2428 4238 2131 4238 
Q 1616 4238 1336 4038 
Q 1056 3838 1056 3469 
Q 1056 3159 1242 3001 
Q 1428 2844 1947 2747 
L 2328 2669 
Q 3034 2534 3370 2195 
Q 3706 1856 3706 1288 
Q 3706 609 3251 259 
Q 2797 -91 1919 -91 
Q 1588 -91 1214 -16 
Q 841 59 441 206 
L 441 856 
Q 825 641 1194 531 
Q 1563 422 1919 422 
Q 2459 422 2753 634 
Q 3047 847 3047 1241 
Q 3047 1584 2836 1778 
Q 2625 1972 2144 2069 
L 1759 2144 
Q 1053 2284 737 2584 
Q 422 2884 422 3419 
Q 422 4038 858 4394 
Q 1294 4750 2059 4750 
Q 2388 4750 2728 4690 
Q 3069 4631 3425 4513 
z
" transform="scale(0.015625)"/>
      </defs>
      <use xlink:href="#DejaVuSans-53"/>
      <use xlink:href="#DejaVuSans-74" x="63.476562"/>
      <use xlink:href="#DejaVuSans-72" x="102.685547"/>
      <use xlink:href="#DejaVuSans-61" x="143.798828"/>
      <use xlink:href="#DejaVuSans-20" x="205.078125"/>
      <use xlink:href="#DejaVuSans-31" x="236.865234"/>
     </g>
    </g>
    <g id="line2d_24">
     <path d="M 100.01 44.730469 
L 115.01 44.730469 
L 130.01 44.730469 
" style="fill: none; stroke: #ff7f0e; stroke-width: 1.5; stroke-linecap: square"/>
    </g>
    <g id="text_18">
     <!-- Stra 2 -->
     <g transform="translate(142.01 49.980469)scale(0.15 -0.15)">
      <use xlink:href="#DejaVuSans-53"/>
      <use xlink:href="#DejaVuSans-74" x="63.476562"/>
      <use xlink:href="#DejaVuSans-72" x="102.685547"/>
      <use xlink:href="#DejaVuSans-61" x="143.798828"/>
      <use xlink:href="#DejaVuSans-20" x="205.078125"/>
      <use xlink:href="#DejaVuSans-32" x="236.865234"/>
     </g>
    </g>
    <g id="line2d_25">
     <path d="M 209.549115 22.713281 
L 224.549115 22.713281 
L 239.549115 22.713281 
" style="fill: none; stroke: #2ca02c; stroke-width: 1.5; stroke-linecap: square"/>
    </g>
    <g id="text_19">
     <!-- Stra 3 -->
     <g transform="translate(251.549115 27.963281)scale(0.15 -0.15)">
      <use xlink:href="#DejaVuSans-53"/>
      <use xlink:href="#DejaVuSans-74" x="63.476562"/>
      <use xlink:href="#DejaVuSans-72" x="102.685547"/>
      <use xlink:href="#DejaVuSans-61" x="143.798828"/>
      <use xlink:href="#DejaVuSans-20" x="205.078125"/>
      <use xlink:href="#DejaVuSans-33" x="236.865234"/>
     </g>
    </g>
    <g id="line2d_26">
     <path d="M 209.549115 44.730469 
L 224.549115 44.730469 
L 239.549115 44.730469 
" style="fill: none; stroke: #d62728; stroke-width: 1.5; stroke-linecap: square"/>
    </g>
    <g id="text_20">
     <!-- Stra 4 -->
     <g transform="translate(251.549115 49.980469)scale(0.15 -0.15)">
      <use xlink:href="#DejaVuSans-53"/>
      <use xlink:href="#DejaVuSans-74" x="63.476562"/>
      <use xlink:href="#DejaVuSans-72" x="102.685547"/>
      <use xlink:href="#DejaVuSans-61" x="143.798828"/>
      <use xlink:href="#DejaVuSans-20" x="205.078125"/>
      <use xlink:href="#DejaVuSans-34" x="236.865234"/>
     </g>
    </g>
    <g id="line2d_27">
     <path d="M 319.088229 22.713281 
L 334.088229 22.713281 
L 349.088229 22.713281 
" style="fill: none; stroke: #9467bd; stroke-width: 1.5; stroke-linecap: square"/>
    </g>
    <g id="text_21">
     <!-- Stra 5 -->
     <g transform="translate(361.088229 27.963281)scale(0.15 -0.15)">
      <use xlink:href="#DejaVuSans-53"/>
      <use xlink:href="#DejaVuSans-74" x="63.476562"/>
      <use xlink:href="#DejaVuSans-72" x="102.685547"/>
      <use xlink:href="#DejaVuSans-61" x="143.798828"/>
      <use xlink:href="#DejaVuSans-20" x="205.078125"/>
      <use xlink:href="#DejaVuSans-35" x="236.865234"/>
     </g>
    </g>
    <g id="line2d_28">
     <path d="M 319.088229 44.730469 
L 334.088229 44.730469 
L 349.088229 44.730469 
" style="fill: none; stroke: #8c564b; stroke-width: 1.5; stroke-linecap: square"/>
    </g>
    <g id="text_22">
     <!-- Stra 6 -->
     <g transform="translate(361.088229 49.980469)scale(0.15 -0.15)">
      <use xlink:href="#DejaVuSans-53"/>
      <use xlink:href="#DejaVuSans-74" x="63.476562"/>
      <use xlink:href="#DejaVuSans-72" x="102.685547"/>
      <use xlink:href="#DejaVuSans-61" x="143.798828"/>
      <use xlink:href="#DejaVuSans-20" x="205.078125"/>
      <use xlink:href="#DejaVuSans-36" x="236.865234"/>
     </g>
    </g>
    <g id="line2d_29">
     <path d="M 428.627344 22.713281 
L 443.627344 22.713281 
L 458.627344 22.713281 
" style="fill: none; stroke: #e377c2; stroke-width: 1.5; stroke-linecap: square"/>
    </g>
    <g id="text_23">
     <!-- Stra 7 -->
     <g transform="translate(470.627344 27.963281)scale(0.15 -0.15)">
      <defs>
       <path id="DejaVuSans-37" d="M 525 4666 
L 3525 4666 
L 3525 4397 
L 1831 0 
L 1172 0 
L 2766 4134 
L 525 4134 
L 525 4666 
z
" transform="scale(0.015625)"/>
      </defs>
      <use xlink:href="#DejaVuSans-53"/>
      <use xlink:href="#DejaVuSans-74" x="63.476562"/>
      <use xlink:href="#DejaVuSans-72" x="102.685547"/>
      <use xlink:href="#DejaVuSans-61" x="143.798828"/>
      <use xlink:href="#DejaVuSans-20" x="205.078125"/>
      <use xlink:href="#DejaVuSans-37" x="236.865234"/>
     </g>
    </g>
    <g id="line2d_30">
     <path d="M 428.627344 44.730469 
L 443.627344 44.730469 
L 458.627344 44.730469 
" style="fill: none; stroke: #7f7f7f; stroke-width: 1.5; stroke-linecap: square"/>
    </g>
    <g id="text_24">
     <!-- Stra 8 -->
     <g transform="translate(470.627344 49.980469)scale(0.15 -0.15)">
      <use xlink:href="#DejaVuSans-53"/>
      <use xlink:href="#DejaVuSans-74" x="63.476562"/>
      <use xlink:href="#DejaVuSans-72" x="102.685547"/>
      <use xlink:href="#DejaVuSans-61" x="143.798828"/>
      <use xlink:href="#DejaVuSans-20" x="205.078125"/>
      <use xlink:href="#DejaVuSans-38" x="236.865234"/>
     </g>
    </g>
   </g>
  </g>
 </g>
 <defs>
  <clipPath id="p26976e6abd">
   <rect x="86.51" y="66.6" width="442.69" height="231.28"/>
  </clipPath>
 </defs>
</svg>
