<?xml version="1.0" encoding="utf-8" standalone="no"?>
<!DOCTYPE svg PUBLIC "-//W3C//DTD SVG 1.1//EN"
  "http://www.w3.org/Graphics/SVG/1.1/DTD/svg11.dtd">
<svg xmlns:xlink="http://www.w3.org/1999/xlink" width="540pt" height="360pt" viewBox="0 0 540 360" xmlns="http://www.w3.org/2000/svg" version="1.1">
 <metadata>
  <rdf:RDF xmlns:dc="http://purl.org/dc/elements/1.1/" xmlns:cc="http://creativecommons.org/ns#" xmlns:rdf="http://www.w3.org/1999/02/22-rdf-syntax-ns#">
   <cc:Work>
    <dc:type rdf:resource="http://purl.org/dc/dcmitype/StillImage"/>
    <dc:date>2024-04-24T21:55:18.490124</dc:date>
    <dc:format>image/svg+xml</dc:format>
    <dc:creator>
     <cc:Agent>
      <dc:title>Matplotlib v3.5.3, https://matplotlib.org/</dc:title>
     </cc:Agent>
    </dc:creator>
   </cc:Work>
  </rdf:RDF>
 </metadata>
 <defs>
  <style type="text/css">*{stroke-linejoin: round; stroke-linecap: butt}</style>
 </defs>
 <g id="figure_1">
  <g id="patch_1">
   <path d="M 0 360 
L 540 360 
L 540 0 
L 0 0 
z
" style="fill: #ffffff"/>
  </g>
  <g id="axes_1">
   <g id="patch_2">
    <path d="M 67.43 297.88 
L 529.2 297.88 
L 529.2 66.6 
L 67.43 66.6 
z
" style="fill: #ffffff"/>
   </g>
   <g id="matplotlib.axis_1">
    <g id="xtick_1">
     <g id="line2d_1">
      <defs>
       <path id="madddac57d8" d="M 0 0 
L 0 3.5 
" style="stroke: #000000; stroke-width: 0.8"/>
      </defs>
      <g>
       <use xlink:href="#madddac57d8" x="88.419545" y="297.88" style="stroke: #000000; stroke-width: 0.8"/>
      </g>
     </g>
     <g id="text_1">
      <!-- 0 -->
      <g transform="translate(82.057045 320.076875)scale(0.2 -0.2)">
       <defs>
        <path id="DejaVuSans-30" d="M 2034 4250 
Q 1547 4250 1301 3770 
Q 1056 3291 1056 2328 
Q 1056 1369 1301 889 
Q 1547 409 2034 409 
Q 2525 409 2770 889 
Q 3016 1369 3016 2328 
Q 3016 3291 2770 3770 
Q 2525 4250 2034 4250 
z
M 2034 4750 
Q 2819 4750 3233 4129 
Q 3647 3509 3647 2328 
Q 3647 1150 3233 529 
Q 2819 -91 2034 -91 
Q 1250 -91 836 529 
Q 422 1150 422 2328 
Q 422 3509 836 4129 
Q 1250 4750 2034 4750 
z
" transform="scale(0.015625)"/>
       </defs>
       <use xlink:href="#DejaVuSans-30"/>
      </g>
     </g>
    </g>
    <g id="xtick_2">
     <g id="line2d_2">
      <g>
       <use xlink:href="#madddac57d8" x="158.384697" y="297.88" style="stroke: #000000; stroke-width: 0.8"/>
      </g>
     </g>
     <g id="text_2">
      <!-- 10 -->
      <g transform="translate(145.659697 320.076875)scale(0.2 -0.2)">
       <defs>
        <path id="DejaVuSans-31" d="M 794 531 
L 1825 531 
L 1825 4091 
L 703 3866 
L 703 4441 
L 1819 4666 
L 2450 4666 
L 2450 531 
L 3481 531 
L 3481 0 
L 794 0 
L 794 531 
z
" transform="scale(0.015625)"/>
       </defs>
       <use xlink:href="#DejaVuSans-31"/>
       <use xlink:href="#DejaVuSans-30" x="63.623047"/>
      </g>
     </g>
    </g>
    <g id="xtick_3">
     <g id="line2d_3">
      <g>
       <use xlink:href="#madddac57d8" x="228.349848" y="297.88" style="stroke: #000000; stroke-width: 0.8"/>
      </g>
     </g>
     <g id="text_3">
      <!-- 20 -->
      <g transform="translate(215.624848 320.076875)scale(0.2 -0.2)">
       <defs>
        <path id="DejaVuSans-32" d="M 1228 531 
L 3431 531 
L 3431 0 
L 469 0 
L 469 531 
Q 828 903 1448 1529 
Q 2069 2156 2228 2338 
Q 2531 2678 2651 2914 
Q 2772 3150 2772 3378 
Q 2772 3750 2511 3984 
Q 2250 4219 1831 4219 
Q 1534 4219 1204 4116 
Q 875 4013 500 3803 
L 500 4441 
Q 881 4594 1212 4672 
Q 1544 4750 1819 4750 
Q 2544 4750 2975 4387 
Q 3406 4025 3406 3419 
Q 3406 3131 3298 2873 
Q 3191 2616 2906 2266 
Q 2828 2175 2409 1742 
Q 1991 1309 1228 531 
z
" transform="scale(0.015625)"/>
       </defs>
       <use xlink:href="#DejaVuSans-32"/>
       <use xlink:href="#DejaVuSans-30" x="63.623047"/>
      </g>
     </g>
    </g>
    <g id="xtick_4">
     <g id="line2d_4">
      <g>
       <use xlink:href="#madddac57d8" x="298.315" y="297.88" style="stroke: #000000; stroke-width: 0.8"/>
      </g>
     </g>
     <g id="text_4">
      <!-- 30 -->
      <g transform="translate(285.59 320.076875)scale(0.2 -0.2)">
       <defs>
        <path id="DejaVuSans-33" d="M 2597 2516 
Q 3050 2419 3304 2112 
Q 3559 1806 3559 1356 
Q 3559 666 3084 287 
Q 2609 -91 1734 -91 
Q 1441 -91 1130 -33 
Q 819 25 488 141 
L 488 750 
Q 750 597 1062 519 
Q 1375 441 1716 441 
Q 2309 441 2620 675 
Q 2931 909 2931 1356 
Q 2931 1769 2642 2001 
Q 2353 2234 1838 2234 
L 1294 2234 
L 1294 2753 
L 1863 2753 
Q 2328 2753 2575 2939 
Q 2822 3125 2822 3475 
Q 2822 3834 2567 4026 
Q 2313 4219 1838 4219 
Q 1578 4219 1281 4162 
Q 984 4106 628 3988 
L 628 4550 
Q 988 4650 1302 4700 
Q 1616 4750 1894 4750 
Q 2613 4750 3031 4423 
Q 3450 4097 3450 3541 
Q 3450 3153 3228 2886 
Q 3006 2619 2597 2516 
z
" transform="scale(0.015625)"/>
       </defs>
       <use xlink:href="#DejaVuSans-33"/>
       <use xlink:href="#DejaVuSans-30" x="63.623047"/>
      </g>
     </g>
    </g>
    <g id="xtick_5">
     <g id="line2d_5">
      <g>
       <use xlink:href="#madddac57d8" x="368.280152" y="297.88" style="stroke: #000000; stroke-width: 0.8"/>
      </g>
     </g>
     <g id="text_5">
      <!-- 40 -->
      <g transform="translate(355.555152 320.076875)scale(0.2 -0.2)">
       <defs>
        <path id="DejaVuSans-34" d="M 2419 4116 
L 825 1625 
L 2419 1625 
L 2419 4116 
z
M 2253 4666 
L 3047 4666 
L 3047 1625 
L 3713 1625 
L 3713 1100 
L 3047 1100 
L 3047 0 
L 2419 0 
L 2419 1100 
L 313 1100 
L 313 1709 
L 2253 4666 
z
" transform="scale(0.015625)"/>
       </defs>
       <use xlink:href="#DejaVuSans-34"/>
       <use xlink:href="#DejaVuSans-30" x="63.623047"/>
      </g>
     </g>
    </g>
    <g id="xtick_6">
     <g id="line2d_6">
      <g>
       <use xlink:href="#madddac57d8" x="438.245303" y="297.88" style="stroke: #000000; stroke-width: 0.8"/>
      </g>
     </g>
     <g id="text_6">
      <!-- 50 -->
      <g transform="translate(425.520303 320.076875)scale(0.2 -0.2)">
       <defs>
        <path id="DejaVuSans-35" d="M 691 4666 
L 3169 4666 
L 3169 4134 
L 1269 4134 
L 1269 2991 
Q 1406 3038 1543 3061 
Q 1681 3084 1819 3084 
Q 2600 3084 3056 2656 
Q 3513 2228 3513 1497 
Q 3513 744 3044 326 
Q 2575 -91 1722 -91 
Q 1428 -91 1123 -41 
Q 819 9 494 109 
L 494 744 
Q 775 591 1075 516 
Q 1375 441 1709 441 
Q 2250 441 2565 725 
Q 2881 1009 2881 1497 
Q 2881 1984 2565 2268 
Q 2250 2553 1709 2553 
Q 1456 2553 1204 2497 
Q 953 2441 691 2322 
L 691 4666 
z
" transform="scale(0.015625)"/>
       </defs>
       <use xlink:href="#DejaVuSans-35"/>
       <use xlink:href="#DejaVuSans-30" x="63.623047"/>
      </g>
     </g>
    </g>
    <g id="xtick_7">
     <g id="line2d_7">
      <g>
       <use xlink:href="#madddac57d8" x="508.210455" y="297.88" style="stroke: #000000; stroke-width: 0.8"/>
      </g>
     </g>
     <g id="text_7">
      <!-- 60 -->
      <g transform="translate(495.485455 320.076875)scale(0.2 -0.2)">
       <defs>
        <path id="DejaVuSans-36" d="M 2113 2584 
Q 1688 2584 1439 2293 
Q 1191 2003 1191 1497 
Q 1191 994 1439 701 
Q 1688 409 2113 409 
Q 2538 409 2786 701 
Q 3034 994 3034 1497 
Q 3034 2003 2786 2293 
Q 2538 2584 2113 2584 
z
M 3366 4563 
L 3366 3988 
Q 3128 4100 2886 4159 
Q 2644 4219 2406 4219 
Q 1781 4219 1451 3797 
Q 1122 3375 1075 2522 
Q 1259 2794 1537 2939 
Q 1816 3084 2150 3084 
Q 2853 3084 3261 2657 
Q 3669 2231 3669 1497 
Q 3669 778 3244 343 
Q 2819 -91 2113 -91 
Q 1303 -91 875 529 
Q 447 1150 447 2328 
Q 447 3434 972 4092 
Q 1497 4750 2381 4750 
Q 2619 4750 2861 4703 
Q 3103 4656 3366 4563 
z
" transform="scale(0.015625)"/>
       </defs>
       <use xlink:href="#DejaVuSans-36"/>
       <use xlink:href="#DejaVuSans-30" x="63.623047"/>
      </g>
     </g>
    </g>
    <g id="text_8">
     <!-- # of games -->
     <g transform="translate(240.360313 343.433125)scale(0.2 -0.2)">
      <defs>
       <path id="DejaVuSans-23" d="M 3272 2816 
L 2363 2816 
L 2100 1772 
L 3016 1772 
L 3272 2816 
z
M 2803 4594 
L 2478 3297 
L 3391 3297 
L 3719 4594 
L 4219 4594 
L 3897 3297 
L 4872 3297 
L 4872 2816 
L 3775 2816 
L 3519 1772 
L 4513 1772 
L 4513 1294 
L 3397 1294 
L 3072 0 
L 2572 0 
L 2894 1294 
L 1978 1294 
L 1656 0 
L 1153 0 
L 1478 1294 
L 494 1294 
L 494 1772 
L 1594 1772 
L 1856 2816 
L 850 2816 
L 850 3297 
L 1978 3297 
L 2297 4594 
L 2803 4594 
z
" transform="scale(0.015625)"/>
       <path id="DejaVuSans-20" transform="scale(0.015625)"/>
       <path id="DejaVuSans-6f" d="M 1959 3097 
Q 1497 3097 1228 2736 
Q 959 2375 959 1747 
Q 959 1119 1226 758 
Q 1494 397 1959 397 
Q 2419 397 2687 759 
Q 2956 1122 2956 1747 
Q 2956 2369 2687 2733 
Q 2419 3097 1959 3097 
z
M 1959 3584 
Q 2709 3584 3137 3096 
Q 3566 2609 3566 1747 
Q 3566 888 3137 398 
Q 2709 -91 1959 -91 
Q 1206 -91 779 398 
Q 353 888 353 1747 
Q 353 2609 779 3096 
Q 1206 3584 1959 3584 
z
" transform="scale(0.015625)"/>
       <path id="DejaVuSans-66" d="M 2375 4863 
L 2375 4384 
L 1825 4384 
Q 1516 4384 1395 4259 
Q 1275 4134 1275 3809 
L 1275 3500 
L 2222 3500 
L 2222 3053 
L 1275 3053 
L 1275 0 
L 697 0 
L 697 3053 
L 147 3053 
L 147 3500 
L 697 3500 
L 697 3744 
Q 697 4328 969 4595 
Q 1241 4863 1831 4863 
L 2375 4863 
z
" transform="scale(0.015625)"/>
       <path id="DejaVuSans-67" d="M 2906 1791 
Q 2906 2416 2648 2759 
Q 2391 3103 1925 3103 
Q 1463 3103 1205 2759 
Q 947 2416 947 1791 
Q 947 1169 1205 825 
Q 1463 481 1925 481 
Q 2391 481 2648 825 
Q 2906 1169 2906 1791 
z
M 3481 434 
Q 3481 -459 3084 -895 
Q 2688 -1331 1869 -1331 
Q 1566 -1331 1297 -1286 
Q 1028 -1241 775 -1147 
L 775 -588 
Q 1028 -725 1275 -790 
Q 1522 -856 1778 -856 
Q 2344 -856 2625 -561 
Q 2906 -266 2906 331 
L 2906 616 
Q 2728 306 2450 153 
Q 2172 0 1784 0 
Q 1141 0 747 490 
Q 353 981 353 1791 
Q 353 2603 747 3093 
Q 1141 3584 1784 3584 
Q 2172 3584 2450 3431 
Q 2728 3278 2906 2969 
L 2906 3500 
L 3481 3500 
L 3481 434 
z
" transform="scale(0.015625)"/>
       <path id="DejaVuSans-61" d="M 2194 1759 
Q 1497 1759 1228 1600 
Q 959 1441 959 1056 
Q 959 750 1161 570 
Q 1363 391 1709 391 
Q 2188 391 2477 730 
Q 2766 1069 2766 1631 
L 2766 1759 
L 2194 1759 
z
M 3341 1997 
L 3341 0 
L 2766 0 
L 2766 531 
Q 2569 213 2275 61 
Q 1981 -91 1556 -91 
Q 1019 -91 701 211 
Q 384 513 384 1019 
Q 384 1609 779 1909 
Q 1175 2209 1959 2209 
L 2766 2209 
L 2766 2266 
Q 2766 2663 2505 2880 
Q 2244 3097 1772 3097 
Q 1472 3097 1187 3025 
Q 903 2953 641 2809 
L 641 3341 
Q 956 3463 1253 3523 
Q 1550 3584 1831 3584 
Q 2591 3584 2966 3190 
Q 3341 2797 3341 1997 
z
" transform="scale(0.015625)"/>
       <path id="DejaVuSans-6d" d="M 3328 2828 
Q 3544 3216 3844 3400 
Q 4144 3584 4550 3584 
Q 5097 3584 5394 3201 
Q 5691 2819 5691 2113 
L 5691 0 
L 5113 0 
L 5113 2094 
Q 5113 2597 4934 2840 
Q 4756 3084 4391 3084 
Q 3944 3084 3684 2787 
Q 3425 2491 3425 1978 
L 3425 0 
L 2847 0 
L 2847 2094 
Q 2847 2600 2669 2842 
Q 2491 3084 2119 3084 
Q 1678 3084 1418 2786 
Q 1159 2488 1159 1978 
L 1159 0 
L 581 0 
L 581 3500 
L 1159 3500 
L 1159 2956 
Q 1356 3278 1631 3431 
Q 1906 3584 2284 3584 
Q 2666 3584 2933 3390 
Q 3200 3197 3328 2828 
z
" transform="scale(0.015625)"/>
       <path id="DejaVuSans-65" d="M 3597 1894 
L 3597 1613 
L 953 1613 
Q 991 1019 1311 708 
Q 1631 397 2203 397 
Q 2534 397 2845 478 
Q 3156 559 3463 722 
L 3463 178 
Q 3153 47 2828 -22 
Q 2503 -91 2169 -91 
Q 1331 -91 842 396 
Q 353 884 353 1716 
Q 353 2575 817 3079 
Q 1281 3584 2069 3584 
Q 2775 3584 3186 3129 
Q 3597 2675 3597 1894 
z
M 3022 2063 
Q 3016 2534 2758 2815 
Q 2500 3097 2075 3097 
Q 1594 3097 1305 2825 
Q 1016 2553 972 2059 
L 3022 2063 
z
" transform="scale(0.015625)"/>
       <path id="DejaVuSans-73" d="M 2834 3397 
L 2834 2853 
Q 2591 2978 2328 3040 
Q 2066 3103 1784 3103 
Q 1356 3103 1142 2972 
Q 928 2841 928 2578 
Q 928 2378 1081 2264 
Q 1234 2150 1697 2047 
L 1894 2003 
Q 2506 1872 2764 1633 
Q 3022 1394 3022 966 
Q 3022 478 2636 193 
Q 2250 -91 1575 -91 
Q 1294 -91 989 -36 
Q 684 19 347 128 
L 347 722 
Q 666 556 975 473 
Q 1284 391 1588 391 
Q 1994 391 2212 530 
Q 2431 669 2431 922 
Q 2431 1156 2273 1281 
Q 2116 1406 1581 1522 
L 1381 1569 
Q 847 1681 609 1914 
Q 372 2147 372 2553 
Q 372 3047 722 3315 
Q 1072 3584 1716 3584 
Q 2034 3584 2315 3537 
Q 2597 3491 2834 3397 
z
" transform="scale(0.015625)"/>
      </defs>
      <use xlink:href="#DejaVuSans-23"/>
      <use xlink:href="#DejaVuSans-20" x="83.789062"/>
      <use xlink:href="#DejaVuSans-6f" x="115.576172"/>
      <use xlink:href="#DejaVuSans-66" x="176.757812"/>
      <use xlink:href="#DejaVuSans-20" x="211.962891"/>
      <use xlink:href="#DejaVuSans-67" x="243.75"/>
      <use xlink:href="#DejaVuSans-61" x="307.226562"/>
      <use xlink:href="#DejaVuSans-6d" x="368.505859"/>
      <use xlink:href="#DejaVuSans-65" x="465.917969"/>
      <use xlink:href="#DejaVuSans-73" x="527.441406"/>
     </g>
    </g>
   </g>
   <g id="matplotlib.axis_2">
    <g id="ytick_1">
     <g id="line2d_8">
      <defs>
       <path id="m4c0c0696fa" d="M 0 0 
L -3.5 0 
" style="stroke: #000000; stroke-width: 0.8"/>
      </defs>
      <g>
       <use xlink:href="#m4c0c0696fa" x="67.43" y="287.371296" style="stroke: #000000; stroke-width: 0.8"/>
      </g>
     </g>
     <g id="text_9">
      <!-- 0.5 -->
      <g transform="translate(28.62375 294.969734)scale(0.2 -0.2)">
       <defs>
        <path id="DejaVuSans-2e" d="M 684 794 
L 1344 794 
L 1344 0 
L 684 0 
L 684 794 
z
" transform="scale(0.015625)"/>
       </defs>
       <use xlink:href="#DejaVuSans-30"/>
       <use xlink:href="#DejaVuSans-2e" x="63.623047"/>
       <use xlink:href="#DejaVuSans-35" x="95.410156"/>
      </g>
     </g>
    </g>
    <g id="ytick_2">
     <g id="line2d_9">
      <g>
       <use xlink:href="#m4c0c0696fa" x="67.43" y="245.319582" style="stroke: #000000; stroke-width: 0.8"/>
      </g>
     </g>
     <g id="text_10">
      <!-- 0.6 -->
      <g transform="translate(28.62375 252.91802)scale(0.2 -0.2)">
       <use xlink:href="#DejaVuSans-30"/>
       <use xlink:href="#DejaVuSans-2e" x="63.623047"/>
       <use xlink:href="#DejaVuSans-36" x="95.410156"/>
      </g>
     </g>
    </g>
    <g id="ytick_3">
     <g id="line2d_10">
      <g>
       <use xlink:href="#m4c0c0696fa" x="67.43" y="203.267869" style="stroke: #000000; stroke-width: 0.8"/>
      </g>
     </g>
     <g id="text_11">
      <!-- 0.7 -->
      <g transform="translate(28.62375 210.866306)scale(0.2 -0.2)">
       <defs>
        <path id="DejaVuSans-37" d="M 525 4666 
L 3525 4666 
L 3525 4397 
L 1831 0 
L 1172 0 
L 2766 4134 
L 525 4134 
L 525 4666 
z
" transform="scale(0.015625)"/>
       </defs>
       <use xlink:href="#DejaVuSans-30"/>
       <use xlink:href="#DejaVuSans-2e" x="63.623047"/>
       <use xlink:href="#DejaVuSans-37" x="95.410156"/>
      </g>
     </g>
    </g>
    <g id="ytick_4">
     <g id="line2d_11">
      <g>
       <use xlink:href="#m4c0c0696fa" x="67.43" y="161.216155" style="stroke: #000000; stroke-width: 0.8"/>
      </g>
     </g>
     <g id="text_12">
      <!-- 0.8 -->
      <g transform="translate(28.62375 168.814592)scale(0.2 -0.2)">
       <defs>
        <path id="DejaVuSans-38" d="M 2034 2216 
Q 1584 2216 1326 1975 
Q 1069 1734 1069 1313 
Q 1069 891 1326 650 
Q 1584 409 2034 409 
Q 2484 409 2743 651 
Q 3003 894 3003 1313 
Q 3003 1734 2745 1975 
Q 2488 2216 2034 2216 
z
M 1403 2484 
Q 997 2584 770 2862 
Q 544 3141 544 3541 
Q 544 4100 942 4425 
Q 1341 4750 2034 4750 
Q 2731 4750 3128 4425 
Q 3525 4100 3525 3541 
Q 3525 3141 3298 2862 
Q 3072 2584 2669 2484 
Q 3125 2378 3379 2068 
Q 3634 1759 3634 1313 
Q 3634 634 3220 271 
Q 2806 -91 2034 -91 
Q 1263 -91 848 271 
Q 434 634 434 1313 
Q 434 1759 690 2068 
Q 947 2378 1403 2484 
z
M 1172 3481 
Q 1172 3119 1398 2916 
Q 1625 2713 2034 2713 
Q 2441 2713 2670 2916 
Q 2900 3119 2900 3481 
Q 2900 3844 2670 4047 
Q 2441 4250 2034 4250 
Q 1625 4250 1398 4047 
Q 1172 3844 1172 3481 
z
" transform="scale(0.015625)"/>
       </defs>
       <use xlink:href="#DejaVuSans-30"/>
       <use xlink:href="#DejaVuSans-2e" x="63.623047"/>
       <use xlink:href="#DejaVuSans-38" x="95.410156"/>
      </g>
     </g>
    </g>
    <g id="ytick_5">
     <g id="line2d_12">
      <g>
       <use xlink:href="#m4c0c0696fa" x="67.43" y="119.164441" style="stroke: #000000; stroke-width: 0.8"/>
      </g>
     </g>
     <g id="text_13">
      <!-- 0.9 -->
      <g transform="translate(28.62375 126.762879)scale(0.2 -0.2)">
       <defs>
        <path id="DejaVuSans-39" d="M 703 97 
L 703 672 
Q 941 559 1184 500 
Q 1428 441 1663 441 
Q 2288 441 2617 861 
Q 2947 1281 2994 2138 
Q 2813 1869 2534 1725 
Q 2256 1581 1919 1581 
Q 1219 1581 811 2004 
Q 403 2428 403 3163 
Q 403 3881 828 4315 
Q 1253 4750 1959 4750 
Q 2769 4750 3195 4129 
Q 3622 3509 3622 2328 
Q 3622 1225 3098 567 
Q 2575 -91 1691 -91 
Q 1453 -91 1209 -44 
Q 966 3 703 97 
z
M 1959 2075 
Q 2384 2075 2632 2365 
Q 2881 2656 2881 3163 
Q 2881 3666 2632 3958 
Q 2384 4250 1959 4250 
Q 1534 4250 1286 3958 
Q 1038 3666 1038 3163 
Q 1038 2656 1286 2365 
Q 1534 2075 1959 2075 
z
" transform="scale(0.015625)"/>
       </defs>
       <use xlink:href="#DejaVuSans-30"/>
       <use xlink:href="#DejaVuSans-2e" x="63.623047"/>
       <use xlink:href="#DejaVuSans-39" x="95.410156"/>
      </g>
     </g>
    </g>
    <g id="ytick_6">
     <g id="line2d_13">
      <g>
       <use xlink:href="#m4c0c0696fa" x="67.43" y="77.112727" style="stroke: #000000; stroke-width: 0.8"/>
      </g>
     </g>
     <g id="text_14">
      <!-- 1.0 -->
      <g transform="translate(28.62375 84.711165)scale(0.2 -0.2)">
       <use xlink:href="#DejaVuSans-31"/>
       <use xlink:href="#DejaVuSans-2e" x="63.623047"/>
       <use xlink:href="#DejaVuSans-30" x="95.410156"/>
      </g>
     </g>
    </g>
    <g id="text_15">
     <!-- defense impact Value -->
     <g transform="translate(21.850833 254.311875)rotate(-90)scale(0.133333 -0.133333)">
      <defs>
       <path id="DejaVuSans-64" d="M 2906 2969 
L 2906 4863 
L 3481 4863 
L 3481 0 
L 2906 0 
L 2906 525 
Q 2725 213 2448 61 
Q 2172 -91 1784 -91 
Q 1150 -91 751 415 
Q 353 922 353 1747 
Q 353 2572 751 3078 
Q 1150 3584 1784 3584 
Q 2172 3584 2448 3432 
Q 2725 3281 2906 2969 
z
M 947 1747 
Q 947 1113 1208 752 
Q 1469 391 1925 391 
Q 2381 391 2643 752 
Q 2906 1113 2906 1747 
Q 2906 2381 2643 2742 
Q 2381 3103 1925 3103 
Q 1469 3103 1208 2742 
Q 947 2381 947 1747 
z
" transform="scale(0.015625)"/>
       <path id="DejaVuSans-6e" d="M 3513 2113 
L 3513 0 
L 2938 0 
L 2938 2094 
Q 2938 2591 2744 2837 
Q 2550 3084 2163 3084 
Q 1697 3084 1428 2787 
Q 1159 2491 1159 1978 
L 1159 0 
L 581 0 
L 581 3500 
L 1159 3500 
L 1159 2956 
Q 1366 3272 1645 3428 
Q 1925 3584 2291 3584 
Q 2894 3584 3203 3211 
Q 3513 2838 3513 2113 
z
" transform="scale(0.015625)"/>
       <path id="DejaVuSans-69" d="M 603 3500 
L 1178 3500 
L 1178 0 
L 603 0 
L 603 3500 
z
M 603 4863 
L 1178 4863 
L 1178 4134 
L 603 4134 
L 603 4863 
z
" transform="scale(0.015625)"/>
       <path id="DejaVuSans-70" d="M 1159 525 
L 1159 -1331 
L 581 -1331 
L 581 3500 
L 1159 3500 
L 1159 2969 
Q 1341 3281 1617 3432 
Q 1894 3584 2278 3584 
Q 2916 3584 3314 3078 
Q 3713 2572 3713 1747 
Q 3713 922 3314 415 
Q 2916 -91 2278 -91 
Q 1894 -91 1617 61 
Q 1341 213 1159 525 
z
M 3116 1747 
Q 3116 2381 2855 2742 
Q 2594 3103 2138 3103 
Q 1681 3103 1420 2742 
Q 1159 2381 1159 1747 
Q 1159 1113 1420 752 
Q 1681 391 2138 391 
Q 2594 391 2855 752 
Q 3116 1113 3116 1747 
z
" transform="scale(0.015625)"/>
       <path id="DejaVuSans-63" d="M 3122 3366 
L 3122 2828 
Q 2878 2963 2633 3030 
Q 2388 3097 2138 3097 
Q 1578 3097 1268 2742 
Q 959 2388 959 1747 
Q 959 1106 1268 751 
Q 1578 397 2138 397 
Q 2388 397 2633 464 
Q 2878 531 3122 666 
L 3122 134 
Q 2881 22 2623 -34 
Q 2366 -91 2075 -91 
Q 1284 -91 818 406 
Q 353 903 353 1747 
Q 353 2603 823 3093 
Q 1294 3584 2113 3584 
Q 2378 3584 2631 3529 
Q 2884 3475 3122 3366 
z
" transform="scale(0.015625)"/>
       <path id="DejaVuSans-74" d="M 1172 4494 
L 1172 3500 
L 2356 3500 
L 2356 3053 
L 1172 3053 
L 1172 1153 
Q 1172 725 1289 603 
Q 1406 481 1766 481 
L 2356 481 
L 2356 0 
L 1766 0 
Q 1100 0 847 248 
Q 594 497 594 1153 
L 594 3053 
L 172 3053 
L 172 3500 
L 594 3500 
L 594 4494 
L 1172 4494 
z
" transform="scale(0.015625)"/>
       <path id="DejaVuSans-56" d="M 1831 0 
L 50 4666 
L 709 4666 
L 2188 738 
L 3669 4666 
L 4325 4666 
L 2547 0 
L 1831 0 
z
" transform="scale(0.015625)"/>
       <path id="DejaVuSans-6c" d="M 603 4863 
L 1178 4863 
L 1178 0 
L 603 0 
L 603 4863 
z
" transform="scale(0.015625)"/>
       <path id="DejaVuSans-75" d="M 544 1381 
L 544 3500 
L 1119 3500 
L 1119 1403 
Q 1119 906 1312 657 
Q 1506 409 1894 409 
Q 2359 409 2629 706 
Q 2900 1003 2900 1516 
L 2900 3500 
L 3475 3500 
L 3475 0 
L 2900 0 
L 2900 538 
Q 2691 219 2414 64 
Q 2138 -91 1772 -91 
Q 1169 -91 856 284 
Q 544 659 544 1381 
z
M 1991 3584 
L 1991 3584 
z
" transform="scale(0.015625)"/>
      </defs>
      <use xlink:href="#DejaVuSans-64"/>
      <use xlink:href="#DejaVuSans-65" x="63.476562"/>
      <use xlink:href="#DejaVuSans-66" x="125"/>
      <use xlink:href="#DejaVuSans-65" x="160.205078"/>
      <use xlink:href="#DejaVuSans-6e" x="221.728516"/>
      <use xlink:href="#DejaVuSans-73" x="285.107422"/>
      <use xlink:href="#DejaVuSans-65" x="337.207031"/>
      <use xlink:href="#DejaVuSans-20" x="398.730469"/>
      <use xlink:href="#DejaVuSans-69" x="430.517578"/>
      <use xlink:href="#DejaVuSans-6d" x="458.300781"/>
      <use xlink:href="#DejaVuSans-70" x="555.712891"/>
      <use xlink:href="#DejaVuSans-61" x="619.189453"/>
      <use xlink:href="#DejaVuSans-63" x="680.46875"/>
      <use xlink:href="#DejaVuSans-74" x="735.449219"/>
      <use xlink:href="#DejaVuSans-20" x="774.658203"/>
      <use xlink:href="#DejaVuSans-56" x="806.445312"/>
      <use xlink:href="#DejaVuSans-61" x="867.103516"/>
      <use xlink:href="#DejaVuSans-6c" x="928.382812"/>
      <use xlink:href="#DejaVuSans-75" x="956.166016"/>
      <use xlink:href="#DejaVuSans-65" x="1019.544922"/>
     </g>
    </g>
   </g>
   <g id="line2d_14">
    <path d="M 88.419545 77.112727 
L 95.416061 77.112727 
L 102.412576 77.546116 
L 109.409091 81.409164 
L 116.405606 86.521658 
L 123.402121 92.700126 
L 130.398636 100.545669 
L 137.395152 108.777637 
L 144.391667 111.822557 
L 151.388182 119.693286 
L 158.384697 120.112507 
L 165.381212 124.107259 
L 172.377727 124.951108 
L 179.374242 122.521632 
L 186.370758 128.228543 
L 193.367273 127.011819 
L 200.363788 129.335788 
L 207.360303 128.019136 
L 214.356818 129.509037 
L 221.353333 127.078348 
L 228.349848 130.042761 
L 235.346364 126.634921 
L 242.342879 124.992885 
L 249.339394 130.372797 
L 256.335909 133.330255 
L 263.332424 133.317655 
L 270.328939 139.454517 
L 277.325455 138.167553 
L 284.32197 135.262616 
L 291.318485 131.46652 
L 298.315 133.116004 
L 305.311515 126.93604 
L 312.30803 131.98879 
L 319.304545 131.148577 
L 326.301061 134.360459 
L 333.297576 125.123585 
L 340.294091 127.098935 
L 347.290606 123.452067 
L 354.287121 116.285185 
L 361.283636 115.299987 
L 368.280152 108.512206 
L 375.276667 109.385405 
L 382.273182 98.878489 
L 389.269697 120.796163 
L 396.266212 110.92948 
L 403.262727 115.150597 
L 410.259242 134.657805 
L 417.255758 125.266954 
L 424.252273 122.557022 
L 431.248788 106.511092 
L 438.245303 134.996052 
L 445.241818 90.658939 
L 452.238333 85.66315 
L 459.234848 80.594857 
L 466.231364 80.594857 
L 473.227879 82.335923 
L 480.224394 77.112727 
L 487.220909 94.703737 
L 494.217424 94.703737 
L 501.213939 77.112727 
L 508.210455 77.112727 
" clip-path="url(#pea949fc321)" style="fill: none; stroke: #1f77b4; stroke-width: 1.5; stroke-linecap: square"/>
   </g>
   <g id="line2d_15">
    <path d="M 88.419545 77.112727 
L 95.416061 77.112727 
L 102.412576 77.499471 
L 109.409091 78.473338 
L 116.405606 81.334374 
L 123.402121 85.608944 
L 130.398636 90.76252 
L 137.395152 94.183157 
L 144.391667 100.123113 
L 151.388182 105.836349 
L 158.384697 110.98109 
L 165.381212 113.528593 
L 172.377727 117.203824 
L 179.374242 116.414646 
L 186.370758 116.702827 
L 193.367273 114.411266 
L 200.363788 115.14847 
L 207.360303 114.37704 
L 214.356818 115.735508 
L 221.353333 112.828384 
L 228.349848 118.737178 
L 235.346364 119.71065 
L 242.342879 121.782454 
L 249.339394 123.150627 
L 256.335909 122.483698 
L 263.332424 122.172636 
L 270.328939 126.676323 
L 277.325455 120.651391 
L 284.32197 122.54523 
L 291.318485 124.395992 
L 298.315 121.209766 
L 305.311515 120.597421 
L 312.30803 121.156589 
L 319.304545 122.090346 
L 326.301061 125.569145 
L 333.297576 126.922357 
L 340.294091 137.251364 
L 347.290606 135.379408 
L 354.287121 124.667185 
L 361.283636 131.515478 
L 368.280152 112.678451 
L 375.276667 122.533309 
L 382.273182 113.407016 
L 389.269697 124.262247 
L 396.266212 123.785472 
L 403.262727 110.804013 
L 410.259242 123.57606 
L 417.255758 123.977678 
L 424.252273 140.528186 
L 431.248788 130.148266 
L 438.245303 142.001535 
L 445.241818 102.750891 
L 452.238333 97.946317 
L 459.234848 97.946317 
L 466.231364 97.946317 
L 473.227879 89.938361 
L 480.224394 89.938361 
L 487.220909 89.938361 
L 494.217424 188.953424 
L 501.213939 286.686549 
L 508.210455 286.686549 
" clip-path="url(#pea949fc321)" style="fill: none; stroke: #ff7f0e; stroke-width: 1.5; stroke-linecap: square"/>
   </g>
   <g id="line2d_16">
    <path d="M 88.419545 77.112727 
L 95.416061 77.112727 
L 102.412576 77.387598 
L 109.409091 78.06505 
L 116.405606 78.710851 
L 123.402121 81.343229 
L 130.398636 82.96755 
L 137.395152 85.342619 
L 144.391667 89.178239 
L 151.388182 91.710953 
L 158.384697 94.696893 
L 165.381212 95.358186 
L 172.377727 98.960026 
L 179.374242 99.028373 
L 186.370758 99.574929 
L 193.367273 100.470168 
L 200.363788 102.562443 
L 207.360303 103.059937 
L 214.356818 104.138626 
L 221.353333 105.904523 
L 228.349848 108.894624 
L 235.346364 108.844044 
L 242.342879 111.320235 
L 249.339394 111.83197 
L 256.335909 111.946127 
L 263.332424 111.40099 
L 270.328939 110.749842 
L 277.325455 108.036578 
L 284.32197 107.206953 
L 291.318485 105.739254 
L 298.315 108.190917 
L 305.311515 110.400945 
L 312.30803 106.185681 
L 319.304545 100.598322 
L 326.301061 103.523491 
L 333.297576 100.839807 
L 340.294091 107.919992 
L 347.290606 109.692142 
L 354.287121 111.751671 
L 361.283636 118.137737 
L 368.280152 123.558044 
L 375.276667 125.435817 
L 382.273182 131.713623 
L 389.269697 129.20317 
L 396.266212 115.747155 
L 403.262727 122.469248 
L 410.259242 117.860584 
L 417.255758 106.186076 
L 424.252273 107.905378 
L 431.248788 123.371168 
L 438.245303 121.247933 
L 445.241818 125.49219 
L 452.238333 85.515773 
L 459.234848 80.594857 
L 466.231364 135.214313 
L 473.227879 89.689426 
L 480.224394 89.689426 
L 487.220909 89.689426 
L 494.217424 89.689426 
L 501.213939 77.112727 
L 508.210455 77.112727 
" clip-path="url(#pea949fc321)" style="fill: none; stroke: #2ca02c; stroke-width: 1.5; stroke-linecap: square"/>
   </g>
   <g id="line2d_17">
    <path d="M 88.419545 77.112727 
L 95.416061 77.112727 
L 102.412576 77.161692 
L 109.409091 77.709221 
L 116.405606 78.538486 
L 123.402121 80.105718 
L 130.398636 82.041916 
L 137.395152 84.312355 
L 144.391667 86.543527 
L 151.388182 88.534497 
L 158.384697 89.95841 
L 165.381212 91.104189 
L 172.377727 93.657218 
L 179.374242 93.212057 
L 186.370758 94.583036 
L 193.367273 95.463379 
L 200.363788 96.364298 
L 207.360303 98.645978 
L 214.356818 98.101346 
L 221.353333 100.107923 
L 228.349848 101.158421 
L 235.346364 101.265319 
L 242.342879 104.430714 
L 249.339394 102.659611 
L 256.335909 104.602045 
L 263.332424 103.901156 
L 270.328939 102.995424 
L 277.325455 106.129915 
L 284.32197 105.955124 
L 291.318485 107.718179 
L 298.315 106.507758 
L 305.311515 103.301399 
L 312.30803 104.261993 
L 319.304545 98.198102 
L 326.301061 98.227699 
L 333.297576 96.13013 
L 340.294091 94.090221 
L 347.290606 91.371091 
L 354.287121 91.506246 
L 361.283636 95.578433 
L 368.280152 96.676932 
L 375.276667 98.867439 
L 382.273182 103.872058 
L 389.269697 111.267161 
L 396.266212 115.18493 
L 403.262727 120.098718 
L 410.259242 121.2411 
L 417.255758 126.982692 
L 424.252273 126.982692 
L 431.248788 131.14322 
L 438.245303 106.31933 
L 445.241818 116.054864 
L 452.238333 132.441545 
L 459.234848 132.441545 
L 466.231364 132.441545 
L 473.227879 77.112727 
L 480.224394 77.112727 
L 487.220909 77.112727 
L 494.217424 77.112727 
L 501.213939 77.112727 
L 508.210455 77.112727 
" clip-path="url(#pea949fc321)" style="fill: none; stroke: #d62728; stroke-width: 1.5; stroke-linecap: square"/>
   </g>
   <g id="line2d_18">
    <path d="M 88.419545 77.112727 
L 95.416061 77.112727 
L 102.412576 77.244708 
L 109.409091 77.281451 
L 116.405606 77.711204 
L 123.402121 77.884542 
L 130.398636 78.25131 
L 137.395152 79.379289 
L 144.391667 80.040655 
L 151.388182 80.054367 
L 158.384697 81.725628 
L 165.381212 82.070807 
L 172.377727 82.446672 
L 179.374242 82.907368 
L 186.370758 83.60959 
L 193.367273 84.256976 
L 200.363788 85.062099 
L 207.360303 85.175177 
L 214.356818 85.60231 
L 221.353333 86.352079 
L 228.349848 86.765049 
L 235.346364 87.796271 
L 242.342879 87.759184 
L 249.339394 88.493931 
L 256.335909 91.260459 
L 263.332424 92.64093 
L 270.328939 93.074792 
L 277.325455 92.51529 
L 284.32197 92.353054 
L 291.318485 92.293881 
L 298.315 92.886751 
L 305.311515 95.057169 
L 312.30803 93.770973 
L 319.304545 95.271716 
L 326.301061 95.877287 
L 333.297576 96.26195 
L 340.294091 95.666941 
L 347.290606 90.370202 
L 354.287121 84.277904 
L 361.283636 84.469324 
L 368.280152 87.370733 
L 375.276667 92.345849 
L 382.273182 92.663238 
L 389.269697 99.015836 
L 396.266212 100.962669 
L 403.262727 110.502646 
L 410.259242 112.88764 
L 417.255758 110.687098 
L 424.252273 110.687098 
L 431.248788 113.739313 
L 438.245303 127.474283 
L 445.241818 144.261468 
L 452.238333 78.29097 
L 459.234848 78.29097 
L 466.231364 78.29097 
L 473.227879 78.880092 
L 480.224394 78.880092 
L 487.220909 78.880092 
L 494.217424 78.880092 
L 501.213939 80.647456 
L 508.210455 80.647456 
" clip-path="url(#pea949fc321)" style="fill: none; stroke: #9467bd; stroke-width: 1.5; stroke-linecap: square"/>
   </g>
   <g id="line2d_19">
    <path d="M 88.419545 77.112727 
L 95.416061 77.112727 
L 102.412576 77.247782 
L 109.409091 78.474103 
L 116.405606 80.600359 
L 123.402121 84.164393 
L 130.398636 86.945196 
L 137.395152 88.691699 
L 144.391667 90.817836 
L 151.388182 93.379845 
L 158.384697 96.065738 
L 165.381212 95.756754 
L 172.377727 98.704872 
L 179.374242 101.430085 
L 186.370758 103.241733 
L 193.367273 103.773381 
L 200.363788 106.193234 
L 207.360303 106.544408 
L 214.356818 104.784087 
L 221.353333 106.731682 
L 228.349848 108.827258 
L 235.346364 107.726164 
L 242.342879 109.243918 
L 249.339394 109.642754 
L 256.335909 110.804122 
L 263.332424 108.872746 
L 270.328939 106.707105 
L 277.325455 103.839172 
L 284.32197 107.436252 
L 291.318485 99.655804 
L 298.315 106.468183 
L 305.311515 104.034205 
L 312.30803 98.147555 
L 319.304545 100.77763 
L 326.301061 107.871324 
L 333.297576 106.096306 
L 340.294091 105.322036 
L 347.290606 108.52035 
L 354.287121 103.553378 
L 361.283636 107.691337 
L 368.280152 109.520875 
L 375.276667 124.938845 
L 382.273182 129.875295 
L 389.269697 123.077351 
L 396.266212 107.363105 
L 403.262727 116.939602 
L 410.259242 109.444616 
L 417.255758 101.708342 
L 424.252273 99.390592 
L 431.248788 105.367688 
L 438.245303 80.922563 
L 445.241818 80.066792 
L 452.238333 97.280191 
L 459.234848 97.280191 
L 466.231364 97.280191 
L 473.227879 89.689426 
L 480.224394 89.689426 
L 487.220909 94.703737 
L 494.217424 188.953424 
L 501.213939 286.686549 
L 508.210455 286.686549 
" clip-path="url(#pea949fc321)" style="fill: none; stroke: #8c564b; stroke-width: 1.5; stroke-linecap: square"/>
   </g>
   <g id="line2d_20">
    <path d="M 88.419545 77.112727 
L 95.416061 77.112727 
L 102.412576 77.112727 
L 109.409091 77.291741 
L 116.405606 78.125774 
L 123.402121 78.309521 
L 130.398636 79.354089 
L 137.395152 80.897866 
L 144.391667 82.046539 
L 151.388182 82.638492 
L 158.384697 84.194908 
L 165.381212 85.071835 
L 172.377727 86.807194 
L 179.374242 88.110981 
L 186.370758 86.184612 
L 193.367273 85.888268 
L 200.363788 88.244986 
L 207.360303 89.613657 
L 214.356818 87.321343 
L 221.353333 89.303741 
L 228.349848 89.675167 
L 235.346364 89.212512 
L 242.342879 90.473223 
L 249.339394 90.773351 
L 256.335909 92.162548 
L 263.332424 91.546618 
L 270.328939 92.532652 
L 277.325455 92.134214 
L 284.32197 90.186017 
L 291.318485 89.605612 
L 298.315 93.180431 
L 305.311515 94.385931 
L 312.30803 90.093969 
L 319.304545 90.330675 
L 326.301061 86.356131 
L 333.297576 92.37433 
L 340.294091 89.531552 
L 347.290606 92.224446 
L 354.287121 92.134222 
L 361.283636 92.356892 
L 368.280152 94.014417 
L 375.276667 100.658783 
L 382.273182 104.172353 
L 389.269697 104.874945 
L 396.266212 89.898468 
L 403.262727 96.726245 
L 410.259242 98.127211 
L 417.255758 93.809581 
L 424.252273 92.074518 
L 431.248788 98.032676 
L 438.245303 93.531027 
L 445.241818 99.003794 
L 452.238333 120.894861 
L 459.234848 120.894861 
L 466.231364 120.894861 
L 473.227879 142.785927 
L 480.224394 77.112727 
L 487.220909 77.112727 
L 494.217424 77.112727 
L 501.213939 77.112727 
L 508.210455 77.112727 
" clip-path="url(#pea949fc321)" style="fill: none; stroke: #e377c2; stroke-width: 1.5; stroke-linecap: square"/>
   </g>
   <g id="line2d_21">
    <path d="M 88.419545 77.112727 
L 95.416061 77.112727 
L 102.412576 77.112727 
L 109.409091 79.793245 
L 116.405606 83.341881 
L 123.402121 90.058323 
L 130.398636 92.894423 
L 137.395152 98.392242 
L 144.391667 103.264135 
L 151.388182 107.980093 
L 158.384697 110.07301 
L 165.381212 112.873449 
L 172.377727 114.007506 
L 179.374242 114.416634 
L 186.370758 118.150449 
L 193.367273 119.499413 
L 200.363788 119.061786 
L 207.360303 118.214772 
L 214.356818 117.816512 
L 221.353333 115.500523 
L 228.349848 119.542477 
L 235.346364 123.75382 
L 242.342879 122.099997 
L 249.339394 124.090793 
L 256.335909 126.145333 
L 263.332424 120.034975 
L 270.328939 115.888655 
L 277.325455 116.36135 
L 284.32197 117.380775 
L 291.318485 116.616745 
L 298.315 126.111619 
L 305.311515 122.771058 
L 312.30803 122.087002 
L 319.304545 127.456595 
L 326.301061 119.177424 
L 333.297576 116.900571 
L 340.294091 118.285931 
L 347.290606 119.685652 
L 354.287121 121.837887 
L 361.283636 118.67108 
L 368.280152 111.966656 
L 375.276667 119.90889 
L 382.273182 111.953813 
L 389.269697 113.847372 
L 396.266212 116.1473 
L 403.262727 121.579366 
L 410.259242 123.06294 
L 417.255758 108.017209 
L 424.252273 107.576976 
L 431.248788 110.346453 
L 438.245303 133.318755 
L 445.241818 152.054098 
L 452.238333 158.012977 
L 459.234848 158.012977 
L 466.231364 147.454737 
L 473.227879 107.363923 
L 480.224394 107.363923 
L 487.220909 107.363923 
L 494.217424 107.363923 
L 501.213939 77.112727 
L 508.210455 287.367273 
" clip-path="url(#pea949fc321)" style="fill: none; stroke: #7f7f7f; stroke-width: 1.5; stroke-linecap: square"/>
   </g>
   <g id="patch_3">
    <path d="M 67.43 297.88 
L 67.43 66.6 
" style="fill: none; stroke: #000000; stroke-width: 0.8; stroke-linejoin: miter; stroke-linecap: square"/>
   </g>
   <g id="patch_4">
    <path d="M 529.2 297.88 
L 529.2 66.6 
" style="fill: none; stroke: #000000; stroke-width: 0.8; stroke-linejoin: miter; stroke-linecap: square"/>
   </g>
   <g id="patch_5">
    <path d="M 67.43 297.88 
L 529.2 297.88 
" style="fill: none; stroke: #000000; stroke-width: 0.8; stroke-linejoin: miter; stroke-linecap: square"/>
   </g>
   <g id="patch_6">
    <path d="M 67.43 66.6 
L 529.2 66.6 
" style="fill: none; stroke: #000000; stroke-width: 0.8; stroke-linejoin: miter; stroke-linecap: square"/>
   </g>
   <g id="legend_1">
    <g id="patch_7">
     <path d="M 77.93 59.1 
L 518.7 59.1 
Q 521.7 59.1 521.7 56.1 
L 521.7 13.565625 
Q 521.7 10.565625 518.7 10.565625 
L 77.93 10.565625 
Q 74.93 10.565625 74.93 13.565625 
L 74.93 56.1 
Q 74.93 59.1 77.93 59.1 
z
" style="fill: #ffffff; opacity: 0.8; stroke: #cccccc; stroke-linejoin: miter"/>
    </g>
    <g id="line2d_22">
     <path d="M 80.93 22.713281 
L 95.93 22.713281 
L 110.93 22.713281 
" style="fill: none; stroke: #1f77b4; stroke-width: 1.5; stroke-linecap: square"/>
    </g>
    <g id="text_16">
     <!-- Stra 1 -->
     <g transform="translate(122.93 27.963281)scale(0.15 -0.15)">
      <defs>
       <path id="DejaVuSans-53" d="M 3425 4513 
L 3425 3897 
Q 3066 4069 2747 4153 
Q 2428 4238 2131 4238 
Q 1616 4238 1336 4038 
Q 1056 3838 1056 3469 
Q 1056 3159 1242 3001 
Q 1428 2844 1947 2747 
L 2328 2669 
Q 3034 2534 3370 2195 
Q 3706 1856 3706 1288 
Q 3706 609 3251 259 
Q 2797 -91 1919 -91 
Q 1588 -91 1214 -16 
Q 841 59 441 206 
L 441 856 
Q 825 641 1194 531 
Q 1563 422 1919 422 
Q 2459 422 2753 634 
Q 3047 847 3047 1241 
Q 3047 1584 2836 1778 
Q 2625 1972 2144 2069 
L 1759 2144 
Q 1053 2284 737 2584 
Q 422 2884 422 3419 
Q 422 4038 858 4394 
Q 1294 4750 2059 4750 
Q 2388 4750 2728 4690 
Q 3069 4631 3425 4513 
z
" transform="scale(0.015625)"/>
       <path id="DejaVuSans-72" d="M 2631 2963 
Q 2534 3019 2420 3045 
Q 2306 3072 2169 3072 
Q 1681 3072 1420 2755 
Q 1159 2438 1159 1844 
L 1159 0 
L 581 0 
L 581 3500 
L 1159 3500 
L 1159 2956 
Q 1341 3275 1631 3429 
Q 1922 3584 2338 3584 
Q 2397 3584 2469 3576 
Q 2541 3569 2628 3553 
L 2631 2963 
z
" transform="scale(0.015625)"/>
      </defs>
      <use xlink:href="#DejaVuSans-53"/>
      <use xlink:href="#DejaVuSans-74" x="63.476562"/>
      <use xlink:href="#DejaVuSans-72" x="102.685547"/>
      <use xlink:href="#DejaVuSans-61" x="143.798828"/>
      <use xlink:href="#DejaVuSans-20" x="205.078125"/>
      <use xlink:href="#DejaVuSans-31" x="236.865234"/>
     </g>
    </g>
    <g id="line2d_23">
     <path d="M 80.93 44.730469 
L 95.93 44.730469 
L 110.93 44.730469 
" style="fill: none; stroke: #ff7f0e; stroke-width: 1.5; stroke-linecap: square"/>
    </g>
    <g id="text_17">
     <!-- Stra 2 -->
     <g transform="translate(122.93 49.980469)scale(0.15 -0.15)">
      <use xlink:href="#DejaVuSans-53"/>
      <use xlink:href="#DejaVuSans-74" x="63.476562"/>
      <use xlink:href="#DejaVuSans-72" x="102.685547"/>
      <use xlink:href="#DejaVuSans-61" x="143.798828"/>
      <use xlink:href="#DejaVuSans-20" x="205.078125"/>
      <use xlink:href="#DejaVuSans-32" x="236.865234"/>
     </g>
    </g>
    <g id="line2d_24">
     <path d="M 196.829115 22.713281 
L 211.829115 22.713281 
L 226.829115 22.713281 
" style="fill: none; stroke: #2ca02c; stroke-width: 1.5; stroke-linecap: square"/>
    </g>
    <g id="text_18">
     <!-- Stra 3 -->
     <g transform="translate(238.829115 27.963281)scale(0.15 -0.15)">
      <use xlink:href="#DejaVuSans-53"/>
      <use xlink:href="#DejaVuSans-74" x="63.476562"/>
      <use xlink:href="#DejaVuSans-72" x="102.685547"/>
      <use xlink:href="#DejaVuSans-61" x="143.798828"/>
      <use xlink:href="#DejaVuSans-20" x="205.078125"/>
      <use xlink:href="#DejaVuSans-33" x="236.865234"/>
     </g>
    </g>
    <g id="line2d_25">
     <path d="M 196.829115 44.730469 
L 211.829115 44.730469 
L 226.829115 44.730469 
" style="fill: none; stroke: #d62728; stroke-width: 1.5; stroke-linecap: square"/>
    </g>
    <g id="text_19">
     <!-- Stra 4 -->
     <g transform="translate(238.829115 49.980469)scale(0.15 -0.15)">
      <use xlink:href="#DejaVuSans-53"/>
      <use xlink:href="#DejaVuSans-74" x="63.476562"/>
      <use xlink:href="#DejaVuSans-72" x="102.685547"/>
      <use xlink:href="#DejaVuSans-61" x="143.798828"/>
      <use xlink:href="#DejaVuSans-20" x="205.078125"/>
      <use xlink:href="#DejaVuSans-34" x="236.865234"/>
     </g>
    </g>
    <g id="line2d_26">
     <path d="M 312.728229 22.713281 
L 327.728229 22.713281 
L 342.728229 22.713281 
" style="fill: none; stroke: #9467bd; stroke-width: 1.5; stroke-linecap: square"/>
    </g>
    <g id="text_20">
     <!-- Stra 5 -->
     <g transform="translate(354.728229 27.963281)scale(0.15 -0.15)">
      <use xlink:href="#DejaVuSans-53"/>
      <use xlink:href="#DejaVuSans-74" x="63.476562"/>
      <use xlink:href="#DejaVuSans-72" x="102.685547"/>
      <use xlink:href="#DejaVuSans-61" x="143.798828"/>
      <use xlink:href="#DejaVuSans-20" x="205.078125"/>
      <use xlink:href="#DejaVuSans-35" x="236.865234"/>
     </g>
    </g>
    <g id="line2d_27">
     <path d="M 312.728229 44.730469 
L 327.728229 44.730469 
L 342.728229 44.730469 
" style="fill: none; stroke: #8c564b; stroke-width: 1.5; stroke-linecap: square"/>
    </g>
    <g id="text_21">
     <!-- Stra 6 -->
     <g transform="translate(354.728229 49.980469)scale(0.15 -0.15)">
      <use xlink:href="#DejaVuSans-53"/>
      <use xlink:href="#DejaVuSans-74" x="63.476562"/>
      <use xlink:href="#DejaVuSans-72" x="102.685547"/>
      <use xlink:href="#DejaVuSans-61" x="143.798828"/>
      <use xlink:href="#DejaVuSans-20" x="205.078125"/>
      <use xlink:href="#DejaVuSans-36" x="236.865234"/>
     </g>
    </g>
    <g id="line2d_28">
     <path d="M 428.627344 22.713281 
L 443.627344 22.713281 
L 458.627344 22.713281 
" style="fill: none; stroke: #e377c2; stroke-width: 1.5; stroke-linecap: square"/>
    </g>
    <g id="text_22">
     <!-- Stra 7 -->
     <g transform="translate(470.627344 27.963281)scale(0.15 -0.15)">
      <use xlink:href="#DejaVuSans-53"/>
      <use xlink:href="#DejaVuSans-74" x="63.476562"/>
      <use xlink:href="#DejaVuSans-72" x="102.685547"/>
      <use xlink:href="#DejaVuSans-61" x="143.798828"/>
      <use xlink:href="#DejaVuSans-20" x="205.078125"/>
      <use xlink:href="#DejaVuSans-37" x="236.865234"/>
     </g>
    </g>
    <g id="line2d_29">
     <path d="M 428.627344 44.730469 
L 443.627344 44.730469 
L 458.627344 44.730469 
" style="fill: none; stroke: #7f7f7f; stroke-width: 1.5; stroke-linecap: square"/>
    </g>
    <g id="text_23">
     <!-- Stra 8 -->
     <g transform="translate(470.627344 49.980469)scale(0.15 -0.15)">
      <use xlink:href="#DejaVuSans-53"/>
      <use xlink:href="#DejaVuSans-74" x="63.476562"/>
      <use xlink:href="#DejaVuSans-72" x="102.685547"/>
      <use xlink:href="#DejaVuSans-61" x="143.798828"/>
      <use xlink:href="#DejaVuSans-20" x="205.078125"/>
      <use xlink:href="#DejaVuSans-38" x="236.865234"/>
     </g>
    </g>
   </g>
  </g>
 </g>
 <defs>
  <clipPath id="pea949fc321">
   <rect x="67.43" y="66.6" width="461.77" height="231.28"/>
  </clipPath>
 </defs>
</svg>
