<?xml version="1.0" encoding="utf-8" standalone="no"?>
<!DOCTYPE svg PUBLIC "-//W3C//DTD SVG 1.1//EN"
  "http://www.w3.org/Graphics/SVG/1.1/DTD/svg11.dtd">
<svg xmlns:xlink="http://www.w3.org/1999/xlink" width="540pt" height="360pt" viewBox="0 0 540 360" xmlns="http://www.w3.org/2000/svg" version="1.1">
 <metadata>
  <rdf:RDF xmlns:dc="http://purl.org/dc/elements/1.1/" xmlns:cc="http://creativecommons.org/ns#" xmlns:rdf="http://www.w3.org/1999/02/22-rdf-syntax-ns#">
   <cc:Work>
    <dc:type rdf:resource="http://purl.org/dc/dcmitype/StillImage"/>
    <dc:date>2024-05-05T16:50:11.748229</dc:date>
    <dc:format>image/svg+xml</dc:format>
    <dc:creator>
     <cc:Agent>
      <dc:title>Matplotlib v3.5.3, https://matplotlib.org/</dc:title>
     </cc:Agent>
    </dc:creator>
   </cc:Work>
  </rdf:RDF>
 </metadata>
 <defs>
  <style type="text/css">*{stroke-linejoin: round; stroke-linecap: butt}</style>
 </defs>
 <g id="figure_1">
  <g id="patch_1">
   <path d="M 0 360 
L 540 360 
L 540 0 
L 0 0 
z
" style="fill: #ffffff"/>
  </g>
  <g id="axes_1">
   <g id="patch_2">
    <path d="M 109.175 297.88 
L 516.465 297.88 
L 516.465 61.992 
L 109.175 61.992 
z
" style="fill: #ffffff"/>
   </g>
   <g id="matplotlib.axis_1">
    <g id="xtick_1">
     <g id="line2d_1">
      <defs>
       <path id="m343f419ec2" d="M 0 0 
L 0 3.5 
" style="stroke: #000000; stroke-width: 0.8"/>
      </defs>
      <g>
       <use xlink:href="#m343f419ec2" x="109.175" y="297.88" style="stroke: #000000; stroke-width: 0.8"/>
      </g>
     </g>
     <g id="text_1">
      <!-- 0 -->
      <g transform="translate(102.8125 320.076875)scale(0.2 -0.2)">
       <defs>
        <path id="DejaVuSans-30" d="M 2034 4250 
Q 1547 4250 1301 3770 
Q 1056 3291 1056 2328 
Q 1056 1369 1301 889 
Q 1547 409 2034 409 
Q 2525 409 2770 889 
Q 3016 1369 3016 2328 
Q 3016 3291 2770 3770 
Q 2525 4250 2034 4250 
z
M 2034 4750 
Q 2819 4750 3233 4129 
Q 3647 3509 3647 2328 
Q 3647 1150 3233 529 
Q 2819 -91 2034 -91 
Q 1250 -91 836 529 
Q 422 1150 422 2328 
Q 422 3509 836 4129 
Q 1250 4750 2034 4750 
z
" transform="scale(0.015625)"/>
       </defs>
       <use xlink:href="#DejaVuSans-30"/>
      </g>
     </g>
    </g>
    <g id="xtick_2">
     <g id="line2d_2">
      <g>
       <use xlink:href="#m343f419ec2" x="177.056667" y="297.88" style="stroke: #000000; stroke-width: 0.8"/>
      </g>
     </g>
     <g id="text_2">
      <!-- 10 -->
      <g transform="translate(164.331667 320.076875)scale(0.2 -0.2)">
       <defs>
        <path id="DejaVuSans-31" d="M 794 531 
L 1825 531 
L 1825 4091 
L 703 3866 
L 703 4441 
L 1819 4666 
L 2450 4666 
L 2450 531 
L 3481 531 
L 3481 0 
L 794 0 
L 794 531 
z
" transform="scale(0.015625)"/>
       </defs>
       <use xlink:href="#DejaVuSans-31"/>
       <use xlink:href="#DejaVuSans-30" x="63.623047"/>
      </g>
     </g>
    </g>
    <g id="xtick_3">
     <g id="line2d_3">
      <g>
       <use xlink:href="#m343f419ec2" x="244.938333" y="297.88" style="stroke: #000000; stroke-width: 0.8"/>
      </g>
     </g>
     <g id="text_3">
      <!-- 20 -->
      <g transform="translate(232.213333 320.076875)scale(0.2 -0.2)">
       <defs>
        <path id="DejaVuSans-32" d="M 1228 531 
L 3431 531 
L 3431 0 
L 469 0 
L 469 531 
Q 828 903 1448 1529 
Q 2069 2156 2228 2338 
Q 2531 2678 2651 2914 
Q 2772 3150 2772 3378 
Q 2772 3750 2511 3984 
Q 2250 4219 1831 4219 
Q 1534 4219 1204 4116 
Q 875 4013 500 3803 
L 500 4441 
Q 881 4594 1212 4672 
Q 1544 4750 1819 4750 
Q 2544 4750 2975 4387 
Q 3406 4025 3406 3419 
Q 3406 3131 3298 2873 
Q 3191 2616 2906 2266 
Q 2828 2175 2409 1742 
Q 1991 1309 1228 531 
z
" transform="scale(0.015625)"/>
       </defs>
       <use xlink:href="#DejaVuSans-32"/>
       <use xlink:href="#DejaVuSans-30" x="63.623047"/>
      </g>
     </g>
    </g>
    <g id="xtick_4">
     <g id="line2d_4">
      <g>
       <use xlink:href="#m343f419ec2" x="312.82" y="297.88" style="stroke: #000000; stroke-width: 0.8"/>
      </g>
     </g>
     <g id="text_4">
      <!-- 30 -->
      <g transform="translate(300.095 320.076875)scale(0.2 -0.2)">
       <defs>
        <path id="DejaVuSans-33" d="M 2597 2516 
Q 3050 2419 3304 2112 
Q 3559 1806 3559 1356 
Q 3559 666 3084 287 
Q 2609 -91 1734 -91 
Q 1441 -91 1130 -33 
Q 819 25 488 141 
L 488 750 
Q 750 597 1062 519 
Q 1375 441 1716 441 
Q 2309 441 2620 675 
Q 2931 909 2931 1356 
Q 2931 1769 2642 2001 
Q 2353 2234 1838 2234 
L 1294 2234 
L 1294 2753 
L 1863 2753 
Q 2328 2753 2575 2939 
Q 2822 3125 2822 3475 
Q 2822 3834 2567 4026 
Q 2313 4219 1838 4219 
Q 1578 4219 1281 4162 
Q 984 4106 628 3988 
L 628 4550 
Q 988 4650 1302 4700 
Q 1616 4750 1894 4750 
Q 2613 4750 3031 4423 
Q 3450 4097 3450 3541 
Q 3450 3153 3228 2886 
Q 3006 2619 2597 2516 
z
" transform="scale(0.015625)"/>
       </defs>
       <use xlink:href="#DejaVuSans-33"/>
       <use xlink:href="#DejaVuSans-30" x="63.623047"/>
      </g>
     </g>
    </g>
    <g id="xtick_5">
     <g id="line2d_5">
      <g>
       <use xlink:href="#m343f419ec2" x="380.701667" y="297.88" style="stroke: #000000; stroke-width: 0.8"/>
      </g>
     </g>
     <g id="text_5">
      <!-- 40 -->
      <g transform="translate(367.976667 320.076875)scale(0.2 -0.2)">
       <defs>
        <path id="DejaVuSans-34" d="M 2419 4116 
L 825 1625 
L 2419 1625 
L 2419 4116 
z
M 2253 4666 
L 3047 4666 
L 3047 1625 
L 3713 1625 
L 3713 1100 
L 3047 1100 
L 3047 0 
L 2419 0 
L 2419 1100 
L 313 1100 
L 313 1709 
L 2253 4666 
z
" transform="scale(0.015625)"/>
       </defs>
       <use xlink:href="#DejaVuSans-34"/>
       <use xlink:href="#DejaVuSans-30" x="63.623047"/>
      </g>
     </g>
    </g>
    <g id="xtick_6">
     <g id="line2d_6">
      <g>
       <use xlink:href="#m343f419ec2" x="448.583333" y="297.88" style="stroke: #000000; stroke-width: 0.8"/>
      </g>
     </g>
     <g id="text_6">
      <!-- 50 -->
      <g transform="translate(435.858333 320.076875)scale(0.2 -0.2)">
       <defs>
        <path id="DejaVuSans-35" d="M 691 4666 
L 3169 4666 
L 3169 4134 
L 1269 4134 
L 1269 2991 
Q 1406 3038 1543 3061 
Q 1681 3084 1819 3084 
Q 2600 3084 3056 2656 
Q 3513 2228 3513 1497 
Q 3513 744 3044 326 
Q 2575 -91 1722 -91 
Q 1428 -91 1123 -41 
Q 819 9 494 109 
L 494 744 
Q 775 591 1075 516 
Q 1375 441 1709 441 
Q 2250 441 2565 725 
Q 2881 1009 2881 1497 
Q 2881 1984 2565 2268 
Q 2250 2553 1709 2553 
Q 1456 2553 1204 2497 
Q 953 2441 691 2322 
L 691 4666 
z
" transform="scale(0.015625)"/>
       </defs>
       <use xlink:href="#DejaVuSans-35"/>
       <use xlink:href="#DejaVuSans-30" x="63.623047"/>
      </g>
     </g>
    </g>
    <g id="xtick_7">
     <g id="line2d_7">
      <g>
       <use xlink:href="#m343f419ec2" x="516.465" y="297.88" style="stroke: #000000; stroke-width: 0.8"/>
      </g>
     </g>
     <g id="text_7">
      <!-- 60 -->
      <g transform="translate(503.74 320.076875)scale(0.2 -0.2)">
       <defs>
        <path id="DejaVuSans-36" d="M 2113 2584 
Q 1688 2584 1439 2293 
Q 1191 2003 1191 1497 
Q 1191 994 1439 701 
Q 1688 409 2113 409 
Q 2538 409 2786 701 
Q 3034 994 3034 1497 
Q 3034 2003 2786 2293 
Q 2538 2584 2113 2584 
z
M 3366 4563 
L 3366 3988 
Q 3128 4100 2886 4159 
Q 2644 4219 2406 4219 
Q 1781 4219 1451 3797 
Q 1122 3375 1075 2522 
Q 1259 2794 1537 2939 
Q 1816 3084 2150 3084 
Q 2853 3084 3261 2657 
Q 3669 2231 3669 1497 
Q 3669 778 3244 343 
Q 2819 -91 2113 -91 
Q 1303 -91 875 529 
Q 447 1150 447 2328 
Q 447 3434 972 4092 
Q 1497 4750 2381 4750 
Q 2619 4750 2861 4703 
Q 3103 4656 3366 4563 
z
" transform="scale(0.015625)"/>
       </defs>
       <use xlink:href="#DejaVuSans-36"/>
       <use xlink:href="#DejaVuSans-30" x="63.623047"/>
      </g>
     </g>
    </g>
    <g id="text_8">
     <!-- number of games -->
     <g transform="translate(224.216875 343.433125)scale(0.2 -0.2)">
      <defs>
       <path id="DejaVuSans-6e" d="M 3513 2113 
L 3513 0 
L 2938 0 
L 2938 2094 
Q 2938 2591 2744 2837 
Q 2550 3084 2163 3084 
Q 1697 3084 1428 2787 
Q 1159 2491 1159 1978 
L 1159 0 
L 581 0 
L 581 3500 
L 1159 3500 
L 1159 2956 
Q 1366 3272 1645 3428 
Q 1925 3584 2291 3584 
Q 2894 3584 3203 3211 
Q 3513 2838 3513 2113 
z
" transform="scale(0.015625)"/>
       <path id="DejaVuSans-75" d="M 544 1381 
L 544 3500 
L 1119 3500 
L 1119 1403 
Q 1119 906 1312 657 
Q 1506 409 1894 409 
Q 2359 409 2629 706 
Q 2900 1003 2900 1516 
L 2900 3500 
L 3475 3500 
L 3475 0 
L 2900 0 
L 2900 538 
Q 2691 219 2414 64 
Q 2138 -91 1772 -91 
Q 1169 -91 856 284 
Q 544 659 544 1381 
z
M 1991 3584 
L 1991 3584 
z
" transform="scale(0.015625)"/>
       <path id="DejaVuSans-6d" d="M 3328 2828 
Q 3544 3216 3844 3400 
Q 4144 3584 4550 3584 
Q 5097 3584 5394 3201 
Q 5691 2819 5691 2113 
L 5691 0 
L 5113 0 
L 5113 2094 
Q 5113 2597 4934 2840 
Q 4756 3084 4391 3084 
Q 3944 3084 3684 2787 
Q 3425 2491 3425 1978 
L 3425 0 
L 2847 0 
L 2847 2094 
Q 2847 2600 2669 2842 
Q 2491 3084 2119 3084 
Q 1678 3084 1418 2786 
Q 1159 2488 1159 1978 
L 1159 0 
L 581 0 
L 581 3500 
L 1159 3500 
L 1159 2956 
Q 1356 3278 1631 3431 
Q 1906 3584 2284 3584 
Q 2666 3584 2933 3390 
Q 3200 3197 3328 2828 
z
" transform="scale(0.015625)"/>
       <path id="DejaVuSans-62" d="M 3116 1747 
Q 3116 2381 2855 2742 
Q 2594 3103 2138 3103 
Q 1681 3103 1420 2742 
Q 1159 2381 1159 1747 
Q 1159 1113 1420 752 
Q 1681 391 2138 391 
Q 2594 391 2855 752 
Q 3116 1113 3116 1747 
z
M 1159 2969 
Q 1341 3281 1617 3432 
Q 1894 3584 2278 3584 
Q 2916 3584 3314 3078 
Q 3713 2572 3713 1747 
Q 3713 922 3314 415 
Q 2916 -91 2278 -91 
Q 1894 -91 1617 61 
Q 1341 213 1159 525 
L 1159 0 
L 581 0 
L 581 4863 
L 1159 4863 
L 1159 2969 
z
" transform="scale(0.015625)"/>
       <path id="DejaVuSans-65" d="M 3597 1894 
L 3597 1613 
L 953 1613 
Q 991 1019 1311 708 
Q 1631 397 2203 397 
Q 2534 397 2845 478 
Q 3156 559 3463 722 
L 3463 178 
Q 3153 47 2828 -22 
Q 2503 -91 2169 -91 
Q 1331 -91 842 396 
Q 353 884 353 1716 
Q 353 2575 817 3079 
Q 1281 3584 2069 3584 
Q 2775 3584 3186 3129 
Q 3597 2675 3597 1894 
z
M 3022 2063 
Q 3016 2534 2758 2815 
Q 2500 3097 2075 3097 
Q 1594 3097 1305 2825 
Q 1016 2553 972 2059 
L 3022 2063 
z
" transform="scale(0.015625)"/>
       <path id="DejaVuSans-72" d="M 2631 2963 
Q 2534 3019 2420 3045 
Q 2306 3072 2169 3072 
Q 1681 3072 1420 2755 
Q 1159 2438 1159 1844 
L 1159 0 
L 581 0 
L 581 3500 
L 1159 3500 
L 1159 2956 
Q 1341 3275 1631 3429 
Q 1922 3584 2338 3584 
Q 2397 3584 2469 3576 
Q 2541 3569 2628 3553 
L 2631 2963 
z
" transform="scale(0.015625)"/>
       <path id="DejaVuSans-20" transform="scale(0.015625)"/>
       <path id="DejaVuSans-6f" d="M 1959 3097 
Q 1497 3097 1228 2736 
Q 959 2375 959 1747 
Q 959 1119 1226 758 
Q 1494 397 1959 397 
Q 2419 397 2687 759 
Q 2956 1122 2956 1747 
Q 2956 2369 2687 2733 
Q 2419 3097 1959 3097 
z
M 1959 3584 
Q 2709 3584 3137 3096 
Q 3566 2609 3566 1747 
Q 3566 888 3137 398 
Q 2709 -91 1959 -91 
Q 1206 -91 779 398 
Q 353 888 353 1747 
Q 353 2609 779 3096 
Q 1206 3584 1959 3584 
z
" transform="scale(0.015625)"/>
       <path id="DejaVuSans-66" d="M 2375 4863 
L 2375 4384 
L 1825 4384 
Q 1516 4384 1395 4259 
Q 1275 4134 1275 3809 
L 1275 3500 
L 2222 3500 
L 2222 3053 
L 1275 3053 
L 1275 0 
L 697 0 
L 697 3053 
L 147 3053 
L 147 3500 
L 697 3500 
L 697 3744 
Q 697 4328 969 4595 
Q 1241 4863 1831 4863 
L 2375 4863 
z
" transform="scale(0.015625)"/>
       <path id="DejaVuSans-67" d="M 2906 1791 
Q 2906 2416 2648 2759 
Q 2391 3103 1925 3103 
Q 1463 3103 1205 2759 
Q 947 2416 947 1791 
Q 947 1169 1205 825 
Q 1463 481 1925 481 
Q 2391 481 2648 825 
Q 2906 1169 2906 1791 
z
M 3481 434 
Q 3481 -459 3084 -895 
Q 2688 -1331 1869 -1331 
Q 1566 -1331 1297 -1286 
Q 1028 -1241 775 -1147 
L 775 -588 
Q 1028 -725 1275 -790 
Q 1522 -856 1778 -856 
Q 2344 -856 2625 -561 
Q 2906 -266 2906 331 
L 2906 616 
Q 2728 306 2450 153 
Q 2172 0 1784 0 
Q 1141 0 747 490 
Q 353 981 353 1791 
Q 353 2603 747 3093 
Q 1141 3584 1784 3584 
Q 2172 3584 2450 3431 
Q 2728 3278 2906 2969 
L 2906 3500 
L 3481 3500 
L 3481 434 
z
" transform="scale(0.015625)"/>
       <path id="DejaVuSans-61" d="M 2194 1759 
Q 1497 1759 1228 1600 
Q 959 1441 959 1056 
Q 959 750 1161 570 
Q 1363 391 1709 391 
Q 2188 391 2477 730 
Q 2766 1069 2766 1631 
L 2766 1759 
L 2194 1759 
z
M 3341 1997 
L 3341 0 
L 2766 0 
L 2766 531 
Q 2569 213 2275 61 
Q 1981 -91 1556 -91 
Q 1019 -91 701 211 
Q 384 513 384 1019 
Q 384 1609 779 1909 
Q 1175 2209 1959 2209 
L 2766 2209 
L 2766 2266 
Q 2766 2663 2505 2880 
Q 2244 3097 1772 3097 
Q 1472 3097 1187 3025 
Q 903 2953 641 2809 
L 641 3341 
Q 956 3463 1253 3523 
Q 1550 3584 1831 3584 
Q 2591 3584 2966 3190 
Q 3341 2797 3341 1997 
z
" transform="scale(0.015625)"/>
       <path id="DejaVuSans-73" d="M 2834 3397 
L 2834 2853 
Q 2591 2978 2328 3040 
Q 2066 3103 1784 3103 
Q 1356 3103 1142 2972 
Q 928 2841 928 2578 
Q 928 2378 1081 2264 
Q 1234 2150 1697 2047 
L 1894 2003 
Q 2506 1872 2764 1633 
Q 3022 1394 3022 966 
Q 3022 478 2636 193 
Q 2250 -91 1575 -91 
Q 1294 -91 989 -36 
Q 684 19 347 128 
L 347 722 
Q 666 556 975 473 
Q 1284 391 1588 391 
Q 1994 391 2212 530 
Q 2431 669 2431 922 
Q 2431 1156 2273 1281 
Q 2116 1406 1581 1522 
L 1381 1569 
Q 847 1681 609 1914 
Q 372 2147 372 2553 
Q 372 3047 722 3315 
Q 1072 3584 1716 3584 
Q 2034 3584 2315 3537 
Q 2597 3491 2834 3397 
z
" transform="scale(0.015625)"/>
      </defs>
      <use xlink:href="#DejaVuSans-6e"/>
      <use xlink:href="#DejaVuSans-75" x="63.378906"/>
      <use xlink:href="#DejaVuSans-6d" x="126.757812"/>
      <use xlink:href="#DejaVuSans-62" x="224.169922"/>
      <use xlink:href="#DejaVuSans-65" x="287.646484"/>
      <use xlink:href="#DejaVuSans-72" x="349.169922"/>
      <use xlink:href="#DejaVuSans-20" x="390.283203"/>
      <use xlink:href="#DejaVuSans-6f" x="422.070312"/>
      <use xlink:href="#DejaVuSans-66" x="483.251953"/>
      <use xlink:href="#DejaVuSans-20" x="518.457031"/>
      <use xlink:href="#DejaVuSans-67" x="550.244141"/>
      <use xlink:href="#DejaVuSans-61" x="613.720703"/>
      <use xlink:href="#DejaVuSans-6d" x="675"/>
      <use xlink:href="#DejaVuSans-65" x="772.412109"/>
      <use xlink:href="#DejaVuSans-73" x="833.935547"/>
     </g>
    </g>
   </g>
   <g id="matplotlib.axis_2">
    <g id="ytick_1">
     <g id="line2d_8">
      <defs>
       <path id="md7d5b58821" d="M 0 0 
L -3.5 0 
" style="stroke: #000000; stroke-width: 0.8"/>
      </defs>
      <g>
       <use xlink:href="#md7d5b58821" x="109.175" y="297.88" style="stroke: #000000; stroke-width: 0.8"/>
      </g>
     </g>
     <g id="text_9">
      <!-- 0.065 -->
      <g transform="translate(44.91875 305.478437)scale(0.2 -0.2)">
       <defs>
        <path id="DejaVuSans-2e" d="M 684 794 
L 1344 794 
L 1344 0 
L 684 0 
L 684 794 
z
" transform="scale(0.015625)"/>
       </defs>
       <use xlink:href="#DejaVuSans-30"/>
       <use xlink:href="#DejaVuSans-2e" x="63.623047"/>
       <use xlink:href="#DejaVuSans-30" x="95.410156"/>
       <use xlink:href="#DejaVuSans-36" x="159.033203"/>
       <use xlink:href="#DejaVuSans-35" x="222.65625"/>
      </g>
     </g>
    </g>
    <g id="ytick_2">
     <g id="line2d_9">
      <g>
       <use xlink:href="#md7d5b58821" x="109.175" y="265.117778" style="stroke: #000000; stroke-width: 0.8"/>
      </g>
     </g>
     <g id="text_10">
      <!-- 0.070 -->
      <g transform="translate(44.91875 272.716215)scale(0.2 -0.2)">
       <defs>
        <path id="DejaVuSans-37" d="M 525 4666 
L 3525 4666 
L 3525 4397 
L 1831 0 
L 1172 0 
L 2766 4134 
L 525 4134 
L 525 4666 
z
" transform="scale(0.015625)"/>
       </defs>
       <use xlink:href="#DejaVuSans-30"/>
       <use xlink:href="#DejaVuSans-2e" x="63.623047"/>
       <use xlink:href="#DejaVuSans-30" x="95.410156"/>
       <use xlink:href="#DejaVuSans-37" x="159.033203"/>
       <use xlink:href="#DejaVuSans-30" x="222.65625"/>
      </g>
     </g>
    </g>
    <g id="ytick_3">
     <g id="line2d_10">
      <g>
       <use xlink:href="#md7d5b58821" x="109.175" y="232.355556" style="stroke: #000000; stroke-width: 0.8"/>
      </g>
     </g>
     <g id="text_11">
      <!-- 0.075 -->
      <g transform="translate(44.91875 239.953993)scale(0.2 -0.2)">
       <use xlink:href="#DejaVuSans-30"/>
       <use xlink:href="#DejaVuSans-2e" x="63.623047"/>
       <use xlink:href="#DejaVuSans-30" x="95.410156"/>
       <use xlink:href="#DejaVuSans-37" x="159.033203"/>
       <use xlink:href="#DejaVuSans-35" x="222.65625"/>
      </g>
     </g>
    </g>
    <g id="ytick_4">
     <g id="line2d_11">
      <g>
       <use xlink:href="#md7d5b58821" x="109.175" y="199.593333" style="stroke: #000000; stroke-width: 0.8"/>
      </g>
     </g>
     <g id="text_12">
      <!-- 0.080 -->
      <g transform="translate(44.91875 207.191771)scale(0.2 -0.2)">
       <defs>
        <path id="DejaVuSans-38" d="M 2034 2216 
Q 1584 2216 1326 1975 
Q 1069 1734 1069 1313 
Q 1069 891 1326 650 
Q 1584 409 2034 409 
Q 2484 409 2743 651 
Q 3003 894 3003 1313 
Q 3003 1734 2745 1975 
Q 2488 2216 2034 2216 
z
M 1403 2484 
Q 997 2584 770 2862 
Q 544 3141 544 3541 
Q 544 4100 942 4425 
Q 1341 4750 2034 4750 
Q 2731 4750 3128 4425 
Q 3525 4100 3525 3541 
Q 3525 3141 3298 2862 
Q 3072 2584 2669 2484 
Q 3125 2378 3379 2068 
Q 3634 1759 3634 1313 
Q 3634 634 3220 271 
Q 2806 -91 2034 -91 
Q 1263 -91 848 271 
Q 434 634 434 1313 
Q 434 1759 690 2068 
Q 947 2378 1403 2484 
z
M 1172 3481 
Q 1172 3119 1398 2916 
Q 1625 2713 2034 2713 
Q 2441 2713 2670 2916 
Q 2900 3119 2900 3481 
Q 2900 3844 2670 4047 
Q 2441 4250 2034 4250 
Q 1625 4250 1398 4047 
Q 1172 3844 1172 3481 
z
" transform="scale(0.015625)"/>
       </defs>
       <use xlink:href="#DejaVuSans-30"/>
       <use xlink:href="#DejaVuSans-2e" x="63.623047"/>
       <use xlink:href="#DejaVuSans-30" x="95.410156"/>
       <use xlink:href="#DejaVuSans-38" x="159.033203"/>
       <use xlink:href="#DejaVuSans-30" x="222.65625"/>
      </g>
     </g>
    </g>
    <g id="ytick_5">
     <g id="line2d_12">
      <g>
       <use xlink:href="#md7d5b58821" x="109.175" y="166.831111" style="stroke: #000000; stroke-width: 0.8"/>
      </g>
     </g>
     <g id="text_13">
      <!-- 0.085 -->
      <g transform="translate(44.91875 174.429549)scale(0.2 -0.2)">
       <use xlink:href="#DejaVuSans-30"/>
       <use xlink:href="#DejaVuSans-2e" x="63.623047"/>
       <use xlink:href="#DejaVuSans-30" x="95.410156"/>
       <use xlink:href="#DejaVuSans-38" x="159.033203"/>
       <use xlink:href="#DejaVuSans-35" x="222.65625"/>
      </g>
     </g>
    </g>
    <g id="ytick_6">
     <g id="line2d_13">
      <g>
       <use xlink:href="#md7d5b58821" x="109.175" y="134.068889" style="stroke: #000000; stroke-width: 0.8"/>
      </g>
     </g>
     <g id="text_14">
      <!-- 0.090 -->
      <g transform="translate(44.91875 141.667326)scale(0.2 -0.2)">
       <defs>
        <path id="DejaVuSans-39" d="M 703 97 
L 703 672 
Q 941 559 1184 500 
Q 1428 441 1663 441 
Q 2288 441 2617 861 
Q 2947 1281 2994 2138 
Q 2813 1869 2534 1725 
Q 2256 1581 1919 1581 
Q 1219 1581 811 2004 
Q 403 2428 403 3163 
Q 403 3881 828 4315 
Q 1253 4750 1959 4750 
Q 2769 4750 3195 4129 
Q 3622 3509 3622 2328 
Q 3622 1225 3098 567 
Q 2575 -91 1691 -91 
Q 1453 -91 1209 -44 
Q 966 3 703 97 
z
M 1959 2075 
Q 2384 2075 2632 2365 
Q 2881 2656 2881 3163 
Q 2881 3666 2632 3958 
Q 2384 4250 1959 4250 
Q 1534 4250 1286 3958 
Q 1038 3666 1038 3163 
Q 1038 2656 1286 2365 
Q 1534 2075 1959 2075 
z
" transform="scale(0.015625)"/>
       </defs>
       <use xlink:href="#DejaVuSans-30"/>
       <use xlink:href="#DejaVuSans-2e" x="63.623047"/>
       <use xlink:href="#DejaVuSans-30" x="95.410156"/>
       <use xlink:href="#DejaVuSans-39" x="159.033203"/>
       <use xlink:href="#DejaVuSans-30" x="222.65625"/>
      </g>
     </g>
    </g>
    <g id="ytick_7">
     <g id="line2d_14">
      <g>
       <use xlink:href="#md7d5b58821" x="109.175" y="101.306667" style="stroke: #000000; stroke-width: 0.8"/>
      </g>
     </g>
     <g id="text_15">
      <!-- 0.095 -->
      <g transform="translate(44.91875 108.905104)scale(0.2 -0.2)">
       <use xlink:href="#DejaVuSans-30"/>
       <use xlink:href="#DejaVuSans-2e" x="63.623047"/>
       <use xlink:href="#DejaVuSans-30" x="95.410156"/>
       <use xlink:href="#DejaVuSans-39" x="159.033203"/>
       <use xlink:href="#DejaVuSans-35" x="222.65625"/>
      </g>
     </g>
    </g>
    <g id="ytick_8">
     <g id="line2d_15">
      <g>
       <use xlink:href="#md7d5b58821" x="109.175" y="68.544444" style="stroke: #000000; stroke-width: 0.8"/>
      </g>
     </g>
     <g id="text_16">
      <!-- 0.100 -->
      <g transform="translate(44.91875 76.142882)scale(0.2 -0.2)">
       <use xlink:href="#DejaVuSans-30"/>
       <use xlink:href="#DejaVuSans-2e" x="63.623047"/>
       <use xlink:href="#DejaVuSans-31" x="95.410156"/>
       <use xlink:href="#DejaVuSans-30" x="159.033203"/>
       <use xlink:href="#DejaVuSans-30" x="222.65625"/>
      </g>
     </g>
    </g>
    <g id="text_17">
     <!-- FPR -->
     <g transform="translate(36.759375 198.665688)rotate(-90)scale(0.2 -0.2)">
      <defs>
       <path id="DejaVuSans-46" d="M 628 4666 
L 3309 4666 
L 3309 4134 
L 1259 4134 
L 1259 2759 
L 3109 2759 
L 3109 2228 
L 1259 2228 
L 1259 0 
L 628 0 
L 628 4666 
z
" transform="scale(0.015625)"/>
       <path id="DejaVuSans-50" d="M 1259 4147 
L 1259 2394 
L 2053 2394 
Q 2494 2394 2734 2622 
Q 2975 2850 2975 3272 
Q 2975 3691 2734 3919 
Q 2494 4147 2053 4147 
L 1259 4147 
z
M 628 4666 
L 2053 4666 
Q 2838 4666 3239 4311 
Q 3641 3956 3641 3272 
Q 3641 2581 3239 2228 
Q 2838 1875 2053 1875 
L 1259 1875 
L 1259 0 
L 628 0 
L 628 4666 
z
" transform="scale(0.015625)"/>
       <path id="DejaVuSans-52" d="M 2841 2188 
Q 3044 2119 3236 1894 
Q 3428 1669 3622 1275 
L 4263 0 
L 3584 0 
L 2988 1197 
Q 2756 1666 2539 1819 
Q 2322 1972 1947 1972 
L 1259 1972 
L 1259 0 
L 628 0 
L 628 4666 
L 2053 4666 
Q 2853 4666 3247 4331 
Q 3641 3997 3641 3322 
Q 3641 2881 3436 2590 
Q 3231 2300 2841 2188 
z
M 1259 4147 
L 1259 2491 
L 2053 2491 
Q 2509 2491 2742 2702 
Q 2975 2913 2975 3322 
Q 2975 3731 2742 3939 
Q 2509 4147 2053 4147 
L 1259 4147 
z
" transform="scale(0.015625)"/>
      </defs>
      <use xlink:href="#DejaVuSans-46"/>
      <use xlink:href="#DejaVuSans-50" x="57.519531"/>
      <use xlink:href="#DejaVuSans-52" x="117.822266"/>
     </g>
    </g>
   </g>
   <g id="line2d_16">
    <path d="M 109.175 68.544444 
L 115.963167 72.644588 
L 122.751333 76.527716 
L 129.5395 80.35703 
L 136.327667 83.829733 
L 143.115833 87.068017 
L 149.904 90.287436 
L 156.692167 93.63647 
L 163.480333 96.709489 
L 170.2685 99.843061 
L 177.056667 102.972044 
L 183.844833 106.354968 
L 190.633 109.685987 
L 197.421167 112.758883 
L 204.209333 116.006388 
L 210.9975 119.046924 
L 217.785667 122.23113 
L 224.573833 125.246487 
L 231.362 128.075859 
L 238.150167 131.098646 
L 244.938333 134.331492 
L 251.7265 137.113106 
L 258.514667 140.020225 
L 265.302833 143.155621 
L 272.091 146.181095 
L 278.879167 148.768186 
L 285.667333 151.827998 
L 292.4555 153.975157 
L 299.243667 156.968207 
L 306.031833 159.834109 
L 312.82 162.81929 
L 319.608167 165.46146 
L 326.396333 167.186215 
L 333.1845 170.051109 
L 339.972667 172.612951 
L 346.760833 174.501873 
L 353.549 177.664931 
L 360.337167 180.235858 
L 367.125333 182.449704 
L 373.9135 185.735005 
L 380.701667 188.936129 
L 387.489833 193.722553 
L 394.278 197.308447 
L 401.066167 198.746504 
L 407.854333 201.22883 
L 414.6425 203.442554 
L 421.430667 204.615055 
L 428.218833 206.482141 
L 435.007 209.178212 
L 441.795167 210.743348 
L 448.583333 216.583596 
L 455.3715 215.678435 
L 462.159667 219.63224 
L 468.947833 222.33735 
L 475.736 223.792866 
L 482.524167 222.170012 
L 489.312333 225.991671 
L 496.1005 227.675238 
L 502.888667 231.415066 
L 509.676833 203.753616 
L 516.465 207.848381 
" clip-path="url(#p6400d87a67)" style="fill: none; stroke: #1f77b4; stroke-width: 3; stroke-linecap: square"/>
    <defs>
     <path id="md7b5b13bd3" d="M 0 -6 
L -5.706339 -1.854102 
L -3.526712 4.854102 
L 3.526712 4.854102 
L 5.706339 -1.854102 
z
" style="stroke: #1f77b4; stroke-linejoin: miter"/>
    </defs>
    <g clip-path="url(#p6400d87a67)">
     <use xlink:href="#md7b5b13bd3" x="109.175" y="68.544444" style="fill: #1f77b4; stroke: #1f77b4; stroke-linejoin: miter"/>
     <use xlink:href="#md7b5b13bd3" x="244.938333" y="134.331492" style="fill: #1f77b4; stroke: #1f77b4; stroke-linejoin: miter"/>
     <use xlink:href="#md7b5b13bd3" x="380.701667" y="188.936129" style="fill: #1f77b4; stroke: #1f77b4; stroke-linejoin: miter"/>
     <use xlink:href="#md7b5b13bd3" x="516.465" y="207.848381" style="fill: #1f77b4; stroke: #1f77b4; stroke-linejoin: miter"/>
    </g>
   </g>
   <g id="line2d_17">
    <path d="M 109.175 68.544444 
L 115.963167 73.299832 
L 122.751333 75.870818 
L 129.5395 78.467009 
L 136.327667 81.06432 
L 143.115833 83.843807 
L 149.904 86.80069 
L 156.692167 89.797913 
L 163.480333 92.733909 
L 170.2685 95.726698 
L 177.056667 98.8815 
L 183.844833 101.946283 
L 190.633 104.907269 
L 197.421167 107.909137 
L 204.209333 111.039875 
L 210.9975 114.056174 
L 217.785667 117.016216 
L 224.573833 119.813145 
L 231.362 122.664698 
L 238.150167 125.155625 
L 244.938333 127.460458 
L 251.7265 130.206078 
L 258.514667 132.947788 
L 265.302833 135.781675 
L 272.091 138.415456 
L 278.879167 141.043774 
L 285.667333 143.657851 
L 292.4555 146.922243 
L 299.243667 149.67278 
L 306.031833 151.753295 
L 312.82 153.782139 
L 319.608167 155.890604 
L 326.396333 157.412253 
L 333.1845 158.568251 
L 339.972667 161.42322 
L 346.760833 163.573069 
L 353.549 165.924994 
L 360.337167 168.772167 
L 367.125333 170.255592 
L 373.9135 170.382207 
L 380.701667 172.274533 
L 387.489833 171.679204 
L 394.278 174.138266 
L 401.066167 176.135305 
L 407.854333 181.414108 
L 414.6425 184.502422 
L 421.430667 184.995731 
L 428.218833 187.933018 
L 435.007 190.375418 
L 441.795167 193.290913 
L 448.583333 200.320904 
L 455.3715 199.626485 
L 462.159667 202.933283 
L 468.947833 182.116567 
L 475.736 182.116567 
L 482.524167 184.41084 
L 489.312333 186.558901 
L 496.1005 190.928944 
L 502.888667 193.009085 
L 509.676833 193.009085 
L 516.465 182.264555 
L 523.253167 186.703279 
L 530.041333 186.703279 
L 536.8295 191.069828 
" clip-path="url(#p6400d87a67)" style="fill: none; stroke-dasharray: 11.1,4.8; stroke-dashoffset: 0; stroke: #ff7f0e; stroke-width: 3"/>
    <defs>
     <path id="m8090cb707e" d="M 0 8.485281 
L 5.091169 0 
L 0 -8.485281 
L -5.091169 0 
z
" style="stroke: #ff7f0e; stroke-linejoin: miter"/>
    </defs>
    <g clip-path="url(#p6400d87a67)">
     <use xlink:href="#m8090cb707e" x="109.175" y="68.544444" style="fill: #ff7f0e; stroke: #ff7f0e; stroke-linejoin: miter"/>
     <use xlink:href="#m8090cb707e" x="244.938333" y="127.460458" style="fill: #ff7f0e; stroke: #ff7f0e; stroke-linejoin: miter"/>
     <use xlink:href="#m8090cb707e" x="380.701667" y="172.274533" style="fill: #ff7f0e; stroke: #ff7f0e; stroke-linejoin: miter"/>
     <use xlink:href="#m8090cb707e" x="516.465" y="182.264555" style="fill: #ff7f0e; stroke: #ff7f0e; stroke-linejoin: miter"/>
    </g>
   </g>
   <g id="line2d_18">
    <path d="M 109.175 68.544444 
L 115.963167 75.032013 
L 122.751333 81.392375 
L 129.5395 85.982703 
L 136.327667 90.562357 
L 143.115833 95.043225 
L 149.904 99.483737 
L 156.692167 103.849536 
L 163.480333 108.028058 
L 170.2685 112.379026 
L 177.056667 116.389211 
L 183.844833 120.409225 
L 190.633 124.393663 
L 197.421167 128.440678 
L 204.209333 132.545334 
L 210.9975 136.457182 
L 217.785667 140.288196 
L 224.573833 143.997761 
L 231.362 147.952282 
L 238.150167 151.798561 
L 244.938333 155.631275 
L 251.7265 159.309188 
L 258.514667 162.917998 
L 265.302833 166.407388 
L 272.091 169.699602 
L 278.879167 173.167899 
L 285.667333 176.728341 
L 292.4555 180.306648 
L 299.243667 184.055274 
L 306.031833 187.239758 
L 312.82 190.576969 
L 319.608167 194.304437 
L 326.396333 197.257964 
L 333.1845 200.355668 
L 339.972667 203.491803 
L 346.760833 206.825518 
L 353.549 210.227829 
L 360.337167 213.29391 
L 367.125333 215.999504 
L 373.9135 218.879739 
L 380.701667 221.998527 
L 387.489833 224.641959 
L 394.278 227.308641 
L 401.066167 230.028518 
L 407.854333 232.732808 
L 414.6425 235.693528 
L 421.430667 238.885214 
L 428.218833 241.093526 
L 435.007 244.377942 
L 441.795167 247.151184 
L 448.583333 250.541057 
L 455.3715 252.390299 
L 462.159667 255.494702 
L 468.947833 257.71496 
L 475.736 260.364301 
L 482.524167 263.330492 
L 489.312333 265.275592 
L 496.1005 267.399705 
L 502.888667 269.646753 
L 509.676833 273.52903 
L 516.465 275.416986 
L 523.253167 279.993331 
L 530.041333 281.743962 
L 536.8295 283.705655 
L 541 285.612974 
" clip-path="url(#p6400d87a67)" style="fill: none; stroke-dasharray: 19.2,4.8,3,4.8; stroke-dashoffset: 0; stroke: #2ca02c; stroke-width: 3"/>
    <defs>
     <path id="m1e138420f9" d="M -0 6 
L 6 -6 
L -6 -6 
z
" style="stroke: #2ca02c; stroke-linejoin: miter"/>
    </defs>
    <g clip-path="url(#p6400d87a67)">
     <use xlink:href="#m1e138420f9" x="109.175" y="68.544444" style="fill: #2ca02c; stroke: #2ca02c; stroke-linejoin: miter"/>
     <use xlink:href="#m1e138420f9" x="244.938333" y="155.631275" style="fill: #2ca02c; stroke: #2ca02c; stroke-linejoin: miter"/>
     <use xlink:href="#m1e138420f9" x="380.701667" y="221.998527" style="fill: #2ca02c; stroke: #2ca02c; stroke-linejoin: miter"/>
     <use xlink:href="#m1e138420f9" x="516.465" y="275.416986" style="fill: #2ca02c; stroke: #2ca02c; stroke-linejoin: miter"/>
     <use xlink:href="#m1e138420f9" x="652.228333" y="319.000978" style="fill: #2ca02c; stroke: #2ca02c; stroke-linejoin: miter"/>
    </g>
   </g>
   <g id="line2d_19">
    <path d="M 109.175 68.544444 
L 115.963167 71.716866 
L 122.751333 78.14223 
L 129.5395 84.30999 
L 136.327667 89.939137 
L 143.115833 95.392595 
L 149.904 100.678592 
L 156.692167 105.839832 
L 163.480333 110.836177 
L 170.2685 115.623867 
L 177.056667 120.090616 
L 183.844833 124.273472 
L 190.633 128.418648 
L 197.421167 132.345528 
L 204.209333 136.287492 
L 210.9975 140.088019 
L 217.785667 143.778264 
L 224.573833 147.410669 
L 231.362 151.137639 
L 238.150167 154.723305 
L 244.938333 158.234272 
L 251.7265 161.878807 
L 258.514667 165.263957 
L 265.302833 168.786191 
L 272.091 172.303929 
L 278.879167 175.837501 
L 285.667333 179.288199 
L 292.4555 182.734838 
L 299.243667 185.843669 
L 306.031833 188.985 
L 312.82 192.270344 
L 319.608167 195.655269 
L 326.396333 198.846475 
L 333.1845 202.437342 
L 339.972667 205.388501 
L 346.760833 208.683276 
L 353.549 211.519993 
L 360.337167 214.522437 
L 367.125333 217.312779 
L 373.9135 220.390785 
L 380.701667 223.449221 
L 387.489833 226.128478 
L 394.278 229.625072 
L 401.066167 232.589689 
L 407.854333 234.818901 
L 414.6425 237.813246 
L 421.430667 240.747045 
L 428.218833 243.222369 
L 435.007 246.181781 
L 441.795167 248.861212 
L 448.583333 250.889548 
L 455.3715 253.367159 
L 462.159667 255.622442 
L 468.947833 258.076862 
L 475.736 260.185173 
L 482.524167 262.487807 
L 489.312333 263.784788 
L 496.1005 266.514253 
L 502.888667 268.907388 
L 509.676833 271.013685 
L 516.465 273.902423 
L 523.253167 276.013696 
L 530.041333 276.813363 
L 536.8295 279.738817 
L 541 280.67777 
" clip-path="url(#p6400d87a67)" style="fill: none; stroke-dasharray: 3,4.95; stroke-dashoffset: 0; stroke: #d62728; stroke-width: 3"/>
    <defs>
     <path id="mcd6a80d166" d="M -6 6 
L 6 -6 
M -6 -6 
L 6 6 
" style="stroke: #d62728"/>
    </defs>
    <g clip-path="url(#p6400d87a67)">
     <use xlink:href="#mcd6a80d166" x="109.175" y="68.544444" style="fill: #d62728; stroke: #d62728"/>
     <use xlink:href="#mcd6a80d166" x="244.938333" y="158.234272" style="fill: #d62728; stroke: #d62728"/>
     <use xlink:href="#mcd6a80d166" x="380.701667" y="223.449221" style="fill: #d62728; stroke: #d62728"/>
     <use xlink:href="#mcd6a80d166" x="516.465" y="273.902423" style="fill: #d62728; stroke: #d62728"/>
     <use xlink:href="#mcd6a80d166" x="652.228333" y="324.234738" style="fill: #d62728; stroke: #d62728"/>
    </g>
   </g>
   <g id="line2d_20">
    <path d="M 109.175 68.544444 
L 115.963167 72.618638 
L 122.751333 76.622867 
L 129.5395 80.701893 
L 136.327667 84.619114 
L 143.115833 88.60828 
L 149.904 92.58556 
L 156.692167 96.328839 
L 163.480333 100.077317 
L 170.2685 103.963176 
L 177.056667 107.812893 
L 183.844833 111.56245 
L 190.633 115.393356 
L 197.421167 119.020324 
L 204.209333 123.111969 
L 210.9975 126.88413 
L 217.785667 130.697283 
L 224.573833 134.497121 
L 231.362 138.161712 
L 238.150167 141.713638 
L 244.938333 145.409969 
L 251.7265 148.89384 
L 258.514667 152.315246 
L 265.302833 155.704118 
L 272.091 159.300915 
L 278.879167 163.355755 
L 285.667333 166.11305 
L 292.4555 169.407931 
L 299.243667 172.99334 
L 306.031833 177.061699 
L 312.82 178.673607 
L 319.608167 180.312727 
L 326.396333 181.794676 
L 333.1845 184.308303 
L 339.972667 187.098654 
L 346.760833 190.25987 
L 353.549 191.630988 
L 360.337167 197.035134 
L 367.125333 200.743571 
L 373.9135 205.087379 
L 380.701667 204.627701 
L 387.489833 208.712732 
L 394.278 210.5361 
L 401.066167 212.076221 
L 407.854333 203.403865 
L 414.6425 223.60229 
L 421.430667 227.391582 
L 428.218833 231.123893 
L 435.007 234.800498 
" clip-path="url(#p6400d87a67)" style="fill: none; stroke: #9467bd; stroke-width: 3; stroke-linecap: square"/>
    <defs>
     <path id="m7020b85768" d="M -6 6 
L 6 6 
L 6 -6 
L -6 -6 
z
" style="stroke: #9467bd; stroke-linejoin: miter"/>
    </defs>
    <g clip-path="url(#p6400d87a67)">
     <use xlink:href="#m7020b85768" x="109.175" y="68.544444" style="fill: #9467bd; stroke: #9467bd; stroke-linejoin: miter"/>
     <use xlink:href="#m7020b85768" x="244.938333" y="145.409969" style="fill: #9467bd; stroke: #9467bd; stroke-linejoin: miter"/>
     <use xlink:href="#m7020b85768" x="380.701667" y="204.627701" style="fill: #9467bd; stroke: #9467bd; stroke-linejoin: miter"/>
    </g>
   </g>
   <g id="line2d_21">
    <path d="M 109.175 68.544444 
L 115.963167 68.544444 
L 122.751333 68.544444 
L 129.5395 68.544444 
L 136.327667 68.544444 
L 143.115833 68.544444 
L 149.904 68.544444 
" clip-path="url(#p6400d87a67)" style="fill: none; stroke-dasharray: 11.1,4.8; stroke-dashoffset: 0; stroke: #8c564b; stroke-width: 3"/>
    <defs>
     <path id="m9f205bd0a7" d="M 0 -6 
L -1.347084 -1.854102 
L -5.706339 -1.854102 
L -2.179628 0.708204 
L -3.526712 4.854102 
L -0 2.291796 
L 3.526712 4.854102 
L 2.179628 0.708204 
L 5.706339 -1.854102 
L 1.347084 -1.854102 
z
" style="stroke: #8c564b; stroke-linejoin: bevel"/>
    </defs>
    <g clip-path="url(#p6400d87a67)">
     <use xlink:href="#m9f205bd0a7" x="109.175" y="68.544444" style="fill: #8c564b; stroke: #8c564b; stroke-linejoin: bevel"/>
    </g>
   </g>
   <g id="line2d_22">
    <path d="M 109.175 68.544444 
L 115.963167 68.544444 
L 122.751333 68.544444 
L 129.5395 68.544444 
L 136.327667 68.544444 
L 143.115833 68.544444 
" clip-path="url(#p6400d87a67)" style="fill: none; stroke-dasharray: 19.2,4.8,3,4.8; stroke-dashoffset: 0; stroke: #e377c2; stroke-width: 3"/>
    <defs>
     <path id="m43466c1fce" d="M 0 0 
L 0 6 
M 0 0 
L 4.8 -3 
M 0 0 
L -4.8 -3 
" style="stroke: #e377c2"/>
    </defs>
    <g clip-path="url(#p6400d87a67)">
     <use xlink:href="#m43466c1fce" x="109.175" y="68.544444" style="fill: #e377c2; stroke: #e377c2"/>
    </g>
   </g>
   <g id="line2d_23">
    <path d="M 109.175 68.544444 
L 115.963167 68.544444 
L 122.751333 68.544444 
L 129.5395 68.544444 
L 136.327667 68.544444 
L 143.115833 68.544444 
L 149.904 68.544444 
" clip-path="url(#p6400d87a67)" style="fill: none; stroke-dasharray: 3,4.95; stroke-dashoffset: 0; stroke: #7f7f7f; stroke-width: 3"/>
    <defs>
     <path id="m66f4a0a7e4" d="M 0 3 
C 0.795609 3 1.55874 2.683901 2.12132 2.12132 
C 2.683901 1.55874 3 0.795609 3 0 
C 3 -0.795609 2.683901 -1.55874 2.12132 -2.12132 
C 1.55874 -2.683901 0.795609 -3 0 -3 
C -0.795609 -3 -1.55874 -2.683901 -2.12132 -2.12132 
C -2.683901 -1.55874 -3 -0.795609 -3 0 
C -3 0.795609 -2.683901 1.55874 -2.12132 2.12132 
C -1.55874 2.683901 -0.795609 3 0 3 
z
" style="stroke: #7f7f7f"/>
    </defs>
    <g clip-path="url(#p6400d87a67)">
     <use xlink:href="#m66f4a0a7e4" x="109.175" y="68.544444" style="fill: #7f7f7f; stroke: #7f7f7f"/>
    </g>
   </g>
   <g id="patch_3">
    <path d="M 109.175 297.88 
L 109.175 61.992 
" style="fill: none; stroke: #000000; stroke-width: 0.8; stroke-linejoin: miter; stroke-linecap: square"/>
   </g>
   <g id="patch_4">
    <path d="M 516.465 297.88 
L 516.465 61.992 
" style="fill: none; stroke: #000000; stroke-width: 0.8; stroke-linejoin: miter; stroke-linecap: square"/>
   </g>
   <g id="patch_5">
    <path d="M 109.175 297.88 
L 516.465 297.88 
" style="fill: none; stroke: #000000; stroke-width: 0.8; stroke-linejoin: miter; stroke-linecap: square"/>
   </g>
   <g id="patch_6">
    <path d="M 109.175 61.992 
L 516.465 61.992 
" style="fill: none; stroke: #000000; stroke-width: 0.8; stroke-linejoin: miter; stroke-linecap: square"/>
   </g>
   <g id="legend_1">
    <g id="patch_7">
     <path d="M 16.1025 53.38312 
L 507.715 53.38312 
Q 510.215 53.38312 510.215 50.88312 
L 510.215 15.437808 
Q 510.215 12.937808 507.715 12.937808 
L 16.1025 12.937808 
Q 13.6025 12.937808 13.6025 15.437808 
L 13.6025 50.88312 
Q 13.6025 53.38312 16.1025 53.38312 
z
" style="fill: #ffffff; opacity: 0.8; stroke: #cccccc; stroke-linejoin: miter"/>
    </g>
    <g id="line2d_24">
     <path d="M 18.6025 23.060854 
L 31.1025 23.060854 
L 43.6025 23.060854 
" style="fill: none; stroke: #1f77b4; stroke-width: 3; stroke-linecap: square"/>
     <g>
      <use xlink:href="#md7b5b13bd3" x="31.1025" y="23.060854" style="fill: #1f77b4; stroke: #1f77b4; stroke-linejoin: miter"/>
     </g>
    </g>
    <g id="text_18">
     <!-- HG-DD-IPI -->
     <g transform="translate(53.6025 27.435854)scale(0.125 -0.125)">
      <defs>
       <path id="DejaVuSans-48" d="M 628 4666 
L 1259 4666 
L 1259 2753 
L 3553 2753 
L 3553 4666 
L 4184 4666 
L 4184 0 
L 3553 0 
L 3553 2222 
L 1259 2222 
L 1259 0 
L 628 0 
L 628 4666 
z
" transform="scale(0.015625)"/>
       <path id="DejaVuSans-47" d="M 3809 666 
L 3809 1919 
L 2778 1919 
L 2778 2438 
L 4434 2438 
L 4434 434 
Q 4069 175 3628 42 
Q 3188 -91 2688 -91 
Q 1594 -91 976 548 
Q 359 1188 359 2328 
Q 359 3472 976 4111 
Q 1594 4750 2688 4750 
Q 3144 4750 3555 4637 
Q 3966 4525 4313 4306 
L 4313 3634 
Q 3963 3931 3569 4081 
Q 3175 4231 2741 4231 
Q 1884 4231 1454 3753 
Q 1025 3275 1025 2328 
Q 1025 1384 1454 906 
Q 1884 428 2741 428 
Q 3075 428 3337 486 
Q 3600 544 3809 666 
z
" transform="scale(0.015625)"/>
       <path id="DejaVuSans-2d" d="M 313 2009 
L 1997 2009 
L 1997 1497 
L 313 1497 
L 313 2009 
z
" transform="scale(0.015625)"/>
       <path id="DejaVuSans-44" d="M 1259 4147 
L 1259 519 
L 2022 519 
Q 2988 519 3436 956 
Q 3884 1394 3884 2338 
Q 3884 3275 3436 3711 
Q 2988 4147 2022 4147 
L 1259 4147 
z
M 628 4666 
L 1925 4666 
Q 3281 4666 3915 4102 
Q 4550 3538 4550 2338 
Q 4550 1131 3912 565 
Q 3275 0 1925 0 
L 628 0 
L 628 4666 
z
" transform="scale(0.015625)"/>
       <path id="DejaVuSans-49" d="M 628 4666 
L 1259 4666 
L 1259 0 
L 628 0 
L 628 4666 
z
" transform="scale(0.015625)"/>
      </defs>
      <use xlink:href="#DejaVuSans-48"/>
      <use xlink:href="#DejaVuSans-47" x="75.195312"/>
      <use xlink:href="#DejaVuSans-2d" x="152.685547"/>
      <use xlink:href="#DejaVuSans-44" x="188.769531"/>
      <use xlink:href="#DejaVuSans-44" x="265.771484"/>
      <use xlink:href="#DejaVuSans-2d" x="342.773438"/>
      <use xlink:href="#DejaVuSans-49" x="378.857422"/>
      <use xlink:href="#DejaVuSans-50" x="408.349609"/>
      <use xlink:href="#DejaVuSans-49" x="468.652344"/>
     </g>
    </g>
    <g id="line2d_25">
     <path d="M 18.6025 41.408511 
L 31.1025 41.408511 
L 43.6025 41.408511 
" style="fill: none; stroke-dasharray: 11.1,4.8; stroke-dashoffset: 0; stroke: #ff7f0e; stroke-width: 3"/>
     <g>
      <use xlink:href="#m8090cb707e" x="31.1025" y="41.408511" style="fill: #ff7f0e; stroke: #ff7f0e; stroke-linejoin: miter"/>
     </g>
    </g>
    <g id="text_19">
     <!-- G-DD-PI -->
     <g transform="translate(53.6025 45.783511)scale(0.125 -0.125)">
      <use xlink:href="#DejaVuSans-47"/>
      <use xlink:href="#DejaVuSans-2d" x="77.490234"/>
      <use xlink:href="#DejaVuSans-44" x="113.574219"/>
      <use xlink:href="#DejaVuSans-44" x="190.576172"/>
      <use xlink:href="#DejaVuSans-2d" x="267.578125"/>
      <use xlink:href="#DejaVuSans-50" x="303.662109"/>
      <use xlink:href="#DejaVuSans-49" x="363.964844"/>
     </g>
    </g>
    <g id="line2d_26">
     <path d="M 122.128281 23.060854 
L 134.628281 23.060854 
L 147.128281 23.060854 
" style="fill: none; stroke-dasharray: 19.2,4.8,3,4.8; stroke-dashoffset: 0; stroke: #2ca02c; stroke-width: 3"/>
     <g>
      <use xlink:href="#m1e138420f9" x="134.628281" y="23.060854" style="fill: #2ca02c; stroke: #2ca02c; stroke-linejoin: miter"/>
     </g>
    </g>
    <g id="text_20">
     <!-- HG-DD-ML-IPI -->
     <g transform="translate(157.128281 27.435854)scale(0.125 -0.125)">
      <defs>
       <path id="DejaVuSans-4d" d="M 628 4666 
L 1569 4666 
L 2759 1491 
L 3956 4666 
L 4897 4666 
L 4897 0 
L 4281 0 
L 4281 4097 
L 3078 897 
L 2444 897 
L 1241 4097 
L 1241 0 
L 628 0 
L 628 4666 
z
" transform="scale(0.015625)"/>
       <path id="DejaVuSans-4c" d="M 628 4666 
L 1259 4666 
L 1259 531 
L 3531 531 
L 3531 0 
L 628 0 
L 628 4666 
z
" transform="scale(0.015625)"/>
      </defs>
      <use xlink:href="#DejaVuSans-48"/>
      <use xlink:href="#DejaVuSans-47" x="75.195312"/>
      <use xlink:href="#DejaVuSans-2d" x="152.685547"/>
      <use xlink:href="#DejaVuSans-44" x="188.769531"/>
      <use xlink:href="#DejaVuSans-44" x="265.771484"/>
      <use xlink:href="#DejaVuSans-2d" x="342.773438"/>
      <use xlink:href="#DejaVuSans-4d" x="378.857422"/>
      <use xlink:href="#DejaVuSans-4c" x="465.136719"/>
      <use xlink:href="#DejaVuSans-2d" x="519.099609"/>
      <use xlink:href="#DejaVuSans-49" x="555.183594"/>
      <use xlink:href="#DejaVuSans-50" x="584.675781"/>
      <use xlink:href="#DejaVuSans-49" x="644.978516"/>
     </g>
    </g>
    <g id="line2d_27">
     <path d="M 122.128281 41.408511 
L 134.628281 41.408511 
L 147.128281 41.408511 
" style="fill: none; stroke-dasharray: 3,4.95; stroke-dashoffset: 0; stroke: #d62728; stroke-width: 3"/>
     <g>
      <use xlink:href="#mcd6a80d166" x="134.628281" y="41.408511" style="fill: #d62728; stroke: #d62728"/>
     </g>
    </g>
    <g id="text_21">
     <!-- G-DD-ML-PI -->
     <g transform="translate(157.128281 45.783511)scale(0.125 -0.125)">
      <use xlink:href="#DejaVuSans-47"/>
      <use xlink:href="#DejaVuSans-2d" x="77.490234"/>
      <use xlink:href="#DejaVuSans-44" x="113.574219"/>
      <use xlink:href="#DejaVuSans-44" x="190.576172"/>
      <use xlink:href="#DejaVuSans-2d" x="267.578125"/>
      <use xlink:href="#DejaVuSans-4d" x="303.662109"/>
      <use xlink:href="#DejaVuSans-4c" x="389.941406"/>
      <use xlink:href="#DejaVuSans-2d" x="443.904297"/>
      <use xlink:href="#DejaVuSans-50" x="479.988281"/>
      <use xlink:href="#DejaVuSans-49" x="540.291016"/>
     </g>
    </g>
    <g id="line2d_28">
     <path d="M 247.695078 23.060854 
L 260.195078 23.060854 
L 272.695078 23.060854 
" style="fill: none; stroke: #9467bd; stroke-width: 3; stroke-linecap: square"/>
     <g>
      <use xlink:href="#m7020b85768" x="260.195078" y="23.060854" style="fill: #9467bd; stroke: #9467bd; stroke-linejoin: miter"/>
     </g>
    </g>
    <g id="text_22">
     <!-- DD-Random -->
     <g transform="translate(282.695078 27.435854)scale(0.125 -0.125)">
      <defs>
       <path id="DejaVuSans-64" d="M 2906 2969 
L 2906 4863 
L 3481 4863 
L 3481 0 
L 2906 0 
L 2906 525 
Q 2725 213 2448 61 
Q 2172 -91 1784 -91 
Q 1150 -91 751 415 
Q 353 922 353 1747 
Q 353 2572 751 3078 
Q 1150 3584 1784 3584 
Q 2172 3584 2448 3432 
Q 2725 3281 2906 2969 
z
M 947 1747 
Q 947 1113 1208 752 
Q 1469 391 1925 391 
Q 2381 391 2643 752 
Q 2906 1113 2906 1747 
Q 2906 2381 2643 2742 
Q 2381 3103 1925 3103 
Q 1469 3103 1208 2742 
Q 947 2381 947 1747 
z
" transform="scale(0.015625)"/>
      </defs>
      <use xlink:href="#DejaVuSans-44"/>
      <use xlink:href="#DejaVuSans-44" x="77.001953"/>
      <use xlink:href="#DejaVuSans-2d" x="154.003906"/>
      <use xlink:href="#DejaVuSans-52" x="190.087891"/>
      <use xlink:href="#DejaVuSans-61" x="257.320312"/>
      <use xlink:href="#DejaVuSans-6e" x="318.599609"/>
      <use xlink:href="#DejaVuSans-64" x="381.978516"/>
      <use xlink:href="#DejaVuSans-6f" x="445.455078"/>
      <use xlink:href="#DejaVuSans-6d" x="506.636719"/>
     </g>
    </g>
    <g id="line2d_29">
     <path d="M 247.695078 41.408511 
L 260.195078 41.408511 
L 272.695078 41.408511 
" style="fill: none; stroke-dasharray: 11.1,4.8; stroke-dashoffset: 0; stroke: #8c564b; stroke-width: 3"/>
     <g>
      <use xlink:href="#m9f205bd0a7" x="260.195078" y="41.408511" style="fill: #8c564b; stroke: #8c564b; stroke-linejoin: bevel"/>
     </g>
    </g>
    <g id="text_23">
     <!-- HG-No-DD-IPI -->
     <g transform="translate(282.695078 45.783511)scale(0.125 -0.125)">
      <defs>
       <path id="DejaVuSans-4e" d="M 628 4666 
L 1478 4666 
L 3547 763 
L 3547 4666 
L 4159 4666 
L 4159 0 
L 3309 0 
L 1241 3903 
L 1241 0 
L 628 0 
L 628 4666 
z
" transform="scale(0.015625)"/>
      </defs>
      <use xlink:href="#DejaVuSans-48"/>
      <use xlink:href="#DejaVuSans-47" x="75.195312"/>
      <use xlink:href="#DejaVuSans-2d" x="152.685547"/>
      <use xlink:href="#DejaVuSans-4e" x="188.769531"/>
      <use xlink:href="#DejaVuSans-6f" x="263.574219"/>
      <use xlink:href="#DejaVuSans-2d" x="326.630859"/>
      <use xlink:href="#DejaVuSans-44" x="362.714844"/>
      <use xlink:href="#DejaVuSans-44" x="439.716797"/>
      <use xlink:href="#DejaVuSans-2d" x="516.71875"/>
      <use xlink:href="#DejaVuSans-49" x="552.802734"/>
      <use xlink:href="#DejaVuSans-50" x="582.294922"/>
      <use xlink:href="#DejaVuSans-49" x="642.597656"/>
     </g>
    </g>
    <g id="line2d_30">
     <path d="M 372.965 23.060854 
L 385.465 23.060854 
L 397.965 23.060854 
" style="fill: none; stroke-dasharray: 19.2,4.8,3,4.8; stroke-dashoffset: 0; stroke: #e377c2; stroke-width: 3"/>
     <g>
      <use xlink:href="#m43466c1fce" x="385.465" y="23.060854" style="fill: #e377c2; stroke: #e377c2"/>
     </g>
    </g>
    <g id="text_24">
     <!-- G-No-DD-PI -->
     <g transform="translate(407.965 27.435854)scale(0.125 -0.125)">
      <use xlink:href="#DejaVuSans-47"/>
      <use xlink:href="#DejaVuSans-2d" x="77.490234"/>
      <use xlink:href="#DejaVuSans-4e" x="113.574219"/>
      <use xlink:href="#DejaVuSans-6f" x="188.378906"/>
      <use xlink:href="#DejaVuSans-2d" x="251.435547"/>
      <use xlink:href="#DejaVuSans-44" x="287.519531"/>
      <use xlink:href="#DejaVuSans-44" x="364.521484"/>
      <use xlink:href="#DejaVuSans-2d" x="441.523438"/>
      <use xlink:href="#DejaVuSans-50" x="477.607422"/>
      <use xlink:href="#DejaVuSans-49" x="537.910156"/>
     </g>
    </g>
    <g id="line2d_31">
     <path d="M 372.965 41.408511 
L 385.465 41.408511 
L 397.965 41.408511 
" style="fill: none; stroke-dasharray: 3,4.95; stroke-dashoffset: 0; stroke: #7f7f7f; stroke-width: 3"/>
     <g>
      <use xlink:href="#m66f4a0a7e4" x="385.465" y="41.408511" style="fill: #7f7f7f; stroke: #7f7f7f"/>
     </g>
    </g>
    <g id="text_25">
     <!-- No-DD-Random -->
     <g transform="translate(407.965 45.783511)scale(0.125 -0.125)">
      <use xlink:href="#DejaVuSans-4e"/>
      <use xlink:href="#DejaVuSans-6f" x="74.804688"/>
      <use xlink:href="#DejaVuSans-2d" x="137.861328"/>
      <use xlink:href="#DejaVuSans-44" x="173.945312"/>
      <use xlink:href="#DejaVuSans-44" x="250.947266"/>
      <use xlink:href="#DejaVuSans-2d" x="327.949219"/>
      <use xlink:href="#DejaVuSans-52" x="364.033203"/>
      <use xlink:href="#DejaVuSans-61" x="431.265625"/>
      <use xlink:href="#DejaVuSans-6e" x="492.544922"/>
      <use xlink:href="#DejaVuSans-64" x="555.923828"/>
      <use xlink:href="#DejaVuSans-6f" x="619.400391"/>
      <use xlink:href="#DejaVuSans-6d" x="680.582031"/>
     </g>
    </g>
   </g>
  </g>
 </g>
 <defs>
  <clipPath id="p6400d87a67">
   <rect x="109.175" y="61.992" width="407.29" height="235.888"/>
  </clipPath>
 </defs>
</svg>
