<?xml version="1.0" encoding="utf-8" standalone="no"?>
<!DOCTYPE svg PUBLIC "-//W3C//DTD SVG 1.1//EN"
  "http://www.w3.org/Graphics/SVG/1.1/DTD/svg11.dtd">
<svg xmlns:xlink="http://www.w3.org/1999/xlink" width="540pt" height="360pt" viewBox="0 0 540 360" xmlns="http://www.w3.org/2000/svg" version="1.1">
 <metadata>
  <rdf:RDF xmlns:dc="http://purl.org/dc/elements/1.1/" xmlns:cc="http://creativecommons.org/ns#" xmlns:rdf="http://www.w3.org/1999/02/22-rdf-syntax-ns#">
   <cc:Work>
    <dc:type rdf:resource="http://purl.org/dc/dcmitype/StillImage"/>
    <dc:date>2024-07-04T16:55:48.834046</dc:date>
    <dc:format>image/svg+xml</dc:format>
    <dc:creator>
     <cc:Agent>
      <dc:title>Matplotlib v3.5.3, https://matplotlib.org/</dc:title>
     </cc:Agent>
    </dc:creator>
   </cc:Work>
  </rdf:RDF>
 </metadata>
 <defs>
  <style type="text/css">*{stroke-linejoin: round; stroke-linecap: butt}</style>
 </defs>
 <g id="figure_1">
  <g id="patch_1">
   <path d="M 0 360 
L 540 360 
L 540 0 
L 0 0 
z
" style="fill: #ffffff"/>
  </g>
  <g id="axes_1">
   <g id="patch_2">
    <path d="M 73.91 297.88 
L 529.2 297.88 
L 529.2 10.8 
L 73.91 10.8 
z
" style="fill: #ffffff"/>
   </g>
   <g id="matplotlib.axis_1">
    <g id="xtick_1">
     <g id="line2d_1">
      <defs>
       <path id="mdcebc28050" d="M 0 0 
L 0 3.5 
" style="stroke: #000000; stroke-width: 0.8"/>
      </defs>
      <g>
       <use xlink:href="#mdcebc28050" x="94.605" y="297.88" style="stroke: #000000; stroke-width: 0.8"/>
      </g>
     </g>
     <g id="text_1">
      <!-- 0 -->
      <g transform="translate(88.2425 320.076875)scale(0.2 -0.2)">
       <defs>
        <path id="DejaVuSans-30" d="M 2034 4250 
Q 1547 4250 1301 3770 
Q 1056 3291 1056 2328 
Q 1056 1369 1301 889 
Q 1547 409 2034 409 
Q 2525 409 2770 889 
Q 3016 1369 3016 2328 
Q 3016 3291 2770 3770 
Q 2525 4250 2034 4250 
z
M 2034 4750 
Q 2819 4750 3233 4129 
Q 3647 3509 3647 2328 
Q 3647 1150 3233 529 
Q 2819 -91 2034 -91 
Q 1250 -91 836 529 
Q 422 1150 422 2328 
Q 422 3509 836 4129 
Q 1250 4750 2034 4750 
z
" transform="scale(0.015625)"/>
       </defs>
       <use xlink:href="#DejaVuSans-30"/>
      </g>
     </g>
    </g>
    <g id="xtick_2">
     <g id="line2d_2">
      <g>
       <use xlink:href="#mdcebc28050" x="161.363065" y="297.88" style="stroke: #000000; stroke-width: 0.8"/>
      </g>
     </g>
     <g id="text_2">
      <!-- 20 -->
      <g transform="translate(148.638065 320.076875)scale(0.2 -0.2)">
       <defs>
        <path id="DejaVuSans-32" d="M 1228 531 
L 3431 531 
L 3431 0 
L 469 0 
L 469 531 
Q 828 903 1448 1529 
Q 2069 2156 2228 2338 
Q 2531 2678 2651 2914 
Q 2772 3150 2772 3378 
Q 2772 3750 2511 3984 
Q 2250 4219 1831 4219 
Q 1534 4219 1204 4116 
Q 875 4013 500 3803 
L 500 4441 
Q 881 4594 1212 4672 
Q 1544 4750 1819 4750 
Q 2544 4750 2975 4387 
Q 3406 4025 3406 3419 
Q 3406 3131 3298 2873 
Q 3191 2616 2906 2266 
Q 2828 2175 2409 1742 
Q 1991 1309 1228 531 
z
" transform="scale(0.015625)"/>
       </defs>
       <use xlink:href="#DejaVuSans-32"/>
       <use xlink:href="#DejaVuSans-30" x="63.623047"/>
      </g>
     </g>
    </g>
    <g id="xtick_3">
     <g id="line2d_3">
      <g>
       <use xlink:href="#mdcebc28050" x="228.121129" y="297.88" style="stroke: #000000; stroke-width: 0.8"/>
      </g>
     </g>
     <g id="text_3">
      <!-- 40 -->
      <g transform="translate(215.396129 320.076875)scale(0.2 -0.2)">
       <defs>
        <path id="DejaVuSans-34" d="M 2419 4116 
L 825 1625 
L 2419 1625 
L 2419 4116 
z
M 2253 4666 
L 3047 4666 
L 3047 1625 
L 3713 1625 
L 3713 1100 
L 3047 1100 
L 3047 0 
L 2419 0 
L 2419 1100 
L 313 1100 
L 313 1709 
L 2253 4666 
z
" transform="scale(0.015625)"/>
       </defs>
       <use xlink:href="#DejaVuSans-34"/>
       <use xlink:href="#DejaVuSans-30" x="63.623047"/>
      </g>
     </g>
    </g>
    <g id="xtick_4">
     <g id="line2d_4">
      <g>
       <use xlink:href="#mdcebc28050" x="294.879194" y="297.88" style="stroke: #000000; stroke-width: 0.8"/>
      </g>
     </g>
     <g id="text_4">
      <!-- 60 -->
      <g transform="translate(282.154194 320.076875)scale(0.2 -0.2)">
       <defs>
        <path id="DejaVuSans-36" d="M 2113 2584 
Q 1688 2584 1439 2293 
Q 1191 2003 1191 1497 
Q 1191 994 1439 701 
Q 1688 409 2113 409 
Q 2538 409 2786 701 
Q 3034 994 3034 1497 
Q 3034 2003 2786 2293 
Q 2538 2584 2113 2584 
z
M 3366 4563 
L 3366 3988 
Q 3128 4100 2886 4159 
Q 2644 4219 2406 4219 
Q 1781 4219 1451 3797 
Q 1122 3375 1075 2522 
Q 1259 2794 1537 2939 
Q 1816 3084 2150 3084 
Q 2853 3084 3261 2657 
Q 3669 2231 3669 1497 
Q 3669 778 3244 343 
Q 2819 -91 2113 -91 
Q 1303 -91 875 529 
Q 447 1150 447 2328 
Q 447 3434 972 4092 
Q 1497 4750 2381 4750 
Q 2619 4750 2861 4703 
Q 3103 4656 3366 4563 
z
" transform="scale(0.015625)"/>
       </defs>
       <use xlink:href="#DejaVuSans-36"/>
       <use xlink:href="#DejaVuSans-30" x="63.623047"/>
      </g>
     </g>
    </g>
    <g id="xtick_5">
     <g id="line2d_5">
      <g>
       <use xlink:href="#mdcebc28050" x="361.637258" y="297.88" style="stroke: #000000; stroke-width: 0.8"/>
      </g>
     </g>
     <g id="text_5">
      <!-- 80 -->
      <g transform="translate(348.912258 320.076875)scale(0.2 -0.2)">
       <defs>
        <path id="DejaVuSans-38" d="M 2034 2216 
Q 1584 2216 1326 1975 
Q 1069 1734 1069 1313 
Q 1069 891 1326 650 
Q 1584 409 2034 409 
Q 2484 409 2743 651 
Q 3003 894 3003 1313 
Q 3003 1734 2745 1975 
Q 2488 2216 2034 2216 
z
M 1403 2484 
Q 997 2584 770 2862 
Q 544 3141 544 3541 
Q 544 4100 942 4425 
Q 1341 4750 2034 4750 
Q 2731 4750 3128 4425 
Q 3525 4100 3525 3541 
Q 3525 3141 3298 2862 
Q 3072 2584 2669 2484 
Q 3125 2378 3379 2068 
Q 3634 1759 3634 1313 
Q 3634 634 3220 271 
Q 2806 -91 2034 -91 
Q 1263 -91 848 271 
Q 434 634 434 1313 
Q 434 1759 690 2068 
Q 947 2378 1403 2484 
z
M 1172 3481 
Q 1172 3119 1398 2916 
Q 1625 2713 2034 2713 
Q 2441 2713 2670 2916 
Q 2900 3119 2900 3481 
Q 2900 3844 2670 4047 
Q 2441 4250 2034 4250 
Q 1625 4250 1398 4047 
Q 1172 3844 1172 3481 
z
" transform="scale(0.015625)"/>
       </defs>
       <use xlink:href="#DejaVuSans-38"/>
       <use xlink:href="#DejaVuSans-30" x="63.623047"/>
      </g>
     </g>
    </g>
    <g id="xtick_6">
     <g id="line2d_6">
      <g>
       <use xlink:href="#mdcebc28050" x="428.395323" y="297.88" style="stroke: #000000; stroke-width: 0.8"/>
      </g>
     </g>
     <g id="text_6">
      <!-- 100 -->
      <g transform="translate(409.307823 320.076875)scale(0.2 -0.2)">
       <defs>
        <path id="DejaVuSans-31" d="M 794 531 
L 1825 531 
L 1825 4091 
L 703 3866 
L 703 4441 
L 1819 4666 
L 2450 4666 
L 2450 531 
L 3481 531 
L 3481 0 
L 794 0 
L 794 531 
z
" transform="scale(0.015625)"/>
       </defs>
       <use xlink:href="#DejaVuSans-31"/>
       <use xlink:href="#DejaVuSans-30" x="63.623047"/>
       <use xlink:href="#DejaVuSans-30" x="127.246094"/>
      </g>
     </g>
    </g>
    <g id="xtick_7">
     <g id="line2d_7">
      <g>
       <use xlink:href="#mdcebc28050" x="495.153387" y="297.88" style="stroke: #000000; stroke-width: 0.8"/>
      </g>
     </g>
     <g id="text_7">
      <!-- 120 -->
      <g transform="translate(476.065887 320.076875)scale(0.2 -0.2)">
       <use xlink:href="#DejaVuSans-31"/>
       <use xlink:href="#DejaVuSans-32" x="63.623047"/>
       <use xlink:href="#DejaVuSans-30" x="127.246094"/>
      </g>
     </g>
    </g>
    <g id="text_8">
     <!-- number of games -->
     <g transform="translate(212.951875 343.433125)scale(0.2 -0.2)">
      <defs>
       <path id="DejaVuSans-6e" d="M 3513 2113 
L 3513 0 
L 2938 0 
L 2938 2094 
Q 2938 2591 2744 2837 
Q 2550 3084 2163 3084 
Q 1697 3084 1428 2787 
Q 1159 2491 1159 1978 
L 1159 0 
L 581 0 
L 581 3500 
L 1159 3500 
L 1159 2956 
Q 1366 3272 1645 3428 
Q 1925 3584 2291 3584 
Q 2894 3584 3203 3211 
Q 3513 2838 3513 2113 
z
" transform="scale(0.015625)"/>
       <path id="DejaVuSans-75" d="M 544 1381 
L 544 3500 
L 1119 3500 
L 1119 1403 
Q 1119 906 1312 657 
Q 1506 409 1894 409 
Q 2359 409 2629 706 
Q 2900 1003 2900 1516 
L 2900 3500 
L 3475 3500 
L 3475 0 
L 2900 0 
L 2900 538 
Q 2691 219 2414 64 
Q 2138 -91 1772 -91 
Q 1169 -91 856 284 
Q 544 659 544 1381 
z
M 1991 3584 
L 1991 3584 
z
" transform="scale(0.015625)"/>
       <path id="DejaVuSans-6d" d="M 3328 2828 
Q 3544 3216 3844 3400 
Q 4144 3584 4550 3584 
Q 5097 3584 5394 3201 
Q 5691 2819 5691 2113 
L 5691 0 
L 5113 0 
L 5113 2094 
Q 5113 2597 4934 2840 
Q 4756 3084 4391 3084 
Q 3944 3084 3684 2787 
Q 3425 2491 3425 1978 
L 3425 0 
L 2847 0 
L 2847 2094 
Q 2847 2600 2669 2842 
Q 2491 3084 2119 3084 
Q 1678 3084 1418 2786 
Q 1159 2488 1159 1978 
L 1159 0 
L 581 0 
L 581 3500 
L 1159 3500 
L 1159 2956 
Q 1356 3278 1631 3431 
Q 1906 3584 2284 3584 
Q 2666 3584 2933 3390 
Q 3200 3197 3328 2828 
z
" transform="scale(0.015625)"/>
       <path id="DejaVuSans-62" d="M 3116 1747 
Q 3116 2381 2855 2742 
Q 2594 3103 2138 3103 
Q 1681 3103 1420 2742 
Q 1159 2381 1159 1747 
Q 1159 1113 1420 752 
Q 1681 391 2138 391 
Q 2594 391 2855 752 
Q 3116 1113 3116 1747 
z
M 1159 2969 
Q 1341 3281 1617 3432 
Q 1894 3584 2278 3584 
Q 2916 3584 3314 3078 
Q 3713 2572 3713 1747 
Q 3713 922 3314 415 
Q 2916 -91 2278 -91 
Q 1894 -91 1617 61 
Q 1341 213 1159 525 
L 1159 0 
L 581 0 
L 581 4863 
L 1159 4863 
L 1159 2969 
z
" transform="scale(0.015625)"/>
       <path id="DejaVuSans-65" d="M 3597 1894 
L 3597 1613 
L 953 1613 
Q 991 1019 1311 708 
Q 1631 397 2203 397 
Q 2534 397 2845 478 
Q 3156 559 3463 722 
L 3463 178 
Q 3153 47 2828 -22 
Q 2503 -91 2169 -91 
Q 1331 -91 842 396 
Q 353 884 353 1716 
Q 353 2575 817 3079 
Q 1281 3584 2069 3584 
Q 2775 3584 3186 3129 
Q 3597 2675 3597 1894 
z
M 3022 2063 
Q 3016 2534 2758 2815 
Q 2500 3097 2075 3097 
Q 1594 3097 1305 2825 
Q 1016 2553 972 2059 
L 3022 2063 
z
" transform="scale(0.015625)"/>
       <path id="DejaVuSans-72" d="M 2631 2963 
Q 2534 3019 2420 3045 
Q 2306 3072 2169 3072 
Q 1681 3072 1420 2755 
Q 1159 2438 1159 1844 
L 1159 0 
L 581 0 
L 581 3500 
L 1159 3500 
L 1159 2956 
Q 1341 3275 1631 3429 
Q 1922 3584 2338 3584 
Q 2397 3584 2469 3576 
Q 2541 3569 2628 3553 
L 2631 2963 
z
" transform="scale(0.015625)"/>
       <path id="DejaVuSans-20" transform="scale(0.015625)"/>
       <path id="DejaVuSans-6f" d="M 1959 3097 
Q 1497 3097 1228 2736 
Q 959 2375 959 1747 
Q 959 1119 1226 758 
Q 1494 397 1959 397 
Q 2419 397 2687 759 
Q 2956 1122 2956 1747 
Q 2956 2369 2687 2733 
Q 2419 3097 1959 3097 
z
M 1959 3584 
Q 2709 3584 3137 3096 
Q 3566 2609 3566 1747 
Q 3566 888 3137 398 
Q 2709 -91 1959 -91 
Q 1206 -91 779 398 
Q 353 888 353 1747 
Q 353 2609 779 3096 
Q 1206 3584 1959 3584 
z
" transform="scale(0.015625)"/>
       <path id="DejaVuSans-66" d="M 2375 4863 
L 2375 4384 
L 1825 4384 
Q 1516 4384 1395 4259 
Q 1275 4134 1275 3809 
L 1275 3500 
L 2222 3500 
L 2222 3053 
L 1275 3053 
L 1275 0 
L 697 0 
L 697 3053 
L 147 3053 
L 147 3500 
L 697 3500 
L 697 3744 
Q 697 4328 969 4595 
Q 1241 4863 1831 4863 
L 2375 4863 
z
" transform="scale(0.015625)"/>
       <path id="DejaVuSans-67" d="M 2906 1791 
Q 2906 2416 2648 2759 
Q 2391 3103 1925 3103 
Q 1463 3103 1205 2759 
Q 947 2416 947 1791 
Q 947 1169 1205 825 
Q 1463 481 1925 481 
Q 2391 481 2648 825 
Q 2906 1169 2906 1791 
z
M 3481 434 
Q 3481 -459 3084 -895 
Q 2688 -1331 1869 -1331 
Q 1566 -1331 1297 -1286 
Q 1028 -1241 775 -1147 
L 775 -588 
Q 1028 -725 1275 -790 
Q 1522 -856 1778 -856 
Q 2344 -856 2625 -561 
Q 2906 -266 2906 331 
L 2906 616 
Q 2728 306 2450 153 
Q 2172 0 1784 0 
Q 1141 0 747 490 
Q 353 981 353 1791 
Q 353 2603 747 3093 
Q 1141 3584 1784 3584 
Q 2172 3584 2450 3431 
Q 2728 3278 2906 2969 
L 2906 3500 
L 3481 3500 
L 3481 434 
z
" transform="scale(0.015625)"/>
       <path id="DejaVuSans-61" d="M 2194 1759 
Q 1497 1759 1228 1600 
Q 959 1441 959 1056 
Q 959 750 1161 570 
Q 1363 391 1709 391 
Q 2188 391 2477 730 
Q 2766 1069 2766 1631 
L 2766 1759 
L 2194 1759 
z
M 3341 1997 
L 3341 0 
L 2766 0 
L 2766 531 
Q 2569 213 2275 61 
Q 1981 -91 1556 -91 
Q 1019 -91 701 211 
Q 384 513 384 1019 
Q 384 1609 779 1909 
Q 1175 2209 1959 2209 
L 2766 2209 
L 2766 2266 
Q 2766 2663 2505 2880 
Q 2244 3097 1772 3097 
Q 1472 3097 1187 3025 
Q 903 2953 641 2809 
L 641 3341 
Q 956 3463 1253 3523 
Q 1550 3584 1831 3584 
Q 2591 3584 2966 3190 
Q 3341 2797 3341 1997 
z
" transform="scale(0.015625)"/>
       <path id="DejaVuSans-73" d="M 2834 3397 
L 2834 2853 
Q 2591 2978 2328 3040 
Q 2066 3103 1784 3103 
Q 1356 3103 1142 2972 
Q 928 2841 928 2578 
Q 928 2378 1081 2264 
Q 1234 2150 1697 2047 
L 1894 2003 
Q 2506 1872 2764 1633 
Q 3022 1394 3022 966 
Q 3022 478 2636 193 
Q 2250 -91 1575 -91 
Q 1294 -91 989 -36 
Q 684 19 347 128 
L 347 722 
Q 666 556 975 473 
Q 1284 391 1588 391 
Q 1994 391 2212 530 
Q 2431 669 2431 922 
Q 2431 1156 2273 1281 
Q 2116 1406 1581 1522 
L 1381 1569 
Q 847 1681 609 1914 
Q 372 2147 372 2553 
Q 372 3047 722 3315 
Q 1072 3584 1716 3584 
Q 2034 3584 2315 3537 
Q 2597 3491 2834 3397 
z
" transform="scale(0.015625)"/>
      </defs>
      <use xlink:href="#DejaVuSans-6e"/>
      <use xlink:href="#DejaVuSans-75" x="63.378906"/>
      <use xlink:href="#DejaVuSans-6d" x="126.757812"/>
      <use xlink:href="#DejaVuSans-62" x="224.169922"/>
      <use xlink:href="#DejaVuSans-65" x="287.646484"/>
      <use xlink:href="#DejaVuSans-72" x="349.169922"/>
      <use xlink:href="#DejaVuSans-20" x="390.283203"/>
      <use xlink:href="#DejaVuSans-6f" x="422.070312"/>
      <use xlink:href="#DejaVuSans-66" x="483.251953"/>
      <use xlink:href="#DejaVuSans-20" x="518.457031"/>
      <use xlink:href="#DejaVuSans-67" x="550.244141"/>
      <use xlink:href="#DejaVuSans-61" x="613.720703"/>
      <use xlink:href="#DejaVuSans-6d" x="675"/>
      <use xlink:href="#DejaVuSans-65" x="772.412109"/>
      <use xlink:href="#DejaVuSans-73" x="833.935547"/>
     </g>
    </g>
   </g>
   <g id="matplotlib.axis_2">
    <g id="ytick_1">
     <g id="line2d_8">
      <defs>
       <path id="m57ffe5a502" d="M 0 0 
L -3.5 0 
" style="stroke: #000000; stroke-width: 0.8"/>
      </defs>
      <g>
       <use xlink:href="#m57ffe5a502" x="73.91" y="284.830909" style="stroke: #000000; stroke-width: 0.8"/>
      </g>
     </g>
     <g id="text_9">
      <!-- 0.0 -->
      <g transform="translate(35.10375 292.429347)scale(0.2 -0.2)">
       <defs>
        <path id="DejaVuSans-2e" d="M 684 794 
L 1344 794 
L 1344 0 
L 684 0 
L 684 794 
z
" transform="scale(0.015625)"/>
       </defs>
       <use xlink:href="#DejaVuSans-30"/>
       <use xlink:href="#DejaVuSans-2e" x="63.623047"/>
       <use xlink:href="#DejaVuSans-30" x="95.410156"/>
      </g>
     </g>
    </g>
    <g id="ytick_2">
     <g id="line2d_9">
      <g>
       <use xlink:href="#m57ffe5a502" x="73.91" y="237.854182" style="stroke: #000000; stroke-width: 0.8"/>
      </g>
     </g>
     <g id="text_10">
      <!-- 0.1 -->
      <g transform="translate(35.10375 245.452619)scale(0.2 -0.2)">
       <use xlink:href="#DejaVuSans-30"/>
       <use xlink:href="#DejaVuSans-2e" x="63.623047"/>
       <use xlink:href="#DejaVuSans-31" x="95.410156"/>
      </g>
     </g>
    </g>
    <g id="ytick_3">
     <g id="line2d_10">
      <g>
       <use xlink:href="#m57ffe5a502" x="73.91" y="190.877455" style="stroke: #000000; stroke-width: 0.8"/>
      </g>
     </g>
     <g id="text_11">
      <!-- 0.2 -->
      <g transform="translate(35.10375 198.475892)scale(0.2 -0.2)">
       <use xlink:href="#DejaVuSans-30"/>
       <use xlink:href="#DejaVuSans-2e" x="63.623047"/>
       <use xlink:href="#DejaVuSans-32" x="95.410156"/>
      </g>
     </g>
    </g>
    <g id="ytick_4">
     <g id="line2d_11">
      <g>
       <use xlink:href="#m57ffe5a502" x="73.91" y="143.900727" style="stroke: #000000; stroke-width: 0.8"/>
      </g>
     </g>
     <g id="text_12">
      <!-- 0.3 -->
      <g transform="translate(35.10375 151.499165)scale(0.2 -0.2)">
       <defs>
        <path id="DejaVuSans-33" d="M 2597 2516 
Q 3050 2419 3304 2112 
Q 3559 1806 3559 1356 
Q 3559 666 3084 287 
Q 2609 -91 1734 -91 
Q 1441 -91 1130 -33 
Q 819 25 488 141 
L 488 750 
Q 750 597 1062 519 
Q 1375 441 1716 441 
Q 2309 441 2620 675 
Q 2931 909 2931 1356 
Q 2931 1769 2642 2001 
Q 2353 2234 1838 2234 
L 1294 2234 
L 1294 2753 
L 1863 2753 
Q 2328 2753 2575 2939 
Q 2822 3125 2822 3475 
Q 2822 3834 2567 4026 
Q 2313 4219 1838 4219 
Q 1578 4219 1281 4162 
Q 984 4106 628 3988 
L 628 4550 
Q 988 4650 1302 4700 
Q 1616 4750 1894 4750 
Q 2613 4750 3031 4423 
Q 3450 4097 3450 3541 
Q 3450 3153 3228 2886 
Q 3006 2619 2597 2516 
z
" transform="scale(0.015625)"/>
       </defs>
       <use xlink:href="#DejaVuSans-30"/>
       <use xlink:href="#DejaVuSans-2e" x="63.623047"/>
       <use xlink:href="#DejaVuSans-33" x="95.410156"/>
      </g>
     </g>
    </g>
    <g id="ytick_5">
     <g id="line2d_12">
      <g>
       <use xlink:href="#m57ffe5a502" x="73.91" y="96.924" style="stroke: #000000; stroke-width: 0.8"/>
      </g>
     </g>
     <g id="text_13">
      <!-- 0.4 -->
      <g transform="translate(35.10375 104.522438)scale(0.2 -0.2)">
       <use xlink:href="#DejaVuSans-30"/>
       <use xlink:href="#DejaVuSans-2e" x="63.623047"/>
       <use xlink:href="#DejaVuSans-34" x="95.410156"/>
      </g>
     </g>
    </g>
    <g id="ytick_6">
     <g id="line2d_13">
      <g>
       <use xlink:href="#m57ffe5a502" x="73.91" y="49.947273" style="stroke: #000000; stroke-width: 0.8"/>
      </g>
     </g>
     <g id="text_14">
      <!-- 0.5 -->
      <g transform="translate(35.10375 57.54571)scale(0.2 -0.2)">
       <defs>
        <path id="DejaVuSans-35" d="M 691 4666 
L 3169 4666 
L 3169 4134 
L 1269 4134 
L 1269 2991 
Q 1406 3038 1543 3061 
Q 1681 3084 1819 3084 
Q 2600 3084 3056 2656 
Q 3513 2228 3513 1497 
Q 3513 744 3044 326 
Q 2575 -91 1722 -91 
Q 1428 -91 1123 -41 
Q 819 9 494 109 
L 494 744 
Q 775 591 1075 516 
Q 1375 441 1709 441 
Q 2250 441 2565 725 
Q 2881 1009 2881 1497 
Q 2881 1984 2565 2268 
Q 2250 2553 1709 2553 
Q 1456 2553 1204 2497 
Q 953 2441 691 2322 
L 691 4666 
z
" transform="scale(0.015625)"/>
       </defs>
       <use xlink:href="#DejaVuSans-30"/>
       <use xlink:href="#DejaVuSans-2e" x="63.623047"/>
       <use xlink:href="#DejaVuSans-35" x="95.410156"/>
      </g>
     </g>
    </g>
    <g id="text_15">
     <!-- HNE hitting ratio -->
     <g transform="translate(26.944375 237.493125)rotate(-90)scale(0.2 -0.2)">
      <defs>
       <path id="DejaVuSans-48" d="M 628 4666 
L 1259 4666 
L 1259 2753 
L 3553 2753 
L 3553 4666 
L 4184 4666 
L 4184 0 
L 3553 0 
L 3553 2222 
L 1259 2222 
L 1259 0 
L 628 0 
L 628 4666 
z
" transform="scale(0.015625)"/>
       <path id="DejaVuSans-4e" d="M 628 4666 
L 1478 4666 
L 3547 763 
L 3547 4666 
L 4159 4666 
L 4159 0 
L 3309 0 
L 1241 3903 
L 1241 0 
L 628 0 
L 628 4666 
z
" transform="scale(0.015625)"/>
       <path id="DejaVuSans-45" d="M 628 4666 
L 3578 4666 
L 3578 4134 
L 1259 4134 
L 1259 2753 
L 3481 2753 
L 3481 2222 
L 1259 2222 
L 1259 531 
L 3634 531 
L 3634 0 
L 628 0 
L 628 4666 
z
" transform="scale(0.015625)"/>
       <path id="DejaVuSans-68" d="M 3513 2113 
L 3513 0 
L 2938 0 
L 2938 2094 
Q 2938 2591 2744 2837 
Q 2550 3084 2163 3084 
Q 1697 3084 1428 2787 
Q 1159 2491 1159 1978 
L 1159 0 
L 581 0 
L 581 4863 
L 1159 4863 
L 1159 2956 
Q 1366 3272 1645 3428 
Q 1925 3584 2291 3584 
Q 2894 3584 3203 3211 
Q 3513 2838 3513 2113 
z
" transform="scale(0.015625)"/>
       <path id="DejaVuSans-69" d="M 603 3500 
L 1178 3500 
L 1178 0 
L 603 0 
L 603 3500 
z
M 603 4863 
L 1178 4863 
L 1178 4134 
L 603 4134 
L 603 4863 
z
" transform="scale(0.015625)"/>
       <path id="DejaVuSans-74" d="M 1172 4494 
L 1172 3500 
L 2356 3500 
L 2356 3053 
L 1172 3053 
L 1172 1153 
Q 1172 725 1289 603 
Q 1406 481 1766 481 
L 2356 481 
L 2356 0 
L 1766 0 
Q 1100 0 847 248 
Q 594 497 594 1153 
L 594 3053 
L 172 3053 
L 172 3500 
L 594 3500 
L 594 4494 
L 1172 4494 
z
" transform="scale(0.015625)"/>
      </defs>
      <use xlink:href="#DejaVuSans-48"/>
      <use xlink:href="#DejaVuSans-4e" x="75.195312"/>
      <use xlink:href="#DejaVuSans-45" x="150"/>
      <use xlink:href="#DejaVuSans-20" x="213.183594"/>
      <use xlink:href="#DejaVuSans-68" x="244.970703"/>
      <use xlink:href="#DejaVuSans-69" x="308.349609"/>
      <use xlink:href="#DejaVuSans-74" x="336.132812"/>
      <use xlink:href="#DejaVuSans-74" x="375.341797"/>
      <use xlink:href="#DejaVuSans-69" x="414.550781"/>
      <use xlink:href="#DejaVuSans-6e" x="442.333984"/>
      <use xlink:href="#DejaVuSans-67" x="505.712891"/>
      <use xlink:href="#DejaVuSans-20" x="569.189453"/>
      <use xlink:href="#DejaVuSans-72" x="600.976562"/>
      <use xlink:href="#DejaVuSans-61" x="642.089844"/>
      <use xlink:href="#DejaVuSans-74" x="703.369141"/>
      <use xlink:href="#DejaVuSans-69" x="742.578125"/>
      <use xlink:href="#DejaVuSans-6f" x="770.361328"/>
     </g>
    </g>
   </g>
   <g id="line2d_14">
    <path d="M 94.605 275.905331 
L 97.942903 279.193702 
L 101.280806 278.723935 
L 104.61871 279.663469 
L 107.956613 277.314633 
L 111.294516 274.965796 
L 114.632419 277.7844 
L 117.970323 277.314633 
L 121.308226 278.247584 
L 124.646129 276.332607 
L 127.984032 276.756042 
L 131.321935 277.5963 
L 134.659839 274.93065 
L 137.997742 277.743903 
L 141.335645 283.258028 
L 144.673548 277.85151 
L 148.011452 278.135889 
L 151.349355 278.451354 
L 154.687258 276.322834 
L 158.025161 276.644616 
L 161.363065 276.253698 
L 164.700968 277.164084 
L 168.038871 276.868752 
L 171.376774 272.688298 
L 174.714677 279.294931 
L 178.052581 279.031313 
L 181.390484 278.78611 
L 184.728387 278.4333 
L 188.06629 281.003884 
L 191.404194 278.769396 
L 194.742097 283.765677 
L 198.08 274.859434 
L 201.417903 274.59385 
L 204.755806 277.547696 
L 208.09371 274.646253 
L 211.431613 275.567892 
L 214.769516 272.395893 
L 218.107419 280.521118 
L 221.445323 275.796923 
L 224.783226 278.567345 
L 228.121129 278.237684 
L 231.459032 272.696699 
L 234.796935 272.183329 
L 238.134839 279.10204 
L 241.472742 272.681755 
L 244.810645 274.250565 
L 248.148548 282.572413 
L 251.486452 275.528587 
L 254.824355 265.051234 
L 258.162258 282.176857 
L 261.500161 279.13676 
L 264.838065 263.751608 
L 268.175968 281.678109 
L 271.513871 262.152489 
L 274.851774 271.312426 
L 278.189677 281.325183 
L 281.527581 273.734044 
L 284.865484 281.011663 
L 288.203387 276.661043 
L 291.54129 276.442208 
L 294.879194 280.521118 
L 298.217097 280.313916 
L 301.555 284.830909 
L 304.892903 279.833385 
L 308.230806 284.830909 
L 311.56871 284.830909 
L 314.906613 273.777561 
L 318.244516 272.938067 
L 321.582419 278.730035 
L 324.920323 284.830909 
L 328.258226 262.810568 
L 331.596129 269.677126 
L 334.934032 276.731473 
L 338.271935 284.830909 
L 341.609839 274.618577 
L 344.947742 274.15438 
L 348.285645 274.15438 
L 351.623548 273.906089 
L 354.961452 284.830909 
L 358.299355 262.461039 
L 361.637258 284.830909 
L 364.975161 284.830909 
L 368.313065 284.830909 
L 371.650968 284.830909 
L 374.988871 284.830909 
L 378.326774 269.172 
L 381.664677 266.040218 
L 385.002581 284.830909 
L 388.340484 284.830909 
L 391.678387 284.830909 
L 395.01629 284.830909 
L 398.354194 284.830909 
L 401.692097 284.830909 
L 405.03 284.830909 
L 408.367903 255.470455 
L 411.705806 284.830909 
L 415.04371 284.830909 
L 418.381613 226.11 
L 421.719516 284.830909 
L 425.057419 284.830909 
L 428.395323 284.830909 
L 431.733226 284.830909 
L 435.071129 284.830909 
L 438.409032 284.830909 
L 441.746935 284.830909 
L 445.084839 284.830909 
L 448.422742 245.683636 
L 451.760645 284.830909 
L 455.098548 242.124793 
L 458.436452 199.418678 
L 461.774355 284.830909 
L 465.112258 284.830909 
L 468.450161 284.830909 
L 471.788065 284.830909 
L 475.125968 232.634545 
L 478.463871 284.830909 
L 481.801774 284.830909 
L 485.139677 284.830909 
L 488.477581 284.830909 
L 491.815484 284.830909 
L 495.153387 284.830909 
L 498.49129 284.830909 
L 501.829194 284.830909 
L 505.167097 284.830909 
L 508.505 284.830909 
" clip-path="url(#p6ef134a38d)" style="fill: none; stroke: #1f77b4; stroke-width: 3; stroke-linecap: square"/>
    <defs>
     <path id="mde026acde3" d="M 0 -6 
L -5.706339 -1.854102 
L -3.526712 4.854102 
L 3.526712 4.854102 
L 5.706339 -1.854102 
z
" style="stroke: #1f77b4; stroke-linejoin: miter"/>
    </defs>
    <g clip-path="url(#p6ef134a38d)">
     <use xlink:href="#mde026acde3" x="94.605" y="275.905331" style="fill: #1f77b4; stroke: #1f77b4; stroke-linejoin: miter"/>
     <use xlink:href="#mde026acde3" x="261.500161" y="279.13676" style="fill: #1f77b4; stroke: #1f77b4; stroke-linejoin: miter"/>
     <use xlink:href="#mde026acde3" x="428.395323" y="284.830909" style="fill: #1f77b4; stroke: #1f77b4; stroke-linejoin: miter"/>
    </g>
   </g>
   <g id="line2d_15">
    <path d="M 94.605 279.193702 
L 97.942903 256.175105 
L 101.280806 244.900691 
L 104.61871 238.793716 
L 107.956613 230.337905 
L 111.294516 218.123956 
L 114.632419 213.896051 
L 117.970323 227.049535 
L 121.308226 207.789076 
L 124.646129 211.944095 
L 127.984032 222.572596 
L 131.321935 207.328819 
L 134.659839 209.572275 
L 137.997742 208.48157 
L 141.335645 213.473855 
L 144.673548 203.197577 
L 148.011452 203.889547 
L 151.349355 195.276613 
L 154.687258 202.782516 
L 158.025161 194.933788 
L 161.363065 196.888695 
L 164.700968 202.86189 
L 168.038871 203.43559 
L 171.376774 189.801652 
L 174.714677 199.860085 
L 178.052581 194.491049 
L 181.390484 186.641848 
L 184.728387 196.295305 
L 188.06629 195.062163 
L 191.404194 181.592969 
L 194.742097 176.586342 
L 198.08 183.956119 
L 201.417903 197.610275 
L 204.755806 191.510138 
L 208.09371 191.040568 
L 211.431613 180.250762 
L 214.769516 191.406273 
L 218.107419 180.335433 
L 221.445323 183.489985 
L 224.783226 182.750679 
L 228.121129 188.625847 
L 231.459032 173.182185 
L 234.796935 178.509448 
L 238.134839 180.562755 
L 241.472742 180.951168 
L 244.810645 198.104643 
L 248.148548 187.332041 
L 251.486452 184.261014 
L 254.824355 210.439611 
L 258.162258 191.443439 
L 261.500161 186.165056 
L 264.838065 181.116057 
L 268.175968 177.635692 
L 271.513871 166.985511 
L 274.851774 181.752479 
L 278.189677 162.514148 
L 281.527581 181.260172 
L 284.865484 199.245778 
L 288.203387 186.140306 
L 291.54129 183.872153 
L 294.879194 177.578107 
L 298.217097 187.715559 
L 301.555 171.994652 
L 304.892903 174.014014 
L 308.230806 191.396534 
L 311.56871 166.702297 
L 314.906613 159.956064 
L 318.244516 183.508556 
L 321.582419 185.764341 
L 324.920323 178.21706 
L 328.258226 151.101539 
L 331.596129 188.008647 
L 334.934032 171.177537 
L 338.271935 181.322866 
L 341.609839 219.585455 
L 344.947742 188.114118 
L 348.285645 195.822373 
L 351.623548 159.559636 
L 354.961452 178.06562 
L 358.299355 150.611688 
L 361.637258 193.169002 
L 364.975161 195.634591 
L 368.313065 167.389091 
L 371.650968 194.738555 
L 374.988871 167.389091 
L 378.326774 170.947934 
L 381.664677 169.195888 
L 385.002581 187.894805 
L 388.340484 159.559636 
L 391.678387 218.89866 
L 395.01629 184.166494 
L 398.354194 217.721299 
L 401.692097 189.137576 
L 405.03 187.332041 
L 408.367903 174.297433 
L 411.705806 237.854182 
L 415.04371 198.547124 
L 418.381613 224.860619 
L 421.719516 211.756 
L 425.057419 188.742149 
L 428.395323 184.166494 
L 431.733226 214.365818 
L 435.071129 236.64965 
L 438.409032 170.563194 
L 441.746935 150.611688 
L 445.084839 174.297433 
L 448.422742 209.061994 
L 451.760645 143.900727 
L 455.098548 175.218545 
L 458.436452 217.721299 
L 461.774355 167.389091 
L 465.112258 230.626993 
L 468.450161 128.241818 
L 471.788065 223.556917 
L 475.125968 156.712562 
L 478.463871 240.091169 
L 481.801774 235.381722 
L 485.139677 180.438182 
L 488.477581 174.297433 
L 491.815484 226.11 
L 495.153387 150.611688 
L 498.49129 251.276104 
L 501.829194 49.947273 
L 505.167097 117.056883 
L 508.505 117.056883 
" clip-path="url(#p6ef134a38d)" style="fill: none; stroke-dasharray: 11.1,4.8; stroke-dashoffset: 0; stroke: #ff7f0e; stroke-width: 3"/>
    <defs>
     <path id="m45e0dc2341" d="M 0 8.485281 
L 5.091169 0 
L 0 -8.485281 
L -5.091169 0 
z
" style="stroke: #ff7f0e; stroke-linejoin: miter"/>
    </defs>
    <g clip-path="url(#p6ef134a38d)">
     <use xlink:href="#m45e0dc2341" x="94.605" y="279.193702" style="fill: #ff7f0e; stroke: #ff7f0e; stroke-linejoin: miter"/>
     <use xlink:href="#m45e0dc2341" x="261.500161" y="186.165056" style="fill: #ff7f0e; stroke: #ff7f0e; stroke-linejoin: miter"/>
     <use xlink:href="#m45e0dc2341" x="428.395323" y="184.166494" style="fill: #ff7f0e; stroke: #ff7f0e; stroke-linejoin: miter"/>
    </g>
   </g>
   <g id="line2d_16">
    <path d="M 94.605 262.28208 
L 97.942903 164.10072 
L 101.280806 159.403047 
L 104.61871 156.114676 
L 107.956613 153.76584 
L 111.294516 137.323985 
L 114.632419 151.417004 
L 117.970323 137.793753 
L 121.308226 136.854218 
L 124.646129 138.116806 
L 127.984032 133.581867 
L 131.321935 142.907262 
L 134.659839 142.189025 
L 137.997742 139.734595 
L 141.335645 137.065999 
L 144.673548 139.310486 
L 148.011452 138.493691 
L 151.349355 151.112506 
L 154.687258 149.222709 
L 158.025161 136.209847 
L 161.363065 141.719475 
L 164.700968 140.660953 
L 168.038871 152.022872 
L 171.376774 146.696961 
L 174.714677 153.411353 
L 178.052581 132.171281 
L 181.390484 161.810981 
L 184.728387 133.2129 
L 188.06629 151.986885 
L 191.404194 140.440685 
L 194.742097 150.022146 
L 198.08 151.634701 
L 201.417903 134.65334 
L 204.755806 139.812441 
L 208.09371 147.37749 
L 211.431613 140.869971 
L 214.769516 145.640606 
L 218.107419 150.73855 
L 221.445323 155.461406 
L 224.783226 157.866781 
L 228.121129 156.989275 
L 231.459032 146.725608 
L 234.796935 163.565404 
L 238.134839 155.588717 
L 241.472742 159.249559 
L 244.810645 154.070947 
L 248.148548 156.369081 
L 251.486452 137.376182 
L 254.824355 142.271477 
L 258.162258 161.059891 
L 261.500161 145.251496 
L 264.838065 185.517694 
L 268.175968 163.282734 
L 271.513871 139.755722 
L 274.851774 171.438809 
L 278.189677 152.190738 
L 281.527581 151.157295 
L 284.865484 142.294685 
L 288.203387 164.214988 
L 291.54129 172.981558 
L 294.879194 170.809726 
L 298.217097 128.241818 
L 301.555 149.227985 
L 304.892903 158.355105 
L 308.230806 165.352528 
L 311.56871 158.022566 
L 314.906613 159.956064 
L 318.244516 178.06562 
L 321.582419 168.199034 
L 324.920323 133.956749 
L 328.258226 178.06562 
L 331.596129 181.260172 
L 334.934032 212.265233 
L 338.271935 177.341787 
L 341.609839 174.537723 
L 344.947742 153.634644 
L 348.285645 199.825403 
L 351.623548 187.156526 
L 354.961452 176.042699 
L 358.299355 171.260799 
L 361.637258 142.808245 
L 364.975161 214.365818 
L 368.313065 173.570239 
L 371.650968 178.967862 
L 374.988871 137.590421 
L 378.326774 177.015469 
L 381.664677 139.041066 
L 385.002581 148.171339 
L 388.340484 171.738788 
L 391.678387 106.319345 
L 395.01629 159.559636 
L 398.354194 117.056883 
L 401.692097 208.652432 
L 405.03 201.930802 
L 408.367903 112.582909 
L 411.705806 217.721299 
L 415.04371 230.626993 
L 418.381613 167.389091 
L 421.719516 167.389091 
L 425.057419 172.981558 
L 428.395323 150.611688 
L 431.733226 167.389091 
L 435.071129 128.241818 
L 438.409032 63.763957 
L 441.746935 167.389091 
L 445.084839 150.611688 
L 448.422742 83.502078 
L 451.760645 150.611688 
L 455.098548 156.712562 
L 458.436452 190.877455 
L 461.774355 23.849091 
L 465.112258 128.241818 
L 468.450161 49.947273 
L 471.788065 284.830909 
L 475.125968 217.721299 
L 478.463871 206.536364 
L 481.801774 206.536364 
L 485.139677 96.924 
L 488.477581 190.877455 
L 491.815484 284.830909 
L 495.153387 167.389091 
L 498.49129 284.830909 
L 501.829194 167.389091 
L 505.167097 167.389091 
L 508.505 284.830909 
" clip-path="url(#p6ef134a38d)" style="fill: none; stroke-dasharray: 19.2,4.8,3,4.8; stroke-dashoffset: 0; stroke: #2ca02c; stroke-width: 3"/>
    <defs>
     <path id="m2e139a0c3e" d="M -0 6 
L 6 -6 
L -6 -6 
z
" style="stroke: #2ca02c; stroke-linejoin: miter"/>
    </defs>
    <g clip-path="url(#p6ef134a38d)">
     <use xlink:href="#m2e139a0c3e" x="94.605" y="262.28208" style="fill: #2ca02c; stroke: #2ca02c; stroke-linejoin: miter"/>
     <use xlink:href="#m2e139a0c3e" x="261.500161" y="145.251496" style="fill: #2ca02c; stroke: #2ca02c; stroke-linejoin: miter"/>
     <use xlink:href="#m2e139a0c3e" x="428.395323" y="150.611688" style="fill: #2ca02c; stroke: #2ca02c; stroke-linejoin: miter"/>
    </g>
   </g>
   <g id="line2d_17">
    <path d="M 94.605 248.658829 
L 97.942903 155.175142 
L 101.280806 164.10072 
L 104.61871 173.965833 
L 107.956613 177.254204 
L 111.294516 177.616757 
L 114.632419 191.15988 
L 117.970323 185.111699 
L 121.308226 190.211792 
L 124.646129 190.781486 
L 127.984032 191.84108 
L 131.321935 194.097043 
L 134.659839 196.657698 
L 137.997742 198.255998 
L 141.335645 186.219425 
L 144.673548 188.571233 
L 148.011452 193.515457 
L 151.349355 196.011523 
L 154.687258 196.587333 
L 158.025161 202.949686 
L 161.363065 205.740148 
L 164.700968 199.564932 
L 168.038871 197.796926 
L 171.376774 201.963084 
L 174.714677 198.965429 
L 178.052581 206.443045 
L 181.390484 204.834308 
L 184.728387 209.175506 
L 188.06629 200.128626 
L 191.404194 209.887492 
L 194.742097 201.054711 
L 198.08 188.85695 
L 201.417903 210.826476 
L 204.755806 210.554253 
L 208.09371 205.311271 
L 211.431613 199.792746 
L 214.769516 203.498068 
L 218.107419 199.483878 
L 221.445323 212.277149 
L 224.783226 199.825403 
L 228.121129 210.977707 
L 231.459032 215.407174 
L 234.796935 199.130123 
L 238.134839 209.11452 
L 241.472742 202.808052 
L 244.810645 220.7334 
L 248.148548 211.210665 
L 251.486452 205.78785 
L 254.824355 209.779333 
L 258.162258 212.705025 
L 261.500161 212.33596 
L 264.838065 231.287543 
L 268.175968 214.777895 
L 271.513871 213.685754 
L 274.851774 207.083878 
L 278.189677 204.654283 
L 281.527581 226.547128 
L 284.865484 209.906002 
L 288.203387 206.742946 
L 291.54129 220.599995 
L 294.879194 223.839026 
L 298.217097 218.494897 
L 301.555 227.847305 
L 304.892903 220.381131 
L 308.230806 235.617195 
L 311.56871 220.563074 
L 314.906613 210.239484 
L 318.244516 227.341907 
L 321.582419 229.858143 
L 324.920323 229.154788 
L 328.258226 217.461184 
L 331.596129 229.898446 
L 334.934032 234.150622 
L 338.271935 239.048505 
L 341.609839 255.730282 
L 344.947742 239.784732 
L 348.285645 238.07682 
L 351.623548 252.433166 
L 354.961452 231.831524 
L 358.299355 217.721299 
L 361.637258 251.090718 
L 364.975161 241.880758 
L 368.313065 233.58357 
L 371.650968 216.0115 
L 374.988871 247.986417 
L 378.326774 217.721299 
L 381.664677 242.762198 
L 385.002581 218.769886 
L 388.340484 247.84136 
L 391.678387 242.819202 
L 395.01629 225.616547 
L 398.354194 235.811715 
L 401.692097 230.304351 
L 405.03 244.945009 
L 408.367903 234.169733 
L 411.705806 240.790227 
L 415.04371 229.858143 
L 418.381613 237.326353 
L 421.719516 232.634545 
L 425.057419 232.634545 
L 428.395323 225.366697 
L 431.733226 227.697052 
L 435.071129 217.721299 
L 438.409032 241.467776 
L 441.746935 238.624292 
L 445.084839 235.381722 
L 448.422742 267.432121 
L 451.760645 229.564171 
L 455.098548 256.644873 
L 458.436452 236.895473 
L 461.774355 265.257273 
L 465.112258 234.855667 
L 468.450161 263.952364 
L 471.788065 249.598364 
L 475.125968 224.604336 
L 478.463871 215.747487 
L 481.801774 229.564171 
L 485.139677 209.061994 
L 488.477581 237.854182 
L 491.815484 215.235758 
L 495.153387 266.762937 
L 498.49129 194.491049 
L 501.829194 226.11 
L 505.167097 264.406245 
L 508.505 243.981581 
" clip-path="url(#p6ef134a38d)" style="fill: none; stroke-dasharray: 3,4.95; stroke-dashoffset: 0; stroke: #d62728; stroke-width: 3"/>
    <defs>
     <path id="m5db433dc9a" d="M -6 6 
L 6 -6 
M -6 -6 
L 6 6 
" style="stroke: #d62728"/>
    </defs>
    <g clip-path="url(#p6ef134a38d)">
     <use xlink:href="#m5db433dc9a" x="94.605" y="248.658829" style="fill: #d62728; stroke: #d62728"/>
     <use xlink:href="#m5db433dc9a" x="261.500161" y="212.33596" style="fill: #d62728; stroke: #d62728"/>
     <use xlink:href="#m5db433dc9a" x="428.395323" y="225.366697" style="fill: #d62728; stroke: #d62728"/>
    </g>
   </g>
   <g id="line2d_18">
    <path d="M 94.605 279.193702 
L 97.942903 275.435564 
L 101.280806 275.905331 
L 104.61871 276.375098 
L 107.956613 272.147193 
L 111.294516 277.7844 
L 114.632419 275.905331 
L 117.970323 279.663469 
L 121.308226 277.29957 
L 124.646129 277.292016 
L 127.984032 275.860479 
L 131.321935 280.10963 
L 134.659839 276.306906 
L 137.997742 274.391636 
L 141.335645 277.677093 
L 144.673548 276.715011 
L 148.011452 275.273081 
L 151.349355 280.022646 
L 154.687258 277.121908 
L 158.025161 274.15438 
L 161.363065 279.45935 
L 164.700968 275.49453 
L 168.038871 272.468612 
L 171.376774 278.86561 
L 174.714677 274.793147 
L 178.052581 273.250365 
L 181.390484 277.254018 
L 184.728387 275.129194 
L 188.06629 275.579475 
L 191.404194 275.487472 
L 194.742097 275.404141 
L 198.08 276.895651 
L 201.417903 277.348836 
L 204.755806 273.452463 
L 208.09371 278.260737 
L 211.431613 275.435564 
L 214.769516 274.217855 
L 218.107419 274.051225 
L 221.445323 272.258062 
L 224.783226 276.711475 
L 228.121129 274.287504 
L 231.459032 270.559498 
L 234.796935 273.934246 
L 238.134839 271.232383 
L 241.472742 269.63628 
L 244.810645 275.111586 
L 248.148548 278.269914 
L 251.486452 273.487097 
L 254.824355 271.914009 
L 258.162258 277.242891 
L 261.500161 273.578998 
L 264.838065 276.091053 
L 268.175968 273.610353 
L 271.513871 274.119603 
L 274.851774 275.372508 
L 278.189677 276.759306 
L 281.527581 275.765225 
L 284.865484 276.351355 
L 288.203387 276.115375 
L 291.54129 275.831536 
L 294.879194 272.73789 
L 298.217097 266.503233 
L 301.555 274.941072 
L 304.892903 276.817821 
L 308.230806 273.498804 
L 311.56871 275.329998 
L 314.906613 273.829334 
L 318.244516 275.753281 
L 321.582419 267.30228 
L 324.920323 272.84705 
L 328.258226 272.629162 
L 331.596129 273.496042 
L 334.934032 274.303911 
L 338.271935 272.468612 
L 341.609839 272.210296 
L 344.947742 274.586763 
L 348.285645 272.549412 
L 351.623548 259.438084 
L 354.961452 278.28363 
L 358.299355 276.289686 
L 361.637258 263.874748 
L 364.975161 275.691468 
L 368.313065 273.231717 
L 371.650968 272.785594 
L 374.988871 276.589378 
L 378.326774 274.15438 
L 381.664677 278.119948 
L 385.002581 264.105882 
L 388.340484 263.149343 
L 391.678387 269.758162 
L 395.01629 279.611273 
L 398.354194 271.33185 
L 401.692097 258.892839 
L 405.03 269.677126 
L 408.367903 269.275701 
L 411.705806 265.525405 
L 415.04371 274.692047 
L 418.381613 274.15438 
L 421.719516 270.150682 
L 425.057419 280.916182 
L 428.395323 268.906595 
L 431.733226 268.347847 
L 435.071129 280.598771 
L 438.409032 262.879167 
L 441.746935 261.803102 
L 445.084839 270.595537 
L 448.422742 275.044091 
L 451.760645 274.835861 
L 455.098548 274.15438 
L 458.436452 284.830909 
L 461.774355 266.528288 
L 465.112258 272.303782 
L 468.450161 284.830909 
L 471.788065 271.408987 
L 475.125968 277.490795 
L 478.463871 277.001455 
L 481.801774 251.864785 
L 485.139677 268.347847 
L 488.477581 284.830909 
L 491.815484 275.967376 
L 495.153387 256.069647 
L 498.49129 264.840812 
L 501.829194 274.15438 
L 505.167097 263.477851 
L 508.505 274.15438 
" clip-path="url(#p6ef134a38d)" style="fill: none; stroke: #9467bd; stroke-width: 3; stroke-linecap: square"/>
    <defs>
     <path id="mcc8c50537f" d="M -6 6 
L 6 6 
L 6 -6 
L -6 -6 
z
" style="stroke: #9467bd; stroke-linejoin: miter"/>
    </defs>
    <g clip-path="url(#p6ef134a38d)">
     <use xlink:href="#mcc8c50537f" x="94.605" y="279.193702" style="fill: #9467bd; stroke: #9467bd; stroke-linejoin: miter"/>
     <use xlink:href="#mcc8c50537f" x="261.500161" y="273.578998" style="fill: #9467bd; stroke: #9467bd; stroke-linejoin: miter"/>
     <use xlink:href="#mcc8c50537f" x="428.395323" y="268.906595" style="fill: #9467bd; stroke: #9467bd; stroke-linejoin: miter"/>
    </g>
   </g>
   <g id="patch_3">
    <path d="M 73.91 297.88 
L 73.91 10.8 
" style="fill: none; stroke: #000000; stroke-width: 0.8; stroke-linejoin: miter; stroke-linecap: square"/>
   </g>
   <g id="patch_4">
    <path d="M 529.2 297.88 
L 529.2 10.8 
" style="fill: none; stroke: #000000; stroke-width: 0.8; stroke-linejoin: miter; stroke-linecap: square"/>
   </g>
   <g id="patch_5">
    <path d="M 73.91 297.88 
L 529.2 297.88 
" style="fill: none; stroke: #000000; stroke-width: 0.8; stroke-linejoin: miter; stroke-linecap: square"/>
   </g>
   <g id="patch_6">
    <path d="M 73.91 10.8 
L 529.2 10.8 
" style="fill: none; stroke: #000000; stroke-width: 0.8; stroke-linejoin: miter; stroke-linecap: square"/>
   </g>
   <g id="legend_1">
    <g id="patch_7">
     <path d="M 84.41 132.885938 
L 278.763125 132.885938 
Q 281.763125 132.885938 281.763125 129.885938 
L 281.763125 21.3 
Q 281.763125 18.3 278.763125 18.3 
L 84.41 18.3 
Q 81.41 18.3 81.41 21.3 
L 81.41 129.885938 
Q 81.41 132.885938 84.41 132.885938 
z
" style="fill: #ffffff; opacity: 0.8; stroke: #cccccc; stroke-linejoin: miter"/>
    </g>
    <g id="line2d_19">
     <path d="M 87.41 30.447656 
L 102.41 30.447656 
L 117.41 30.447656 
" style="fill: none; stroke: #1f77b4; stroke-width: 3; stroke-linecap: square"/>
     <g>
      <use xlink:href="#mde026acde3" x="102.41" y="30.447656" style="fill: #1f77b4; stroke: #1f77b4; stroke-linejoin: miter"/>
     </g>
    </g>
    <g id="text_16">
     <!-- DD-Random -->
     <g transform="translate(129.41 35.697656)scale(0.15 -0.15)">
      <defs>
       <path id="DejaVuSans-44" d="M 1259 4147 
L 1259 519 
L 2022 519 
Q 2988 519 3436 956 
Q 3884 1394 3884 2338 
Q 3884 3275 3436 3711 
Q 2988 4147 2022 4147 
L 1259 4147 
z
M 628 4666 
L 1925 4666 
Q 3281 4666 3915 4102 
Q 4550 3538 4550 2338 
Q 4550 1131 3912 565 
Q 3275 0 1925 0 
L 628 0 
L 628 4666 
z
" transform="scale(0.015625)"/>
       <path id="DejaVuSans-2d" d="M 313 2009 
L 1997 2009 
L 1997 1497 
L 313 1497 
L 313 2009 
z
" transform="scale(0.015625)"/>
       <path id="DejaVuSans-52" d="M 2841 2188 
Q 3044 2119 3236 1894 
Q 3428 1669 3622 1275 
L 4263 0 
L 3584 0 
L 2988 1197 
Q 2756 1666 2539 1819 
Q 2322 1972 1947 1972 
L 1259 1972 
L 1259 0 
L 628 0 
L 628 4666 
L 2053 4666 
Q 2853 4666 3247 4331 
Q 3641 3997 3641 3322 
Q 3641 2881 3436 2590 
Q 3231 2300 2841 2188 
z
M 1259 4147 
L 1259 2491 
L 2053 2491 
Q 2509 2491 2742 2702 
Q 2975 2913 2975 3322 
Q 2975 3731 2742 3939 
Q 2509 4147 2053 4147 
L 1259 4147 
z
" transform="scale(0.015625)"/>
       <path id="DejaVuSans-64" d="M 2906 2969 
L 2906 4863 
L 3481 4863 
L 3481 0 
L 2906 0 
L 2906 525 
Q 2725 213 2448 61 
Q 2172 -91 1784 -91 
Q 1150 -91 751 415 
Q 353 922 353 1747 
Q 353 2572 751 3078 
Q 1150 3584 1784 3584 
Q 2172 3584 2448 3432 
Q 2725 3281 2906 2969 
z
M 947 1747 
Q 947 1113 1208 752 
Q 1469 391 1925 391 
Q 2381 391 2643 752 
Q 2906 1113 2906 1747 
Q 2906 2381 2643 2742 
Q 2381 3103 1925 3103 
Q 1469 3103 1208 2742 
Q 947 2381 947 1747 
z
" transform="scale(0.015625)"/>
      </defs>
      <use xlink:href="#DejaVuSans-44"/>
      <use xlink:href="#DejaVuSans-44" x="77.001953"/>
      <use xlink:href="#DejaVuSans-2d" x="154.003906"/>
      <use xlink:href="#DejaVuSans-52" x="190.087891"/>
      <use xlink:href="#DejaVuSans-61" x="257.320312"/>
      <use xlink:href="#DejaVuSans-6e" x="318.599609"/>
      <use xlink:href="#DejaVuSans-64" x="381.978516"/>
      <use xlink:href="#DejaVuSans-6f" x="445.455078"/>
      <use xlink:href="#DejaVuSans-6d" x="506.636719"/>
     </g>
    </g>
    <g id="line2d_20">
     <path d="M 87.41 52.464844 
L 102.41 52.464844 
L 117.41 52.464844 
" style="fill: none; stroke-dasharray: 11.1,4.8; stroke-dashoffset: 0; stroke: #ff7f0e; stroke-width: 3"/>
     <g>
      <use xlink:href="#m45e0dc2341" x="102.41" y="52.464844" style="fill: #ff7f0e; stroke: #ff7f0e; stroke-linejoin: miter"/>
     </g>
    </g>
    <g id="text_17">
     <!-- DD-HG-IPI -->
     <g transform="translate(129.41 57.714844)scale(0.15 -0.15)">
      <defs>
       <path id="DejaVuSans-47" d="M 3809 666 
L 3809 1919 
L 2778 1919 
L 2778 2438 
L 4434 2438 
L 4434 434 
Q 4069 175 3628 42 
Q 3188 -91 2688 -91 
Q 1594 -91 976 548 
Q 359 1188 359 2328 
Q 359 3472 976 4111 
Q 1594 4750 2688 4750 
Q 3144 4750 3555 4637 
Q 3966 4525 4313 4306 
L 4313 3634 
Q 3963 3931 3569 4081 
Q 3175 4231 2741 4231 
Q 1884 4231 1454 3753 
Q 1025 3275 1025 2328 
Q 1025 1384 1454 906 
Q 1884 428 2741 428 
Q 3075 428 3337 486 
Q 3600 544 3809 666 
z
" transform="scale(0.015625)"/>
       <path id="DejaVuSans-49" d="M 628 4666 
L 1259 4666 
L 1259 0 
L 628 0 
L 628 4666 
z
" transform="scale(0.015625)"/>
       <path id="DejaVuSans-50" d="M 1259 4147 
L 1259 2394 
L 2053 2394 
Q 2494 2394 2734 2622 
Q 2975 2850 2975 3272 
Q 2975 3691 2734 3919 
Q 2494 4147 2053 4147 
L 1259 4147 
z
M 628 4666 
L 2053 4666 
Q 2838 4666 3239 4311 
Q 3641 3956 3641 3272 
Q 3641 2581 3239 2228 
Q 2838 1875 2053 1875 
L 1259 1875 
L 1259 0 
L 628 0 
L 628 4666 
z
" transform="scale(0.015625)"/>
      </defs>
      <use xlink:href="#DejaVuSans-44"/>
      <use xlink:href="#DejaVuSans-44" x="77.001953"/>
      <use xlink:href="#DejaVuSans-2d" x="154.003906"/>
      <use xlink:href="#DejaVuSans-48" x="190.087891"/>
      <use xlink:href="#DejaVuSans-47" x="265.283203"/>
      <use xlink:href="#DejaVuSans-2d" x="342.773438"/>
      <use xlink:href="#DejaVuSans-49" x="378.857422"/>
      <use xlink:href="#DejaVuSans-50" x="408.349609"/>
      <use xlink:href="#DejaVuSans-49" x="468.652344"/>
     </g>
    </g>
    <g id="line2d_21">
     <path d="M 87.41 74.482031 
L 102.41 74.482031 
L 117.41 74.482031 
" style="fill: none; stroke-dasharray: 19.2,4.8,3,4.8; stroke-dashoffset: 0; stroke: #2ca02c; stroke-width: 3"/>
     <g>
      <use xlink:href="#m2e139a0c3e" x="102.41" y="74.482031" style="fill: #2ca02c; stroke: #2ca02c; stroke-linejoin: miter"/>
     </g>
    </g>
    <g id="text_18">
     <!-- DD-TG-PI -->
     <g transform="translate(129.41 79.732031)scale(0.15 -0.15)">
      <defs>
       <path id="DejaVuSans-54" d="M -19 4666 
L 3928 4666 
L 3928 4134 
L 2272 4134 
L 2272 0 
L 1638 0 
L 1638 4134 
L -19 4134 
L -19 4666 
z
" transform="scale(0.015625)"/>
      </defs>
      <use xlink:href="#DejaVuSans-44"/>
      <use xlink:href="#DejaVuSans-44" x="77.001953"/>
      <use xlink:href="#DejaVuSans-2d" x="154.003906"/>
      <use xlink:href="#DejaVuSans-54" x="180.962891"/>
      <use xlink:href="#DejaVuSans-47" x="242.046875"/>
      <use xlink:href="#DejaVuSans-2d" x="319.537109"/>
      <use xlink:href="#DejaVuSans-50" x="355.621094"/>
      <use xlink:href="#DejaVuSans-49" x="415.923828"/>
     </g>
    </g>
    <g id="line2d_22">
     <path d="M 87.41 96.499219 
L 102.41 96.499219 
L 117.41 96.499219 
" style="fill: none; stroke-dasharray: 3,4.95; stroke-dashoffset: 0; stroke: #d62728; stroke-width: 3"/>
     <g>
      <use xlink:href="#m5db433dc9a" x="102.41" y="96.499219" style="fill: #d62728; stroke: #d62728"/>
     </g>
    </g>
    <g id="text_19">
     <!-- DD-CGD3QN-TG-PI -->
     <g transform="translate(129.41 101.749219)scale(0.15 -0.15)">
      <defs>
       <path id="DejaVuSans-43" d="M 4122 4306 
L 4122 3641 
Q 3803 3938 3442 4084 
Q 3081 4231 2675 4231 
Q 1875 4231 1450 3742 
Q 1025 3253 1025 2328 
Q 1025 1406 1450 917 
Q 1875 428 2675 428 
Q 3081 428 3442 575 
Q 3803 722 4122 1019 
L 4122 359 
Q 3791 134 3420 21 
Q 3050 -91 2638 -91 
Q 1578 -91 968 557 
Q 359 1206 359 2328 
Q 359 3453 968 4101 
Q 1578 4750 2638 4750 
Q 3056 4750 3426 4639 
Q 3797 4528 4122 4306 
z
" transform="scale(0.015625)"/>
       <path id="DejaVuSans-51" d="M 2522 4238 
Q 1834 4238 1429 3725 
Q 1025 3213 1025 2328 
Q 1025 1447 1429 934 
Q 1834 422 2522 422 
Q 3209 422 3611 934 
Q 4013 1447 4013 2328 
Q 4013 3213 3611 3725 
Q 3209 4238 2522 4238 
z
M 3406 84 
L 4238 -825 
L 3475 -825 
L 2784 -78 
Q 2681 -84 2626 -87 
Q 2572 -91 2522 -91 
Q 1538 -91 948 567 
Q 359 1225 359 2328 
Q 359 3434 948 4092 
Q 1538 4750 2522 4750 
Q 3503 4750 4090 4092 
Q 4678 3434 4678 2328 
Q 4678 1516 4351 937 
Q 4025 359 3406 84 
z
" transform="scale(0.015625)"/>
      </defs>
      <use xlink:href="#DejaVuSans-44"/>
      <use xlink:href="#DejaVuSans-44" x="77.001953"/>
      <use xlink:href="#DejaVuSans-2d" x="154.003906"/>
      <use xlink:href="#DejaVuSans-43" x="190.087891"/>
      <use xlink:href="#DejaVuSans-47" x="259.912109"/>
      <use xlink:href="#DejaVuSans-44" x="337.402344"/>
      <use xlink:href="#DejaVuSans-33" x="414.404297"/>
      <use xlink:href="#DejaVuSans-51" x="478.027344"/>
      <use xlink:href="#DejaVuSans-4e" x="556.738281"/>
      <use xlink:href="#DejaVuSans-2d" x="631.542969"/>
      <use xlink:href="#DejaVuSans-54" x="658.501953"/>
      <use xlink:href="#DejaVuSans-47" x="719.585938"/>
      <use xlink:href="#DejaVuSans-2d" x="797.076172"/>
      <use xlink:href="#DejaVuSans-50" x="833.160156"/>
      <use xlink:href="#DejaVuSans-49" x="893.462891"/>
     </g>
    </g>
    <g id="line2d_23">
     <path d="M 87.41 118.516406 
L 102.41 118.516406 
L 117.41 118.516406 
" style="fill: none; stroke: #9467bd; stroke-width: 3; stroke-linecap: square"/>
     <g>
      <use xlink:href="#mcc8c50537f" x="102.41" y="118.516406" style="fill: #9467bd; stroke: #9467bd; stroke-linejoin: miter"/>
     </g>
    </g>
    <g id="text_20">
     <!-- DD-CGD3QN-HG-IPI -->
     <g transform="translate(129.41 123.766406)scale(0.15 -0.15)">
      <use xlink:href="#DejaVuSans-44"/>
      <use xlink:href="#DejaVuSans-44" x="77.001953"/>
      <use xlink:href="#DejaVuSans-2d" x="154.003906"/>
      <use xlink:href="#DejaVuSans-43" x="190.087891"/>
      <use xlink:href="#DejaVuSans-47" x="259.912109"/>
      <use xlink:href="#DejaVuSans-44" x="337.402344"/>
      <use xlink:href="#DejaVuSans-33" x="414.404297"/>
      <use xlink:href="#DejaVuSans-51" x="478.027344"/>
      <use xlink:href="#DejaVuSans-4e" x="556.738281"/>
      <use xlink:href="#DejaVuSans-2d" x="631.542969"/>
      <use xlink:href="#DejaVuSans-48" x="667.626953"/>
      <use xlink:href="#DejaVuSans-47" x="742.822266"/>
      <use xlink:href="#DejaVuSans-2d" x="820.3125"/>
      <use xlink:href="#DejaVuSans-49" x="856.396484"/>
      <use xlink:href="#DejaVuSans-50" x="885.888672"/>
      <use xlink:href="#DejaVuSans-49" x="946.191406"/>
     </g>
    </g>
   </g>
  </g>
 </g>
 <defs>
  <clipPath id="p6ef134a38d">
   <rect x="73.91" y="10.8" width="455.29" height="287.08"/>
  </clipPath>
 </defs>
</svg>
